<?xml version="1.0" encoding="UTF-8" standalone="no"?>
<!DOCTYPE svg PUBLIC "-//W3C//DTD SVG 1.1//EN" "http://www.w3.org/Graphics/SVG/1.1/DTD/svg11.dtd">
<svg xmlns="http://www.w3.org/2000/svg">
<metadata>
Created by FontPrep 20130207 at Mon Jul 21 18:35:59 2014
 By Adam Johnson
Copyright (c) 2008 by NORM, Dimitri Bruni + Manuel Krebs. All rights reserved.
</metadata>
<defs>
<font id="ba629a1c883366a436358d5627a30741" horiz-adv-x="1024">
  <font-face font-family="ReplicaPro-Bold" font-weight="400" font-variant="small-caps" font-stretch="normal" units-per-em="2048" panose-1="2 0 5 3 3 0 0 2 0 4" ascent="1597" descent="-451" x-height="1024" cap-height="1434" bbox="-102 -451 3195 1843" underline-thickness="40" underline-position="-266" unicode-range="U+000D-FB04"/>
<missing-glyph horiz-adv-x="1351" d="M225 1352v-1270l21 -21h860l20 21v1270l-20 20h-860zM1188 20l-21 -20h-983l-20 20v1393l20 21h983l21 -21v-1393z"/>
    <glyph glyph-name="f_i" unicode="fi" horiz-adv-x="1351" d="M246 1126q0 158 98 233t250 75h164l20 -21v-205l-20 -20h-164q-61 0 -62 -62v-82l21 -20h655l21 -20v-984l-21 -20h-245l-21 20v738l-20 20h-369l-21 -20v-738l-20 -20h-246l-20 20v738l-21 20h-143l-21 21v205l21 20h143l21 20v82zM1229 1208l-21 -20h-245l-21 20v205 l21 21h245l21 -21v-205z"/>
    <glyph glyph-name="f_l" unicode="fl" horiz-adv-x="1351" d="M246 1126q0 158 98 233t250 75h164l20 -21v-205l-20 -20h-164q-61 0 -62 -62v-82l21 -20h369l20 20v369l21 21h245l21 -21v-1393l-21 -20h-245l-21 20v738l-20 20h-369l-21 -20v-738l-20 -20h-246l-20 20v738l-21 20h-143l-21 21v205l21 20h143l21 20v82z"/>
    <glyph glyph-name="f_f" unicode="ff" horiz-adv-x="1515" d="M594 1188q-61 0 -62 -62v-82l21 -20h369l20 20v82q0 158 98 233t250 75h164l21 -21v-205l-21 -20h-164q-61 0 -61 -62v-82l20 -20h185l20 -20v-205l-20 -21h-185l-20 -20v-738l-21 -20h-245l-21 20v738l-20 20h-369l-21 -20v-738l-20 -20h-246l-20 20v738l-21 20h-143 l-21 21v205l21 20h143l21 20v82q0 158 98 233t250 75h164l20 -21v-205l-20 -20h-164z"/>
    <glyph glyph-name="f_f_i" unicode="ffi" horiz-adv-x="2048" d="M1925 1208l-20 -20h-246l-21 20v205l21 21h246l20 -21v-205zM594 1188q-61 0 -62 -62v-82l21 -20h369l20 20v82q0 158 98 233t250 75h164l21 -21v-205l-21 -20h-164q-61 0 -61 -62v-82l20 -20h656l20 -20v-984l-20 -20h-246l-21 20v738l-20 20h-369l-20 -20v-738l-21 -20 h-245l-21 20v738l-20 20h-369l-21 -20v-738l-20 -20h-246l-20 20v738l-21 20h-143l-21 21v205l21 20h143l21 20v82q0 158 98 233t250 75h164l20 -21v-205l-20 -20h-164z"/>
    <glyph glyph-name="f_f_l" unicode="ffl" horiz-adv-x="2048" d="M594 1188q-61 0 -62 -62v-82l21 -20h369l20 20v82q0 158 98 233t250 75h164l21 -21v-205l-21 -20h-164q-61 0 -61 -62v-82l20 -20h369l20 20v369l21 21h246l20 -21v-1393l-20 -20h-246l-21 20v738l-20 20h-369l-20 -20v-738l-21 -20h-245l-21 20v738l-20 20h-369l-21 -20 v-738l-20 -20h-246l-20 20v738l-21 20h-143l-21 21v205l21 20h143l21 20v82q0 158 98 233t250 75h164l20 -21v-205l-20 -20h-164z"/>
    <glyph glyph-name=".notdef" horiz-adv-x="1351" d="M225 1352v-1270l21 -21h860l20 21v1270l-20 20h-860zM1188 20l-21 -20h-983l-20 20v1393l20 21h983l21 -21v-1393z"/>
    <glyph glyph-name=".null" horiz-adv-x="0"/>
    <glyph glyph-name=".null" horiz-adv-x="0"/>
    <glyph glyph-name="nonmarkingreturn" horiz-adv-x="681"/>
    <glyph glyph-name="CR" unicode="" horiz-adv-x="0"/>
    <glyph glyph-name="space" unicode=" " horiz-adv-x="532"/>
    <glyph glyph-name="exclam" unicode="!" horiz-adv-x="819" d="M573 20l-20 -20h-287l-20 20v267l20 20h287l20 -20v-267zM553 963l-41 -471l-20 -21h-164l-21 21l-41 471v450l21 21h245l21 -21v-450z"/>
    <glyph glyph-name="quotedbl" unicode="&quot;" horiz-adv-x="1105" d="M451 819l-21 -20h-246l-20 20v594l20 21h246l21 -21v-594zM942 819l-20 -20h-246l-21 20v594l21 21h246l20 -21v-594z"/>
    <glyph glyph-name="numbersign" unicode="#" horiz-adv-x="1331" d="M573 799l-41 -164l21 -21h184l21 21l41 164l-21 20h-184zM1167 430l-20 -20h-184l-21 -21l-102 -369l-21 -20h-143l-21 20v205l41 164l-20 21h-184l-21 -21l-102 -369l-21 -20h-143l-21 20v205l41 164l-20 21h-123l-21 20v164l21 20h184l21 21l41 164l-21 20h-123l-20 21 v164l20 20h185l20 20l103 369l20 21h143l21 -21v-205l-41 -164l20 -20h185l20 20l103 369l20 21h143l21 -21v-205l-41 -164l20 -20h123l21 -20v-164l-21 -21h-184l-21 -20l-40 -164l20 -21h123l20 -20v-164z"/>
    <glyph glyph-name="dollar" unicode="$" horiz-adv-x="1351" d="M389 1065q0 -123 164 -164l20 21v266l-20 20q-57 0 -111 -36t-53 -107zM983 416q0 80 -48 120t-136 58l-21 -21v-327l21 -21q82 15 133 63t51 128zM1270 410q0 -164 -119 -283t-352 -147l-21 -21v-123l-20 -20h-164l-21 20v123l-20 21q-225 30 -348 156t-123 315l20 20 h246l21 -20q0 -195 184 -226l20 21v368l-20 21q-221 51 -336 147t-115 276t132 279q132 100 319 117l20 21v122l21 21h164l20 -21v-122l21 -21q190 -34 300 -142t109 -288l-20 -20h-246l-20 20q0 74 -30 111t-93 53l-21 -21v-286l21 -21q471 -94 471 -450z"/>
    <glyph glyph-name="percent" unicode="%" horiz-adv-x="1925" d="M1372 369q0 -164 102 -164t103 164q0 164 -102 163q-103 1 -103 -163zM1475 -20q-178 0 -274 106q-95 106 -95 282t95 283t273 107t274 -106q95 -106 95 -283t-95 -283t-273 -106zM1434 1208l-779 -1188l-20 -20h-123l-20 20v205l778 1188l20 21h123l21 -21v-205z M348 1065q0 -164 102 -164t103 164q-1 164 -103 164t-102 -164zM451 676q-178 0 -274 106q-95 106 -95 282t95 284q95 106 273 106t274 -106q95 -106 95 -282t-95 -284q-95 -106 -273 -106z"/>
    <glyph glyph-name="ampersand" unicode="&amp;" horiz-adv-x="1556" d="M942 307v21l-307 307h-21q-90 -45 -127 -96t-37 -130t61 -131q60 -52 165 -53q184 0 266 82zM819 1106q0 102 -123 102t-123 -102q0 -41 24 -75t79 -89h20q41 27 62 43q20 16 41 49q20 33 20 72zM687 -20q-259 0 -391 124t-132 298t74 266t192 151v21q-123 124 -123 270 q-1 146 103 245t296 99t286 -101q93 -101 93 -227q0 -211 -204 -348v-20l225 -226h20q29 56 35 108t6 159l21 20h225l21 -20q0 -119 -3 -178t-27 -143t-73 -150v-21l82 -82v-205l-20 -20h-103l-41 20l-102 103h-21q-180 -143 -439 -143z"/>
    <glyph glyph-name="quotesingle" unicode="'" horiz-adv-x="614" d="M451 819l-21 -20h-246l-20 20v594l20 21h246l21 -21v-594z"/>
    <glyph glyph-name="parenleft" unicode="(" horiz-adv-x="921" d="M164 512q0 123 1 184q1 62 23 142t40 116q17 36 87 122q70 88 126 144t194 193l41 21h61l21 -21v-205q-88 -88 -124 -125t-82 -96t-57 -89t-27 -96t-16 -123q-1 -58 -1 -167t1 -167t16 -124q14 -65 26 -95t58 -89t82 -96t124 -125v-205l-21 -21h-61l-41 21 q-137 137 -194 193q-56 56 -126 144t-87 123t-40 115q-24 80 -24 142v184z"/>
    <glyph glyph-name="parenright" unicode=")" horiz-adv-x="921" d="M758 496q0 -108 -1 -168q-1 -62 -24 -142t-40 -116t-87 -122q-70 -88 -126 -144l-193 -193l-41 -21h-62l-20 21v205q88 88 124 125t82 96t57 89t27 96t16 123q1 58 1 167t-1 167t-16 124q-14 65 -26 95t-58 89t-82 96t-124 125v205l20 21h62l41 -21l151 -151 q45 -45 111 -118t86 -101t54 -87t40 -89q6 -29 17 -95q12 -66 12 -117v-159z"/>
    <glyph glyph-name="asterisk" unicode="*" horiz-adv-x="1208" d="M573 901h-20l-225 -225h-21l-20 20v21l225 225v21h-328l-20 20v21l20 20h328v20l-225 226v20l20 21h21l225 -226h20v328l21 21h20l21 -21v-328h20l226 226h20l21 -21v-20l-226 -226v-20h328l20 -20v-21l-20 -20h-328v-21l226 -225v-21l-21 -20h-20l-226 225h-20v-328 l-21 -20h-20l-21 20v328z"/>
    <glyph glyph-name="plus" unicode="+" horiz-adv-x="1269" d="M1147 410l-21 -21h-348l-20 -20v-349l-21 -20h-205l-20 20v349l-20 20h-349l-20 21v204l20 21h349l20 20v349l20 20h205l21 -20v-349l20 -20h348l21 -21v-204z"/>
    <glyph glyph-name="comma" unicode="," horiz-adv-x="655" d="M143 -287v41l123 205v21l-20 20h-62l-20 20v267l20 20h287l21 -20v-287l-21 -61l-164 -205l-41 -21h-123z"/>
    <glyph glyph-name="hyphen" unicode="-" horiz-adv-x="880" d="M758 430l-21 -20h-594l-20 20v205l20 20h594l21 -20v-205z"/>
    <glyph glyph-name="period" unicode="." horiz-adv-x="655" d="M492 20l-21 -20h-287l-20 20v267l20 20h287l21 -20v-267z"/>
    <glyph glyph-name="slash" unicode="/" horiz-adv-x="1044" d="M963 1208l-697 -1188l-20 -20h-144l-20 20v205l696 1188l21 21h143l21 -21v-205z"/>
    <glyph glyph-name="zero" unicode="0" horiz-adv-x="1228" d="M369 717q0 -268 59 -380t186 -112t187 112q59 112 59 380t-59 380q-59 111 -187 111t-186 -112q-59 -112 -59 -379zM82 717q0 381 143 559t389 178t390 -178t143 -559q0 -381 -143 -559q-144 -178 -390 -178t-389 178t-143 559z"/>
    <glyph glyph-name="one" unicode="1" horiz-adv-x="839" d="M389 1065h-20l-164 -164h-103l-20 21v204l287 287l41 21h245l21 -21v-1393l-21 -20h-245l-21 20v1045z"/>
    <glyph glyph-name="two" unicode="2" horiz-adv-x="1167" d="M561 1208q-103 0 -147 -52t-45 -152l-21 -21h-246l-20 21q0 190 118 320t356 130t364 -125t124 -296q0 -171 -76 -285t-272 -277l-245 -205v-20h614l20 -21v-205l-20 -20h-963l-20 20v226l20 41l369 307q176 147 231 229t56 181q0 204 -197 204z"/>
    <glyph glyph-name="three" unicode="3" horiz-adv-x="1167" d="M635 1188h-492l-20 20v205l20 21h840l21 -21v-205l-21 -41l-266 -245v-21q145 0 257 -120q112 -119 111 -319q0 -200 -141 -341q-142 -141 -382 -141t-371 121q-130 122 -130 288l21 21h246l20 -21q0 -68 52 -116t162 -48t173 68q63 67 63 183t-54 178q-56 62 -140 62 t-133 -40h-102l-21 20v185l287 286v21z"/>
    <glyph glyph-name="four" unicode="4" horiz-adv-x="1167" d="M717 1085h-21l-348 -409v-21h348l21 21v409zM1004 20l-21 -20h-246l-20 20v369l-21 21h-635l-20 20v225l20 41l615 717l41 21h266l21 -21v-1393z"/>
    <glyph glyph-name="five" unicode="5" horiz-adv-x="1228" d="M1126 512q0 -252 -128 -392t-368 -140t-366 110q-125 110 -141 299l20 21h246l21 -21q14 -90 62 -127t152 -37q215 0 216 257t-205 255q-152 0 -225 -123l-41 -20l-205 20l-21 21l41 778l21 21h839l21 -21v-205l-21 -20h-573l-20 -21l-21 -286h21q30 59 149 91 q45 11 96 11q198 0 314 -133t116 -338z"/>
    <glyph glyph-name="six" unicode="6" horiz-adv-x="1208" d="M635 225q93 1 149 69t56 179t-52 177t-153 67q-225 0 -225 -246t225 -246zM819 1106q-32 102 -181 102t-194 -127q-34 -97 -34 -200h20q23 31 93 56q70 26 153 26q188 1 319 -131t131 -350t-137 -360t-354 -142q-285 0 -409 179t-124 543t132 559q132 194 401 193 q209 0 332 -95t139 -253l-21 -21h-245z"/>
    <glyph glyph-name="seven" unicode="7" horiz-adv-x="1085" d="M717 1188h-615l-20 20v205l20 21h902l20 -21v-225l-573 -1168l-21 -20h-164l-20 20v205l471 942v21z"/>
    <glyph glyph-name="eight" unicode="8" d="M82 430q0 125 55 208t129 120v20q-143 96 -143 272t125 290t346 114t346 -114t125 -290t-143 -272v-20q74 -37 129 -120t55 -208q0 -184 -133 -317t-379 -133t-379 133t-133 317zM594 1208q-96 0 -140 -52t-44 -122t48 -122t136 -52t136 52t48 122t-44 122t-140 52z M369 434q0 -90 55 -149t170 -59t170 58q55 60 55 150t-59 146q-60 56 -166 55q-106 0 -166 -55q-59 -56 -59 -146z"/>
    <glyph glyph-name="nine" unicode="9" horiz-adv-x="1208" d="M369 963q0 -121 55 -183t149 -63q225 0 226 246q1 129 -61 187t-160 58t-154 -62q-55 -62 -55 -183zM573 225q72 0 121 35q74 53 98 197q7 47 7 96h-21q-33 -33 -102 -58q-69 -24 -144 -24q-186 0 -318 140q-132 139 -132 359t139 352t384 132t373 -182t128 -514 q0 -394 -124 -586t-409 -192q-207 0 -321 94t-129 254l20 20h246l21 -20q34 -103 163 -103z"/>
    <glyph glyph-name="colon" unicode=":" horiz-adv-x="655" d="M492 20l-21 -20h-287l-20 20v267l20 20h287l21 -20v-267zM492 737l-21 -20h-287l-20 20v267l20 20h287l21 -20v-267z"/>
    <glyph glyph-name="semicolon" unicode=";" horiz-adv-x="655" d="M143 -287v41l123 205v21l-20 20h-62l-20 20v267l20 20h287l21 -20v-287l-21 -61l-164 -205l-41 -21h-123zM492 737l-21 -20h-287l-20 20v267l20 20h287l21 -20v-267z"/>
    <glyph glyph-name="less" unicode="&lt;" d="M143 594l21 41l737 389h103l20 -20v-185l-20 -41l-512 -246v-40l512 -246l20 -41v-185l-20 -20h-103l-737 389l-21 41v164z"/>
    <glyph glyph-name="equal" unicode="=" horiz-adv-x="1228" d="M1065 184l-21 -20h-860l-20 20v205l20 21h860l21 -21v-205zM1065 635l-21 -21h-860l-20 21v205l20 20h860l21 -20v-205z"/>
    <glyph glyph-name="greater" unicode="&gt;" d="M1044 430l-20 -41l-737 -389h-103l-20 20v185l20 41l512 246v40l-512 246l-20 41v185l20 20h103l737 -389l20 -41v-164z"/>
    <glyph glyph-name="question" unicode="?" horiz-adv-x="1310" d="M799 20l-21 -20h-286l-21 20v267l21 20h286l21 -20v-267zM1147 1044q1 -128 -59 -212t-158 -150t-125 -106q-27 -42 -27 -105l-20 -20h-246l-20 20q0 205 184 328q98 66 141 119q43 54 43 124t-52 118t-157 48t-153 -52t-47 -173l-21 -20h-246l-20 20q0 213 121 342 t369 129t371 -114q122 -114 122 -296z"/>
    <glyph glyph-name="at" unicode="@" horiz-adv-x="1925" d="M1372 328q0 -102 82 -103q62 1 82 59t20 228q0 289 -149 462q-151 173 -437 173t-444 -186q-158 -187 -158 -455t157 -449q157 -180 438 -180q195 0 348 62h41l20 -21v-164q-170 -102 -409 -102q-379 0 -610 243q-230 243 -230 621t234 618q235 238 613 238t605 -231 t227 -629q0 -492 -368 -492q-164 0 -246 123h-21q-23 -34 -97 -68t-148 -34q-162 0 -276 125t-114 350t109 346t260 121q63 0 115 -26t69 -52l21 -24h20l21 61l20 21h185l20 -21v-614zM963 758q-164 0 -164 -246t164 -246t163 246q1 246 -163 246z"/>
    <glyph glyph-name="A" unicode="A" horiz-adv-x="1331" d="M860 573l-184 492h-21l-184 -492l21 -20h348zM1290 20l-20 -20h-185l-20 20l-102 267l-41 20h-512l-41 -20l-103 -267l-20 -20h-185l-20 20v205l471 1188l20 21h267l20 -21l471 -1188v-205z"/>
    <glyph glyph-name="B" unicode="B" horiz-adv-x="1372" d="M1004 430q0 184 -205 184h-328l-20 -20v-328l20 -20h328q205 0 205 184zM963 1030q0 158 -164 158h-328l-20 -21v-286l20 -21h328q86 0 125 47t39 123zM1290 389q0 -201 -119 -295t-290 -94h-697l-20 20v1393l20 21h656q172 0 290 -92t119 -277q0 -113 -51 -196 t-154 -111v-21q246 -61 246 -348z"/>
    <glyph glyph-name="C" unicode="C" horiz-adv-x="1454" d="M778 225q248 0 307 205l21 21h246l20 -21q-30 -213 -188 -332t-406 -118q-330 0 -513 202t-183 535t183 535t513 202q246 0 405 -115t189 -315l-20 -20h-246l-21 20q-61 184 -307 184q-207 0 -308 -133t-101 -358t101 -359t308 -133z"/>
    <glyph glyph-name="D" unicode="D" horiz-adv-x="1413" d="M1044 717q0 251 -88 361t-301 110h-184l-20 -21v-901l20 -20h184q213 0 301 110t88 361zM1331 717q0 -353 -163 -535t-533 -182h-451l-20 20v1393l20 21h451q371 0 533 -182t163 -535z"/>
    <glyph glyph-name="E" unicode="E" horiz-adv-x="1290" d="M1167 20l-20 -20h-963l-20 20v1393l20 21h963l20 -21v-205l-20 -20h-676l-20 -21v-286l20 -21h635l20 -20v-205l-20 -21h-635l-20 -20v-328l20 -20h676l20 -21v-205z"/>
    <glyph glyph-name="F" unicode="F" horiz-adv-x="1208" d="M1126 1208l-20 -20h-635l-20 -21v-307l20 -20h594l20 -21v-205l-20 -20h-594l-20 -21v-553l-21 -20h-246l-20 20v1393l20 21h922l20 -21v-205z"/>
    <glyph glyph-name="G" unicode="G" horiz-adv-x="1515" d="M758 -20q-305 0 -491 205q-185 206 -185 533q0 328 189 532t507 204q281 0 429 -125t186 -305l-21 -20h-246l-20 20q-27 53 -53 87q-27 34 -99 66t-176 31q-194 0 -302 -135t-108 -356t108 -357q108 -135 286 -135t261 79t83 208l-21 20h-348l-20 21v205l20 20h635 l21 -20v-738l-21 -20h-184l-21 20l-20 103h-21q-143 -143 -368 -143z"/>
    <glyph glyph-name="H" unicode="H" horiz-adv-x="1495" d="M1331 20l-20 -20h-246l-21 20v574l-20 20h-553l-20 -20v-574l-21 -20h-246l-20 20v1393l20 21h246l21 -21v-532l20 -21h553l20 21v532l21 21h246l20 -21v-1393z"/>
    <glyph glyph-name="I" unicode="I" horiz-adv-x="614" d="M451 20l-21 -20h-246l-20 20v1393l20 21h246l21 -21v-1393z"/>
    <glyph glyph-name="J" unicode="J" horiz-adv-x="1126" d="M963 451q0 -238 -124 -355q-124 -116 -349 -116t-337 128t-112 302v20l20 21h246l21 -21v-20q0 -184 164 -185q86 0 135 45t49 160v983l20 21h246l21 -21v-962z"/>
    <glyph glyph-name="K" unicode="K" horiz-adv-x="1310" d="M451 819h20l594 594l41 21h102l21 -21v-205l-410 -409v-21l451 -553v-205l-21 -20h-143l-41 20l-451 553h-20l-143 -143v-410l-21 -20h-246l-20 20v1393l20 21h246l21 -21v-594z"/>
    <glyph glyph-name="L" unicode="L" horiz-adv-x="1146" d="M1126 20l-20 -20h-922l-20 20v1393l20 21h246l21 -21v-1147l20 -20h635l20 -21v-205z"/>
    <glyph glyph-name="M" unicode="M" horiz-adv-x="1863" d="M1413 819h-20l-328 -799l-21 -20h-225l-20 20l-328 799h-20v-799l-21 -20h-246l-20 20v1393l20 21h308l20 -21l410 -1003h20l410 1003l20 21h307l21 -21v-1393l-21 -20h-245l-21 20v799z"/>
    <glyph glyph-name="N" unicode="N" horiz-adv-x="1536" d="M1085 471v942l21 21h246l20 -21v-1393l-20 -20h-287l-41 20l-553 943h-20v-943l-21 -20h-246l-20 20v1393l20 21h287l41 -21l553 -942h20z"/>
    <glyph glyph-name="O" unicode="O" horiz-adv-x="1556" d="M1475 717q1 -328 -189 -533q-190 -204 -508 -204t-507 204q-189 205 -189 533q0 329 189 533t507 204t507 -204q190 -204 190 -533zM1188 717q0 221 -108 356t-302 135t-302 -135t-108 -356t108 -357q108 -135 302 -135q194 -1 302 135t108 357z"/>
    <glyph glyph-name="P" unicode="P" horiz-adv-x="1392" d="M1065 1004q0 102 -52 143t-153 41h-389l-20 -21v-327l20 -21h389q100 0 153 41q52 42 52 144zM1352 1004q0 -209 -134 -320t-358 -111h-389l-20 -20v-533l-21 -20h-246l-20 20v1393l20 21h676q224 0 358 -110t134 -320z"/>
    <glyph glyph-name="Q" unicode="Q" horiz-adv-x="1556" d="M369 717q0 -225 101 -359t308 -133q123 0 205 41v41l-164 164h-205l-20 21v184l20 20h349l41 -20l143 -144h20q20 61 21 185q0 225 -102 358t-308 133q-207 0 -308 -133t-101 -358zM82 717q0 333 183 535t513 202t513 -203t184 -534q0 -225 -82 -389v-41l61 -62v-205 l-20 -20h-144l-82 82h-20q-170 -102 -410 -102q-330 0 -513 202t-183 535z"/>
    <glyph glyph-name="R" unicode="R" horiz-adv-x="1433" d="M1065 1004q0 102 -52 143t-153 41h-389l-20 -21v-327l20 -21h389q100 0 153 41q52 42 52 144zM1352 1004q0 -162 -88 -270t-220 -140v-21l267 -348v-205l-21 -20h-123l-41 20l-409 533l-41 20h-205l-20 -20v-533l-21 -20h-246l-20 20v1393l20 21h676q224 0 358 -110 t134 -320z"/>
    <glyph glyph-name="S" unicode="S" horiz-adv-x="1351" d="M1270 410q0 -186 -146 -308t-444 -122q-299 0 -449 130t-149 341l20 20h246l21 -20q1 -113 75 -169t252 -57q287 0 287 185q0 106 -75 150t-242 68q-168 24 -254 52q-86 29 -159 77q-151 99 -151 308q0 169 140 279t416 110t413 -118t137 -312l-20 -20h-246l-20 20 q0 96 -62 140t-225 44q-246 0 -246 -143q0 -92 76 -133t293 -72q512 -73 512 -450z"/>
    <glyph glyph-name="T" unicode="T" horiz-adv-x="1269" d="M1229 1208l-21 -20h-409l-21 -21v-1147l-20 -20h-246l-20 20v1147l-21 21h-410l-20 20v205l20 21h1147l21 -21v-205z"/>
    <glyph glyph-name="U" unicode="U" horiz-adv-x="1474" d="M1311 553q-1 -277 -149 -425t-424 -148t-426 148q-148 148 -148 425v860l20 21h246l21 -21v-860q1 -328 287 -328t286 328v860l20 21h246l21 -21v-860z"/>
    <glyph glyph-name="V" unicode="V" horiz-adv-x="1331" d="M1270 1208l-451 -1188l-20 -20h-267l-20 20l-451 1188v205l21 21h184l21 -21l368 -1003h21l368 1003l21 21h184l21 -21v-205z"/>
    <glyph glyph-name="W" unicode="W" horiz-adv-x="1945" d="M840 1434h266l20 -21l267 -942h20l205 942l20 21h205l21 -21v-205l-308 -1188l-20 -20h-266l-21 20l-266 984h-20l-267 -984l-20 -20h-266l-21 20l-307 1188v205l20 21h205l21 -21l204 -942h21l266 942z"/>
    <glyph glyph-name="X" unicode="X" horiz-adv-x="1372" d="M1290 20l-20 -20h-144l-41 20l-389 512h-20l-389 -512l-41 -20h-144l-20 20v205l410 512v21l-390 450v205l21 21h143l41 -21l369 -450h20l369 450l41 21h143l21 -21v-205l-389 -450v-21l409 -512v-205z"/>
    <glyph glyph-name="Y" unicode="Y" horiz-adv-x="1228" d="M1167 1208l-409 -676v-512l-21 -20h-245l-21 20v512l-410 676v205l21 21h143l41 -21l328 -553h41l328 553l41 21h143l20 -21v-205z"/>
    <glyph glyph-name="Z" unicode="Z" horiz-adv-x="1269" d="M778 1188h-635l-20 20v205l20 21h963l20 -21v-225l-20 -41l-655 -881v-20h696l20 -21v-205l-20 -20h-1024l-21 20v226l21 41l655 880v21z"/>
    <glyph glyph-name="bracketleft" unicode="[" horiz-adv-x="839" d="M676 -389l-21 -21h-471l-20 21v1802l20 21h471l21 -21v-205l-21 -20h-184l-20 -21v-1310l20 -21h184l21 -20v-205z"/>
    <glyph glyph-name="backslash" unicode="\" horiz-adv-x="1044" d="M778 20l-696 1188v205l20 21h144l20 -21l697 -1188v-205l-21 -20h-143z"/>
    <glyph glyph-name="bracketright" unicode="]" horiz-adv-x="839" d="M184 -410l-20 21v205l20 20h185l20 21v1310l-20 21h-185l-20 20v205l20 21h471l21 -21v-1802l-21 -21h-471z"/>
    <glyph glyph-name="asciicircum" unicode="^" d="M1044 492l-20 -21h-143l-41 21l-226 552h-41l-225 -552l-41 -21h-143l-21 21v204l328 717l21 21h204l21 -21l327 -717v-204z"/>
    <glyph glyph-name="underscore" unicode="_" d="M1106 -225l-21 -21h-983l-20 21v205l20 20h983l21 -20v-205z"/>
    <glyph glyph-name="grave" unicode="`" horiz-adv-x="1024" d="M635 1167l-21 -20h-184l-41 20l-225 205v41l20 21h205l41 -21l205 -205v-41z"/>
    <glyph glyph-name="a" unicode="a" horiz-adv-x="1064" d="M348 328q0 -102 144 -103q78 0 131 41t53 103v41l-21 20q-41 20 -123 21q-184 0 -184 -123zM514 655q60 0 141 -20l21 20v21q0 78 -26 100t-92 23q-66 0 -88 -2q-22 -3 -46 -17t-35 -43l-20 -20h-246l-21 20q0 115 104 211t334 96t326 -114t97 -357v-553l-21 -20h-225 l-21 20l-20 41h-21q-31 -31 -96 -56q-65 -26 -129 -25q-170 0 -269 87t-100 240q0 88 32 154q32 65 79 101t112 59q66 23 118 29t112 5z"/>
    <glyph glyph-name="b" unicode="b" horiz-adv-x="1208" d="M860 512q0 287 -225 287t-225 -287t225 -287t225 287zM1147 512q0 -240 -130 -386t-321 -146q-82 0 -148 26t-93 51l-25 25h-20l-21 -62l-20 -20h-226l-20 20v1393l20 21h246l21 -21v-471h20q23 35 104 69t162 33q190 0 320 -146t131 -386z"/>
    <glyph glyph-name="c" unicode="c" horiz-adv-x="1105" d="M348 512q0 -137 58 -212t167 -75q150 0 185 103l20 20h246l20 -20q-28 -174 -158 -261t-313 -87q-231 0 -371 144t-141 388q1 244 141 388t371 144q183 0 313 -87t158 -261l-20 -20h-246l-20 20q-35 102 -185 103q-109 0 -167 -75t-58 -212z"/>
    <glyph glyph-name="d" unicode="d" horiz-adv-x="1208" d="M348 512q0 -287 225 -287t226 287t-225 287t-226 -287zM61 512q0 240 130 386t321 146q82 0 148 -26t94 -51l24 -25h21v471l20 21h246l20 -21v-1393l-20 -20h-225l-21 20l-20 62h-21q-24 -36 -104 -69q-80 -34 -162 -33q-190 0 -321 146q-130 146 -130 386z"/>
    <glyph glyph-name="e" unicode="e" horiz-adv-x="1105" d="M553 799q-143 0 -178 -129q-6 -23 -6 -35l20 -21h328l20 21q0 36 -23 79q-46 85 -161 85zM1044 512v-82l-20 -20h-635l-20 -21q0 -49 49 -106q48 -57 158 -57t141 61l20 20h246l21 -20q-16 -105 -107 -199q-47 -49 -131 -79t-193 -29q-247 0 -379 152t-132 379 q0 228 127 381q128 152 364 152q235 0 363 -152t128 -380z"/>
    <glyph glyph-name="f" unicode="f" horiz-adv-x="839" d="M594 1188q-61 0 -62 -62v-82l21 -20h205l20 -20v-205l-20 -21h-205l-21 -20v-738l-20 -20h-246l-20 20v738l-21 20h-143l-21 21v205l21 20h143l21 20v82q0 158 98 233t250 75h184l21 -21v-205l-21 -20h-184z"/>
    <glyph glyph-name="g" unicode="g" horiz-adv-x="1208" d="M348 512q0 -287 225 -287t226 287t-225 287t-226 -287zM1085 102q0 -264 -142 -398t-370 -134q-182 0 -298 84t-132 223l21 21h246l20 -21q31 -61 143 -61q225 0 226 266h-21q-24 -36 -104 -69q-80 -34 -162 -33q-190 0 -321 146q-130 146 -130 386t130 386t321 146 q82 0 148 -26t94 -51l24 -25h21l20 62l21 20h225l20 -20v-902z"/>
    <glyph glyph-name="h" unicode="h" horiz-adv-x="1208" d="M799 614q0 184 -164 185q-225 0 -225 -267v-512l-21 -20h-246l-20 20v1393l20 21h246l21 -21v-471h20q102 102 275 102t277 -111q103 -112 103 -298v-615l-20 -20h-246l-20 20v594z"/>
    <glyph glyph-name="i" unicode="i" horiz-adv-x="532" d="M410 20l-21 -20h-246l-20 20v984l20 20h246l21 -20v-984zM410 1208l-21 -20h-246l-20 20v205l20 21h246l21 -21v-205z"/>
    <glyph glyph-name="j" unicode="j" horiz-adv-x="532" d="M410 1208l-21 -20h-246l-20 20v205l20 21h246l21 -21v-205zM410 -41q0 -178 -86 -253t-263 -75h-122l-21 21v205l21 20h102q45 1 63 19t19 63v1045l20 20h246l21 -20v-1045z"/>
    <glyph glyph-name="k" unicode="k" horiz-adv-x="1105" d="M410 594h20l410 410l41 20h123l20 -20v-205l-246 -246v-21l266 -307v-205l-20 -20h-123l-41 20l-287 308h-20l-123 -123l-20 -41v-144l-21 -20h-246l-20 20v1393l20 21h246l21 -21v-819z"/>
    <glyph glyph-name="l" unicode="l" horiz-adv-x="532" d="M410 20l-21 -20h-246l-20 20v1393l20 21h246l21 -21v-1393z"/>
    <glyph glyph-name="m" unicode="m" horiz-adv-x="1781" d="M1393 614q0 184 -164 185q-184 0 -185 -226v-553l-20 -20h-246l-20 20v594q0 184 -164 185q-184 0 -184 -226v-553l-21 -20h-246l-20 20v984l20 20h226l20 -20l21 -62h20q31 62 150 91q45 11 96 11q190 0 287 -143h20q61 91 188 128q55 15 119 15q186 0 288 -105 t101 -304v-615l-20 -20h-246l-20 20v594z"/>
    <glyph glyph-name="n" unicode="n" d="M799 614q0 184 -164 185q-225 0 -225 -267v-512l-21 -20h-246l-20 20v984l20 20h226l20 -20l21 -62h20q102 102 275 102t277 -111q103 -112 103 -298v-615l-20 -20h-246l-20 20v594z"/>
    <glyph glyph-name="o" unicode="o" horiz-adv-x="1146" d="M799 512q-1 137 -59 212t-167 75t-167 -75t-58 -212t58 -212t168 -75q108 0 166 75t59 212zM1085 512q0 -244 -140 -388q-139 -144 -371 -144t-372 144t-141 388q1 244 141 388t371 144t371 -144t141 -388z"/>
    <glyph glyph-name="p" unicode="p" horiz-adv-x="1208" d="M860 512q0 287 -225 287t-225 -287t225 -287t225 287zM1147 512q0 -240 -130 -386t-321 -146q-82 0 -148 26t-93 51l-25 25h-20v-471l-21 -21h-246l-20 21v1393l20 20h226l20 -20l21 -62h20q23 35 104 69t162 33q190 0 320 -146t131 -386z"/>
    <glyph glyph-name="q" unicode="q" horiz-adv-x="1208" d="M348 512q0 -287 225 -287t226 287t-225 287t-226 -287zM61 512q0 240 130 386t321 146q82 0 148 -26t94 -51l24 -25h21l20 62l21 20h225l20 -20v-1393l-20 -21h-246l-20 21v471h-21q-24 -36 -104 -69q-80 -34 -162 -33q-190 0 -321 146q-130 146 -130 386z"/>
    <glyph glyph-name="r" unicode="r" horiz-adv-x="839" d="M635 778q-121 0 -173 -63t-52 -203v-492l-21 -20h-246l-20 20v984l20 20h226l20 -20l21 -62h20q4 8 16 22t70 38q58 22 139 22h123l21 -20v-205l-21 -21h-143z"/>
    <glyph glyph-name="s" unicode="s" horiz-adv-x="1024" d="M655 737q0 61 -144 61q-145 0 -143 -71q0 -35 12 -50q11 -15 54 -30t101 -21q59 -8 95 -14t69 -14q34 -8 89 -31t90 -52q34 -30 60 -84t25 -124q0 -137 -111 -232t-331 -95t-340 96t-120 252l21 20h246l20 -20q0 -57 41 -80t123 -23q164 0 164 82q0 37 -16 49t-25 18 q-8 6 -32 12q-24 5 -37 8t-46 8t-49 8q-389 66 -389 327q0 133 106 220t312 87t324 -80t118 -227l-20 -20h-246z"/>
    <glyph glyph-name="t" unicode="t" horiz-adv-x="860" d="M512 307q0 -61 61 -61h185l20 -21v-205l-20 -20h-185q-151 0 -249 75t-99 232v451l-20 20h-144l-20 21v205l20 20h144l20 20v185l21 20h246l20 -20v-185l20 -20h226l20 -20v-205l-20 -21h-226l-20 -20v-451z"/>
    <glyph glyph-name="u" unicode="u" horiz-adv-x="1167" d="M389 410q0 -184 164 -185q102 0 154 67q51 67 51 179v533l20 20h246l20 -20v-984l-20 -20h-225l-21 20l-20 62h-21q-31 -61 -149 -91q-45 -11 -96 -11q-182 0 -286 111q-103 112 -104 298v615l21 20h246l20 -20v-594z"/>
    <glyph glyph-name="v" unicode="v" horiz-adv-x="1085" d="M1024 799l-348 -779l-21 -20h-225l-20 20l-349 779v205l21 20h184l21 -20l245 -635h21l246 635l20 20h185l20 -20v-205z"/>
    <glyph glyph-name="w" unicode="w" horiz-adv-x="1617" d="M1536 799l-246 -779l-20 -20h-266l-21 20l-164 615h-20l-164 -615l-21 -20h-266l-20 20l-246 779v205l20 20h185l20 -20l164 -574h21l163 574l21 20h266l21 -20l163 -574h21l164 574l20 20h185l20 -20v-205z"/>
    <glyph glyph-name="x" unicode="x" horiz-adv-x="1044" d="M983 20l-20 -20h-123l-41 20l-267 328h-20l-266 -328l-41 -20h-123l-21 20v205l246 287v20l-225 267v205l20 20h123l41 -20l246 -308h20l246 308l41 20h123l21 -20v-205l-226 -267v-20l246 -287v-205z"/>
    <glyph glyph-name="y" unicode="y" horiz-adv-x="1085" d="M246 -348h-103l-20 20v205l20 21h103q74 0 100 16t43 66v20l-328 799v205l21 20h184l21 -20l245 -697h21l246 697l20 20h185l20 -20v-205l-328 -819q-36 -86 -66 -140q-75 -131 -206 -168q-74 -20 -178 -20z"/>
    <glyph glyph-name="z" unicode="z" horiz-adv-x="1064" d="M573 778h-450l-21 21v205l21 20h819l21 -20v-226l-21 -41l-471 -471v-20h492l20 -21v-205l-20 -20h-861l-20 20v226l20 41l471 471v20z"/>
    <glyph glyph-name="braceleft" unicode="{" horiz-adv-x="962" d="M635 246v-328q0 -45 18 -63t64 -19h61l21 -20v-205l-21 -21h-123q-129 0 -218 70t-89 238v348q0 88 -41 126t-123 38l-20 20v164l20 20q82 0 123 38t41 126v348q0 168 89 238t218 70h123l21 -21v-205l-21 -20h-61q-45 0 -63 -18t-19 -64v-328q0 -217 -143 -246v-40 q143 -29 143 -246z"/>
    <glyph glyph-name="bar" unicode="|" horiz-adv-x="778" d="M532 -389l-20 -21h-246l-20 21v1802l20 21h246l20 -21v-1802z"/>
    <glyph glyph-name="braceright" unicode="}" horiz-adv-x="962" d="M328 778v328q0 45 -18 63t-64 19h-62l-20 20v205l20 21h123q129 0 218 -70t89 -238v-348q0 -88 41 -126t123 -38l21 -20v-164l-21 -20q-82 0 -123 -38t-41 -126v-348q0 -168 -89 -238t-218 -70h-123l-20 21v205l20 20h62q45 0 63 18t19 64v328q0 217 143 246v40 q-143 29 -143 246z"/>
    <glyph glyph-name="asciitilde" unicode="~" horiz-adv-x="1351" d="M471 737q75 -1 147 -29t115 -63q113 -92 168 -92q82 0 82 102l21 21h204l21 -21q0 -160 -92 -264t-256 -104q-76 1 -148 29t-115 63q-113 92 -167 92q-82 0 -82 -102l-21 -21h-205l-20 21q0 164 86 266t262 102z"/>
    <glyph glyph-name="uni00A0" unicode=" " horiz-adv-x="532"/>
    <glyph glyph-name="exclamdown" unicode="¡" horiz-adv-x="819" d="M246 1004l20 20h287l20 -20v-267l-20 -20h-287l-20 20v267zM266 61l41 471l21 21h164l20 -21l41 -471v-450l-21 -21h-245l-21 21v450z"/>
    <glyph glyph-name="cent" unicode="¢" horiz-adv-x="1105" d="M61 512q0 223 119 361t312 171l20 21v82l20 20h82l21 -20v-82l20 -21q143 -18 259 -105t130 -243l-20 -20h-246l-20 20q-27 82 -103 82l-20 -20v-492l20 -20q76 0 103 82l20 20h246l20 -20q-14 -156 -130 -243t-259 -105l-20 -21v-82l-21 -20h-82l-20 20v82l-20 21 q-193 33 -312 171t-119 361zM348 512q0 -229 144 -266l20 20v492l-20 20q-144 -37 -144 -266z"/>
    <glyph glyph-name="sterling" unicode="£" horiz-adv-x="1310" d="M532 430q0 -123 -81 -164v-20h778l20 -21v-205l-20 -20h-1147l-21 20v205l21 21h20q143 0 144 184v123l-21 20h-123l-20 21v164l20 20h123l21 21v184q0 211 118 341t346 130t343 -119t114 -311l-20 -20h-246l-20 20q0 102 -41 143t-129 41t-133 -52t-46 -173v-184l21 -21 h430l21 -20v-164l-21 -21h-430l-21 -20v-123z"/>
    <glyph glyph-name="currency" unicode="¤" horiz-adv-x="1392" d="M696 225q127 0 187 82q59 82 59 205t-59 205t-187 82t-186 -82q-59 -82 -59 -205t59 -205t186 -82zM696 -20q-74 0 -135 15t-86 30l-24 16h-21l-143 -143h-21l-184 184v20l143 144v20q-61 82 -61 246q0 74 15 135t30 86l16 25v20l-143 144v20l184 184h21l143 -143h21 q82 61 245 61q74 0 135 -15t87 -30l24 -16h21l143 143h20l185 -184v-20l-144 -144v-20q61 -82 62 -246q1 -74 -15 -135t-30 -86l-17 -25v-20l144 -144v-20l-185 -184h-20l-143 143h-21q-82 -61 -246 -61z"/>
    <glyph glyph-name="yen" unicode="¥" horiz-adv-x="1269" d="M307 778v21l-225 409v205l20 21h144l41 -21l327 -635h41l328 635l41 21h143l21 -21v-205l-225 -409v-21h143l20 -20v-164l-20 -21h-246l-41 -20l-41 -82l21 -20h245l21 -21v-164l-21 -20h-245l-21 -21v-205l-20 -20h-246l-20 20v205l-21 21h-246l-20 20v164l20 21h246 l21 20l-41 82l-41 20h-246l-21 21v164l21 20h143z"/>
    <glyph glyph-name="brokenbar" unicode="¦" horiz-adv-x="778" d="M532 20l-20 -20h-246l-20 20v553l20 21h246l20 -21v-553zM532 860l-20 -20h-246l-20 20v553l20 21h246l20 -21v-553z"/>
    <glyph glyph-name="section" unicode="§" horiz-adv-x="1351" d="M1208 -66q0 -168 -129 -266t-387 -98t-414 105t-155 325l20 20h246l21 -20q0 -94 68 -139t207 -45q140 0 188 37q49 37 49 94t-46 90t-121 55t-164 42q-89 22 -178 54t-164 78q-75 45 -121 124q-46 80 -46 188t56 176t128 86v20q-123 82 -123 243q-1 161 139 256t387 95 t393 -111t146 -319l-20 -20h-246l-20 20q0 184 -267 184q-225 0 -225 -123q0 -61 86 -103t210 -76t248 -79t210 -135t86 -212t-56 -190t-129 -85v-21q123 -82 123 -250zM901 328q82 27 82 120t-113 145q-78 36 -211 71t-188 53h-20q-82 -27 -82 -132t111 -151 q68 -28 204 -56q137 -29 197 -50h20z"/>
    <glyph glyph-name="dieresis" unicode="¨" horiz-adv-x="1146" d="M492 1208l-21 -20h-225l-21 20v205l21 21h225l21 -21v-205zM922 1208l-21 -20h-225l-21 20v205l21 21h225l21 -21v-205z"/>
    <glyph glyph-name="copyright" unicode="©" horiz-adv-x="1720" d="M348 717q0 -233 142 -383t370 -150t370 150t142 383t-142 383t-370 150t-370 -150t-142 -383zM696 717q0 -205 164 -205q119 0 144 102l20 21h164l20 -21q-14 -143 -113 -215q-99 -71 -248 -71t-252 99t-103 289t103 290t251 100t248 -72t114 -215l-20 -20h-164l-20 20 q-25 102 -144 103q-164 0 -164 -205zM123 717q0 307 215 522t522 215t522 -215t215 -522t-215 -522t-522 -215t-522 215t-215 522z"/>
    <glyph glyph-name="ordfeminine" unicode="ª" d="M1004 553l-21 -21h-737l-21 21v20l21 21h737l21 -21v-20zM410 1065q0 -84 44 -124t99 -40q143 0 143 164t-143 164q-55 0 -99 -40t-44 -124zM512 676q-137 0 -243 101q-105 101 -105 287t105 288t243 102q45 0 86 -15t59 -30l19 -16h20v20l21 21h205l20 -21v-430 q0 -61 41 -61h21l20 -21v-184l-20 -21h-123q-82 0 -144 62h-20q-24 -32 -83 -57t-122 -25z"/>
    <glyph glyph-name="guillemotleft" unicode="«" horiz-adv-x="1617" d="M1454 82l-20 -21h-246l-41 21l-328 328l-20 41v122l20 41l328 328l41 21h246l20 -21v-82l-348 -328v-40l348 -328v-82zM819 82l-20 -21h-246l-41 21l-328 328l-20 41v122l20 41l328 328l41 21h246l20 -21v-82l-348 -328v-40l348 -328v-82z"/>
    <glyph glyph-name="logicalnot" unicode="¬" d="M1024 184l-20 -20h-205l-21 20v205l-20 21h-615l-20 20v205l20 20h861l20 -20v-451z"/>
    <glyph glyph-name="uni00AD" unicode="­" horiz-adv-x="880" d="M758 430l-21 -20h-594l-20 20v205l20 20h594l21 -20v-205z"/>
    <glyph glyph-name="registered" unicode="®" horiz-adv-x="1720" d="M348 717q0 -233 142 -383t370 -150t370 150t142 383t-142 383t-370 150t-370 -150t-142 -383zM123 717q0 307 215 522t522 215t522 -215t215 -522t-215 -522t-522 -215t-522 215t-215 522zM942 1085q125 0 196 -62q70 -62 70 -194t-123 -194v-21l103 -143v-102l-21 -21 h-102l-41 21l-143 204l-41 21h-62l-20 -21v-204l-21 -21h-164l-20 21v696l20 20h369zM1004 840q0 61 -62 61h-164l-20 -20v-82l20 -21h164q62 1 62 62z"/>
    <glyph glyph-name="macron" unicode="¯" horiz-adv-x="1024" d="M881 1188l-21 -21h-696l-21 21v184l21 21h696l21 -21v-184z"/>
    <glyph glyph-name="degree" unicode="°" d="M430 1024q0 -184 164 -184t164 184t-164 184t-164 -184zM164 1024q0 184 123 307t307 123t307 -123t123 -307t-123 -307t-307 -123t-307 123t-123 307z"/>
    <glyph glyph-name="plusminus" unicode="±" d="M1044 20l-20 -20h-860l-21 20v205l21 21h860l20 -21v-205zM1044 594l-20 -21h-287l-20 -20v-164l-21 -20h-204l-21 20v164l-20 20h-287l-21 21v205l21 20h287l20 21v164l21 20h204l21 -20v-164l20 -21h287l20 -20v-205z"/>
    <glyph glyph-name="twosuperior" unicode="²" horiz-adv-x="778" d="M451 1184q1 66 -61 65q-62 0 -62 -61l-21 -21h-184l-21 21q0 126 75 196t212 70t212 -71t75 -182t-56 -167t-169 -112v-21h225l20 -20v-164l-20 -21h-553l-21 21v164l21 41l205 122q123 74 123 140z"/>
    <glyph glyph-name="threesuperior" unicode="³" horiz-adv-x="757" d="M389 1024q-11 0 -41 -20h-61l-21 20v123l62 61v21h-205l-21 20v164l21 21h491l21 -21v-164l-21 -41l-61 -61v-21q12 0 37 -15q26 -15 42 -33q44 -46 44 -148t-80 -178t-221 -76t-217 68t-76 178l20 20h185l20 -20q0 -41 62 -41q82 0 82 82q0 61 -62 61z"/>
    <glyph glyph-name="acute" unicode="´" horiz-adv-x="1024" d="M737 1372l-225 -205l-41 -20h-184l-21 20v41l205 205l41 21h205l20 -21v-41z"/>
    <glyph glyph-name="mu" unicode="µ" horiz-adv-x="1310" d="M451 61v-450l-21 -21h-246l-20 21v1393l20 20h246l21 -20v-512q0 -113 51 -180q51 -66 153 -66t154 66q51 67 51 180v512l21 20h245l21 -20v-984l-21 -20h-225l-20 20l-21 41h-20q-22 -30 -76 -56q-52 -25 -108 -25t-102 20t-65 41l-18 20h-20z"/>
    <glyph glyph-name="paragraph" unicode="¶" horiz-adv-x="1576" d="M123 1025q0 206 121 307t329 102h881l21 -21v-205l-21 -20h-123l-20 -21v-1556l-21 -21h-246l-20 21v1556l-20 21h-123l-21 -21v-1556l-20 -21h-246l-21 21v983l-20 20q-195 0 -313 102t-117 309z"/>
    <glyph glyph-name="periodcentered" unicode="·" horiz-adv-x="655" d="M492 410l-21 -21h-287l-20 21v266l20 20h287l21 -20v-266z"/>
    <glyph glyph-name="cedilla" unicode="¸" horiz-adv-x="1024" d="M599 -123q46 0 82 -36q36 -35 36 -109q-1 -74 -57 -118t-132 -44t-115 17q-38 17 -85 65v20l20 21h21q37 -37 71 -39q33 -2 72 -2q102 0 102 82t-102 82q-41 -1 -82 -21h-20l-21 21v20l164 164h82l-143 -143h20q41 20 87 20z"/>
    <glyph glyph-name="onesuperior" unicode="¹" horiz-adv-x="737" d="M287 1147h-21l-61 -62h-62l-20 21v164l143 143l41 21h185l20 -21v-491l20 -21h103l20 -20v-164l-20 -21h-512l-21 21v164l21 20h143l21 21v225z"/>
    <glyph glyph-name="ordmasculine" unicode="º" horiz-adv-x="1105" d="M881 553l-21 -21h-614l-21 21v20l21 21h614l21 -21v-20zM410 1065q0 -84 44 -124t99 -40t99 40t44 124t-44 124t-99 40t-99 -40t-44 -124zM553 676q-168 0 -279 110t-110 279q0 169 110 279t279 110t279 -111t110 -279t-110 -278t-279 -110z"/>
    <glyph glyph-name="guillemotright" unicode="»" horiz-adv-x="1617" d="M184 61l-20 21v82l348 328v40l-348 328v82l20 21h246l41 -21l328 -328l20 -41v-122l-20 -41l-328 -328l-41 -21h-246zM819 61l-20 21v82l348 328v40l-348 328v82l20 21h246l41 -21l328 -328l20 -41v-122l-20 -41l-328 -328l-41 -21h-246z"/>
    <glyph glyph-name="onequarter" unicode="¼" horiz-adv-x="1781" d="M1352 471h-21l-123 -123v-20h123l21 20v123zM1577 20l-21 -20h-184l-20 20v82l-21 21h-368l-21 20v185l21 41l348 348l41 20h204l21 -20v-697zM287 1147h-21l-61 -62h-62l-20 21v164l143 143l41 21h185l20 -21v-491l20 -21h103l20 -20v-164l-20 -21h-512l-21 21v164 l21 20h143l21 21v225zM1372 1208l-778 -1188l-21 -20h-122l-21 20v205l778 1188l21 21h123l20 -21v-205z"/>
    <glyph glyph-name="onehalf" unicode="½" horiz-adv-x="1802" d="M1434 488q0 66 -62 65q-62 0 -61 -61l-21 -21h-184l-21 21q0 126 75 196t212 70t212 -71t75 -182t-56 -167t-169 -113v-20h225l20 -21v-164l-20 -20h-553l-21 20v164l21 41l205 123q123 74 123 140zM287 1147h-21l-61 -62h-62l-20 21v164l143 143l41 21h185l20 -21v-491 l20 -21h103l20 -20v-164l-20 -21h-512l-21 21v164l21 20h143l21 21v225zM1372 1208l-778 -1188l-21 -20h-122l-21 20v205l778 1188l21 21h123l20 -21v-205z"/>
    <glyph glyph-name="threequarters" unicode="¾" horiz-adv-x="1781" d="M410 1024q-11 0 -41 -20h-62l-20 20v123l61 61v21h-205l-20 20v164l20 21h492l20 -21v-164l-20 -41l-62 -61v-21q13 0 38 -15t41 -33q44 -46 44 -148t-80 -178t-221 -76t-217 68t-76 178l21 20h184l21 -20q0 -41 61 -41q82 0 82 82q0 61 -61 61zM1352 471h-21l-123 -123 v-20h123l21 20v123zM1577 20l-21 -20h-184l-20 20v82l-21 21h-368l-21 20v185l21 41l348 348l41 20h204l21 -20v-697zM1372 1208l-778 -1188l-21 -20h-122l-21 20v205l778 1188l21 21h123l20 -21v-205z"/>
    <glyph glyph-name="questiondown" unicode="¿" horiz-adv-x="1310" d="M512 1004l20 20h287l21 -20v-267l-21 -20h-287l-20 20v267zM164 -20q0 128 59 212t157 150t126 106q27 42 26 105l21 20h246l20 -20q0 -205 -184 -328q-98 -66 -141 -119q-43 -54 -43 -124t52 -118q53 -48 157 -48t152 52t48 173l21 20h245l21 -20q0 -213 -121 -342 t-370 -129q-248 0 -370 114t-122 296z"/>
    <glyph glyph-name="Agrave" unicode="À" horiz-adv-x="1331" d="M881 1577l-21 -21h-184l-41 21l-225 205v41l20 20h205l41 -20l205 -205v-41zM860 573l-184 492h-21l-184 -492l21 -20h348zM1290 20l-20 -20h-185l-20 20l-102 267l-41 20h-512l-41 -20l-103 -267l-20 -20h-185l-20 20v205l471 1188l20 21h267l20 -21l471 -1188v-205z "/>
    <glyph glyph-name="Aacute" unicode="Á" horiz-adv-x="1331" d="M922 1782l-226 -205l-41 -21h-184l-20 21v41l204 205l41 20h205l21 -20v-41zM860 573l-184 492h-21l-184 -492l21 -20h348zM1290 20l-20 -20h-185l-20 20l-102 267l-41 20h-512l-41 -20l-103 -267l-20 -20h-185l-20 20v205l471 1188l20 21h267l20 -21l471 -1188v-205z "/>
    <glyph glyph-name="Acircumflex" unicode="Â" horiz-adv-x="1331" d="M860 573l-184 492h-21l-184 -492l21 -20h348zM1290 20l-20 -20h-185l-20 20l-102 267l-41 20h-512l-41 -20l-103 -267l-20 -20h-185l-20 20v205l471 1188l20 21h267l20 -21l471 -1188v-205zM1024 1577l-20 -21h-164l-41 21l-123 102h-21l-123 -102l-40 -21h-164l-21 21 v41l205 205l41 20h225l41 -20l205 -205v-41z"/>
    <glyph glyph-name="Atilde" unicode="Ã" horiz-adv-x="1331" d="M813 1516q-84 0 -138 36t-92 71q-38 36 -71 36q-61 0 -61 -82l-21 -21h-102l-21 21q-1 119 63 182t148 63t138 -35q54 -36 92 -72t71 -36q61 0 62 82l20 21h103l20 -21q0 -119 -64 -182t-147 -63zM860 573l-184 492h-21l-184 -492l21 -20h348zM1290 20l-20 -20h-185 l-20 20l-102 267l-41 20h-512l-41 -20l-103 -267l-20 -20h-185l-20 20v205l471 1188l20 21h267l20 -21l471 -1188v-205z"/>
    <glyph glyph-name="Adieresis" unicode="Ä" horiz-adv-x="1331" d="M573 1577l-20 -21h-225l-21 21v205l21 20h225l20 -20v-205zM1024 1577l-20 -21h-226l-20 21v205l20 20h226l20 -20v-205zM860 573l-184 492h-21l-184 -492l21 -20h348zM1290 20l-20 -20h-185l-20 20l-102 267l-41 20h-512l-41 -20l-103 -267l-20 -20h-185l-20 20v205 l471 1188l20 21h267l20 -21l471 -1188v-205z"/>
    <glyph glyph-name="Aring" unicode="Å" horiz-adv-x="1331" d="M860 573l-184 492h-21l-184 -492l21 -20h348zM1290 20l-20 -20h-185l-20 20l-102 267l-41 20h-512l-41 -20l-103 -267l-20 -20h-185l-20 20v205l471 1188l20 21h267l20 -21l471 -1188v-205zM676 1475h-21q-98 0 -161 48t-64 136q0 88 64 136t161 48h21q98 0 162 -48 t63 -136q1 -88 -63 -136t-162 -48zM655 1597h21q82 -1 82 61t-82 62h-21q-82 0 -82 -62t82 -61z"/>
    <glyph glyph-name="AE" unicode="Æ" horiz-adv-x="2027" d="M963 532v635l-21 21h-41l-20 -21l-349 -635l21 -20h389zM963 20v226l-21 20h-532l-41 -20l-123 -226l-21 -20h-164l-20 20v205l655 1188l21 21h1167l21 -21v-205l-21 -20h-614l-21 -21v-286l21 -21h573l21 -20v-205l-21 -21h-573l-21 -20v-328l21 -20h614l21 -21v-205 l-21 -20h-901z"/>
    <glyph glyph-name="Ccedilla" unicode="Ç" horiz-adv-x="1454" d="M804 -123q46 0 82 -36q36 -35 36 -109t-56 -118t-134 -44q-76 0 -114 17t-86 65v20l21 21h20q37 -37 71 -39q33 -2 73 -2q102 0 102 82t-102 82q-41 0 -82 -21h-21l-20 21v20l123 123v21q-268 16 -452 203q-183 187 -183 527t183 542t513 202q246 0 405 -115t189 -315 l-20 -20h-246l-21 20q-61 184 -307 184q-207 0 -308 -133t-101 -358t101 -359t308 -133q248 0 307 205l21 21h246l20 -21q-28 -226 -184 -330q-155 -104 -348 -120l-41 -21l-103 -102h21q41 20 87 20z"/>
    <glyph glyph-name="Egrave" unicode="È" horiz-adv-x="1290" d="M860 1577l-20 -21h-185l-41 21l-225 205v41l21 20h204l41 -20l205 -205v-41zM1167 20l-20 -20h-963l-20 20v1393l20 21h963l20 -21v-205l-20 -20h-676l-20 -21v-286l20 -21h635l20 -20v-205l-20 -21h-635l-20 -20v-328l20 -20h676l20 -21v-205z"/>
    <glyph glyph-name="Eacute" unicode="É" horiz-adv-x="1290" d="M942 1782l-225 -205l-41 -21h-184l-21 21v41l205 205l41 20h205l20 -20v-41zM1167 20l-20 -20h-963l-20 20v1393l20 21h963l20 -21v-205l-20 -20h-676l-20 -21v-286l20 -21h635l20 -20v-205l-20 -21h-635l-20 -20v-328l20 -20h676l20 -21v-205z"/>
    <glyph glyph-name="Ecircumflex" unicode="Ê" horiz-adv-x="1290" d="M1024 1577l-20 -21h-164l-41 21l-123 102h-21l-123 -102l-40 -21h-164l-21 21v41l205 205l41 20h225l41 -20l205 -205v-41zM1167 20l-20 -20h-963l-20 20v1393l20 21h963l20 -21v-205l-20 -20h-676l-20 -21v-286l20 -21h635l20 -20v-205l-20 -21h-635l-20 -20v-328 l20 -20h676l20 -21v-205z"/>
    <glyph glyph-name="Edieresis" unicode="Ë" horiz-adv-x="1290" d="M573 1618l-20 -21h-225l-21 21v205l21 20h225l20 -20v-205zM1024 1618l-20 -21h-226l-20 21v205l20 20h226l20 -20v-205zM1167 20l-20 -20h-963l-20 20v1393l20 21h963l20 -21v-205l-20 -20h-676l-20 -21v-286l20 -21h635l20 -20v-205l-20 -21h-635l-20 -20v-328l20 -20 h676l20 -21v-205z"/>
    <glyph glyph-name="Igrave" unicode="Ì" horiz-adv-x="614" d="M492 1577l-21 -21h-184l-41 21l-226 205v41l21 20h205l41 -20l205 -205v-41zM451 20l-21 -20h-246l-20 20v1393l20 21h246l21 -21v-1393z"/>
    <glyph glyph-name="Iacute" unicode="Í" horiz-adv-x="614" d="M594 1782l-225 -205l-41 -21h-185l-20 21v41l205 205l41 20h204l21 -20v-41zM451 20l-21 -20h-246l-20 20v1393l20 21h246l21 -21v-1393z"/>
    <glyph glyph-name="Icircumflex" unicode="Î" horiz-adv-x="614" d="M676 1577l-21 -21h-163l-41 21l-123 102h-41l-123 -102l-41 -21h-164l-20 21v41l204 205l41 20h246l41 -20l205 -205v-41zM451 20l-21 -20h-246l-20 20v1393l20 21h246l21 -21v-1393z"/>
    <glyph glyph-name="Idieresis" unicode="Ï" horiz-adv-x="614" d="M225 1618l-20 -21h-225l-21 21v205l21 20h225l20 -20v-205zM655 1618l-20 -21h-225l-21 21v205l21 20h225l20 -20v-205zM451 20l-21 -20h-246l-20 20v1393l20 21h246l21 -21v-1393z"/>
    <glyph glyph-name="Eth" unicode="Ð" horiz-adv-x="1413" d="M1044 717q0 251 -88 361t-301 110h-184l-20 -21v-307l20 -20h266l21 -21v-205l-21 -20h-266l-20 -21v-307l20 -20h184q213 0 301 110t88 361zM635 1434q371 0 533 -182t163 -535q0 -353 -163 -535t-533 -182h-451l-20 20v553l-21 21h-123l-20 20v205l20 21h123l21 20v553 l20 21h451z"/>
    <glyph glyph-name="Ntilde" unicode="Ñ" horiz-adv-x="1536" d="M915 1516q-84 0 -138 36t-92 71q-38 36 -71 36q-61 0 -61 -82l-21 -21h-102l-20 21q0 119 63 182t147 63t139 -35q54 -36 92 -72t71 -36q61 0 61 82l21 21h102l20 -21q0 -119 -64 -182t-147 -63zM1085 471v942l21 21h246l20 -21v-1393l-20 -20h-287l-41 20l-553 943h-20 v-943l-21 -20h-246l-20 20v1393l20 21h287l41 -21l553 -942h20z"/>
    <glyph glyph-name="Ograve" unicode="Ò" horiz-adv-x="1556" d="M983 1577l-20 -21h-185l-41 21l-225 205v41l20 20h205l41 -20l205 -205v-41zM1475 717q1 -328 -189 -533q-190 -204 -508 -204t-507 204q-189 205 -189 533q0 329 189 533t507 204t507 -204q190 -204 190 -533zM1188 717q0 221 -108 356t-302 135t-302 -135t-108 -356 t108 -357q108 -135 302 -135q194 -1 302 135t108 357z"/>
    <glyph glyph-name="Oacute" unicode="Ó" horiz-adv-x="1556" d="M1044 1782l-225 -205l-41 -21h-184l-21 21v41l205 205l41 20h205l20 -20v-41zM1475 717q1 -328 -189 -533q-190 -204 -508 -204t-507 204q-189 205 -189 533q0 329 189 533t507 204t507 -204q190 -204 190 -533zM1188 717q0 221 -108 356t-302 135t-302 -135t-108 -356 t108 -357q108 -135 302 -135q194 -1 302 135t108 357z"/>
    <glyph glyph-name="Ocircumflex" unicode="Ô" horiz-adv-x="1556" d="M1147 1577l-21 -21h-163l-41 21l-123 102h-41l-123 -102l-41 -21h-164l-20 21v41l204 205l41 20h246l41 -20l205 -205v-41zM1475 717q1 -328 -189 -533q-190 -204 -508 -204t-507 204q-189 205 -189 533q0 329 189 533t507 204t507 -204q190 -204 190 -533zM1188 717 q0 221 -108 356t-302 135t-302 -135t-108 -356t108 -357q108 -135 302 -135q194 -1 302 135t108 357z"/>
    <glyph glyph-name="Otilde" unicode="Õ" horiz-adv-x="1556" d="M936 1516q-84 0 -138 36t-92 71q-38 36 -71 36q-61 0 -62 -82l-20 -21h-102l-21 21q0 119 64 182t147 63q84 0 138 -35q54 -36 92 -72t71 -36q61 0 62 82l20 21h102l21 -21q1 -119 -63 -182t-148 -63zM1475 717q1 -328 -189 -533q-190 -204 -508 -204t-507 204 q-189 205 -189 533q0 329 189 533t507 204t507 -204q190 -204 190 -533zM1188 717q0 221 -108 356t-302 135t-302 -135t-108 -356t108 -357q108 -135 302 -135q194 -1 302 135t108 357z"/>
    <glyph glyph-name="Odieresis" unicode="Ö" horiz-adv-x="1556" d="M696 1618l-20 -21h-225l-21 21v205l21 20h225l20 -20v-205zM1126 1618l-20 -21h-225l-21 21v205l21 20h225l20 -20v-205zM1475 717q1 -328 -189 -533q-190 -204 -508 -204t-507 204q-189 205 -189 533q0 329 189 533t507 204t507 -204q190 -204 190 -533zM1188 717 q0 221 -108 356t-302 135t-302 -135t-108 -356t108 -357q108 -135 302 -135q194 -1 302 135t108 357z"/>
    <glyph glyph-name="multiply" unicode="×" horiz-adv-x="1249" d="M1126 164l-143 -144h-20l-328 328h-21l-327 -328h-21l-143 144v20l328 328v20l-328 328v21l143 143h21l327 -328h21l328 328h20l143 -143v-21l-327 -328v-20l327 -328v-20z"/>
    <glyph glyph-name="Oslash" unicode="Ø" horiz-adv-x="1556" d="M762 1208q-180 0 -286 -135q-108 -135 -107 -356q0 -164 41 -246h20l614 614v21q-102 102 -282 102zM1188 717q0 164 -41 246h-41l-594 -594v-41q102 -102 282 -102t286 134q108 135 108 357zM82 717q0 329 189 533t491 204t467 -164h20l103 103l41 20h20l21 -20v-103 l-82 -82v-41q123 -184 123 -450q1 -328 -189 -533t-508 -204q-274 -1 -471 163h-20l-82 -82l-41 -20h-21l-20 20v103l82 82v20q-123 184 -123 451z"/>
    <glyph glyph-name="Ugrave" unicode="Ù" horiz-adv-x="1474" d="M922 1577l-21 -21h-184l-41 21l-225 205v41l20 20h205l41 -20l205 -205v-41zM1311 553q-1 -277 -149 -425t-424 -148t-426 148q-148 148 -148 425v860l20 21h246l21 -21v-860q1 -328 287 -328t286 328v860l20 21h246l21 -21v-860z"/>
    <glyph glyph-name="Uacute" unicode="Ú" horiz-adv-x="1474" d="M1024 1782l-225 -205l-41 -21h-185l-20 21v41l205 205l41 20h205l20 -20v-41zM1311 553q-1 -277 -149 -425t-424 -148t-426 148q-148 148 -148 425v860l20 21h246l21 -21v-860q1 -328 287 -328t286 328v860l20 21h246l21 -21v-860z"/>
    <glyph glyph-name="Ucircumflex" unicode="Û" horiz-adv-x="1474" d="M1106 1577l-21 -21h-163l-41 21l-123 102h-41l-123 -102l-41 -21h-164l-20 21v41l204 205l41 20h246l41 -20l205 -205v-41zM1311 553q-1 -277 -149 -425t-424 -148t-426 148q-148 148 -148 425v860l20 21h246l21 -21v-860q1 -328 287 -328t286 328v860l20 21h246l21 -21 v-860z"/>
    <glyph glyph-name="Udieresis" unicode="Ü" horiz-adv-x="1474" d="M635 1618l-21 -21h-225l-20 21v205l20 20h225l21 -20v-205zM1085 1618l-20 -21h-225l-21 21v205l21 20h225l20 -20v-205zM1311 553q-1 -277 -149 -425t-424 -148t-426 148q-148 148 -148 425v860l20 21h246l21 -21v-860q1 -328 287 -328t286 328v860l20 21h246l21 -21 v-860z"/>
    <glyph glyph-name="Yacute" unicode="Ý" horiz-adv-x="1228" d="M901 1782l-225 -205l-41 -21h-184l-21 21v41l205 205l41 20h205l20 -20v-41zM1167 1208l-409 -676v-512l-21 -20h-245l-21 20v512l-410 676v205l21 21h143l41 -21l328 -553h41l328 553l41 21h143l20 -21v-205z"/>
    <glyph glyph-name="Thorn" unicode="Þ" horiz-adv-x="1310" d="M942 717q0 82 -41 123t-143 41h-287l-20 -21v-287l20 -20h287q102 0 143 41t41 123zM758 1126q219 0 345 -106t126 -302t-132 -304t-339 -107h-287l-20 -20v-267l-21 -20h-246l-20 20v1393l20 21h246l21 -21v-266l20 -21h287z"/>
    <glyph glyph-name="germandbls" unicode="ß" horiz-adv-x="1290" d="M1229 430q0 -182 -126 -316t-345 -134q-112 0 -166 30l-19 10l-20 21v184l20 21q61 -20 155 -20t154 58q60 60 60 176t-80 156t-227 39l-21 21v164l21 20q106 0 166 43q59 43 59 121q0 184 -184 184q-115 0 -160 -49t-45 -135v-1004l-20 -20h-246l-21 20v779l-20 20h-103 l-20 21v164l20 20h103l20 20q0 186 132 298t356 112t350 -114q125 -114 125 -275q0 -102 -52 -178t-132 -109v-20q106 -18 186 -102t80 -226z"/>
    <glyph glyph-name="agrave" unicode="à" horiz-adv-x="1064" d="M737 1167l-20 -20h-185l-40 20l-226 205v41l21 21h205l40 -21l205 -205v-41zM348 328q0 -102 144 -103q78 0 131 41t53 103v41l-21 20q-41 20 -123 21q-184 0 -184 -123zM514 655q60 0 141 -20l21 20v21q0 78 -26 100t-92 23q-66 0 -88 -2q-22 -3 -46 -17t-35 -43 l-20 -20h-246l-21 20q0 115 104 211t334 96t326 -114t97 -357v-553l-21 -20h-225l-21 20l-20 41h-21q-31 -31 -96 -56q-65 -26 -129 -25q-170 0 -269 87t-100 240q0 88 32 154q32 65 79 101t112 59q66 23 118 29t112 5z"/>
    <glyph glyph-name="aacute" unicode="á" horiz-adv-x="1064" d="M799 1372l-226 -205l-41 -20h-184l-20 20v41l204 205l41 21h205l21 -21v-41zM348 328q0 -102 144 -103q78 0 131 41t53 103v41l-21 20q-41 20 -123 21q-184 0 -184 -123zM514 655q60 0 141 -20l21 20v21q0 78 -26 100t-92 23q-66 0 -88 -2q-22 -3 -46 -17t-35 -43 l-20 -20h-246l-21 20q0 115 104 211t334 96t326 -114t97 -357v-553l-21 -20h-225l-21 20l-20 41h-21q-31 -31 -96 -56q-65 -26 -129 -25q-170 0 -269 87t-100 240q0 88 32 154q32 65 79 101t112 59q66 23 118 29t112 5z"/>
    <glyph glyph-name="acircumflex" unicode="â" horiz-adv-x="1064" d="M901 1167l-20 -20h-164l-41 20l-123 103h-41l-123 -103l-41 -20h-164l-20 20v41l205 205l41 21h245l41 -21l205 -205v-41zM348 328q0 -102 144 -103q78 0 131 41t53 103v41l-21 20q-41 20 -123 21q-184 0 -184 -123zM514 655q60 0 141 -20l21 20v21q0 78 -26 100t-92 23 q-66 0 -88 -2q-22 -3 -46 -17t-35 -43l-20 -20h-246l-21 20q0 115 104 211t334 96t326 -114t97 -357v-553l-21 -20h-225l-21 20l-20 41h-21q-31 -31 -96 -56q-65 -26 -129 -25q-170 0 -269 87t-100 240q0 88 32 154q32 65 79 101t112 59q66 23 118 29t112 5z"/>
    <glyph glyph-name="atilde" unicode="ã" horiz-adv-x="1064" d="M690 1106q-84 0 -138 36t-92 72t-71 35q-61 0 -61 -82l-21 -20h-102l-21 20q0 119 64 183t148 63q84 0 138 -36q54 -35 92 -71t70 -36q61 0 62 82l20 20h103l20 -20q0 -119 -63 -183q-64 -63 -148 -63zM348 328q0 -102 144 -103q78 0 131 41t53 103v41l-21 20 q-41 20 -123 21q-184 0 -184 -123zM514 655q60 0 141 -20l21 20v21q0 78 -26 100t-92 23q-66 0 -88 -2q-22 -3 -46 -17t-35 -43l-20 -20h-246l-21 20q0 115 104 211t334 96t326 -114t97 -357v-553l-21 -20h-225l-21 20l-20 41h-21q-31 -31 -96 -56q-65 -26 -129 -25 q-170 0 -269 87t-100 240q0 88 32 154q32 65 79 101t112 59q66 23 118 29t112 5z"/>
    <glyph glyph-name="adieresis" unicode="ä" horiz-adv-x="1064" d="M451 1208l-21 -20h-225l-21 20v205l21 21h225l21 -21v-205zM881 1208l-21 -20h-225l-21 20v205l21 21h225l21 -21v-205zM348 328q0 -102 144 -103q78 0 131 41t53 103v41l-21 20q-41 20 -123 21q-184 0 -184 -123zM514 655q60 0 141 -20l21 20v21q0 78 -26 100t-92 23 q-66 0 -88 -2q-22 -3 -46 -17t-35 -43l-20 -20h-246l-21 20q0 115 104 211t334 96t326 -114t97 -357v-553l-21 -20h-225l-21 20l-20 41h-21q-31 -31 -96 -56q-65 -26 -129 -25q-170 0 -269 87t-100 240q0 88 32 154q32 65 79 101t112 59q66 23 118 29t112 5z"/>
    <glyph glyph-name="aring" unicode="å" horiz-adv-x="1064" d="M307 1290q-1 88 63 136t162 48t162 -48t64 -136t-64 -136t-162 -48t-162 48t-63 136zM614 1290q0 62 -82 62t-81 -62q-1 -61 81 -61t82 61zM348 328q0 -102 144 -103q78 0 131 41t53 103v41l-21 20q-41 20 -123 21q-184 0 -184 -123zM514 655q60 0 141 -20l21 20v21 q0 78 -26 100t-92 23q-66 0 -88 -2q-22 -3 -46 -17t-35 -43l-20 -20h-246l-21 20q0 115 104 211t334 96t326 -114t97 -357v-553l-21 -20h-225l-21 20l-20 41h-21q-31 -31 -96 -56q-65 -26 -129 -25q-170 0 -269 87t-100 240q0 88 32 154q32 65 79 101t112 59q66 23 118 29 t112 5z"/>
    <glyph glyph-name="ae" unicode="æ" horiz-adv-x="1720" d="M1168 799q-137 0 -179 -129q-6 -23 -6 -35l21 -21h327l21 21q0 36 -24 79q-46 85 -160 85zM348 328q0 -102 144 -103q78 0 131 41t53 103v41l-21 20q-41 20 -123 21q-184 0 -184 -123zM514 655q60 0 141 -20l21 20v21q0 78 -26 100t-92 23q-66 0 -88 -2q-22 -3 -46 -17 t-35 -43l-20 -20h-246l-21 20q0 115 104 211t328 96q223 0 326 -102h21q102 102 286 102q236 0 364 -152t128 -380v-82l-21 -20h-634l-21 -21q0 -49 49 -106t159 -57t140 61l21 20h245l21 -20q-16 -105 -107 -199q-105 -108 -329 -108q-114 0 -203 40q-90 40 -139 103h-21 q-143 -143 -389 -143q-170 0 -269 87t-100 240q0 88 32 154q32 65 79 101t112 59q66 23 118 29t112 5z"/>
    <glyph glyph-name="ccedilla" unicode="ç" horiz-adv-x="1105" d="M61 519q1 237 141 381t371 144q183 0 313 -87t158 -261l-20 -20h-246l-20 20q-35 102 -185 103q-109 0 -167 -75t-58 -212t58 -212t167 -75q150 0 185 103l20 20h246l20 -20q-18 -115 -88 -194q-70 -78 -144 -110t-157 -44l-41 -21l-102 -102h20q41 20 87 20t82 -36 q36 -35 36 -109t-56 -118t-133 -44t-115 17t-85 65v20l21 21h20q37 -37 71 -39q33 -2 72 -2q102 0 103 82q0 82 -103 82q-40 -1 -81 -21h-21l-20 21v20l122 123v21q-215 16 -343 159t-128 380z"/>
    <glyph glyph-name="egrave" unicode="è" horiz-adv-x="1105" d="M737 1167l-20 -20h-185l-40 20l-226 205v41l21 21h205l40 -21l205 -205v-41zM553 799q-143 0 -178 -129q-6 -23 -6 -35l20 -21h328l20 21q0 36 -23 79q-46 85 -161 85zM1044 512v-82l-20 -20h-635l-20 -21q0 -49 49 -106q48 -57 158 -57t141 61l20 20h246l21 -20 q-16 -105 -107 -199q-47 -49 -131 -79t-193 -29q-247 0 -379 152t-132 379q0 228 127 381q128 152 364 152q235 0 363 -152t128 -380z"/>
    <glyph glyph-name="eacute" unicode="é" horiz-adv-x="1105" d="M840 1372l-226 -205l-41 -20h-184l-20 20v41l204 205l41 21h205l21 -21v-41zM553 799q-143 0 -178 -129q-6 -23 -6 -35l20 -21h328l20 21q0 36 -23 79q-46 85 -161 85zM1044 512v-82l-20 -20h-635l-20 -21q0 -49 49 -106q48 -57 158 -57t141 61l20 20h246l21 -20 q-16 -105 -107 -199q-47 -49 -131 -79t-193 -29q-247 0 -379 152t-132 379q0 228 127 381q128 152 364 152q235 0 363 -152t128 -380z"/>
    <glyph glyph-name="ecircumflex" unicode="ê" horiz-adv-x="1105" d="M922 1167l-21 -20h-164l-41 20l-123 103h-41l-122 -103l-41 -20h-164l-21 20v41l205 205l41 21h246l41 -21l205 -205v-41zM553 799q-143 0 -178 -129q-6 -23 -6 -35l20 -21h328l20 21q0 36 -23 79q-46 85 -161 85zM1044 512v-82l-20 -20h-635l-20 -21q0 -49 49 -106 q48 -57 158 -57t141 61l20 20h246l21 -20q-16 -105 -107 -199q-47 -49 -131 -79t-193 -29q-247 0 -379 152t-132 379q0 228 127 381q128 152 364 152q235 0 363 -152t128 -380z"/>
    <glyph glyph-name="edieresis" unicode="ë" horiz-adv-x="1105" d="M471 1208l-20 -20h-226l-20 20v205l20 21h226l20 -21v-205zM901 1208l-20 -20h-226l-20 20v205l20 21h226l20 -21v-205zM553 799q-143 0 -178 -129q-6 -23 -6 -35l20 -21h328l20 21q0 36 -23 79q-46 85 -161 85zM1044 512v-82l-20 -20h-635l-20 -21q0 -49 49 -106 q48 -57 158 -57t141 61l20 20h246l21 -20q-16 -105 -107 -199q-47 -49 -131 -79t-193 -29q-247 0 -379 152t-132 379q0 228 127 381q128 152 364 152q235 0 363 -152t128 -380z"/>
    <glyph glyph-name="igrave" unicode="ì" horiz-adv-x="532" d="M451 1167l-21 -20h-184l-41 20l-225 205v41l20 21h205l41 -21l205 -205v-41zM410 20l-21 -20h-246l-20 20v984l20 20h246l21 -20v-984z"/>
    <glyph glyph-name="iacute" unicode="í" horiz-adv-x="532" d="M553 1372l-225 -205l-41 -20h-185l-20 20v41l205 205l41 21h204l21 -21v-41zM410 20l-21 -20h-246l-20 20v984l20 20h246l21 -20v-984z"/>
    <glyph glyph-name="icircumflex" unicode="î" horiz-adv-x="532" d="M635 1167l-21 -20h-163l-41 20l-123 103h-41l-123 -103l-41 -20h-164l-20 20v41l204 205l41 21h246l41 -21l205 -205v-41zM410 20l-21 -20h-246l-20 20v984l20 20h246l21 -20v-984z"/>
    <glyph glyph-name="idieresis" unicode="ï" horiz-adv-x="532" d="M184 1208l-20 -20h-225l-21 20v205l21 21h225l20 -21v-205zM614 1208l-20 -20h-225l-21 20v205l21 21h225l20 -21v-205zM410 20l-21 -20h-246l-20 20v984l20 20h246l21 -20v-984z"/>
    <glyph glyph-name="eth" unicode="ð" horiz-adv-x="1146" d="M799 512q0 287 -226 287q-94 0 -149 -76t-55 -211t55 -211t149 -76q226 0 226 287zM1085 546q0 -276 -133 -421q-132 -145 -362 -145t-369 135t-139 390t119 397t331 142q74 0 130 -20t75 -41l21 -20h20q-31 123 -123 184h-20l-41 -41l-41 -21h-123l-20 21v82l20 20v21 q-61 20 -143 20l-21 21v20l123 123l41 21q102 0 184 -21h21l41 41l41 21h123l20 -21v-82l-41 -41v-20q139 -125 203 -307t63 -458z"/>
    <glyph glyph-name="ntilde" unicode="ñ" d="M751 1106q-84 0 -138 36t-92 72t-70 35q-61 0 -62 -82l-20 -20h-103l-20 20q0 119 63 183t147 63q84 0 139 -36q54 -35 92 -71t71 -36q61 0 61 82l21 20h102l21 -20q0 -118 -64 -182t-148 -64zM799 614q0 184 -164 185q-225 0 -225 -267v-512l-21 -20h-246l-20 20v984 l20 20h226l20 -20l21 -62h20q102 102 275 102t277 -111q103 -112 103 -298v-615l-20 -20h-246l-20 20v594z"/>
    <glyph glyph-name="ograve" unicode="ò" horiz-adv-x="1146" d="M778 1167l-20 -20h-185l-41 20l-225 205v41l21 21h204l41 -21l205 -205v-41zM799 512q-1 137 -59 212t-167 75t-167 -75t-58 -212t58 -212t168 -75q108 0 166 75t59 212zM1085 512q0 -244 -140 -388q-139 -144 -371 -144t-372 144t-141 388q1 244 141 388t371 144 t371 -144t141 -388z"/>
    <glyph glyph-name="oacute" unicode="ó" horiz-adv-x="1146" d="M840 1372l-226 -205l-41 -20h-184l-20 20v41l204 205l41 21h205l21 -21v-41zM799 512q-1 137 -59 212t-167 75t-167 -75t-58 -212t58 -212t168 -75q108 0 166 75t59 212zM1085 512q0 -244 -140 -388q-139 -144 -371 -144t-372 144t-141 388q1 244 141 388t371 144 t371 -144t141 -388z"/>
    <glyph glyph-name="ocircumflex" unicode="ô" horiz-adv-x="1146" d="M922 1167l-21 -20h-164l-41 20l-123 103h-41l-122 -103l-41 -20h-164l-21 20v41l205 205l41 21h246l41 -21l205 -205v-41zM799 512q-1 137 -59 212t-167 75t-167 -75t-58 -212t58 -212t168 -75q108 0 166 75t59 212zM1085 512q0 -244 -140 -388q-139 -144 -371 -144 t-372 144t-141 388q1 244 141 388t371 144t371 -144t141 -388z"/>
    <glyph glyph-name="otilde" unicode="õ" horiz-adv-x="1146" d="M710 1106q-84 0 -138 36t-92 72t-70 35q-61 0 -62 -82l-20 -20h-103l-20 20q0 119 63 183q64 64 148 63q84 0 138 -36q54 -35 92 -71t71 -36q61 0 61 82l21 20h102l21 -20q0 -118 -64 -182t-148 -64zM799 512q-1 137 -59 212t-167 75t-167 -75t-58 -212t58 -212t168 -75 q108 0 166 75t59 212zM1085 512q0 -244 -140 -388q-139 -144 -371 -144t-372 144t-141 388q1 244 141 388t371 144t371 -144t141 -388z"/>
    <glyph glyph-name="odieresis" unicode="ö" horiz-adv-x="1146" d="M492 1208l-21 -20h-225l-21 20v205l21 21h225l21 -21v-205zM922 1208l-21 -20h-225l-21 20v205l21 21h225l21 -21v-205zM799 512q-1 137 -59 212t-167 75t-167 -75t-58 -212t58 -212t168 -75q108 0 166 75t59 212zM1085 512q0 -244 -140 -388q-139 -144 -371 -144 t-372 144t-141 388q1 244 141 388t371 144t371 -144t141 -388z"/>
    <glyph glyph-name="divide" unicode="÷" horiz-adv-x="1228" d="M778 20l-20 -20h-287l-20 20v205l20 21h287l20 -21v-205zM778 778l-20 -20h-287l-20 20v205l20 21h287l20 -21v-205zM1106 389l-21 -20h-942l-20 20v225l20 21h942l21 -21v-225z"/>
    <glyph glyph-name="oslash" unicode="ø" horiz-adv-x="1146" d="M570 799q-106 0 -164 -75t-58 -212v-102h21l348 327v21q-41 41 -147 41zM576 225q106 0 164 75t59 212v102h-21l-348 -327v-21q40 -41 146 -41zM1085 512q0 -244 -140 -388t-372 -144q-190 0 -327 102h-21l-41 -41l-41 -21h-20l-21 21v102l41 41v21q-82 109 -82 307 q1 244 141 388t371 144q190 0 328 -102h21l41 41l41 21h20l20 -21v-102l-40 -41v-21q81 -108 81 -307z"/>
    <glyph glyph-name="ugrave" unicode="ù" horiz-adv-x="1167" d="M778 1167l-20 -20h-185l-41 20l-225 205v41l21 21h204l41 -21l205 -205v-41zM389 410q0 -184 164 -185q102 0 154 67q51 67 51 179v533l20 20h246l20 -20v-984l-20 -20h-225l-21 20l-20 62h-21q-31 -61 -149 -91q-45 -11 -96 -11q-182 0 -286 111q-103 112 -104 298v615 l21 20h246l20 -20v-594z"/>
    <glyph glyph-name="uacute" unicode="ú" horiz-adv-x="1167" d="M840 1372l-226 -205l-41 -20h-184l-20 20v41l204 205l41 21h205l21 -21v-41zM389 410q0 -184 164 -185q102 0 154 67q51 67 51 179v533l20 20h246l20 -20v-984l-20 -20h-225l-21 20l-20 62h-21q-31 -61 -149 -91q-45 -11 -96 -11q-182 0 -286 111q-103 112 -104 298v615 l21 20h246l20 -20v-594z"/>
    <glyph glyph-name="ucircumflex" unicode="û" horiz-adv-x="1167" d="M942 1167l-20 -20h-164l-41 20l-123 103h-41l-123 -103l-41 -20h-164l-20 20v41l205 205l41 21h245l41 -21l205 -205v-41zM389 410q0 -184 164 -185q102 0 154 67q51 67 51 179v533l20 20h246l20 -20v-984l-20 -20h-225l-21 20l-20 62h-21q-31 -61 -149 -91 q-45 -11 -96 -11q-182 0 -286 111q-103 112 -104 298v615l21 20h246l20 -20v-594z"/>
    <glyph glyph-name="udieresis" unicode="ü" horiz-adv-x="1167" d="M492 1208l-21 -20h-225l-21 20v205l21 21h225l21 -21v-205zM922 1208l-21 -20h-225l-21 20v205l21 21h225l21 -21v-205zM389 410q0 -184 164 -185q102 0 154 67q51 67 51 179v533l20 20h246l20 -20v-984l-20 -20h-225l-21 20l-20 62h-21q-31 -61 -149 -91 q-45 -11 -96 -11q-182 0 -286 111q-103 112 -104 298v615l21 20h246l20 -20v-594z"/>
    <glyph glyph-name="yacute" unicode="ý" horiz-adv-x="1085" d="M819 1372l-225 -205l-41 -20h-184l-21 20v41l205 205l41 21h205l20 -21v-41zM246 -348h-103l-20 20v205l20 21h103q74 0 100 16t43 66v20l-328 799v205l21 20h184l21 -20l245 -697h21l246 697l20 20h185l20 -20v-205l-328 -819q-36 -86 -66 -140q-75 -131 -206 -168 q-74 -20 -178 -20z"/>
    <glyph glyph-name="thorn" unicode="þ" horiz-adv-x="1228" d="M860 512q0 287 -225 287t-225 -287t225 -287t225 287zM1147 512q0 -240 -130 -386t-321 -146q-82 0 -148 26t-93 51l-25 25h-20v-471l-21 -21h-246l-20 21v1802l20 21h246l21 -21v-471h20q23 35 104 69t162 33q190 0 320 -146t131 -386z"/>
    <glyph glyph-name="ydieresis" unicode="ÿ" horiz-adv-x="1085" d="M451 1208l-21 -20h-225l-21 20v205l21 21h225l21 -21v-205zM901 1208l-20 -20h-226l-20 20v205l20 21h226l20 -21v-205zM246 -348h-103l-20 20v205l20 21h103q74 0 100 16t43 66v20l-328 799v205l21 20h184l21 -20l245 -697h21l246 697l20 20h185l20 -20v-205l-328 -819 q-36 -86 -66 -140q-75 -131 -206 -168q-74 -20 -178 -20z"/>
    <glyph glyph-name="Amacron" unicode="Ā" horiz-adv-x="1331" d="M860 573l-184 492h-21l-184 -492l21 -20h348zM1290 20l-20 -20h-185l-20 20l-102 267l-41 20h-512l-41 -20l-103 -267l-20 -20h-185l-20 20v205l471 1188l20 21h267l20 -21l471 -1188v-205zM1044 1597l-20 -20h-717l-20 20v185l20 20h717l20 -20v-185z"/>
    <glyph glyph-name="amacron" unicode="ā" horiz-adv-x="1064" d="M901 1188l-20 -21h-697l-20 21v184l20 21h697l20 -21v-184zM348 328q0 -102 144 -103q78 0 131 41t53 103v41l-21 20q-41 20 -123 21q-184 0 -184 -123zM514 655q60 0 141 -20l21 20v21q0 78 -26 100t-92 23q-66 0 -88 -2q-22 -3 -46 -17t-35 -43l-20 -20h-246l-21 20 q0 115 104 211t334 96t326 -114t97 -357v-553l-21 -20h-225l-21 20l-20 41h-21q-31 -31 -96 -56q-65 -26 -129 -25q-170 0 -269 87t-100 240q0 88 32 154q32 65 79 101t112 59q66 23 118 29t112 5z"/>
    <glyph glyph-name="Abreve" unicode="Ă" horiz-adv-x="1331" d="M860 573l-184 492h-21l-184 -492l21 -20h348zM1290 20l-20 -20h-185l-20 20l-102 267l-41 20h-512l-41 -20l-103 -267l-20 -20h-185l-20 20v205l471 1188l20 21h267l20 -21l471 -1188v-205zM676 1536h-21q-147 0 -227 80t-80 207l21 20h123l20 -20q0 -123 143 -123h21 q143 0 143 123l21 20h123l20 -20q0 -127 -80 -207t-227 -80z"/>
    <glyph glyph-name="abreve" unicode="ă" horiz-adv-x="1064" d="M532 1290q143 0 144 123l20 21h123l21 -21q0 -127 -80 -207t-228 -80t-227 80q-80 80 -80 207l21 21h123l20 -21q0 -123 143 -123zM348 328q0 -102 144 -103q78 0 131 41t53 103v41l-21 20q-41 20 -123 21q-184 0 -184 -123zM514 655q60 0 141 -20l21 20v21q0 78 -26 100 t-92 23q-66 0 -88 -2q-22 -3 -46 -17t-35 -43l-20 -20h-246l-21 20q0 115 104 211t334 96t326 -114t97 -357v-553l-21 -20h-225l-21 20l-20 41h-21q-31 -31 -96 -56q-65 -26 -129 -25q-170 0 -269 87t-100 240q0 88 32 154q32 65 79 101t112 59q66 23 118 29t112 5z"/>
    <glyph glyph-name="Aogonek" unicode="Ą" horiz-adv-x="1331" d="M1065 -164q0 -82 102 -82q63 0 90 17l13 4l20 -21v-123l-20 -20q-41 -41 -164 -41t-195 59q-71 59 -71 161t66 158q67 54 159 72l-102 267l-41 20h-512l-41 -20l-103 -267l-20 -20h-185l-20 20v205l471 1188l20 21h267l20 -21l471 -1188v-205l-20 -20q-94 -16 -150 -59 t-55 -105zM860 573l-184 492h-21l-184 -492l21 -20h348z"/>
    <glyph glyph-name="aogonek" unicode="ą" horiz-adv-x="1064" d="M348 328q0 -102 144 -103q78 0 131 41t53 103v41l-21 20q-41 20 -123 21q-184 0 -184 -123zM514 655q60 0 141 -20l21 20v21q0 78 -26 100t-92 23q-66 0 -88 -2q-22 -3 -46 -17t-35 -43l-20 -20h-246l-21 20q0 115 104 211t334 96t326 -114t97 -357v-553l-21 -20 q-94 -16 -149 -59t-56 -105q0 -82 103 -82q61 0 90 17l12 4l21 -21v-123l-21 -20q-41 -41 -164 -41q-122 0 -194 59t-72 159t58 156q58 54 126 76l-20 41h-21q-31 -31 -96 -56q-65 -26 -129 -25q-170 0 -269 87t-100 240q0 88 32 154q32 65 79 101t112 59q66 23 118 29 t112 5z"/>
    <glyph glyph-name="Cacute" unicode="Ć" horiz-adv-x="1454" d="M778 225q248 0 307 205l21 21h246l20 -21q-30 -213 -188 -332t-406 -118q-330 0 -513 202t-183 535t183 535t513 202q246 0 405 -115t189 -315l-20 -20h-246l-21 20q-61 184 -307 184q-207 0 -308 -133t-101 -358t101 -359t308 -133zM1004 1782l-226 -205l-41 -21h-184 l-21 21v41l205 205l41 20h205l21 -20v-41z"/>
    <glyph glyph-name="cacute" unicode="ć" horiz-adv-x="1105" d="M819 1372l-225 -205l-41 -20h-184l-21 20v41l205 205l41 21h205l20 -21v-41zM348 512q0 -137 58 -212t167 -75q150 0 185 103l20 20h246l20 -20q-28 -174 -158 -261t-313 -87q-231 0 -371 144t-141 388q1 244 141 388t371 144q183 0 313 -87t158 -261l-20 -20h-246 l-20 20q-35 102 -185 103q-109 0 -167 -75t-58 -212z"/>
    <glyph glyph-name="Ccircumflex" unicode="Ĉ" horiz-adv-x="1454" d="M778 225q248 0 307 205l21 21h246l20 -21q-30 -213 -188 -332t-406 -118q-330 0 -513 202t-183 535t183 535t513 202q246 0 405 -115t189 -315l-20 -20h-246l-21 20q-61 184 -307 184q-207 0 -308 -133t-101 -358t101 -359t308 -133zM1147 1577l-21 -21h-163l-41 21 l-123 102h-41l-123 -102l-41 -21h-164l-20 21v41l204 205l41 20h246l41 -20l205 -205v-41z"/>
    <glyph glyph-name="ccircumflex" unicode="ĉ" horiz-adv-x="1105" d="M942 1167l-20 -20h-164l-41 20l-123 103h-41l-123 -103l-41 -20h-164l-20 20v41l205 205l41 21h245l41 -21l205 -205v-41zM348 512q0 -137 58 -212t167 -75q150 0 185 103l20 20h246l20 -20q-28 -174 -158 -261t-313 -87q-231 0 -371 144t-141 388q1 244 141 388t371 144 q183 0 313 -87t158 -261l-20 -20h-246l-20 20q-35 102 -185 103q-109 0 -167 -75t-58 -212z"/>
    <glyph glyph-name="Cdotaccent" unicode="Ċ" horiz-adv-x="1454" d="M922 1618l-21 -21h-246l-20 21v205l20 20h246l21 -20v-205zM778 225q248 0 307 205l21 21h246l20 -21q-30 -213 -188 -332t-406 -118q-330 0 -513 202t-183 535t183 535t513 202q246 0 405 -115t189 -315l-20 -20h-246l-21 20q-61 184 -307 184q-207 0 -308 -133 t-101 -358t101 -359t308 -133z"/>
    <glyph glyph-name="cdotaccent" unicode="ċ" horiz-adv-x="1105" d="M696 1208l-20 -20h-246l-20 20v205l20 21h246l20 -21v-205zM348 512q0 -137 58 -212t167 -75q150 0 185 103l20 20h246l20 -20q-28 -174 -158 -261t-313 -87q-231 0 -371 144t-141 388q1 244 141 388t371 144q183 0 313 -87t158 -261l-20 -20h-246l-20 20 q-35 102 -185 103q-109 0 -167 -75t-58 -212z"/>
    <glyph glyph-name="Ccaron" unicode="Č" horiz-adv-x="1454" d="M778 225q248 0 307 205l21 21h246l20 -21q-30 -213 -188 -332t-406 -118q-330 0 -513 202t-183 535t183 535t513 202q246 0 405 -115t189 -315l-20 -20h-246l-21 20q-61 184 -307 184q-207 0 -308 -133t-101 -358t101 -359t308 -133zM410 1823l20 20h164l41 -20l123 -103 h41l123 103l41 20h163l21 -20v-41l-205 -205l-41 -21h-246l-41 21l-204 205v41z"/>
    <glyph glyph-name="ccaron" unicode="č" horiz-adv-x="1105" d="M205 1413l20 21h164l41 -21l123 -102h41l123 102l41 21h164l20 -21v-41l-205 -205l-41 -20h-245l-41 20l-205 205v41zM348 512q0 -137 58 -212t167 -75q150 0 185 103l20 20h246l20 -20q-28 -174 -158 -261t-313 -87q-231 0 -371 144t-141 388q1 244 141 388t371 144 q183 0 313 -87t158 -261l-20 -20h-246l-20 20q-35 102 -185 103q-109 0 -167 -75t-58 -212z"/>
    <glyph glyph-name="Dcaron" unicode="Ď" horiz-adv-x="1413" d="M328 1823l20 20h164l41 -20l123 -103h41l123 103l41 20h163l21 -20v-41l-205 -205l-41 -21h-246l-41 21l-204 205v41zM1044 717q0 251 -88 361t-301 110h-184l-20 -21v-901l20 -20h184q213 0 301 110t88 361zM1331 717q0 -353 -163 -535t-533 -182h-451l-20 20v1393 l20 21h451q371 0 533 -182t163 -535z"/>
    <glyph glyph-name="dcaron" unicode="ď" horiz-adv-x="1413" d="M1188 983v21l102 163v21l-20 20h-41l-21 21v184l21 21h164l20 -21v-205l-20 -61l-103 -143l-20 -21h-82zM348 512q0 -287 225 -287t226 287t-225 287t-226 -287zM61 512q0 240 130 386t321 146q82 0 148 -26t94 -51l24 -25h21v471l20 21h246l20 -21v-1393l-20 -20h-225 l-21 20l-20 62h-21q-24 -36 -104 -69q-80 -34 -162 -33q-190 0 -321 146q-130 146 -130 386z"/>
    <glyph glyph-name="Dcroat" unicode="Đ" horiz-adv-x="1413" d="M1044 717q0 251 -88 361t-301 110h-184l-20 -21v-307l20 -20h266l21 -21v-205l-21 -20h-266l-20 -21v-307l20 -20h184q213 0 301 110t88 361zM635 1434q371 0 533 -182t163 -535q0 -353 -163 -535t-533 -182h-451l-20 20v553l-21 21h-123l-20 20v205l20 21h123l21 20v553 l20 21h451z"/>
    <glyph glyph-name="dcroat" unicode="đ" horiz-adv-x="1208" d="M348 512q0 -287 225 -287t226 287t-225 287t-226 -287zM61 512q0 240 130 386t321 146q82 0 148 -26t94 -51l24 -25h21v123l-21 20h-205l-20 21v184l20 21h205l21 20v82l20 21h246l20 -21v-82l21 -20h82l20 -21v-184l-20 -21h-82l-21 -20v-1045l-20 -20h-225l-21 20 l-20 62h-21q-24 -36 -104 -69q-80 -34 -162 -33q-190 0 -321 146q-130 146 -130 386z"/>
    <glyph glyph-name="Emacron" unicode="Ē" horiz-adv-x="1290" d="M1044 1597l-20 -20h-696l-21 20v185l21 20h696l20 -20v-185zM1167 20l-20 -20h-963l-20 20v1393l20 21h963l20 -21v-205l-20 -20h-676l-20 -21v-286l20 -21h635l20 -20v-205l-20 -21h-635l-20 -20v-328l20 -20h676l20 -21v-205z"/>
    <glyph glyph-name="emacron" unicode="ē" horiz-adv-x="1105" d="M922 1188l-21 -21h-696l-21 21v184l21 21h696l21 -21v-184zM553 799q-143 0 -178 -129q-6 -23 -6 -35l20 -21h328l20 21q0 36 -23 79q-46 85 -161 85zM1044 512v-82l-20 -20h-635l-20 -21q0 -49 49 -106q48 -57 158 -57t141 61l20 20h246l21 -20q-16 -105 -107 -199 q-47 -49 -131 -79t-193 -29q-247 0 -379 152t-132 379q0 228 127 381q128 152 364 152q235 0 363 -152t128 -380z"/>
    <glyph glyph-name="Ebreve" unicode="Ĕ" horiz-adv-x="1290" d="M655 1700q143 0 144 123l20 20h123l21 -20q0 -127 -80 -207q-79 -80 -227 -80t-228 80t-80 207l21 20h123l20 -20q0 -123 143 -123zM1167 20l-20 -20h-963l-20 20v1393l20 21h963l20 -21v-205l-20 -20h-676l-20 -21v-286l20 -21h635l20 -20v-205l-20 -21h-635l-20 -20 v-328l20 -20h676l20 -21v-205z"/>
    <glyph glyph-name="ebreve" unicode="ĕ" horiz-adv-x="1105" d="M553 1290q143 0 143 123l21 21h123l20 -21q0 -127 -80 -207t-227 -80t-227 80t-80 207l20 21h123l21 -21q0 -123 143 -123zM553 799q-143 0 -178 -129q-6 -23 -6 -35l20 -21h328l20 21q0 36 -23 79q-46 85 -161 85zM1044 512v-82l-20 -20h-635l-20 -21q0 -49 49 -106 q48 -57 158 -57t141 61l20 20h246l21 -20q-16 -105 -107 -199q-47 -49 -131 -79t-193 -29q-247 0 -379 152t-132 379q0 228 127 381q128 152 364 152q235 0 363 -152t128 -380z"/>
    <glyph glyph-name="Edotaccent" unicode="Ė" horiz-adv-x="1290" d="M819 1618l-20 -21h-246l-21 21v205l21 20h246l20 -20v-205zM1167 20l-20 -20h-963l-20 20v1393l20 21h963l20 -21v-205l-20 -20h-676l-20 -21v-286l20 -21h635l20 -20v-205l-20 -21h-635l-20 -20v-328l20 -20h676l20 -21v-205z"/>
    <glyph glyph-name="edotaccent" unicode="ė" horiz-adv-x="1105" d="M696 1208l-20 -20h-246l-20 20v205l20 21h246l20 -21v-205zM553 799q-143 0 -178 -129q-6 -23 -6 -35l20 -21h328l20 21q0 36 -23 79q-46 85 -161 85zM1044 512v-82l-20 -20h-635l-20 -21q0 -49 49 -106q48 -57 158 -57t141 61l20 20h246l21 -20q-16 -105 -107 -199 q-47 -49 -131 -79t-193 -29q-247 0 -379 152t-132 379q0 228 127 381q128 152 364 152q235 0 363 -152t128 -380z"/>
    <glyph glyph-name="Eogonek" unicode="Ę" horiz-adv-x="1290" d="M840 0h-656l-20 20v1393l20 21h963l20 -21v-205l-20 -20h-676l-20 -21v-286l20 -21h635l20 -20v-205l-20 -21h-635l-20 -20v-328l20 -20h676l20 -21v-205l-20 -20q-93 -16 -149 -59t-56 -105q0 -82 102 -82q62 0 91 17l12 4l20 -21v-123l-20 -20q-41 -41 -164 -41 t-195 59t-71 166q0 68 40 115t83 70v20z"/>
    <glyph glyph-name="eogonek" unicode="ę" horiz-adv-x="1105" d="M553 799q-143 0 -178 -129q-6 -23 -6 -35l20 -21h328l20 21q0 36 -23 79q-46 85 -161 85zM635 -164q0 -82 102 -82q63 0 90 17l13 4l20 -21v-123l-20 -20q-41 -41 -164 -41t-195 59t-71 166q0 72 35 112q35 39 67 52v21q-125 14 -216 67t-140 131q-95 151 -95 334 q0 227 128 380q128 152 364 152q235 0 363 -152t128 -380v-82l-20 -20h-635l-20 -21q0 -49 49 -106q48 -57 158 -57t141 61l20 20h246l21 -20q-16 -90 -62 -156q-46 -67 -95 -99q-50 -32 -99 -59q-113 -62 -113 -137z"/>
    <glyph glyph-name="Ecaron" unicode="Ě" horiz-adv-x="1290" d="M307 1823l21 20h164l40 -20l123 -103h41l123 103l41 20h164l20 -20v-41l-204 -205l-41 -21h-246l-41 21l-205 205v41zM1167 20l-20 -20h-963l-20 20v1393l20 21h963l20 -21v-205l-20 -20h-676l-20 -21v-286l20 -21h635l20 -20v-205l-20 -21h-635l-20 -20v-328l20 -20h676 l20 -21v-205z"/>
    <glyph glyph-name="ecaron" unicode="ě" horiz-adv-x="1105" d="M184 1413l21 21h164l41 -21l122 -102h41l123 102l41 21h164l21 -21v-41l-205 -205l-41 -20h-246l-41 20l-205 205v41zM553 799q-143 0 -178 -129q-6 -23 -6 -35l20 -21h328l20 21q0 36 -23 79q-46 85 -161 85zM1044 512v-82l-20 -20h-635l-20 -21q0 -49 49 -106 q48 -57 158 -57t141 61l20 20h246l21 -20q-16 -105 -107 -199q-47 -49 -131 -79t-193 -29q-247 0 -379 152t-132 379q0 228 127 381q128 152 364 152q235 0 363 -152t128 -380z"/>
    <glyph glyph-name="Gcircumflex" unicode="Ĝ" horiz-adv-x="1515" d="M1147 1577l-21 -21h-163l-41 21l-123 102h-41l-123 -102l-41 -21h-164l-20 21v41l204 205l41 20h246l41 -20l205 -205v-41zM758 -20q-305 0 -491 205q-185 206 -185 533q0 328 189 532t507 204q281 0 429 -125t186 -305l-21 -20h-246l-20 20q-27 53 -53 87q-27 34 -99 66 t-176 31q-194 0 -302 -135t-108 -356t108 -357q108 -135 286 -135t261 79t83 208l-21 20h-348l-20 21v205l20 20h635l21 -20v-738l-21 -20h-184l-21 20l-20 103h-21q-143 -143 -368 -143z"/>
    <glyph glyph-name="gcircumflex" unicode="ĝ" horiz-adv-x="1208" d="M963 1167l-21 -20h-164l-41 20l-123 103h-41l-122 -103l-41 -20h-164l-21 20v41l205 205l41 21h246l41 -21l205 -205v-41zM348 512q0 -287 225 -287t226 287t-225 287t-226 -287zM1085 102q0 -264 -142 -398t-370 -134q-182 0 -298 84t-132 223l21 21h246l20 -21 q31 -61 143 -61q225 0 226 266h-21q-24 -36 -104 -69q-80 -34 -162 -33q-190 0 -321 146q-130 146 -130 386t130 386t321 146q82 0 148 -26t94 -51l24 -25h21l20 62l21 20h225l20 -20v-902z"/>
    <glyph glyph-name="Gbreve" unicode="Ğ" horiz-adv-x="1515" d="M778 1700q143 0 144 123l20 20h123l20 -20q1 -127 -79 -207t-228 -80t-227 80q-80 80 -80 207l21 20h122l21 -20q0 -123 143 -123zM758 -20q-305 0 -491 205q-185 206 -185 533q0 328 189 532t507 204q281 0 429 -125t186 -305l-21 -20h-246l-20 20q-27 53 -53 87 q-27 34 -99 66t-176 31q-194 0 -302 -135t-108 -356t108 -357q108 -135 286 -135t261 79t83 208l-21 20h-348l-20 21v205l20 20h635l21 -20v-738l-21 -20h-184l-21 20l-20 103h-21q-143 -143 -368 -143z"/>
    <glyph glyph-name="gbreve" unicode="ğ" horiz-adv-x="1208" d="M573 1290q143 0 144 123l20 21h123l21 -21q0 -127 -80 -207q-79 -80 -227 -80t-228 80t-80 207l21 21h123l20 -21q0 -123 143 -123zM348 512q0 -287 225 -287t226 287t-225 287t-226 -287zM1085 102q0 -264 -142 -398t-370 -134q-182 0 -298 84t-132 223l21 21h246 l20 -21q31 -61 143 -61q225 0 226 266h-21q-24 -36 -104 -69q-80 -34 -162 -33q-190 0 -321 146q-130 146 -130 386t130 386t321 146q82 0 148 -26t94 -51l24 -25h21l20 62l21 20h225l20 -20v-902z"/>
    <glyph glyph-name="Gdotaccent" unicode="Ġ" horiz-adv-x="1515" d="M922 1618l-21 -21h-246l-20 21v205l20 20h246l21 -20v-205zM758 -20q-305 0 -491 205q-185 206 -185 533q0 328 189 532t507 204q281 0 429 -125t186 -305l-21 -20h-246l-20 20q-27 53 -53 87q-27 34 -99 66t-176 31q-194 0 -302 -135t-108 -356t108 -357 q108 -135 286 -135t261 79t83 208l-21 20h-348l-20 21v205l20 20h635l21 -20v-738l-21 -20h-184l-21 20l-20 103h-21q-143 -143 -368 -143z"/>
    <glyph glyph-name="gdotaccent" unicode="ġ" horiz-adv-x="1208" d="M717 1208l-21 -20h-245l-21 20v205l21 21h245l21 -21v-205zM348 512q0 -287 225 -287t226 287t-225 287t-226 -287zM1085 102q0 -264 -142 -398t-370 -134q-182 0 -298 84t-132 223l21 21h246l20 -21q31 -61 143 -61q225 0 226 266h-21q-24 -36 -104 -69 q-80 -34 -162 -33q-190 0 -321 146q-130 146 -130 386t130 386t321 146q82 0 148 -26t94 -51l24 -25h21l20 62l21 20h225l20 -20v-902z"/>
    <glyph glyph-name="Gcommaaccent" unicode="Ģ" horiz-adv-x="1515" d="M635 -451v21l82 123v20l-21 21h-41l-20 20v144l20 20h205l21 -20v-164l-21 -62l-123 -102l-41 -21h-61zM758 -20q-305 0 -491 205q-185 206 -185 533q0 328 189 532t507 204q281 0 429 -125t186 -305l-21 -20h-246l-20 20q-27 53 -53 87q-27 34 -99 66t-176 31 q-194 0 -302 -135t-108 -356t108 -357q108 -135 286 -135t261 79t83 208l-21 20h-348l-20 21v205l20 20h635l21 -20v-738l-21 -20h-184l-21 20l-20 103h-21q-143 -143 -368 -143z"/>
    <glyph glyph-name="gcommaaccent" unicode="ģ" horiz-adv-x="1208" d="M696 1516v-21l-82 -123v-20l21 -21h41l20 -20v-144l-20 -20h-205l-20 20v164l20 62l123 102l41 21h61zM348 512q0 -287 225 -287t226 287t-225 287t-226 -287zM1085 102q0 -264 -142 -398t-370 -134q-182 0 -298 84t-132 223l21 21h246l20 -21q31 -61 143 -61 q225 0 226 266h-21q-24 -36 -104 -69q-80 -34 -162 -33q-190 0 -321 146q-130 146 -130 386t130 386t321 146q82 0 148 -26t94 -51l24 -25h21l20 62l21 20h225l20 -20v-902z"/>
    <glyph glyph-name="Hcircumflex" unicode="Ĥ" horiz-adv-x="1495" d="M1106 1577l-21 -21h-163l-41 21l-123 102h-21l-123 -102l-41 -21h-163l-21 21v41l205 205l41 20h225l41 -20l205 -205v-41zM1331 20l-20 -20h-246l-21 20v574l-20 20h-553l-20 -20v-574l-21 -20h-246l-20 20v1393l20 21h246l21 -21v-532l20 -21h553l20 21v532l21 21h246 l20 -21v-1393z"/>
    <glyph glyph-name="hcircumflex" unicode="ĥ" horiz-adv-x="1208" d="M635 1516l-21 -21h-163l-41 21l-123 102h-41l-123 -102l-41 -21h-164l-20 21v40l204 205l41 21h246l41 -21l205 -205v-40zM799 614q0 184 -164 185q-225 0 -225 -267v-512l-21 -20h-246l-20 20v1393l20 21h246l21 -21v-471h20q102 102 275 102t277 -111 q103 -112 103 -298v-615l-20 -20h-246l-20 20v594z"/>
    <glyph glyph-name="Hbar" unicode="Ħ" horiz-adv-x="1495" d="M1024 1004h-553l-20 -21v-102l20 -21h553l20 21v102zM1331 20l-20 -20h-246l-21 20v574l-20 20h-553l-20 -20v-574l-21 -20h-246l-20 20v963l-21 21h-123l-20 20v205l20 20h123l21 21v143l20 21h246l21 -21v-143l20 -21h553l20 21v143l21 21h246l20 -21v-143l21 -21h123 l20 -20v-205l-20 -20h-123l-21 -21v-963z"/>
    <glyph glyph-name="hbar" unicode="ħ" horiz-adv-x="1208" d="M410 942h20q102 102 275 102t277 -111q103 -112 103 -298v-615l-20 -20h-246l-20 20v594q0 184 -164 185q-225 0 -225 -267v-512l-21 -20h-246l-20 20v1045l-21 20h-102l-20 21v184l20 21h102l21 20v82l20 21h246l21 -21v-82l20 -20h287l20 -21v-184l-20 -21h-287 l-20 -20v-123z"/>
    <glyph glyph-name="Itilde" unicode="Ĩ" horiz-adv-x="614" d="M465 1516q-84 0 -138 36q-55 36 -93 71q-38 36 -70 36q-61 0 -62 -82l-20 -21h-102l-21 21q-1 119 63 182t148 63t138 -35q54 -36 92 -72t71 -36q61 0 61 82l21 21h102l21 -21q0 -119 -64 -182t-147 -63zM451 20l-21 -20h-246l-20 20v1393l20 21h246l21 -21v-1393z"/>
    <glyph glyph-name="itilde" unicode="ĩ" horiz-adv-x="532" d="M424 1106q-84 0 -138 36t-92 72t-71 35q-61 0 -62 -82l-20 -20h-102l-21 20q0 119 64 183t147 63q84 0 138 -36q54 -35 92 -71t71 -36q61 0 62 82l20 20h102l21 -20q1 -118 -63 -182t-148 -64zM410 20l-21 -20h-246l-20 20v984l20 20h246l21 -20v-984z"/>
    <glyph glyph-name="Imacron" unicode="Ī" horiz-adv-x="614" d="M676 1597l-21 -20h-696l-20 20v185l20 20h696l21 -20v-185zM451 20l-21 -20h-246l-20 20v1393l20 21h246l21 -21v-1393z"/>
    <glyph glyph-name="imacron" unicode="ī" horiz-adv-x="532" d="M635 1188l-21 -21h-696l-20 21v184l20 21h696l21 -21v-184zM410 20l-21 -20h-246l-20 20v984l20 20h246l21 -20v-984z"/>
    <glyph glyph-name="Ibreve" unicode="Ĭ" horiz-adv-x="614" d="M307 1700q143 0 144 123l20 20h123l20 -20q0 -127 -80 -207t-226 -80q-148 0 -228 80t-80 207l20 20h123l21 -20q0 -123 143 -123zM451 20l-21 -20h-246l-20 20v1393l20 21h246l21 -21v-1393z"/>
    <glyph glyph-name="ibreve" unicode="ĭ" horiz-adv-x="532" d="M266 1290q143 0 144 123l20 21h123l20 -21q1 -127 -79 -207t-228 -80t-227 80q-80 80 -80 207l21 21h122l21 -21q0 -123 143 -123zM410 20l-21 -20h-246l-20 20v984l20 20h246l21 -20v-984z"/>
    <glyph glyph-name="Iogonek" unicode="Į" horiz-adv-x="614" d="M328 -246q61 0 90 17l12 4l21 -21v-123l-21 -20q-41 -41 -164 -41q-122 0 -194 59t-72 166q0 143 164 225v1393l20 21h246l21 -21v-1393l-21 -20q-94 -16 -149 -59t-56 -105q0 -82 103 -82z"/>
    <glyph glyph-name="iogonek" unicode="į" horiz-adv-x="532" d="M287 -246q61 0 90 17l12 4l21 -21v-123l-21 -20q-41 -41 -164 -41t-195 59t-71 166q0 143 164 225v984l20 20h246l21 -20v-984l-21 -20q-94 -16 -149 -59t-56 -105q0 -82 103 -82zM410 1208l-21 -20h-246l-20 20v205l20 21h246l21 -21v-205z"/>
    <glyph glyph-name="Idotaccent" unicode="İ" horiz-adv-x="614" d="M451 1618l-21 -21h-246l-20 21v205l20 20h246l21 -20v-205zM451 20l-21 -20h-246l-20 20v1393l20 21h246l21 -21v-1393z"/>
    <glyph glyph-name="dotlessi" unicode="ı" horiz-adv-x="532" d="M410 20l-21 -20h-246l-20 20v984l20 20h246l21 -20v-984z"/>
    <glyph glyph-name="IJ" unicode="Ĳ" horiz-adv-x="1351" d="M717 0h-82l-21 20v205l21 21h82q86 0 135 45t49 160v962l21 21h245l21 -21v-942q0 -239 -124 -355t-347 -116zM451 20l-21 -20h-246l-20 20v1393l20 21h246l21 -21v-1393z"/>
    <glyph glyph-name="ij" unicode="ĳ" horiz-adv-x="1024" d="M901 1208l-20 -20h-246l-21 20v205l21 21h246l20 -21v-205zM901 -41q0 -178 -86 -253t-262 -75h-123l-20 21v205l20 20h102q46 1 64 19t18 63v1045l21 20h246l20 -20v-1045zM410 20l-21 -20h-246l-20 20v984l20 20h246l21 -20v-984zM410 1208l-21 -20h-246l-20 20v205 l20 21h246l21 -21v-205z"/>
    <glyph glyph-name="Jcircumflex" unicode="Ĵ" horiz-adv-x="1126" d="M1188 1577l-21 -21h-163l-41 21l-123 102h-41l-123 -102l-41 -21h-164l-20 21v41l204 205l41 20h246l41 -20l205 -205v-41zM963 451q0 -238 -124 -355q-124 -116 -349 -116t-337 128t-112 302v20l20 21h246l21 -21v-20q0 -184 164 -185q86 0 135 45t49 160v983l20 21h246 l21 -21v-962z"/>
    <glyph glyph-name="jcircumflex" unicode="ĵ" horiz-adv-x="532" d="M635 1167l-21 -20h-163l-41 20l-123 103h-41l-123 -103l-41 -20h-164l-20 20v41l204 205l41 21h246l41 -21l205 -205v-41zM410 -41q0 -178 -86 -253t-263 -75h-122l-21 21v205l21 20h102q45 1 63 19t19 63v1045l20 20h246l21 -20v-1045z"/>
    <glyph glyph-name="Kcommaaccent" unicode="Ķ" horiz-adv-x="1310" d="M594 -451v21l82 123v20l-21 21h-41l-20 20v144l20 20h205l21 -20v-164l-21 -62l-123 -102l-41 -21h-61zM451 819h20l594 594l41 21h102l21 -21v-205l-410 -409v-21l451 -553v-205l-21 -20h-143l-41 20l-451 553h-20l-143 -143v-410l-21 -20h-246l-20 20v1393l20 21h246 l21 -21v-594z"/>
    <glyph glyph-name="kcommaaccent" unicode="ķ" horiz-adv-x="1105" d="M471 -451v21l82 123v20l-21 21h-40l-21 20v144l21 20h204l21 -20v-164l-21 -62l-123 -102l-41 -21h-61zM410 594h20l410 410l41 20h123l20 -20v-205l-246 -246v-21l266 -307v-205l-20 -20h-123l-41 20l-287 308h-20l-123 -123l-20 -41v-144l-21 -20h-246l-20 20v1393 l20 21h246l21 -21v-819z"/>
    <glyph glyph-name="kgreenlandic" unicode="ĸ" horiz-adv-x="1105" d="M410 594h20l410 410l41 20h123l20 -20v-205l-246 -246v-21l266 -307v-205l-20 -20h-123l-41 20l-287 308h-20l-123 -123l-20 -41v-144l-21 -20h-246l-20 20v984l20 20h246l21 -20v-410z"/>
    <glyph glyph-name="Lacute" unicode="Ĺ" horiz-adv-x="1146" d="M594 1782l-225 -205l-41 -21h-185l-20 21v41l205 205l41 20h204l21 -20v-41zM1126 20l-20 -20h-922l-20 20v1393l20 21h246l21 -21v-1147l20 -20h635l20 -21v-205z"/>
    <glyph glyph-name="lacute" unicode="ĺ" horiz-adv-x="532" d="M553 1782l-225 -205l-41 -21h-185l-20 21v41l205 205l41 20h204l21 -20v-41zM410 20l-21 -20h-246l-20 20v1393l20 21h246l21 -21v-1393z"/>
    <glyph glyph-name="Lcommaaccent" unicode="Ļ" horiz-adv-x="1146" d="M512 -451v21l82 123v20l-21 21h-41l-20 20v144l20 20h205l21 -20v-164l-21 -62l-123 -102l-41 -21h-61zM1126 20l-20 -20h-922l-20 20v1393l20 21h246l21 -21v-1147l20 -20h635l20 -21v-205z"/>
    <glyph glyph-name="lcommaaccent" unicode="ļ" horiz-adv-x="532" d="M143 -451v21l82 123v20l-20 21h-41l-21 20v144l21 20h205l20 -20v-164l-20 -62l-123 -102l-41 -21h-62zM410 20l-21 -20h-246l-20 20v1393l20 21h246l21 -21v-1393z"/>
    <glyph glyph-name="Lcaron" unicode="Ľ" horiz-adv-x="1146" d="M553 983v21l102 163v21l-20 20h-41l-21 21v184l21 21h164l20 -21v-205l-20 -61l-103 -143l-20 -21h-82zM1126 20l-20 -20h-922l-20 20v1393l20 21h246l21 -21v-1147l20 -20h635l20 -21v-205z"/>
    <glyph glyph-name="lcaron" unicode="ľ" horiz-adv-x="737" d="M512 983v21l102 163v21l-20 20h-41l-21 21v184l21 21h164l20 -21v-205l-20 -61l-103 -143l-20 -21h-82zM410 20l-21 -20h-246l-20 20v1393l20 21h246l21 -21v-1393z"/>
    <glyph glyph-name="Ldot" unicode="Ŀ" horiz-adv-x="1146" d="M1004 717l-21 -21h-246l-20 21v205l20 20h246l21 -20v-205zM1126 20l-20 -20h-922l-20 20v1393l20 21h246l21 -21v-1147l20 -20h635l20 -21v-205z"/>
    <glyph glyph-name="ldot" unicode="ŀ" horiz-adv-x="901" d="M840 737l-21 -20h-246l-20 20v205l20 21h246l21 -21v-205zM410 20l-21 -20h-246l-20 20v1393l20 21h246l21 -21v-1393z"/>
    <glyph glyph-name="Lslash" unicode="Ł" horiz-adv-x="1167" d="M184 246h-20l-82 -62h-62l-20 21v205l164 122l20 41v840l21 21h246l20 -21v-635h21l327 246h62l20 -20v-205l-409 -307l-21 -41v-185l21 -20h634l21 -21v-205l-21 -20h-921l-21 20v226z"/>
    <glyph glyph-name="lslash" unicode="ł" horiz-adv-x="512" d="M143 430h-20l-82 -61h-61l-21 20v205l164 123l20 41v655l21 21h246l20 -21v-450h21l81 61h62l20 -20v-205l-163 -123l-21 -41v-615l-20 -20h-246l-21 20v410z"/>
    <glyph glyph-name="Nacute" unicode="Ń" horiz-adv-x="1536" d="M1044 1782l-225 -205l-41 -21h-184l-21 21v41l205 205l41 20h205l20 -20v-41zM1085 471v942l21 21h246l20 -21v-1393l-20 -20h-287l-41 20l-553 943h-20v-943l-21 -20h-246l-20 20v1393l20 21h287l41 -21l553 -942h20z"/>
    <glyph glyph-name="nacute" unicode="ń" d="M881 1372l-226 -205l-41 -20h-184l-20 20v41l204 205l41 21h205l21 -21v-41zM799 614q0 184 -164 185q-225 0 -225 -267v-512l-21 -20h-246l-20 20v984l20 20h226l20 -20l21 -62h20q102 102 275 102t277 -111q103 -112 103 -298v-615l-20 -20h-246l-20 20v594z"/>
    <glyph glyph-name="Ncommaaccent" unicode="Ņ" horiz-adv-x="1536" d="M655 -451v21l82 123v20l-20 21h-41l-21 20v144l21 20h205l20 -20v-164l-20 -62l-123 -102l-41 -21h-62zM1085 471v942l21 21h246l20 -21v-1393l-20 -20h-287l-41 20l-553 943h-20v-943l-21 -20h-246l-20 20v1393l20 21h287l41 -21l553 -942h20z"/>
    <glyph glyph-name="ncommaaccent" unicode="ņ" d="M492 -451v21l81 123v20l-20 21h-41l-20 20v144l20 20h205l20 -20v-164l-20 -62l-123 -102l-41 -21h-61zM799 614q0 184 -164 185q-225 0 -225 -267v-512l-21 -20h-246l-20 20v984l20 20h226l20 -20l21 -62h20q102 102 275 102t277 -111q103 -112 103 -298v-615l-20 -20 h-246l-20 20v594z"/>
    <glyph glyph-name="Ncaron" unicode="Ň" horiz-adv-x="1536" d="M410 1823l20 20h164l41 -20l123 -103h41l123 103l41 20h163l21 -20v-41l-205 -205l-41 -21h-246l-41 21l-204 205v41zM1085 471v942l21 21h246l20 -21v-1393l-20 -20h-287l-41 20l-553 943h-20v-943l-21 -20h-246l-20 20v1393l20 21h287l41 -21l553 -942h20z"/>
    <glyph glyph-name="ncaron" unicode="ň" d="M246 1413l20 21h164l41 -21l123 -102h41l123 102l41 21h164l20 -21v-41l-205 -205l-41 -20h-245l-41 20l-205 205v41zM799 614q0 184 -164 185q-225 0 -225 -267v-512l-21 -20h-246l-20 20v984l20 20h226l20 -20l21 -62h20q102 102 275 102t277 -111q103 -112 103 -298 v-615l-20 -20h-246l-20 20v594z"/>
    <glyph glyph-name="napostrophe" unicode="ŉ" horiz-adv-x="1208" d="M0 1024v20l102 164v21l-20 20h-41l-21 21v184l21 21h164l20 -21v-205l-20 -61l-103 -144l-20 -20h-82zM819 614q0 184 -164 185q-225 0 -225 -267v-512l-20 -20h-246l-21 20v984l21 20h225l21 -20l20 -62h21q102 102 275 102t276 -112t104 -297v-615l-21 -20h-245l-21 20 v594z"/>
    <glyph glyph-name="Eng" unicode="Ŋ" horiz-adv-x="1536" d="M451 963v-943l-21 -20h-246l-20 20v1393l20 21h287l41 -21l553 -881h20v881l21 21h246l20 -21v-1393q0 -238 -124 -354t-347 -117l-20 21v205l20 20q184 0 184 185l-614 983h-20z"/>
    <glyph glyph-name="eng" unicode="ŋ" d="M799 614q0 184 -164 185q-225 0 -225 -267v-512l-21 -20h-246l-20 20v984l20 20h226l20 -20l21 -62h20q102 102 275 102t277 -111q103 -112 103 -298v-615q0 -238 -124 -354t-347 -117l-20 21v205l20 20q184 0 185 185v634z"/>
    <glyph glyph-name="Omacron" unicode="Ō" horiz-adv-x="1556" d="M1147 1597l-21 -20h-696l-20 20v185l20 20h696l21 -20v-185zM1475 717q1 -328 -189 -533q-190 -204 -508 -204t-507 204q-189 205 -189 533q0 329 189 533t507 204t507 -204q190 -204 190 -533zM1188 717q0 221 -108 356t-302 135t-302 -135t-108 -356t108 -357 q108 -135 302 -135q194 -1 302 135t108 357z"/>
    <glyph glyph-name="omacron" unicode="ō" horiz-adv-x="1146" d="M942 1188l-20 -21h-697l-20 21v184l20 21h697l20 -21v-184zM799 512q-1 137 -59 212t-167 75t-167 -75t-58 -212t58 -212t168 -75q108 0 166 75t59 212zM1085 512q0 -244 -140 -388q-139 -144 -371 -144t-372 144t-141 388q1 244 141 388t371 144t371 -144t141 -388z"/>
    <glyph glyph-name="Obreve" unicode="Ŏ" horiz-adv-x="1556" d="M778 1700q143 0 144 123l20 20h123l20 -20q1 -127 -79 -207t-228 -80t-227 80q-80 80 -80 207l21 20h122l21 -20q0 -123 143 -123zM1475 717q1 -328 -189 -533q-190 -204 -508 -204t-507 204q-189 205 -189 533q0 329 189 533t507 204t507 -204q190 -204 190 -533z M1188 717q0 221 -108 356t-302 135t-302 -135t-108 -356t108 -357q108 -135 302 -135q194 -1 302 135t108 357z"/>
    <glyph glyph-name="obreve" unicode="ŏ" horiz-adv-x="1146" d="M573 1290q143 0 144 123l20 21h123l21 -21q0 -127 -80 -207q-79 -80 -227 -80t-228 80t-80 207l21 21h123l20 -21q0 -123 143 -123zM799 512q-1 137 -59 212t-167 75t-167 -75t-58 -212t58 -212t168 -75q108 0 166 75t59 212zM1085 512q0 -244 -140 -388 q-139 -144 -371 -144t-372 144t-141 388q1 244 141 388t371 144t371 -144t141 -388z"/>
    <glyph glyph-name="Ohungarumlaut" unicode="Ő" horiz-adv-x="1556" d="M1311 1782l-226 -205l-41 -21h-184l-20 21v41l204 205l41 20h205l21 -20v-41zM819 1782l-225 -205l-41 -21h-184l-21 21v41l205 205l41 20h205l20 -20v-41zM1475 717q1 -328 -189 -533q-190 -204 -508 -204t-507 204q-189 205 -189 533q0 329 189 533t507 204t507 -204 q190 -204 190 -533zM1188 717q0 221 -108 356t-302 135t-302 -135t-108 -356t108 -357q108 -135 302 -135q194 -1 302 135t108 357z"/>
    <glyph glyph-name="ohungarumlaut" unicode="ő" horiz-adv-x="1146" d="M1126 1372l-225 -205l-41 -20h-184l-21 20v41l205 205l41 21h205l20 -21v-41zM635 1372l-225 -205l-41 -20h-185l-20 20v41l205 205l41 21h204l21 -21v-41zM799 512q-1 137 -59 212t-167 75t-167 -75t-58 -212t58 -212t168 -75q108 0 166 75t59 212zM1085 512 q0 -244 -140 -388q-139 -144 -371 -144t-372 144t-141 388q1 244 141 388t371 144t371 -144t141 -388z"/>
    <glyph glyph-name="OE" unicode="Œ" horiz-adv-x="2109" d="M717 1208q-369 0 -369 -492t369 -491q261 0 327 164v655q-66 164 -327 164zM1044 82h-20q-102 -102 -328 -102q-270 0 -452 182t-183 555q1 373 183 555t452 182q225 0 328 -102h20v61l21 21h901l21 -21v-205l-21 -20h-614l-21 -21v-286l21 -21h573l21 -20v-205l-21 -21 h-573l-21 -20v-328l21 -20h614l21 -21v-205l-21 -20h-901l-21 20v62z"/>
    <glyph glyph-name="oe" unicode="œ" horiz-adv-x="1822" d="M1270 799q-58 0 -98 -22q-79 -43 -87 -142l21 -21h328l20 21q0 37 -24 79t-63 64q-40 22 -97 21zM799 512q-1 137 -59 212t-167 75t-167 -75t-58 -212t58 -212t168 -75q108 0 166 75t59 212zM1761 512v-82l-20 -20h-635l-21 -21q-1 -49 49 -106t160 -57t140 61l20 20h246 l20 -20q-17 -106 -106 -199q-47 -49 -131 -79t-193 -29q-225 0 -348 122h-20q-124 -122 -352 -122t-368 144t-141 388q1 244 141 388t368 144t352 -122h20q124 122 344 122t348 -152t127 -380z"/>
    <glyph glyph-name="Racute" unicode="Ŕ" horiz-adv-x="1433" d="M983 1782l-225 -205l-41 -21h-185l-20 21v41l205 205l41 20h205l20 -20v-41zM1065 1004q0 102 -52 143t-153 41h-389l-20 -21v-327l20 -21h389q100 0 153 41q52 42 52 144zM1352 1004q0 -162 -88 -270t-220 -140v-21l267 -348v-205l-21 -20h-123l-41 20l-409 533l-41 20 h-205l-20 -20v-533l-21 -20h-246l-20 20v1393l20 21h676q224 0 358 -110t134 -320z"/>
    <glyph glyph-name="racute" unicode="ŕ" horiz-adv-x="839" d="M717 1372l-225 -205l-41 -20h-185l-20 20v41l205 205l41 21h204l21 -21v-41zM635 778q-121 0 -173 -63t-52 -203v-492l-21 -20h-246l-20 20v984l20 20h226l20 -20l21 -62h20q4 8 16 22t70 38q58 22 139 22h123l21 -20v-205l-21 -21h-143z"/>
    <glyph glyph-name="Rcommaaccent" unicode="Ŗ" horiz-adv-x="1433" d="M635 -451v21l82 123v20l-21 21h-41l-20 20v144l20 20h205l21 -20v-164l-21 -62l-123 -102l-41 -21h-61zM1065 1004q0 102 -52 143t-153 41h-389l-20 -21v-327l20 -21h389q100 0 153 41q52 42 52 144zM1352 1004q0 -162 -88 -270t-220 -140v-21l267 -348v-205l-21 -20 h-123l-41 20l-409 533l-41 20h-205l-20 -20v-533l-21 -20h-246l-20 20v1393l20 21h676q224 0 358 -110t134 -320z"/>
    <glyph glyph-name="rcommaaccent" unicode="ŗ" horiz-adv-x="839" d="M143 -451v21l82 123v20l-20 21h-41l-21 20v144l21 20h205l20 -20v-164l-20 -62l-123 -102l-41 -21h-62zM635 778q-121 0 -173 -63t-52 -203v-492l-21 -20h-246l-20 20v984l20 20h226l20 -20l21 -62h20q4 8 16 22t70 38q58 22 139 22h123l21 -20v-205l-21 -21h-143z"/>
    <glyph glyph-name="Rcaron" unicode="Ř" horiz-adv-x="1433" d="M348 1823l21 20h163l41 -20l123 -103h41l123 103l41 20h164l20 -20v-41l-204 -205l-41 -21h-246l-41 21l-205 205v41zM1065 1004q0 102 -52 143t-153 41h-389l-20 -21v-327l20 -21h389q100 0 153 41q52 42 52 144zM1352 1004q0 -162 -88 -270t-220 -140v-21l267 -348 v-205l-21 -20h-123l-41 20l-409 533l-41 20h-205l-20 -20v-533l-21 -20h-246l-20 20v1393l20 21h676q224 0 358 -110t134 -320z"/>
    <glyph glyph-name="rcaron" unicode="ř" horiz-adv-x="839" d="M82 1413l20 21h164l41 -21l123 -102h41l123 102l41 21h164l20 -21v-41l-205 -205l-41 -20h-245l-41 20l-205 205v41zM635 778q-121 0 -173 -63t-52 -203v-492l-21 -20h-246l-20 20v984l20 20h226l20 -20l21 -62h20q4 8 16 22t70 38q58 22 139 22h123l21 -20v-205l-21 -21 h-143z"/>
    <glyph glyph-name="Sacute" unicode="Ś" horiz-adv-x="1351" d="M922 1782l-226 -205l-41 -21h-184l-20 21v41l204 205l41 20h205l21 -20v-41zM1270 410q0 -186 -146 -308t-444 -122q-299 0 -449 130t-149 341l20 20h246l21 -20q1 -113 75 -169t252 -57q287 0 287 185q0 106 -75 150t-242 68q-168 24 -254 52q-86 29 -159 77 q-151 99 -151 308q0 169 140 279t416 110t413 -118t137 -312l-20 -20h-246l-20 20q0 96 -62 140t-225 44q-246 0 -246 -143q0 -92 76 -133t293 -72q512 -73 512 -450z"/>
    <glyph glyph-name="sacute" unicode="ś" horiz-adv-x="1024" d="M778 1372l-225 -205l-41 -20h-184l-21 20v41l205 205l41 21h205l20 -21v-41zM655 737q0 61 -144 61q-145 0 -143 -71q0 -35 12 -50q11 -15 54 -30t101 -21q59 -8 95 -14t69 -14q34 -8 89 -31t90 -52q34 -30 60 -84t25 -124q0 -137 -111 -232t-331 -95t-340 96t-120 252 l21 20h246l20 -20q0 -57 41 -80t123 -23q164 0 164 82q0 37 -16 49t-25 18q-8 6 -32 12q-24 5 -37 8t-46 8t-49 8q-389 66 -389 327q0 133 106 220t312 87t324 -80t118 -227l-20 -20h-246z"/>
    <glyph glyph-name="Scircumflex" unicode="Ŝ" horiz-adv-x="1351" d="M1044 1577l-20 -21h-164l-41 21l-123 102h-41l-123 -102l-40 -21h-164l-21 21v41l205 205l41 20h246l41 -20l204 -205v-41zM1270 410q0 -186 -146 -308t-444 -122q-299 0 -449 130t-149 341l20 20h246l21 -20q1 -113 75 -169t252 -57q287 0 287 185q0 106 -75 150 t-242 68q-168 24 -254 52q-86 29 -159 77q-151 99 -151 308q0 169 140 279t416 110t413 -118t137 -312l-20 -20h-246l-20 20q0 96 -62 140t-225 44q-246 0 -246 -143q0 -92 76 -133t293 -72q512 -73 512 -450z"/>
    <glyph glyph-name="scircumflex" unicode="ŝ" horiz-adv-x="1024" d="M881 1167l-21 -20h-164l-41 20l-123 103h-40l-123 -103l-41 -20h-164l-21 20v41l205 205l41 21h246l41 -21l205 -205v-41zM655 737q0 61 -144 61q-145 0 -143 -71q0 -35 12 -50q11 -15 54 -30t101 -21q59 -8 95 -14t69 -14q34 -8 89 -31t90 -52q34 -30 60 -84t25 -124 q0 -137 -111 -232t-331 -95t-340 96t-120 252l21 20h246l20 -20q0 -57 41 -80t123 -23q164 0 164 82q0 37 -16 49t-25 18q-8 6 -32 12q-24 5 -37 8t-46 8t-49 8q-389 66 -389 327q0 133 106 220t312 87t324 -80t118 -227l-20 -20h-246z"/>
    <glyph glyph-name="Scedilla" unicode="Ş" horiz-adv-x="1351" d="M1270 410q0 -202 -146 -308t-366 -122l-41 -21l-103 -102h21q41 20 87 20t82 -36q36 -35 36 -109t-56 -118t-134 -44q-76 0 -114 17t-85 65v20l20 21h21q37 -37 71 -39q33 -2 72 -2q102 0 102 82t-102 82q-41 0 -82 -21h-21l-20 21v20l123 123v21q-289 14 -421 142 t-132 329l20 20h246l21 -20q1 -113 75 -169t252 -57q287 0 287 185q0 106 -75 150t-242 68q-168 24 -254 52q-86 29 -159 77q-151 99 -151 308q0 169 140 279t416 110t413 -118t137 -312l-20 -20h-246l-20 20q0 96 -62 140t-225 44q-246 0 -246 -143q0 -92 76 -133t293 -72 q512 -73 512 -450z"/>
    <glyph glyph-name="scedilla" unicode="ş" horiz-adv-x="1024" d="M655 737q0 61 -144 61q-145 0 -143 -71q0 -35 12 -50q11 -15 54 -30t101 -21q59 -8 95 -14t69 -14q34 -8 89 -31t90 -52q34 -30 60 -84t25 -124q1 -137 -99 -224t-270 -103l-41 -21l-102 -102h20q41 20 87 20t82 -36q36 -35 36 -109t-56 -118t-132 -44t-115 17t-86 65v20 l20 21h21q37 -37 71 -39q33 -2 72 -2q102 0 102 82t-102 82q-41 -1 -82 -21h-20l-21 21v20l123 123v21q-207 14 -308 108t-102 240l21 20h246l20 -20q0 -57 41 -80t123 -23q164 0 164 82q0 37 -16 49t-25 18q-8 6 -32 12q-24 5 -37 8t-46 8t-49 8q-389 66 -389 327 q0 133 106 220t312 87t324 -80t118 -227l-20 -20h-246z"/>
    <glyph glyph-name="Scaron" unicode="Š" horiz-adv-x="1351" d="M287 1823l20 20h164l41 -20l123 -103h41l123 103l41 20h164l20 -20v-41l-205 -205l-41 -21h-246l-40 21l-205 205v41zM1270 410q0 -186 -146 -308t-444 -122q-299 0 -449 130t-149 341l20 20h246l21 -20q1 -113 75 -169t252 -57q287 0 287 185q0 106 -75 150t-242 68 q-168 24 -254 52q-86 29 -159 77q-151 99 -151 308q0 169 140 279t416 110t413 -118t137 -312l-20 -20h-246l-20 20q0 96 -62 140t-225 44q-246 0 -246 -143q0 -92 76 -133t293 -72q512 -73 512 -450z"/>
    <glyph glyph-name="scaron" unicode="š" horiz-adv-x="1024" d="M143 1413l21 21h164l41 -21l123 -102h40l123 102l41 21h164l21 -21v-41l-205 -205l-41 -20h-246l-41 20l-205 205v41zM655 737q0 61 -144 61q-145 0 -143 -71q0 -35 12 -50q11 -15 54 -30t101 -21q59 -8 95 -14t69 -14q34 -8 89 -31t90 -52q34 -30 60 -84t25 -124 q0 -137 -111 -232t-331 -95t-340 96t-120 252l21 20h246l20 -20q0 -57 41 -80t123 -23q164 0 164 82q0 37 -16 49t-25 18q-8 6 -32 12q-24 5 -37 8t-46 8t-49 8q-389 66 -389 327q0 133 106 220t312 87t324 -80t118 -227l-20 -20h-246z"/>
    <glyph glyph-name="Tcommaaccent" unicode="Ţ" horiz-adv-x="1269" d="M512 -451v21l82 123v20l-21 21h-41l-20 20v144l20 20h205l21 -20v-164l-21 -62l-123 -102l-41 -21h-61zM1229 1208l-21 -20h-409l-21 -21v-1147l-20 -20h-246l-20 20v1147l-21 21h-410l-20 20v205l20 21h1147l21 -21v-205z"/>
    <glyph glyph-name="tcommaaccent" unicode="ţ" horiz-adv-x="860" d="M369 -451v21l82 123v20l-21 21h-41l-20 20v144l20 20h205l20 -20v-164l-20 -62l-123 -102l-41 -21h-61zM512 307q0 -61 61 -61h185l20 -21v-205l-20 -20h-185q-151 0 -249 75t-99 232v451l-20 20h-144l-20 21v205l20 20h144l20 20v185l21 20h246l20 -20v-185l20 -20h226 l20 -20v-205l-20 -21h-226l-20 -20v-451z"/>
    <glyph glyph-name="Tcaron" unicode="Ť" horiz-adv-x="1269" d="M266 1823l21 20h164l41 -20l122 -103h41l123 103l41 20h164l21 -20v-41l-205 -205l-41 -21h-246l-41 21l-205 205v41zM1229 1208l-21 -20h-409l-21 -21v-1147l-20 -20h-246l-20 20v1147l-21 21h-410l-20 20v205l20 21h1147l21 -21v-205z"/>
    <glyph glyph-name="tcaron" unicode="ť" horiz-adv-x="860" d="M594 1085v21l102 164v20l-20 21h-41l-21 20v185l21 20h164l20 -20v-205l-20 -62l-103 -143l-20 -21h-82zM512 307q0 -61 61 -61h185l20 -21v-205l-20 -20h-185q-151 0 -249 75t-99 232v451l-20 20h-144l-20 21v205l20 20h144l20 20v185l21 20h246l20 -20v-185l20 -20h226 l20 -20v-205l-20 -21h-226l-20 -20v-451z"/>
    <glyph glyph-name="Tbar" unicode="Ŧ" horiz-adv-x="1351" d="M819 594v-574l-20 -20h-246l-21 20v574l-20 20h-328l-20 21v184l20 21h328l20 20v307l-20 21h-410l-20 20v205l20 21h1147l21 -21v-205l-21 -20h-409l-21 -21v-307l21 -20h327l21 -21v-184l-21 -21h-327z"/>
    <glyph glyph-name="tbar" unicode="ŧ" horiz-adv-x="860" d="M512 307q0 -61 61 -61h185l20 -21v-205l-20 -20h-185q-151 0 -249 75t-99 232v123l-20 21h-123l-21 20v184l21 21h123l20 20v62l-20 20h-144l-20 21v205l20 20h144l20 20v185l21 20h246l20 -20v-185l20 -20h226l20 -20v-205l-20 -21h-226l-20 -20v-62l20 -20h185l20 -21 v-184l-20 -20h-185l-20 -21v-123z"/>
    <glyph glyph-name="Utilde" unicode="Ũ" horiz-adv-x="1474" d="M895 1516q-84 0 -138 36t-92 71q-38 36 -71 36q-61 0 -62 -82l-20 -21h-102l-21 21q-1 119 63 182t148 63t138 -35q54 -36 92 -72t71 -36q61 0 62 82l20 21h102l21 -21q0 -119 -64 -182t-147 -63zM1311 553q-1 -277 -149 -425t-424 -148t-426 148q-148 148 -148 425v860 l20 21h246l21 -21v-860q1 -328 287 -328t286 328v860l20 21h246l21 -21v-860z"/>
    <glyph glyph-name="utilde" unicode="ũ" horiz-adv-x="1167" d="M731 1106q-84 0 -138 36t-92 72t-71 35q-61 0 -61 -82l-21 -20h-102l-21 20q-1 119 63 183t148 63q84 0 138 -36q54 -35 92 -71t71 -36q61 0 62 82l20 20h103l20 -20q0 -119 -63 -183q-64 -63 -148 -63zM389 410q0 -184 164 -185q102 0 154 67q51 67 51 179v533l20 20 h246l20 -20v-984l-20 -20h-225l-21 20l-20 62h-21q-31 -61 -149 -91q-45 -11 -96 -11q-182 0 -286 111q-103 112 -104 298v615l21 20h246l20 -20v-594z"/>
    <glyph glyph-name="Umacron" unicode="Ū" horiz-adv-x="1474" d="M1106 1597l-21 -20h-696l-20 20v185l20 20h696l21 -20v-185zM1311 553q-1 -277 -149 -425t-424 -148t-426 148q-148 148 -148 425v860l20 21h246l21 -21v-860q1 -328 287 -328t286 328v860l20 21h246l21 -21v-860z"/>
    <glyph glyph-name="umacron" unicode="ū" horiz-adv-x="1167" d="M942 1188l-20 -21h-697l-20 21v184l20 21h697l20 -21v-184zM389 410q0 -184 164 -185q102 0 154 67q51 67 51 179v533l20 20h246l20 -20v-984l-20 -20h-225l-21 20l-20 62h-21q-31 -61 -149 -91q-45 -11 -96 -11q-182 0 -286 111q-103 112 -104 298v615l21 20h246l20 -20 v-594z"/>
    <glyph glyph-name="Ubreve" unicode="Ŭ" horiz-adv-x="1474" d="M737 1700q143 0 144 123l20 20h123l20 -20q0 -127 -80 -207t-226 -80q-148 0 -228 80t-80 207l21 20h122l21 -20q0 -123 143 -123zM1311 553q-1 -277 -149 -425t-424 -148t-426 148q-148 148 -148 425v860l20 21h246l21 -21v-860q1 -328 287 -328t286 328v860l20 21h246 l21 -21v-860z"/>
    <glyph glyph-name="ubreve" unicode="ŭ" horiz-adv-x="1167" d="M573 1290q143 0 144 123l20 21h123l21 -21q0 -127 -80 -207q-79 -80 -227 -80t-228 80t-80 207l21 21h123l20 -21q0 -123 143 -123zM389 410q0 -184 164 -185q102 0 154 67q51 67 51 179v533l20 20h246l20 -20v-984l-20 -20h-225l-21 20l-20 62h-21q-31 -61 -149 -91 q-45 -11 -96 -11q-182 0 -286 111q-103 112 -104 298v615l21 20h246l20 -20v-594z"/>
    <glyph glyph-name="Uring" unicode="Ů" horiz-adv-x="1474" d="M512 1659q0 88 63 136t161 48t162 -48t64 -136t-62 -136q-64 -48 -162 -48t-163 48q-63 48 -63 136zM819 1659q0 61 -82 61t-82 -61t82 -61t82 61zM1311 553q-1 -277 -149 -425t-424 -148t-426 148q-148 148 -148 425v860l20 21h246l21 -21v-860q1 -328 287 -328t286 328 v860l20 21h246l21 -21v-860z"/>
    <glyph glyph-name="uring" unicode="ů" horiz-adv-x="1167" d="M348 1311q0 88 64 136t161 48t161 -48t64 -136t-62 -136q-64 -49 -162 -49t-162 48t-64 137zM655 1311q0 61 -82 61t-81 -61q0 -61 82 -61t81 61zM389 410q0 -184 164 -185q102 0 154 67q51 67 51 179v533l20 20h246l20 -20v-984l-20 -20h-225l-21 20l-20 62h-21 q-31 -61 -149 -91q-45 -11 -96 -11q-182 0 -286 111q-103 112 -104 298v615l21 20h246l20 -20v-594z"/>
    <glyph glyph-name="Uhungarumlaut" unicode="Ű" horiz-adv-x="1474" d="M1270 1782l-226 -205l-40 -21h-185l-20 21v41l205 205l40 20h205l21 -20v-41zM778 1782l-225 -205l-41 -21h-184l-21 21v41l205 205l41 20h205l20 -20v-41zM1311 553q-1 -277 -149 -425t-424 -148t-426 148q-148 148 -148 425v860l20 21h246l21 -21v-860q1 -328 287 -328 t286 328v860l20 21h246l21 -21v-860z"/>
    <glyph glyph-name="uhungarumlaut" unicode="ű" horiz-adv-x="1167" d="M1126 1372l-225 -205l-41 -20h-184l-21 20v41l205 205l41 21h205l20 -21v-41zM635 1372l-225 -205l-41 -20h-185l-20 20v41l205 205l41 21h204l21 -21v-41zM389 410q0 -184 164 -185q102 0 154 67q51 67 51 179v533l20 20h246l20 -20v-984l-20 -20h-225l-21 20l-20 62 h-21q-31 -61 -149 -91q-45 -11 -96 -11q-182 0 -286 111q-103 112 -104 298v615l21 20h246l20 -20v-594z"/>
    <glyph glyph-name="Uogonek" unicode="Ų" horiz-adv-x="1474" d="M717 -20q-196 0 -359 108q-88 59 -141 178t-53 287v860l20 21h246l21 -21v-860q1 -328 287 -328t286 328v860l20 21h246l21 -21v-860q0 -135 -35 -237t-87 -158q-105 -111 -228 -174t-121 -148q0 -82 102 -82q61 0 90 17l12 4l21 -21v-123l-21 -20q-42 -41 -164 -41 t-194 59t-72 156t67 152q19 15 36 22v21z"/>
    <glyph glyph-name="uogonek" unicode="ų" horiz-adv-x="1167" d="M819 -164q0 -82 103 -82q61 0 90 17l12 4l20 -21v-123l-20 -20q-41 -41 -164 -41q-122 0 -194 59t-72 159t58 156q58 54 126 76l-20 62h-21q-31 -61 -149 -91q-45 -11 -96 -11q-182 0 -286 111q-103 112 -104 298v615l21 20h246l20 -20v-594q0 -184 164 -185 q102 0 154 67q51 67 51 179v533l20 20h246l20 -20v-984l-20 -20q-94 -16 -150 -59t-55 -105z"/>
    <glyph glyph-name="Wcircumflex" unicode="Ŵ" horiz-adv-x="1945" d="M840 1434h266l20 -21l267 -942h20l205 942l20 21h205l21 -21v-205l-308 -1188l-20 -20h-266l-21 20l-266 984h-20l-267 -984l-20 -20h-266l-21 20l-307 1188v205l20 21h205l21 -21l204 -942h21l266 942zM1331 1577l-20 -21h-164l-41 21l-123 102h-20l-123 -102l-41 -21 h-164l-21 21v41l205 205l41 20h225l41 -20l205 -205v-41z"/>
    <glyph glyph-name="wcircumflex" unicode="ŵ" horiz-adv-x="1617" d="M1536 799l-246 -779l-20 -20h-266l-21 20l-164 615h-20l-164 -615l-21 -20h-266l-20 20l-246 779v205l20 20h185l20 -20l164 -574h21l163 574l21 20h266l21 -20l163 -574h21l164 574l20 20h185l20 -20v-205zM1167 1167l-20 -20h-164l-41 20l-123 103h-20l-123 -103 l-41 -20h-164l-20 20v41l204 205l41 21h226l41 -21l204 -205v-41z"/>
    <glyph glyph-name="Ycircumflex" unicode="Ŷ" horiz-adv-x="1228" d="M983 1577l-20 -21h-164l-41 21l-123 102h-41l-123 -102l-41 -21h-164l-20 21v41l205 205l41 20h245l41 -20l205 -205v-41zM1167 1208l-409 -676v-512l-21 -20h-245l-21 20v512l-410 676v205l21 21h143l41 -21l328 -553h41l328 553l41 21h143l20 -21v-205z"/>
    <glyph glyph-name="ycircumflex" unicode="ŷ" horiz-adv-x="1085" d="M246 -348h-103l-20 20v205l20 21h103q74 0 100 16t43 66v20l-328 799v205l21 20h184l21 -20l245 -697h21l246 697l20 20h185l20 -20v-205l-328 -819q-36 -86 -66 -140q-75 -131 -206 -168q-74 -20 -178 -20zM901 1167l-20 -20h-164l-41 20l-123 103h-21l-122 -103 l-41 -20h-164l-21 20v41l205 205l41 21h225l41 -21l205 -205v-41z"/>
    <glyph glyph-name="Ydieresis" unicode="Ÿ" horiz-adv-x="1228" d="M532 1618l-20 -21h-225l-21 21v205l21 20h225l20 -20v-205zM963 1618l-21 -21h-225l-21 21v205l21 20h225l21 -20v-205zM1167 1208l-409 -676v-512l-21 -20h-245l-21 20v512l-410 676v205l21 21h143l41 -21l328 -553h41l328 553l41 21h143l20 -21v-205z"/>
    <glyph glyph-name="Zacute" unicode="Ź" horiz-adv-x="1269" d="M901 1782l-225 -205l-41 -21h-184l-21 21v41l205 205l41 20h205l20 -20v-41zM778 1188h-635l-20 20v205l20 21h963l20 -21v-225l-20 -41l-655 -881v-20h696l20 -21v-205l-20 -20h-1024l-21 20v226l21 41l655 880v21z"/>
    <glyph glyph-name="zacute" unicode="ź" horiz-adv-x="1064" d="M819 1372l-225 -205l-41 -20h-184l-21 20v41l205 205l41 21h205l20 -21v-41zM573 778h-450l-21 21v205l21 20h819l21 -20v-226l-21 -41l-471 -471v-20h492l20 -21v-205l-20 -20h-861l-20 20v226l20 41l471 471v20z"/>
    <glyph glyph-name="Zdotaccent" unicode="Ż" horiz-adv-x="1269" d="M778 1618l-20 -21h-246l-20 21v205l20 20h246l20 -20v-205zM778 1188h-635l-20 20v205l20 21h963l20 -21v-225l-20 -41l-655 -881v-20h696l20 -21v-205l-20 -20h-1024l-21 20v226l21 41l655 880v21z"/>
    <glyph glyph-name="zdotaccent" unicode="ż" horiz-adv-x="1064" d="M676 1208l-21 -20h-245l-21 20v205l21 21h245l21 -21v-205zM573 778h-450l-21 21v205l21 20h819l21 -20v-226l-21 -41l-471 -471v-20h492l20 -21v-205l-20 -20h-861l-20 20v226l20 41l471 471v20z"/>
    <glyph glyph-name="Zcaron" unicode="Ž" horiz-adv-x="1269" d="M266 1823l21 20h164l41 -20l122 -103h41l123 103l41 20h164l21 -20v-41l-205 -205l-41 -21h-246l-41 21l-205 205v41zM778 1188h-635l-20 20v205l20 21h963l20 -21v-225l-20 -41l-655 -881v-20h696l20 -21v-205l-20 -20h-1024l-21 20v226l21 41l655 880v21z"/>
    <glyph glyph-name="zcaron" unicode="ž" horiz-adv-x="1064" d="M164 1413l20 21h164l41 -21l123 -102h41l123 102l41 21h164l20 -21v-41l-205 -205l-41 -20h-245l-41 20l-205 205v41zM573 778h-450l-21 21v205l21 20h819l21 -20v-226l-21 -41l-471 -471v-20h492l20 -21v-205l-20 -20h-861l-20 20v226l20 41l471 471v20z"/>
    <glyph glyph-name="longs" unicode="ſ" horiz-adv-x="839" d="M594 1188q-61 0 -62 -62v-1106l-20 -20h-246l-20 20v738l-21 20h-143l-21 21v205l21 20h143l21 20v82q0 158 98 233t250 75h184l21 -21v-205l-21 -20h-184z"/>
    <glyph glyph-name="uni018F" unicode="Ə" horiz-adv-x="1392" d="M1331 704q0 -336 -167 -530t-469 -194t-468 194t-166 522v103l21 20h922l20 21q-14 188 -104 278t-212 90t-188 -37t-110 -127l-21 -20h-266l-21 20q66 198 206 304t388 106q301 0 468 -207t167 -543zM696 225q139 0 226 87q86 87 102 241l-20 20h-615l-20 -20 q16 -154 102 -241t225 -87z"/>
    <glyph glyph-name="florin" unicode="ƒ" horiz-adv-x="1269" d="M1024 1188q-92 0 -120 -26t-44 -118l21 -20h286l21 -20v-164l-21 -21h-327l-21 -20l-123 -738q-45 -268 -142 -369t-288 -102h-123l-20 21v205l20 20h103q82 0 114 55t50 170l122 738l-20 20h-164l-20 21v164l20 20h205l20 20q46 253 156 326q59 39 119 51t156 13h122 l21 -21v-205l-21 -20h-102z"/>
    <glyph glyph-name="uni01B5" unicode="Ƶ" horiz-adv-x="1269" d="M451 246h696l20 -21v-205l-20 -20h-1024l-21 20v226l21 41l246 327v21h-185l-20 20v205l20 21h348l41 20l205 266v21h-635l-20 20v205l20 21h963l20 -21v-225l-20 -41l-184 -246v-20h163l21 -21v-205l-21 -20h-327l-41 -21l-266 -348v-20z"/>
    <glyph glyph-name="uni01B6" unicode="ƶ" horiz-adv-x="1064" d="M471 246h492l20 -21v-205l-20 -20h-861l-20 20v226l20 41l103 102v21h-62l-20 20v184l20 21h287l41 20l102 103v20h-450l-21 21v205l21 20h819l21 -20v-226l-21 -41l-82 -82v-20h62l20 -21v-184l-20 -20h-287l-41 -21l-123 -123v-20z"/>
    <glyph glyph-name="Aringacute" unicode="Ǻ" horiz-adv-x="1331" d="M635 1249h61q82 -1 82 61t-82 62h-61q-82 0 -82 -62t82 -61zM922 1782l-226 -205l-41 -21h-184l-20 21v41l204 205l41 20h205l21 -20v-41zM860 573l-184 492h-21l-184 -492l21 -20h348zM410 1324q0 75 63 123t162 48h61q98 0 162 -48t64 -136q0 -40 -21 -82v-21l389 -983 v-205l-20 -20h-185l-20 20l-102 267l-41 20h-512l-41 -20l-103 -267l-20 -20h-185l-20 20v205l389 983v21q-20 20 -20 95z"/>
    <glyph glyph-name="aringacute" unicode="ǻ" horiz-adv-x="1064" d="M799 1782l-226 -205l-41 -21h-184l-20 21v41l204 205l41 20h205l21 -20v-41zM307 1290q-1 88 63 136t162 48t162 -48t64 -136t-64 -136t-162 -48t-162 48t-63 136zM614 1290q0 62 -82 62t-81 -62q-1 -61 81 -61t82 61zM348 328q0 -102 144 -103q78 0 131 41t53 103v41 l-21 20q-41 20 -123 21q-184 0 -184 -123zM514 655q60 0 141 -20l21 20v21q0 78 -26 100t-92 23q-66 0 -88 -2q-22 -3 -46 -17t-35 -43l-20 -20h-246l-21 20q0 115 104 211t334 96t326 -114t97 -357v-553l-21 -20h-225l-21 20l-20 41h-21q-31 -31 -96 -56q-65 -26 -129 -25 q-170 0 -269 87t-100 240q0 88 32 154q32 65 79 101t112 59q66 23 118 29t112 5z"/>
    <glyph glyph-name="AEacute" unicode="Ǽ" horiz-adv-x="2027" d="M1495 1782l-225 -205l-41 -21h-185l-20 21v41l205 205l41 20h205l20 -20v-41zM963 532v635l-21 21h-41l-20 -21l-349 -635l21 -20h389zM963 20v226l-21 20h-532l-41 -20l-123 -226l-21 -20h-164l-20 20v205l655 1188l21 21h1167l21 -21v-205l-21 -20h-614l-21 -21v-286 l21 -21h573l21 -20v-205l-21 -21h-573l-21 -20v-328l21 -20h614l21 -21v-205l-21 -20h-901z"/>
    <glyph glyph-name="aeacute" unicode="ǽ" horiz-adv-x="1720" d="M1147 1372l-225 -205l-41 -20h-185l-20 20v41l205 205l41 21h204l21 -21v-41zM1168 799q-137 0 -179 -129q-6 -23 -6 -35l21 -21h327l21 21q0 36 -24 79q-46 85 -160 85zM348 328q0 -102 144 -103q78 0 131 41t53 103v41l-21 20q-41 20 -123 21q-184 0 -184 -123z M514 655q60 0 141 -20l21 20v21q0 78 -26 100t-92 23q-66 0 -88 -2q-22 -3 -46 -17t-35 -43l-20 -20h-246l-21 20q0 115 104 211t328 96q223 0 326 -102h21q102 102 286 102q236 0 364 -152t128 -380v-82l-21 -20h-634l-21 -21q0 -49 49 -106t159 -57t140 61l21 20h245 l21 -20q-16 -105 -107 -199q-105 -108 -329 -108q-114 0 -203 40q-90 40 -139 103h-21q-143 -143 -389 -143q-170 0 -269 87t-100 240q0 88 32 154q32 65 79 101t112 59q66 23 118 29t112 5z"/>
    <glyph glyph-name="Oslashacute" unicode="Ǿ" horiz-adv-x="1556" d="M762 1208q-180 0 -286 -135q-108 -135 -107 -356q0 -164 41 -246h20l614 614v21q-102 102 -282 102zM1188 717q0 164 -41 246h-41l-594 -594v-41q102 -102 282 -102t286 134q108 135 108 357zM82 717q0 329 189 533t491 204t467 -164h20l103 103l41 20h20l21 -20v-103 l-82 -82v-41q123 -184 123 -450q1 -328 -189 -533t-508 -204q-274 -1 -471 163h-20l-82 -82l-41 -20h-21l-20 20v103l82 82v20q-123 184 -123 451zM1044 1782l-225 -205l-41 -21h-184l-21 21v41l205 205l41 20h205l20 -20v-41z"/>
    <glyph glyph-name="oslashacute" unicode="ǿ" horiz-adv-x="1146" d="M570 799q-106 0 -164 -75t-58 -212v-102h21l348 327v21q-41 41 -147 41zM576 225q106 0 164 75t59 212v102h-21l-348 -327v-21q40 -41 146 -41zM1085 512q0 -244 -140 -388t-372 -144q-190 0 -327 102h-21l-41 -41l-41 -21h-20l-21 21v102l41 41v21q-82 109 -82 307 q1 244 141 388t371 144q190 0 328 -102h21l41 41l41 21h20l20 -21v-102l-40 -41v-21q81 -108 81 -307zM840 1372l-226 -205l-41 -20h-184l-20 20v41l204 205l41 21h205l21 -21v-41z"/>
    <glyph glyph-name="Scommaaccent" unicode="Ș" horiz-adv-x="1351" d="M553 -451v21l82 123v20l-21 21h-41l-20 20v144l20 20h205l21 -20v-164l-21 -62l-123 -102l-41 -21h-61zM1270 410q0 -186 -146 -308t-444 -122q-299 0 -449 130t-149 341l20 20h246l21 -20q1 -113 75 -169t252 -57q287 0 287 185q0 106 -75 150t-242 68q-168 24 -254 52 q-86 29 -159 77q-151 99 -151 308q0 169 140 279t416 110t413 -118t137 -312l-20 -20h-246l-20 20q0 96 -62 140t-225 44q-246 0 -246 -143q0 -92 76 -133t293 -72q512 -73 512 -450z"/>
    <glyph glyph-name="scommaaccent" unicode="ș" horiz-adv-x="1024" d="M389 -451v21l82 123v20l-20 21h-41l-21 20v144l21 20h204l21 -20v-164l-21 -62l-122 -102l-41 -21h-62zM655 737q0 61 -144 61q-145 0 -143 -71q0 -35 12 -50q11 -15 54 -30t101 -21q59 -8 95 -14t69 -14q34 -8 89 -31t90 -52q34 -30 60 -84t25 -124q0 -137 -111 -232 t-331 -95t-340 96t-120 252l21 20h246l20 -20q0 -57 41 -80t123 -23q164 0 164 82q0 37 -16 49t-25 18q-8 6 -32 12q-24 5 -37 8t-46 8t-49 8q-389 66 -389 327q0 133 106 220t312 87t324 -80t118 -227l-20 -20h-246z"/>
    <glyph glyph-name="uni021A" unicode="Ț" horiz-adv-x="1269" d="M512 -451v21l82 123v20l-21 21h-41l-20 20v144l20 20h205l21 -20v-164l-21 -62l-123 -102l-41 -21h-61zM1229 1208l-21 -20h-409l-21 -21v-1147l-20 -20h-246l-20 20v1147l-21 21h-410l-20 20v205l20 21h1147l21 -21v-205z"/>
    <glyph glyph-name="uni021B" unicode="ț" horiz-adv-x="860" d="M307 -451v21l82 123v20l-20 21h-41l-21 20v144l21 20h204l21 -20v-164l-21 -62l-122 -102l-41 -21h-62zM512 307q0 -61 61 -61h185l20 -21v-205l-20 -20h-185q-151 0 -249 75t-99 232v451l-20 20h-144l-20 21v205l20 20h144l20 20v185l21 20h246l20 -20v-185l20 -20h226 l20 -20v-205l-20 -21h-226l-20 -20v-451z"/>
    <glyph glyph-name="uni0259" unicode="ə" horiz-adv-x="1105" d="M553 225q143 0 178 129q6 23 6 35l-20 21h-328l-20 -21q0 -36 23 -79q46 -85 161 -85zM61 512v82l21 20h635l20 21q0 49 -49 106t-159 57t-140 -61l-20 -20h-246l-21 20q16 105 107 199q47 49 131 79t192 29q248 0 380 -152t132 -379q0 -228 -128 -381 q-128 -152 -364 -152t-363 152q-128 152 -128 380z"/>
    <glyph glyph-name="circumflex" unicode="ˆ" horiz-adv-x="1024" d="M881 1167l-21 -20h-164l-41 20l-123 103h-40l-123 -103l-41 -20h-164l-21 20v41l205 205l41 21h246l41 -21l205 -205v-41z"/>
    <glyph glyph-name="caron" unicode="ˇ" horiz-adv-x="1024" d="M143 1413l21 21h164l41 -21l123 -102h40l123 102l41 21h164l21 -21v-41l-205 -205l-41 -20h-246l-41 20l-205 205v41z"/>
    <glyph glyph-name="uni02C9" unicode="ˉ" horiz-adv-x="1024" d="M881 1188l-21 -21h-696l-21 21v184l21 21h696l21 -21v-184z"/>
    <glyph glyph-name="breve" unicode="˘" horiz-adv-x="1024" d="M512 1290q143 0 143 123l21 21h123l20 -21q0 -127 -80 -207t-227 -80t-227 80t-80 207l20 21h123l21 -21q0 -123 143 -123z"/>
    <glyph glyph-name="dotaccent" unicode="˙" horiz-adv-x="1024" d="M655 1208l-20 -20h-246l-20 20v205l20 21h246l20 -21v-205z"/>
    <glyph glyph-name="ring" unicode="˚" horiz-adv-x="1024" d="M287 1290q0 88 63 136q64 48 162 48t162 -48t63 -136q0 -88 -63 -136q-64 -48 -162 -48t-162 48q-63 48 -63 136zM594 1290q0 62 -82 62t-82 -62t82 -61q82 0 82 61z"/>
    <glyph glyph-name="ogonek" unicode="˛" horiz-adv-x="1024" d="M471 -164q0 -82 102 -82q62 0 91 17l12 4l20 -21v-123l-20 -20q-41 -41 -164 -41t-195 59t-71 166q0 77 53 133t131 72h246q-94 -16 -150 -59t-55 -105z"/>
    <glyph glyph-name="tilde" unicode="˜" horiz-adv-x="1024" d="M649 1106q-84 0 -138 36t-92 72t-71 35q-61 0 -61 -82l-21 -20h-102l-21 20q-1 119 63 183t148 63q84 0 139 -36q54 -35 92 -71t70 -36q61 0 62 82l20 20h103l20 -20q0 -119 -63 -183q-64 -63 -148 -63z"/>
    <glyph glyph-name="hungarumlaut" unicode="˝" horiz-adv-x="1024" d="M1004 1372l-226 -205l-41 -20h-184l-21 20v41l205 205l41 21h205l21 -21v-41zM512 1372l-225 -205l-41 -20h-185l-20 20v41l205 205l41 21h205l20 -21v-41z"/>
    <glyph glyph-name="uni0394" unicode="Δ" horiz-adv-x="1269" d="M369 246h532v20l-246 819h-41l-245 -819v-20zM82 0l-21 20v205l410 1188l21 21h286l21 -21l409 -1188v-205l-20 -20h-1106z"/>
    <glyph glyph-name="uni03A9" unicode="Ω" horiz-adv-x="1597" d="M389 246v20q-94 94 -134 138t-83 112t-56 136t-14 167q0 207 100 355q191 283 598 281q408 -1 596 -281q99 -147 99 -355q0 -98 -13 -167q-12 -68 -56 -136t-84 -112t-134 -138v-20h226l20 -21v-205l-20 -20h-512l-21 20v226l21 41q123 123 171 179q117 136 116 343 t-113 303q-113 96 -297 96t-297 -96t-113 -303t116 -343q48 -56 171 -179l20 -41v-226l-20 -20h-512l-21 20v205l21 21h225z"/>
    <glyph glyph-name="uni03BC" unicode="μ" horiz-adv-x="1310" d="M451 61v-450l-21 -21h-246l-20 21v1393l20 20h246l21 -20v-512q0 -113 51 -180q51 -66 153 -66t154 66q51 67 51 180v512l21 20h245l21 -20v-984l-21 -20h-225l-20 20l-21 41h-20q-22 -30 -76 -56q-52 -25 -108 -25t-102 20t-65 41l-18 20h-20z"/>
    <glyph glyph-name="pi" unicode="π" horiz-adv-x="1310" d="M1188 20l-21 -20h-409l-21 20v738l-20 20h-144l-20 -20v-738l-21 -20h-245l-21 20v738l-20 20h-123l-21 21v205l21 20h1065l20 -20v-205l-20 -21h-144l-20 -20v-492l20 -20h123l21 -21v-205z"/>
    <glyph glyph-name="Wgrave" unicode="Ẁ" horiz-adv-x="1945" d="M1167 1577l-20 -21h-184l-41 21l-226 205v41l21 20h205l41 -20l204 -205v-41zM840 1434h266l20 -21l267 -942h20l205 942l20 21h205l21 -21v-205l-308 -1188l-20 -20h-266l-21 20l-266 984h-20l-267 -984l-20 -20h-266l-21 20l-307 1188v205l20 21h205l21 -21l204 -942 h21l266 942z"/>
    <glyph glyph-name="wgrave" unicode="ẁ" horiz-adv-x="1617" d="M1004 1167l-21 -20h-184l-41 20l-226 205v41l21 21h205l41 -21l205 -205v-41zM1536 799l-246 -779l-20 -20h-266l-21 20l-164 615h-20l-164 -615l-21 -20h-266l-20 20l-246 779v205l20 20h185l20 -20l164 -574h21l163 574l21 20h266l21 -20l163 -574h21l164 574l20 20 h185l20 -20v-205z"/>
    <glyph glyph-name="Wacute" unicode="Ẃ" horiz-adv-x="1945" d="M1249 1782l-225 -205l-41 -21h-184l-21 21v41l205 205l41 20h205l20 -20v-41zM840 1434h266l20 -21l267 -942h20l205 942l20 21h205l21 -21v-205l-308 -1188l-20 -20h-266l-21 20l-266 984h-20l-267 -984l-20 -20h-266l-21 20l-307 1188v205l20 21h205l21 -21l204 -942 h21l266 942z"/>
    <glyph glyph-name="wacute" unicode="ẃ" horiz-adv-x="1617" d="M1085 1372l-225 -205l-41 -20h-184l-21 20v41l205 205l41 21h205l20 -21v-41zM1536 799l-246 -779l-20 -20h-266l-21 20l-164 615h-20l-164 -615l-21 -20h-266l-20 20l-246 779v205l20 20h185l20 -20l164 -574h21l163 574l21 20h266l21 -20l163 -574h21l164 574l20 20 h185l20 -20v-205z"/>
    <glyph glyph-name="Wdieresis" unicode="Ẅ" horiz-adv-x="1945" d="M840 1434h266l20 -21l267 -942h20l205 942l20 21h205l21 -21v-205l-308 -1188l-20 -20h-266l-21 20l-266 984h-20l-267 -984l-20 -20h-266l-21 20l-307 1188v205l20 21h205l21 -21l204 -942h21l266 942zM881 1618l-21 -21h-225l-21 21v205l21 20h225l21 -20v-205z M1331 1618l-20 -21h-226l-20 21v205l20 20h226l20 -20v-205z"/>
    <glyph glyph-name="wdieresis" unicode="ẅ" horiz-adv-x="1617" d="M1536 799l-246 -779l-20 -20h-266l-21 20l-164 615h-20l-164 -615l-21 -20h-266l-20 20l-246 779v205l20 20h185l20 -20l164 -574h21l163 574l21 20h266l21 -20l163 -574h21l164 574l20 20h185l20 -20v-205zM717 1208l-21 -20h-225l-20 20v205l20 21h225l21 -21v-205z M1167 1208l-20 -20h-225l-21 20v205l21 21h225l20 -21v-205z"/>
    <glyph glyph-name="uni1E8A" unicode="Ẋ" horiz-adv-x="1372" d="M840 1618l-21 -21h-266l-21 21v205l21 20h266l21 -20v-205zM1290 20l-20 -20h-144l-41 20l-389 512h-20l-389 -512l-41 -20h-144l-20 20v205l410 512v21l-390 450v205l21 21h143l41 -21l369 -450h20l369 450l41 21h143l21 -21v-205l-389 -450v-21l409 -512v-205z"/>
    <glyph glyph-name="uni1E8B" unicode="ẋ" horiz-adv-x="1044" d="M676 1208l-21 -20h-266l-20 20v205l20 21h266l21 -21v-205zM983 20l-20 -20h-123l-41 20l-267 328h-20l-266 -328l-41 -20h-123l-21 20v205l246 287v20l-225 267v205l20 20h123l41 -20l246 -308h20l246 308l41 20h123l21 -20v-205l-226 -267v-20l246 -287v-205z"/>
    <glyph glyph-name="Ygrave" unicode="Ỳ" horiz-adv-x="1228" d="M799 1577l-21 -21h-184l-41 21l-225 205v41l20 20h205l41 -20l205 -205v-41zM1167 1208l-409 -676v-512l-21 -20h-245l-21 20v512l-410 676v205l21 21h143l41 -21l328 -553h41l328 553l41 21h143l20 -21v-205z"/>
    <glyph glyph-name="ygrave" unicode="ỳ" horiz-adv-x="1085" d="M737 1167l-20 -20h-185l-40 20l-226 205v41l21 21h205l40 -21l205 -205v-41zM246 -348h-103l-20 20v205l20 21h103q74 0 100 16t43 66v20l-328 799v205l21 20h184l21 -20l245 -697h21l246 697l20 20h185l20 -20v-205l-328 -819q-36 -86 -66 -140q-75 -131 -206 -168 q-74 -20 -178 -20z"/>
    <glyph glyph-name="endash" unicode="–" horiz-adv-x="1269" d="M1147 430l-21 -20h-983l-20 20v205l20 20h983l21 -20v-205z"/>
    <glyph glyph-name="emdash" unicode="—" horiz-adv-x="2293" d="M2171 430l-21 -20h-2007l-20 20v205l20 20h2007l21 -20v-205z"/>
    <glyph glyph-name="quoteleft" unicode="‘" horiz-adv-x="655" d="M492 1434v-41l-123 -205v-21l20 -20h62l20 -21v-266l-20 -20h-287l-21 20v287l21 61l164 205l41 21h123z"/>
    <glyph glyph-name="quoteright" unicode="’" horiz-adv-x="655" d="M164 840v41l123 204v21l-21 20h-61l-21 21v266l21 21h287l20 -21v-287l-20 -61l-164 -205l-41 -20h-123z"/>
    <glyph glyph-name="quotesinglbase" unicode="‚" horiz-adv-x="655" d="M143 -287v41l123 205v21l-20 20h-62l-20 20v267l20 20h287l21 -20v-287l-21 -61l-164 -205l-41 -21h-123z"/>
    <glyph glyph-name="quotedblleft" unicode="“" horiz-adv-x="1146" d="M492 1434v-41l-123 -205v-21l20 -20h62l20 -21v-266l-20 -20h-287l-21 20v287l21 61l164 205l41 21h123zM983 1434v-41l-123 -205v-21l21 -20h61l21 -21v-266l-21 -20h-287l-20 20v287l20 61l164 205l41 21h123z"/>
    <glyph glyph-name="quotedblright" unicode="”" horiz-adv-x="1146" d="M655 840v41l123 204v21l-20 20h-62l-20 21v266l20 21h287l21 -21v-287l-21 -61l-164 -205l-41 -20h-123zM164 840v41l123 204v21l-21 20h-61l-21 21v266l21 21h287l20 -21v-287l-20 -61l-164 -205l-41 -20h-123z"/>
    <glyph glyph-name="quotedblbase" unicode="„" horiz-adv-x="1146" d="M635 -287v41l123 205v21l-21 20h-61l-21 20v267l21 20h287l20 -20v-287l-20 -61l-164 -205l-41 -21h-123zM143 -287v41l123 205v21l-20 20h-62l-20 20v267l20 20h287l21 -20v-287l-21 -61l-164 -205l-41 -21h-123z"/>
    <glyph glyph-name="dagger" unicode="†" horiz-adv-x="1269" d="M778 -389l-20 -21h-246l-20 21v1147l-21 20h-369l-20 21v205l20 20h369l21 20v369l20 21h246l20 -21v-369l21 -20h368l21 -20v-205l-21 -21h-368l-21 -20v-1147z"/>
    <glyph glyph-name="daggerdbl" unicode="‡" horiz-adv-x="1269" d="M492 1413l20 21h246l20 -21v-369l21 -20h368l21 -20v-205l-21 -21h-368l-21 -20v-492l21 -20h368l21 -21v-205l-21 -20h-368l-21 -20v-369l-20 -21h-246l-20 21v369l-21 20h-369l-20 20v205l20 21h369l21 20v492l-21 20h-369l-20 21v205l20 20h369l21 20v369z"/>
    <glyph glyph-name="bullet" unicode="•" horiz-adv-x="962" d="M799 532v-20l-307 -307h-21l-307 307v20l307 308h21z"/>
    <glyph glyph-name="ellipsis" unicode="…" horiz-adv-x="1720" d="M1556 20l-20 -20h-287l-20 20v267l20 20h287l20 -20v-267zM1024 20l-20 -20h-287l-21 20v267l21 20h287l20 -20v-267zM492 20l-21 -20h-287l-20 20v267l20 20h287l21 -20v-267z"/>
    <glyph glyph-name="perthousand" unicode="‰" horiz-adv-x="2396" d="M2314 369q0 -177 -95 -283t-255 -106t-244 81h-20q-82 -82 -225 -81q-178 0 -274 106q-95 106 -95 282t95 283t256 107t243 -82h20q82 82 243 82t256 -106t95 -283zM2048 369q0 164 -102 163q-102 0 -102 -164t102 -163q102 0 102 164zM1577 369q0 164 -102 163 q-103 0 -103 -164t102 -163q102 0 103 164zM348 1065q0 -164 102 -164t103 164q-1 164 -103 164t-102 -164zM1434 1208l-779 -1188l-20 -20h-123l-20 20v205l778 1188l20 21h123l21 -21v-205zM451 676q-178 0 -274 106q-95 106 -95 282t95 284q95 106 273 106t274 -106 q95 -106 95 -282t-95 -284q-95 -106 -273 -106z"/>
    <glyph glyph-name="guilsinglleft" unicode="‹" horiz-adv-x="983" d="M819 82l-20 -21h-246l-41 21l-328 328l-20 41v122l20 41l328 328l41 21h246l20 -21v-82l-348 -328v-40l348 -328v-82z"/>
    <glyph glyph-name="guilsinglright" unicode="›" horiz-adv-x="983" d="M184 61l-20 21v82l348 328v40l-348 328v82l20 21h246l41 -21l328 -328l20 -41v-122l-20 -41l-328 -328l-41 -21h-246z"/>
    <glyph glyph-name="fraction" unicode="⁄" horiz-adv-x="1269" d="M1106 1208l-778 -1188l-21 -20h-123l-20 20v205l778 1188l21 21h122l21 -21v-205z"/>
    <glyph glyph-name="Euro" unicode="€" horiz-adv-x="1495" d="M840 225q256 0 286 185l21 20h246l20 -20q-16 -201 -166 -316t-407 -114q-451 0 -574 430l-20 20h-185l-20 21v163l20 21h144l20 20v82l-20 21h-144l-20 20v164l20 21h164l21 20q47 231 197 351q151 120 398 120t394 -108t178 -322l-20 -20h-246l-21 20q-36 184 -288 184 t-285 -225l20 -20h390l20 -21v-164l-20 -20h-431l-20 -21v-82l20 -20h349l20 -21v-163l-20 -21h-287l-21 -20q14 -90 85 -138t182 -47z"/>
    <glyph glyph-name="uni2117" unicode="℗" horiz-adv-x="1720" d="M348 717q0 -233 142 -383t370 -150t370 150t142 383t-142 383t-370 150t-370 -150t-142 -383zM123 717q0 307 215 522t522 215t522 -215t215 -522t-215 -522t-522 -215t-522 215t-215 522zM963 594h-164l-21 -21v-204l-20 -21h-164l-21 21v696l21 20h369q125 0 195 -62 t71 -183q-1 -122 -71 -184t-195 -62zM1024 840q0 61 -61 61h-164l-21 -20v-82l21 -21h164q61 1 61 62z"/>
    <glyph glyph-name="trademark" unicode="™" horiz-adv-x="1781" d="M1004 1024v-307l-21 -21h-143l-21 21v696l21 21h184l20 -21l185 -471h20l185 471l20 21h184l21 -21v-696l-21 -21h-143l-20 21v307h-21l-123 -307l-20 -21h-144l-20 21l-123 307h-20zM41 1413l20 21h635l21 -21v-123l-21 -20h-204l-21 -21v-532l-20 -21h-144l-20 21v532 l-21 21h-205l-20 20v123z"/>
    <glyph glyph-name="Omega" unicode="Ω" horiz-adv-x="1597" d="M389 246v20q-94 94 -134 138t-83 112t-56 136t-14 167q0 207 100 355q191 283 598 281q408 -1 596 -281q99 -147 99 -355q0 -98 -13 -167q-12 -68 -56 -136t-84 -112t-134 -138v-20h226l20 -21v-205l-20 -20h-512l-21 20v226l21 41q123 123 171 179q117 136 116 343 t-113 303q-113 96 -297 96t-297 -96t-113 -303t116 -343q48 -56 171 -179l20 -41v-226l-20 -20h-512l-21 20v205l21 21h225z"/>
    <glyph glyph-name="arrowleft" unicode="←" horiz-adv-x="1761" d="M573 614h1004l20 -20v-164l-20 -20h-1004v-21l349 -348v-21l-21 -20h-225l-41 20l-471 472v40l471 472l41 20h225l21 -20v-21l-349 -348v-21z"/>
    <glyph glyph-name="arrowup" unicode="↑" horiz-adv-x="1351" d="M778 1024v-1004l-20 -20h-164l-21 20v1004h-20l-348 -348h-21l-20 20v226l20 41l471 471h41l471 -471l21 -41v-226l-21 -20h-20l-348 348h-21z"/>
    <glyph glyph-name="arrowright" unicode="→" horiz-adv-x="1761" d="M1188 410h-1004l-20 20v164l20 20h1004v21l-348 348v21l20 20h225l41 -20l471 -472v-40l-471 -472l-41 -20h-225l-20 20v21l348 348v21z"/>
    <glyph glyph-name="arrowdown" unicode="↓" horiz-adv-x="1351" d="M573 410v1003l21 21h164l20 -21v-1003h21l348 348h20l21 -21v-225l-21 -41l-471 -471h-41l-471 471l-20 41v225l20 21h21l348 -348h20z"/>
    <glyph glyph-name="arrowboth" unicode="↔" horiz-adv-x="2170" d="M573 614h1024v21l-348 348v21l21 20h225l41 -20l471 -472v-40l-471 -472l-41 -20h-225l-21 20v21l348 348v21h-1024v-21l349 -348v-21l-21 -20h-225l-41 20l-471 472v40l471 472l41 20h225l21 -20v-21l-349 -348v-21z"/>
    <glyph glyph-name="arrowupdn" unicode="↕" horiz-adv-x="1351" d="M573 0v1024h-20l-348 -348h-21l-20 20v226l20 41l471 471h41l471 -471l21 -41v-226l-21 -20h-20l-348 348h-21v-1024h21l348 348h20l21 -20v-226l-21 -41l-471 -471h-41l-471 471l-20 41v226l20 20h21l348 -348h20z"/>
    <glyph glyph-name="uni2196" unicode="↖" horiz-adv-x="1433" d="M553 1229v-21l717 -716v-21l-144 -143h-20l-717 716h-20v-471l-21 -20h-20l-144 143l-20 41v656l41 41h655l41 -21l143 -143v-21l-20 -20h-471z"/>
    <glyph glyph-name="uni2197" unicode="↗" horiz-adv-x="1433" d="M1065 1044h-21l-716 -716h-21l-143 143v21l717 716v21h-471l-21 20v21l143 143l41 21h656l41 -41v-656l-21 -41l-143 -143h-21l-20 20v471z"/>
    <glyph glyph-name="uni2198" unicode="↘" horiz-adv-x="1433" d="M881 205v20l-717 717v21l143 143h21l716 -717h21v471l20 21h21l143 -144l21 -41v-655l-41 -41h-656l-41 20l-143 144v20l21 21h471z"/>
    <glyph glyph-name="uni2199" unicode="↙" horiz-adv-x="1433" d="M369 389h20l717 717h20l144 -143v-21l-717 -717v-20h471l20 -21v-20l-143 -144l-41 -20h-655l-41 41v655l20 41l144 144h20l21 -21v-471z"/>
    <glyph glyph-name="partialdiff" unicode="∂" horiz-adv-x="1269" d="M860 512q0 287 -225 287q-205 0 -205 -287q0 -135 55 -211t150 -76q225 0 225 287zM532 1454q328 0 472 -230t143 -692q0 -270 -137 -411q-136 -141 -362 -141t-365 135t-139 390t118 397q119 142 332 142q74 0 130 -20t75 -41l20 -20h21q0 72 -53 164q-31 52 -97 87 t-174 35q-109 0 -184 -30l-25 -11l-20 21v164l20 20q82 41 225 41z"/>
    <glyph glyph-name="Delta" unicode="∆" horiz-adv-x="1269" d="M369 246h532v20l-246 819h-41l-245 -819v-20zM82 0l-21 20v205l410 1188l21 21h286l21 -21l409 -1188v-205l-20 -20h-1106z"/>
    <glyph glyph-name="product" unicode="∏" horiz-adv-x="1310" d="M1044 -389l-20 -21h-246l-20 21v1556l-21 21h-164l-20 -21v-1556l-21 -21h-245l-21 21v1556l-20 21h-144l-20 20v205l20 21h1106l21 -21v-205l-21 -20h-143l-21 -21v-1556z"/>
    <glyph glyph-name="summation" unicode="∑" horiz-adv-x="1269" d="M430 1188v-21l410 -512l20 -41v-184l-20 -41l-410 -532v-21h451l20 21v143l21 20h245l21 -20v-389l-21 -21h-1065l-20 21v225l20 41l492 635v20l-492 615l-20 41v225l20 21h1045l20 -21v-369l-20 -20h-246l-20 20v123l-21 21h-430z"/>
    <glyph glyph-name="minus" unicode="−" horiz-adv-x="1146" d="M1024 430l-20 -20h-861l-20 20v205l20 20h861l20 -20v-205z"/>
    <glyph glyph-name="uni2215" unicode="∕" horiz-adv-x="1269" d="M1106 1208l-778 -1188l-21 -20h-123l-20 20v205l778 1188l21 21h122l21 -21v-205z"/>
    <glyph glyph-name="uni2219" unicode="∙" horiz-adv-x="655" d="M492 410l-21 -21h-287l-20 21v266l20 20h287l21 -20v-266z"/>
    <glyph glyph-name="radical" unicode="√" horiz-adv-x="1228" d="M471 471l287 942l41 21h348l20 -21v-205l-20 -20h-164l-41 -21l-369 -1147l-20 -20h-205l-20 20l-246 779v205l20 20h185l20 -20l144 -533h20z"/>
    <glyph glyph-name="infinity" unicode="∞" horiz-adv-x="1454" d="M1102 737q-121 0 -232 -96q-35 -31 -92 -88v-41q57 -57 92 -88q34 -31 96 -64t119 -32q92 0 149 56q56 56 56 148t-56 149q-58 56 -132 56zM352 737q-74 0 -132 -56q-56 -57 -56 -149t56 -148t131 -56q122 0 233 96q35 31 92 88v41q-57 57 -92 88q-34 31 -96 63t-136 33z M369 266q-125 0 -206 73t-81 193t81 194q81 73 206 73q67 0 139 -39t110 -73t99 -93h20q59 59 99 93t112 73t137 39q125 0 206 -73t81 -194q0 -122 -81 -194t-206 -72q-67 0 -139 39t-111 73t-98 93h-20q-59 -59 -99 -93t-112 -73t-137 -39z"/>
    <glyph glyph-name="integral" unicode="∫" horiz-adv-x="1351" d="M1106 1434h123l20 -21l-41 -205l-20 -20h-62q-86 0 -116 -30t-47 -114l-205 -1024q-46 -229 -146 -329t-284 -101h-123l-21 21l41 205l21 20h61q84 0 115 45t49 139l205 1024q43 218 146 304t284 86z"/>
    <glyph glyph-name="approxequal" unicode="≈" horiz-adv-x="1269" d="M430 471q76 0 148 -29q72 -30 114 -64q115 -93 168 -91q82 0 82 102l21 21h204l21 -21q0 -160 -92 -264t-256 -105q-76 0 -148 29t-114 64q-112 92 -168 92q-82 0 -82 -103l-21 -20h-205l-20 20q0 164 86 266t262 103zM860 819q82 0 82 103l21 20h204l21 -20 q0 -160 -92 -264t-256 -105q-76 0 -148 29q-72 30 -114 64q-115 93 -168 91q-82 0 -82 -102l-21 -21h-205l-20 21q0 164 86 266t262 103q76 0 148 -29t114 -64q112 -92 168 -92z"/>
    <glyph glyph-name="notequal" unicode="≠" d="M348 164h-184l-21 20v205l21 21h266l41 20l82 164v20h-389l-21 21v205l21 20h471l41 21l41 82l20 20h103l20 -20v-41l-20 -41v-21h184l20 -20v-205l-20 -21h-266l-41 -20l-82 -164v-20h389l20 -21v-205l-20 -20h-471l-41 -21l-41 -82l-20 -20h-103l-20 20v41l20 41v21z "/>
    <glyph glyph-name="lessequal" unicode="≤" d="M123 799l20 20l553 205h328l20 -20v-123l-20 -21l-512 -184v-21l512 -163l20 -21v-123l-20 -20h-328l-553 204l-20 21v246zM1044 20l-20 -20h-881l-20 20v205l20 21h881l20 -21v-205z"/>
    <glyph glyph-name="greaterequal" unicode="≥" d="M1024 819l20 -20v-246l-20 -21l-553 -204h-328l-20 20v123l20 21l512 163v21l-512 184l-20 21v123l20 20h328zM143 0l-20 20v205l20 21h881l20 -21v-205l-20 -20h-881z"/>
    <glyph glyph-name="lozenge" unicode="◊" horiz-adv-x="1228" d="M369 737v-41l225 -368h20l246 368v41l-246 369h-20zM1126 840v-246l-368 -574l-21 -20h-245l-21 20l-369 574v246l369 573l21 21h245l21 -21z"/>
    <glyph glyph-name="uniFB00" unicode="ﬀ" horiz-adv-x="1515" d="M594 1188q-61 0 -62 -62v-82l21 -20h369l20 20v82q0 158 98 233t250 75h164l21 -21v-205l-21 -20h-164q-61 0 -61 -62v-82l20 -20h185l20 -20v-205l-20 -21h-185l-20 -20v-738l-21 -20h-245l-21 20v738l-20 20h-369l-21 -20v-738l-20 -20h-246l-20 20v738l-21 20h-143 l-21 21v205l21 20h143l21 20v82q0 158 98 233t250 75h164l20 -21v-205l-20 -20h-164z"/>
    <glyph glyph-name="fi" unicode="ﬁ" horiz-adv-x="1351" d="M246 1126q0 158 98 233t250 75h164l20 -21v-205l-20 -20h-164q-61 0 -62 -62v-82l21 -20h655l21 -20v-984l-21 -20h-245l-21 20v738l-20 20h-369l-21 -20v-738l-20 -20h-246l-20 20v738l-21 20h-143l-21 21v205l21 20h143l21 20v82zM1229 1208l-21 -20h-245l-21 20v205 l21 21h245l21 -21v-205z"/>
    <glyph glyph-name="fl" unicode="ﬂ" horiz-adv-x="1351" d="M246 1126q0 158 98 233t250 75h164l20 -21v-205l-20 -20h-164q-61 0 -62 -62v-82l21 -20h369l20 20v369l21 21h245l21 -21v-1393l-21 -20h-245l-21 20v738l-20 20h-369l-21 -20v-738l-20 -20h-246l-20 20v738l-21 20h-143l-21 21v205l21 20h143l21 20v82z"/>
    <glyph glyph-name="uniFB03" unicode="ﬃ" horiz-adv-x="2048" d="M1925 1208l-20 -20h-246l-21 20v205l21 21h246l20 -21v-205zM594 1188q-61 0 -62 -62v-82l21 -20h369l20 20v82q0 158 98 233t250 75h164l21 -21v-205l-21 -20h-164q-61 0 -61 -62v-82l20 -20h656l20 -20v-984l-20 -20h-246l-21 20v738l-20 20h-369l-20 -20v-738l-21 -20 h-245l-21 20v738l-20 20h-369l-21 -20v-738l-20 -20h-246l-20 20v738l-21 20h-143l-21 21v205l21 20h143l21 20v82q0 158 98 233t250 75h164l20 -21v-205l-20 -20h-164z"/>
    <glyph glyph-name="uniFB04" unicode="ﬄ" horiz-adv-x="2048" d="M594 1188q-61 0 -62 -62v-82l21 -20h369l20 20v82q0 158 98 233t250 75h164l21 -21v-205l-21 -20h-164q-61 0 -61 -62v-82l20 -20h369l20 20v369l21 21h246l20 -21v-1393l-20 -20h-246l-21 20v738l-20 20h-369l-20 -20v-738l-21 -20h-245l-21 20v738l-20 20h-369l-21 -20 v-738l-20 -20h-246l-20 20v738l-21 20h-143l-21 21v205l21 20h143l21 20v82q0 158 98 233t250 75h164l20 -21v-205l-20 -20h-164z"/>
    <glyph glyph-name="i.latn_TRK" horiz-adv-x="532" d="M410 20l-21 -20h-246l-20 20v984l20 20h246l21 -20v-984zM410 1208l-21 -20h-246l-20 20v205l20 21h246l21 -21v-205z"/>
    <glyph glyph-name="zero.osf" horiz-adv-x="1146" d="M348 512q0 -127 60 -207t165 -80q104 0 165 80q60 80 61 207q-1 127 -61 207t-164 80t-166 -80q-60 -80 -60 -207zM61 512q1 233 143 383q142 149 369 149t370 -149q142 -150 142 -383t-142 -383q-141 -149 -369 -149t-370 150t-143 382z"/>
    <glyph glyph-name="one.osf" horiz-adv-x="696" d="M287 655h-21l-82 -82h-102l-21 21v205l205 205l41 20h246l20 -20v-984l-20 -20h-246l-20 20v635z"/>
    <glyph glyph-name="two.osf" horiz-adv-x="1105" d="M717 684q0 45 -39 80t-125 35q-184 0 -184 -164l-21 -21h-246l-20 21q0 184 128 297q128 112 342 112t333 -114t119 -254q0 -139 -66 -215t-180 -133l-123 -62v-20h389l20 -21v-205l-20 -20h-922l-20 20v205l20 41l410 205q101 50 140 80q40 31 52 59t13 74z"/>
    <glyph glyph-name="three.osf" horiz-adv-x="1105" d="M778 66q0 116 -55 178t-139 63q-84 0 -133 -41h-103l-20 21v184l286 287v20h-491l-21 21v205l21 20h840l20 -20v-205l-20 -41l-267 -246v-20q145 0 257 -120t112 -320t-141 -341t-382 -141t-371 122t-130 288l20 20h246l21 -20q0 -68 52 -116t162 -48t173 67t63 183z"/>
    <glyph glyph-name="four.osf" horiz-adv-x="1126" d="M717 676h-21l-348 -410v-20h348l21 20v410zM1004 -389l-21 -21h-246l-20 21v369l-21 20h-635l-20 20v226l20 41l615 717l41 20h266l21 -20v-1393z"/>
    <glyph glyph-name="five.osf" d="M604 -184q216 0 215 256q0 256 -205 256q-152 0 -225 -123l-41 -21l-205 21l-20 20l41 779l20 20h840l20 -20v-205l-20 -21h-573l-21 -20l-20 -287h20q31 62 150 91q45 11 96 11q198 0 314 -133t116 -338q0 -252 -128 -392t-368 -140t-366 110q-125 110 -142 300l21 20 h246l20 -20q15 -90 63 -127t152 -37z"/>
    <glyph glyph-name="six.osf" d="M614 225q92 1 148 69t57 179q0 111 -51 177t-154 67q-225 0 -225 -246t225 -246zM799 1106q-32 102 -181 102t-194 -127q-35 -100 -35 -200h21q6 8 21 22t79 37t145 23q187 1 319 -131t132 -350t-137 -360t-355 -142q-284 0 -408 179t-124 543t132 559q132 194 400 193 q209 0 332 -95t139 -253l-20 -21h-246z"/>
    <glyph glyph-name="seven.osf" horiz-adv-x="1064" d="M696 778h-614l-21 21v205l21 20h901l21 -20v-226l-574 -1167l-20 -21h-164l-21 21v205l471 942v20z"/>
    <glyph glyph-name="eight.osf" horiz-adv-x="1146" d="M61 430q-1 125 55 208t130 120v20q-144 96 -144 272t125 290t346 114t347 -114t124 -275q0 -190 -143 -287v-20q74 -37 129 -120t55 -208q0 -184 -133 -317t-379 -133t-379 133t-133 317zM758 1034q0 70 -44 122t-140 52t-141 -52q-44 -52 -44 -122t48 -122t136 -52 t137 52q48 52 48 122zM574 635q-106 1 -166 -55t-60 -146t55 -149t170 -59t170 58q55 60 55 150t-58 146q-60 56 -166 55z"/>
    <glyph glyph-name="nine.osf" d="M369 553q0 -121 55 -183t149 -63q225 0 226 246q1 129 -61 187t-160 58t-154 -62q-55 -62 -55 -183zM573 -184q72 0 121 34q73 52 98 197q7 47 7 96h-21q-32 -32 -101 -57q-70 -25 -145 -25q-186 1 -318 141t-132 359t139 351t384 132t373 -182t128 -514 q0 -394 -124 -586t-409 -192q-207 0 -321 94t-129 254l20 21h246l21 -21q34 -102 163 -102z"/>
    <glyph glyph-name="numbersign.tf" d="M512 799l-41 -164l21 -21h163l21 21l41 164l-21 20h-164zM1065 430l-21 -20h-163l-21 -21l-102 -369l-21 -20h-143l-21 20v205l41 164l-20 21h-164l-20 -21l-103 -369l-20 -20h-144l-20 20v205l41 164l-21 21h-102l-21 20v164l21 20h184l41 185l-20 20h-103l-20 21v164 l20 20h164l21 20l102 369l21 21h143l20 -21v-205l-41 -164l21 -20h164l20 20l103 369l20 21h143l21 -21v-205l-41 -164l20 -20h103l20 -20v-164l-20 -21h-164l-20 -20l-41 -164l20 -21h102l21 -20v-164z"/>
    <glyph glyph-name="dollar.tf" d="M348 1065q0 -123 123 -164l21 21v266l-21 20q-39 0 -81 -36t-42 -107zM860 410q0 86 -37 127t-106 57l-21 -21v-327l21 -21q143 29 143 185zM1147 426q1 -182 -105 -300t-325 -146l-21 -21v-123l-20 -20h-164l-20 20v123l-21 21q-221 29 -326 152q-104 124 -104 319 l20 20h246l21 -20q0 -197 143 -226l21 21v368l-21 21q-410 102 -410 430q0 172 120 272t290 117l21 21v122l20 21h164l20 -21v-122l21 -21q186 -31 288 -139q101 -109 101 -291l-21 -20h-245l-21 20q0 150 -102 184l-21 -20v-307l21 -21q180 -37 305 -145q125 -107 125 -289 z"/>
    <glyph glyph-name="plus.tf" d="M1126 410l-20 -21h-348l-21 -20v-349l-20 -20h-205l-20 20v349l-21 20h-348l-21 21v204l21 21h348l21 20v349l20 20h205l20 -20v-349l21 -20h348l20 -21v-204z"/>
    <glyph glyph-name="zero.tf" d="M348 717q0 -268 60 -380t186 -112q127 0 186 112t60 380q0 268 -60 380q-60 111 -186 111t-186 -112t-60 -379zM61 717q-1 381 143 559t390 178t389 -178t143 -559t-143 -559t-389 -178t-390 178t-143 559z"/>
    <glyph glyph-name="one.tf" d="M492 1044h-21l-143 -143l-41 -20h-103l-20 20v205l307 307l41 21h246l20 -21v-1147l21 -20h307l20 -21v-205l-20 -20h-1004l-20 20v205l20 21h369l21 20v778z"/>
    <glyph glyph-name="two.tf" d="M778 1002q0 206 -196 206q-102 0 -148 -52q-45 -52 -45 -152l-20 -21h-246l-21 21q0 190 118 320t356 130t364 -125q125 -125 125 -296t-76 -285t-272 -277l-246 -205v-20h614l21 -21v-205l-21 -20h-962l-21 20v226l21 41l369 307q176 147 231 229q55 83 55 179z"/>
    <glyph glyph-name="three.tf" d="M655 1188h-491l-21 20v205l21 21h840l20 -21v-205l-20 -41l-267 -245v-21q145 0 257 -120q112 -119 112 -319t-141 -341t-382 -141t-371 122t-130 287l20 21h246l21 -21q0 -68 52 -116q51 -48 161 -48t174 68q63 67 63 183t-55 178t-139 62t-133 -40h-103l-20 20v185 l286 286v21z"/>
    <glyph glyph-name="four.tf" d="M737 1085h-20l-348 -409v-21h348l20 21v409zM1024 20l-20 -20h-246l-21 20v369l-20 21h-635l-21 20v225l21 41l614 717l41 21h267l20 -21v-1393z"/>
    <glyph glyph-name="five.tf" d="M1126 512q0 -252 -128 -392t-368 -140t-366 110q-125 110 -141 299l20 21h246l21 -21q14 -90 62 -127t152 -37q215 0 216 257t-205 255q-152 0 -225 -123l-41 -20l-205 20l-21 21l41 778l21 21h839l21 -21v-205l-21 -20h-573l-20 -21l-21 -286h21q30 59 149 91 q45 11 96 11q198 0 314 -133t116 -338z"/>
    <glyph glyph-name="six.tf" d="M614 225q92 1 148 69t57 179q0 111 -51 177t-154 67q-225 0 -225 -246t225 -246zM799 1106q-32 102 -181 102t-194 -127q-35 -100 -35 -200h21q6 8 21 22t79 37t145 23q187 1 319 -131t132 -350t-137 -360t-355 -142q-284 0 -408 179t-124 543t132 559q132 194 400 193 q209 0 332 -95t139 -253l-20 -21h-246z"/>
    <glyph glyph-name="seven.tf" d="M758 1188h-615l-20 20v205l20 21h901l21 -21v-225l-573 -1168l-21 -20h-164l-20 20v205l471 942v21z"/>
    <glyph glyph-name="eight.tf" d="M82 430q0 125 55 208t129 120v20q-143 96 -143 272t125 290t346 114t346 -114t125 -290t-143 -272v-20q74 -37 129 -120t55 -208q0 -184 -133 -317t-379 -133t-379 133t-133 317zM594 1208q-96 0 -140 -52t-44 -122t48 -122t136 -52t136 52t48 122t-44 122t-140 52z M369 434q0 -90 55 -149t170 -59t170 58q55 60 55 150t-59 146q-60 56 -166 55q-106 0 -166 -55q-59 -56 -59 -146z"/>
    <glyph glyph-name="nine.tf" d="M369 963q0 -121 55 -183t149 -63q225 0 226 246q1 129 -61 187t-160 58t-154 -62q-55 -62 -55 -183zM573 225q72 0 121 35q74 53 98 197q7 47 7 96h-21q-33 -33 -102 -58q-69 -24 -144 -24q-186 0 -318 140q-132 139 -132 359t139 352t384 132t373 -182t128 -514 q0 -394 -124 -586t-409 -192q-207 0 -321 94t-129 254l20 20h246l21 -20q34 -103 163 -103z"/>
    <glyph glyph-name="less.tf" d="M143 594l21 41l737 389h103l20 -20v-185l-20 -41l-512 -246v-40l512 -246l20 -41v-185l-20 -20h-103l-737 389l-21 41v164z"/>
    <glyph glyph-name="equal.tf" d="M1044 184l-20 -20h-860l-21 20v205l21 21h860l20 -21v-205zM1044 635l-20 -21h-860l-21 21v205l21 20h860l20 -20v-205z"/>
    <glyph glyph-name="greater.tf" d="M1044 430l-20 -41l-737 -389h-103l-20 20v185l20 41l512 246v40l-512 246l-20 41v185l20 20h103l737 -389l20 -41v-164z"/>
    <glyph glyph-name="asciitilde.tf" d="M389 737q76 -1 148 -29q73 -28 115 -63q112 -92 167 -92q82 0 82 102l21 21h204l21 -21q0 -160 -92 -264t-256 -104q-76 1 -148 29q-73 28 -115 63q-112 92 -167 92q-82 0 -82 -102l-21 -21h-205l-20 21q0 164 86 266t262 102z"/>
    <glyph glyph-name="cent.tf" d="M102 512q0 223 119 361t311 171l21 21v82l20 20h82l21 -20v-82l20 -21q143 -18 259 -105t130 -243l-20 -20h-246l-20 20q-27 82 -103 82l-20 -20v-492l20 -20q76 0 103 82l20 20h246l20 -20q-14 -156 -130 -243t-259 -105l-20 -21v-82l-21 -20h-82l-20 20v82l-21 21 q-194 33 -312 171t-118 361zM389 512q0 -229 143 -266l21 20v492l-21 20q-143 -37 -143 -266z"/>
    <glyph glyph-name="sterling.tf" d="M532 430q0 -123 -81 -164v-20h675l21 -21v-205l-21 -20h-1044l-21 20v205l21 21h20q143 0 144 184v123l-21 20h-123l-20 21v164l20 20h123l21 21v225q0 194 110 312t320 118t320 -119t110 -311l-21 -20h-245l-21 20q0 184 -143 184t-144 -184v-225l21 -21h369l20 -20 v-164l-20 -21h-369l-21 -20v-123z"/>
    <glyph glyph-name="currency.tf" d="M594 225q225 0 225 287t-225 287t-225 -287t225 -287zM594 -20q-64 0 -120 15t-81 30l-24 16h-21l-143 -143h-21l-184 184v20l143 144v20q-61 82 -61 246q0 74 15 135t30 86l16 25v20l-143 144v20l184 184h21l143 -143h21q82 61 225 61q64 0 120 -15t81 -30l24 -16h21 l143 143h21l184 -184v-20l-144 -144v-20q61 -82 62 -246q0 -74 -15 -135t-30 -86l-17 -25v-20l144 -144v-20l-184 -184h-21l-143 143h-21q-82 -61 -225 -61z"/>
    <glyph glyph-name="yen.tf" d="M287 778v21l-205 409v205l20 21h144l41 -21l286 -635h41l287 635l41 21h143l21 -21v-205l-205 -409v-21h164l20 -20v-164l-20 -21h-246l-41 -20l-41 -82l21 -20h246l20 -21v-164l-20 -20h-246l-21 -21v-205l-20 -20h-246l-20 20v205l-21 21h-246l-20 20v164l20 21h246 l21 20l-41 82l-41 20h-246l-21 21v164l21 20h164z"/>
    <glyph glyph-name="section.tf" d="M606 -430q-236 0 -380 105t-144 325l20 20h246l21 -20q0 -94 55 -139t190 -45q184 0 185 143q-1 57 -57 96t-140 59t-182 53q-98 34 -182 75t-141 126q-56 85 -56 194t56 174t128 83v21q-123 92 -123 257t132 261t358 96t359 -111q134 -111 134 -319l-20 -20h-246l-20 20 q-1 94 -53 139t-173 45q-184 0 -184 -123q0 -57 56 -98q57 -41 141 -65t182 -59q98 -36 182 -78t141 -122q56 -81 56 -185t-56 -170q-56 -65 -128 -83v-20q123 -92 123 -265t-122 -272q-122 -98 -358 -98zM860 471q0 66 -49 104t-123 61t-144 45t-114 36h-20 q-82 -27 -82 -139t83 -148q62 -28 176 -56q114 -27 171 -46h20q82 27 82 143z"/>
    <glyph glyph-name="logicalnot.tf" d="M1024 184l-20 -20h-205l-21 20v205l-20 21h-615l-20 20v205l20 20h861l20 -20v-451z"/>
    <glyph glyph-name="plusminus.tf" d="M1044 20l-20 -20h-860l-21 20v205l21 21h860l20 -21v-205zM1044 594l-20 -21h-287l-20 -20v-164l-21 -20h-204l-21 20v164l-20 20h-287l-21 21v205l21 20h287l20 21v164l21 20h204l21 -20v-164l20 -21h287l20 -20v-205z"/>
    <glyph glyph-name="multiply.tf" d="M1106 164l-143 -144h-21l-328 328h-20l-328 -328h-20l-144 144v20l328 328v20l-328 328v21l144 143h20l328 -328h20l328 328h21l143 -143v-21l-328 -328v-20l328 -328v-20z"/>
    <glyph glyph-name="divide.tf" d="M758 20l-21 -20h-286l-21 20v205l21 21h286l21 -21v-205zM758 778l-21 -20h-286l-21 20v205l21 21h286l21 -21v-205zM1085 389l-20 -20h-942l-21 20v225l21 21h942l20 -21v-225z"/>
    <glyph glyph-name="florin.tf" d="M963 1188q-92 0 -120 -26t-44 -118l20 -20h287l20 -20v-164l-20 -21h-328l-20 -20l-123 -738q-45 -268 -142 -369t-288 -102h-123l-21 21v205l21 20h102q82 0 114 55t50 170l123 738l-20 20h-164l-21 21v164l21 20h205l20 20q23 127 59 207q65 140 216 170q60 12 155 13 h123l20 -21v-205l-20 -20h-102z"/>
    <glyph glyph-name="Euro.tf" d="M676 225q174 0 205 185l20 20h246l20 -20q-16 -201 -146 -316q-130 -114 -354 -114t-356 126q-131 127 -147 324l-21 21h-102l-21 20v164l21 20h102l21 21v61l-21 21h-102l-21 20v164l21 21h102l21 20q16 217 150 344t362 127q430 0 491 -430l-20 -20h-246l-20 20 q-31 184 -205 184q-113 0 -169 -68t-56 -157l20 -20h328l20 -21v-164l-20 -20h-328l-20 -21v-61l20 -21h246l20 -20v-164l-20 -20h-246l-20 -21q29 -205 225 -205z"/>
    <glyph glyph-name="minus.tf" d="M1044 430l-20 -20h-860l-21 20v205l21 20h860l20 -20v-205z"/>
    <glyph glyph-name="zero.tosf" d="M348 512q0 -135 68 -211t178 -76t178 76t68 211t-68 211t-178 76t-178 -76t-68 -211zM61 512q-1 233 145 383q146 149 388 149t387 -150t145 -382q0 -233 -145 -383q-145 -149 -387 -149t-388 150t-145 382z"/>
    <glyph glyph-name="one.tosf" d="M512 635h-20l-103 -103l-41 -20h-102l-21 20v205l267 267l40 20h246l21 -20v-738l20 -20h287l20 -21v-205l-20 -20h-963l-20 20v205l20 21h349l20 20v369z"/>
    <glyph glyph-name="two.tosf" d="M594 799q-184 0 -184 -164l-21 -21h-246l-20 21q0 184 128 297q128 112 342 112t333 -114q118 -114 118 -254q0 -139 -66 -215t-179 -133l-123 -62v-20h389l20 -21v-205l-20 -20h-922l-20 20v205l20 41l410 205q101 50 141 80q39 31 51 59q13 28 13 74q0 45 -39 80 t-125 35z"/>
    <glyph glyph-name="three.tosf" d="M819 66q0 116 -55 178t-139 63q-84 0 -133 -41h-103l-20 21v184l286 287v20h-491l-21 21v205l21 20h840l20 -20v-205l-20 -41l-267 -246v-20q145 0 257 -120t112 -320t-141 -341t-382 -141t-371 122t-130 288l20 20h246l21 -20q0 -68 52 -116q51 -48 161 -48t174 67 q63 67 63 183z"/>
    <glyph glyph-name="four.tosf" d="M737 676h-20l-348 -410v-20h348l20 20v410zM1024 -389l-20 -21h-246l-21 21v369l-20 20h-635l-21 20v226l21 41l614 717l41 20h267l20 -20v-1393z"/>
    <glyph glyph-name="five.tosf" d="M604 -184q216 0 215 256q0 256 -205 256q-152 0 -225 -123l-41 -21l-205 21l-20 20l41 779l20 20h840l20 -20v-205l-20 -21h-573l-21 -20l-20 -287h20q31 62 150 91q45 11 96 11q198 0 314 -133t116 -338q0 -252 -128 -392t-368 -140t-366 110q-125 110 -142 300l21 20 h246l20 -20q15 -90 63 -127t152 -37z"/>
    <glyph glyph-name="six.tosf" d="M635 225q93 1 149 69t56 179t-52 177t-153 67q-225 0 -225 -246t225 -246zM819 1106q-32 102 -181 102t-194 -127q-34 -97 -34 -200h20q23 31 93 56q70 26 153 26q188 1 319 -131t131 -350t-137 -360t-354 -142q-285 0 -409 179t-124 543t132 559q132 194 401 193 q209 0 332 -95t139 -253l-21 -21h-245z"/>
    <glyph glyph-name="seven.tosf" d="M758 778h-615l-20 21v205l20 20h901l21 -20v-226l-573 -1167l-21 -21h-164l-20 21v205l471 942v20z"/>
    <glyph glyph-name="eight.tosf" d="M82 430q0 125 55 208t129 120v20q-143 96 -143 272t125 290t346 114t346 -114t125 -290t-143 -272v-20q74 -37 129 -120t55 -208q0 -184 -133 -317t-379 -133t-379 133t-133 317zM594 1208q-96 0 -140 -52t-44 -122t48 -122t136 -52t136 52t48 122t-44 122t-140 52z M369 434q0 -90 55 -149t170 -59t170 58q55 60 55 150t-59 146q-60 56 -166 55q-106 0 -166 -55q-59 -56 -59 -146z"/>
    <glyph glyph-name="nine.tosf" d="M369 553q0 -121 55 -183t149 -63q225 0 226 246q1 129 -61 187t-160 58t-154 -62q-55 -62 -55 -183zM573 -184q72 0 121 34q73 52 98 197q7 47 7 96h-21q-32 -32 -101 -57q-70 -25 -145 -25q-186 1 -318 141t-132 359t139 351t384 132t373 -182t128 -514 q0 -394 -124 -586t-409 -192q-207 0 -321 94t-129 254l20 21h246l21 -21q34 -102 163 -102z"/>
    <glyph glyph-name="parenleft.case" horiz-adv-x="921" d="M164 717q0 123 1 184t23 141q23 80 40 116t87 123t126 143l194 194l41 20h61l21 -20v-205q-88 -88 -124 -125t-82 -96t-57 -89q-11 -29 -27 -95t-16 -124q-1 -58 -1 -167t1 -167t16 -124q14 -66 26 -96t58 -88t82 -96t124 -126v-204l-21 -21h-61l-41 21 q-137 137 -194 193q-56 55 -126 143t-87 124t-40 115q-24 79 -24 141v185z"/>
    <glyph glyph-name="parenright.case" horiz-adv-x="921" d="M758 702q0 -108 -1 -170t-24 -141q-23 -80 -40 -116q-17 -37 -87 -123t-126 -142t-193 -194l-41 -21h-62l-20 21v204q88 88 124 125t82 97t57 89t27 95t16 124q1 58 1 167t-1 167t-16 124q-14 66 -26 96t-58 88q-46 59 -82 96t-124 125v205l20 20h62l41 -20 q293 -293 348 -370q20 -28 54 -87t40 -89t17 -96q12 -66 12 -116v-158z"/>
    <glyph glyph-name="hyphen.case" horiz-adv-x="880" d="M758 635l-21 -21h-594l-20 21v205l20 20h594l21 -20v-205z"/>
    <glyph glyph-name="at.case" horiz-adv-x="1925" d="M1372 532q0 -102 82 -102q61 0 82 58q20 58 20 229q0 289 -149 462q-151 173 -437 173t-444 -186t-158 -455q0 -268 157 -449q157 -180 438 -180q195 0 348 61h41l20 -20v-164q-170 -102 -409 -102q-379 0 -610 242q-230 243 -230 622t234 617q235 238 613 239 q378 0 605 -231t227 -629q0 -492 -368 -492q-164 0 -246 123h-21q-24 -36 -97 -69q-74 -34 -148 -33q-162 0 -276 125t-114 350t109 346t260 121q63 0 115 -26t69 -52l21 -25h20l21 62l20 20h185l20 -20v-615zM963 963q-164 0 -164 -246t164 -246t163 246q1 246 -163 246z "/>
    <glyph glyph-name="bracketleft.case" horiz-adv-x="839" d="M676 -184l-21 -21h-471l-20 21v1802l20 20h471l21 -20v-205l-21 -20h-184l-20 -21v-1311l20 -20h184l21 -21v-204z"/>
    <glyph glyph-name="bracketright.case" horiz-adv-x="839" d="M184 -205l-20 21v204l20 21h185l20 20v1311l-20 21h-185l-20 20v205l20 20h471l21 -20v-1802l-21 -21h-471z"/>
    <glyph glyph-name="underscore.case" d="M1106 20l-21 -20h-983l-20 20v205l20 21h983l21 -21v-205z"/>
    <glyph glyph-name="braceleft.case" horiz-adv-x="962" d="M635 451v-328q0 -45 18 -63t64 -19h61l21 -21v-204l-21 -21h-123q-129 0 -218 70t-89 237v349q0 88 -41 126t-123 37l-20 21v164l20 20q82 0 123 38t41 126v348q0 168 89 238t218 69h123l21 -20v-205l-21 -20h-61q-45 -1 -63 -19t-19 -63v-328q0 -217 -143 -246v-41 q143 -29 143 -245z"/>
    <glyph glyph-name="braceright.case" horiz-adv-x="962" d="M328 983v328q0 45 -18 63t-64 19h-62l-20 20v205l20 20h123q129 0 218 -70t89 -237v-348q0 -88 41 -126t123 -38l21 -20v-164l-21 -21q-82 0 -123 -38t-41 -125v-349q0 -168 -89 -238t-218 -69h-123l-20 21v204l20 21h62q45 0 63 18t19 64v328q0 216 143 245v41 q-143 29 -143 246z"/>
    <glyph glyph-name="exclamdown.case" horiz-adv-x="819" d="M246 1413l20 21h287l20 -21v-266l-20 -21h-287l-20 21v266zM266 471l41 471l21 21h164l20 -21l41 -471v-451l-21 -20h-245l-21 20v451z"/>
    <glyph glyph-name="guillemotleft.case" horiz-adv-x="1617" d="M1454 287l-20 -21h-246l-41 21l-328 327l-20 41v123l20 41l328 328l41 20h246l20 -20v-82l-348 -328v-41l348 -327v-82zM819 287l-20 -21h-246l-41 21l-328 327l-20 41v123l20 41l328 328l41 20h246l20 -20v-82l-348 -328v-41l348 -327v-82z"/>
    <glyph glyph-name="periodcentered.case" horiz-adv-x="655" d="M492 594l-21 -21h-287l-20 21v266l20 21h287l21 -21v-266z"/>
    <glyph glyph-name="guillemotright.case" horiz-adv-x="1617" d="M184 266l-20 21v82l348 327v41l-348 328v82l20 20h246l41 -20l328 -328l20 -41v-123l-20 -41l-328 -327l-41 -21h-246zM819 266l-20 21v82l348 327v41l-348 328v82l20 20h246l41 -20l328 -328l20 -41v-123l-20 -41l-328 -327l-41 -21h-246z"/>
    <glyph glyph-name="questiondown.case" horiz-adv-x="1310" d="M512 1413l20 21h287l21 -21v-266l-21 -21h-287l-20 21v266zM164 389q0 127 59 212t157 151t126 106q27 41 26 105l21 20h246l20 -20q0 -205 -184 -328q-98 -66 -141 -119t-43 -124t52 -119q53 -48 157 -48q104 1 152 53t48 173l21 20h245l21 -20q0 -213 -121 -342 t-370 -129q-248 0 -370 114t-122 295z"/>
    <glyph glyph-name="endash.case" horiz-adv-x="1269" d="M1147 635l-21 -21h-983l-20 21v205l20 20h983l21 -20v-205z"/>
    <glyph glyph-name="emdash.case" horiz-adv-x="2293" d="M2171 635l-21 -21h-2007l-20 21v205l20 20h2007l21 -20v-205z"/>
    <glyph glyph-name="bullet.case" horiz-adv-x="962" d="M799 737v-20l-307 -307h-21l-307 307v20l307 307h21z"/>
    <glyph glyph-name="guilsinglleft.case" horiz-adv-x="983" d="M819 287l-20 -21h-246l-41 21l-328 327l-20 41v123l20 41l328 328l41 20h246l20 -20v-82l-348 -328v-41l348 -327v-82z"/>
    <glyph glyph-name="guilsinglright.case" horiz-adv-x="983" d="M184 266l-20 21v82l348 327v41l-348 328v82l20 20h246l41 -20l328 -328l20 -41v-123l-20 -41l-328 -327l-41 -21h-246z"/>
    <glyph glyph-name="zero.zero" horiz-adv-x="1228" d="M860 717v102h-20l-389 -491v-21q4 -8 14 -22t52 -37t97 -23q127 0 187 112q59 112 59 380zM369 717v-103h20l389 492v20q-4 8 -14 22t-52 38q-42 23 -98 22q-127 0 -186 -112t-59 -379zM82 717q0 381 143 559t389 178t390 -178t143 -559q0 -381 -143 -559 q-144 -178 -390 -178t-389 178t-143 559z"/>
    <glyph glyph-name="quotedbl.ss01" horiz-adv-x="696" d="M225 819l-20 -20h-21l-20 20v594l20 21h21l20 -21v-594zM532 819l-20 -20h-20l-21 20v594l21 21h20l20 -21v-594z"/>
    <glyph glyph-name="numbersign.ss01" horiz-adv-x="1228" d="M471 963l-20 -21l-82 -450l20 -21h369l20 21l82 450l-20 21h-369zM696 41l62 348l-21 21h-368l-21 -21l-61 -369l-21 -20h-20l-21 20v21l62 348l-21 21h-184l-21 20v21l21 20h205l20 21l82 450l-20 21h-185l-20 20v21l20 20h205l21 20l61 369l21 21h20l20 -21v-20 l-61 -349l21 -20h368l21 20l61 369l21 21h20l21 -21v-20l-62 -349l21 -20h184l20 -20v-21l-20 -20h-205l-20 -21l-82 -450l20 -21h184l21 -20v-21l-21 -20h-204l-21 -21l-61 -369l-21 -20h-20l-21 20v21z"/>
    <glyph glyph-name="quotesingle.ss01" horiz-adv-x="389" d="M225 819l-20 -20h-21l-20 20v594l20 21h21l20 -21v-594z"/>
    <glyph glyph-name="parenleft.ss01" horiz-adv-x="819" d="M226 618q0 -106 -1 -228q0 -122 27 -262q6 -32 37 -90t49 -85t78 -95t102 -110l137 -137v-21h-41l-41 21q-119 119 -166 168q-48 49 -110 129q-61 80 -77 117q-14 37 -34 121t-21 156q-1 71 -1 210t1 210t20 156q19 86 35 122t77 116t110 129q48 49 166 168l41 21h41v-21 l-137 -137q-41 -41 -101 -110q-61 -70 -79 -96t-49 -84t-37 -90t-16 -102t-10 -176z"/>
    <glyph glyph-name="parenright.ss01" horiz-adv-x="819" d="M594 496v173q0 197 -64 317q-31 58 -49 85q-19 27 -79 95t-101 110l-137 137v21h41l41 -21q119 -119 167 -168t109 -129q60 -80 76 -117t36 -121t20 -156q1 -71 1 -210t-1 -210t-20 -156q-18 -86 -34 -122t-78 -116t-109 -129q-48 -49 -167 -168l-41 -21h-41v21 q125 125 176 177t115 133q63 81 80 118q16 37 36 121q19 84 21 152t2 184z"/>
    <glyph glyph-name="slash.ss01" horiz-adv-x="1003" d="M82 0v61l799 1352l20 21h21v-62l-799 -1352l-21 -20h-20z"/>
    <glyph glyph-name="bracketleft.ss01" horiz-adv-x="696" d="M532 -389l-20 -21h-328l-20 21v1802l20 21h328l20 -21v-20l-20 -21h-266l-21 -20v-1680l21 -20h266l20 -21v-20z"/>
    <glyph glyph-name="backslash.ss01" horiz-adv-x="1003" d="M82 1434h20l21 -21l799 -1352v-61h-21l-20 20l-799 1352v62z"/>
    <glyph glyph-name="bracketright.ss01" horiz-adv-x="696" d="M184 -410l-20 21v20l20 21h267l20 20v1680l-20 20h-267l-20 21v20l20 21h328l20 -21v-1802l-20 -21h-328z"/>
    <glyph glyph-name="underscore.ss01" d="M1106 -41l-21 -20h-983l-20 20v21l20 20h983l21 -20v-21z"/>
    <glyph glyph-name="braceleft.ss01" horiz-adv-x="860" d="M389 328v-471q0 -205 205 -205h82l20 -21v-20l-20 -21h-82q-115 0 -191 68t-75 199v471q0 90 -33 127t-111 37l-20 20v20l20 21q78 0 111 37t33 127v450q0 131 75 199q76 68 191 68h82l20 -21v-20l-20 -21h-82q-205 0 -205 -205v-450q0 -158 -82 -185v-20q82 -27 82 -184 z"/>
    <glyph glyph-name="bar.ss01" horiz-adv-x="552" d="M307 -389l-20 -21h-21l-20 21v1802l20 21h21l20 -21v-1802z"/>
    <glyph glyph-name="braceright.ss01" horiz-adv-x="860" d="M471 717v450q0 205 -205 205h-82l-20 21v20l20 21h82q115 0 191 -68t75 -199v-450q0 -90 33 -127t111 -37l20 -21v-20l-20 -20q-78 0 -111 -37t-33 -127v-471q0 -131 -76 -199t-190 -68h-82l-20 21v20l20 21h82q205 0 205 205v471q0 157 82 184v20q-82 27 -82 185z"/>
    <glyph glyph-name="guillemotleft.ss01" horiz-adv-x="1208" d="M1044 61h-40l-41 21l-410 410v40l410 410l41 21h40v-21l-409 -410v-40l409 -410v-21zM655 61h-41l-41 21l-409 410v40l409 410l41 21h41v-21l-409 -410v-40l409 -410v-21z"/>
    <glyph glyph-name="logicalnot.ss01" d="M1024 205l-20 -21h-21l-20 21v266l-21 21h-799l-20 20v20l20 21h861l20 -21v-327z"/>
    <glyph glyph-name="degree.ss01" horiz-adv-x="1146" d="M246 1044q0 -139 94 -233t233 -94t234 94q94 94 94 233q0 140 -94 234q-93 94 -233 94t-234 -94t-94 -234zM164 1044q0 168 121 289t289 121t288 -121q121 -121 121 -289t-121 -288t-289 -121q-169 1 -289 121t-120 288z"/>
    <glyph glyph-name="guillemotright.ss01" horiz-adv-x="1208" d="M164 61v21l409 410v40l-409 410v21h41l41 -21l409 -410v-40l-409 -410l-41 -21h-41zM553 61v21l410 410v40l-410 410v21h41l41 -21l409 -410v-40l-409 -410l-41 -21h-41z"/>
    <glyph glyph-name="endash.ss01" horiz-adv-x="1269" d="M1147 512l-21 -20h-983l-20 20v20l20 21h983l21 -21v-20z"/>
    <glyph glyph-name="emdash.ss01" horiz-adv-x="2293" d="M2171 512l-21 -20h-2007l-20 20v20l20 21h2007l21 -21v-20z"/>
    <glyph glyph-name="quoteleft.ss01" horiz-adv-x="491" d="M328 1434v-21l-103 -184v-21l21 -20h41l20 -21v-204l-20 -21h-123l-21 21v225l21 61l102 164l21 21h41z"/>
    <glyph glyph-name="quoteright.ss01" horiz-adv-x="491" d="M164 942v21l102 184v20l-20 21h-41l-21 20v205l21 21h123l20 -21v-225l-20 -62l-103 -163l-20 -21h-41z"/>
    <glyph glyph-name="quotesinglbase.ss01" horiz-adv-x="491" d="M143 -246v21l103 184v21l-21 20h-41l-20 20v205l20 21h123l21 -21v-225l-21 -61l-102 -164l-21 -21h-41z"/>
    <glyph glyph-name="quotedblleft.ss01" horiz-adv-x="819" d="M328 1434v-21l-103 -184v-21l21 -20h41l20 -21v-204l-20 -21h-123l-21 21v225l21 61l102 164l21 21h41zM655 1434v-21l-102 -184v-21l20 -20h41l21 -21v-204l-21 -21h-122l-21 21v225l21 61l102 164l20 21h41z"/>
    <glyph glyph-name="quotedblright.ss01" horiz-adv-x="819" d="M492 942v21l102 184v20l-21 21h-41l-20 20v205l20 21h123l21 -21v-225l-21 -62l-102 -163l-21 -21h-40zM164 942v21l102 184v20l-20 21h-41l-21 20v205l21 21h123l20 -21v-225l-20 -62l-103 -163l-20 -21h-41z"/>
    <glyph glyph-name="quotedblbase.ss01" horiz-adv-x="819" d="M471 -246v21l102 184v21l-20 20h-41l-20 20v205l20 21h123l20 -21v-225l-20 -61l-103 -164l-20 -21h-41zM143 -246v21l103 184v21l-21 20h-41l-20 20v205l20 21h123l21 -21v-225l-21 -61l-102 -164l-21 -21h-41z"/>
    <glyph glyph-name="guilsinglleft.ss01" horiz-adv-x="819" d="M655 61h-41l-41 21l-409 410v40l409 410l41 21h41v-21l-409 -410v-40l409 -410v-21z"/>
    <glyph glyph-name="guilsinglright.ss01" horiz-adv-x="819" d="M164 61v21l409 410v40l-409 410v21h41l41 -21l409 -410v-40l-409 -410l-41 -21h-41z"/>
    <glyph glyph-name="arrowleft.ss01" horiz-adv-x="1761" d="M737 1044v-20l-450 -451v-20h1290l20 -21v-20l-20 -20h-1290v-21l450 -451v-20h-41l-41 20l-491 492v20l491 492l41 20h41z"/>
    <glyph glyph-name="arrowup.ss01" horiz-adv-x="1372" d="M1208 860h-20l-451 451h-20v-1291l-21 -20h-20l-21 20v1291h-20l-451 -451h-20v41l20 41l492 492h20l492 -492l20 -41v-41z"/>
    <glyph glyph-name="arrowright.ss01" horiz-adv-x="1761" d="M1024 0v20l451 451v21h-1291l-20 20v20l20 21h1291v20l-451 451v20h41l41 -20l491 -492v-20l-491 -492l-41 -20h-41z"/>
    <glyph glyph-name="arrowdown.ss01" horiz-adv-x="1372" d="M164 573h20l451 -450h20v1290l21 21h20l21 -21v-1290h20l451 450h20v-41l-20 -40l-492 -492h-20l-492 492l-20 40v41z"/>
    <glyph glyph-name="arrowboth.ss01" horiz-adv-x="2170" d="M737 1044v-20l-450 -451v-20h1597v20l-450 451v20h41l41 -20l491 -492v-20l-491 -492l-41 -20h-41v20l450 451v21h-1597v-21l450 -451v-20h-41l-41 20l-491 492v20l491 492l41 20h41z"/>
    <glyph glyph-name="arrowupdn.ss01" horiz-adv-x="1372" d="M164 164h20l451 -451h20v1598h-20l-451 -451h-20v41l20 41l492 492h20l492 -492l20 -41v-41h-20l-451 451h-20v-1598h20l451 451h20v-41l-20 -41l-492 -492h-20l-492 492l-20 41v41z"/>
    <glyph glyph-name="uni2196.ss01" horiz-adv-x="1351" d="M922 1372h-635v-20l901 -901v-21l-21 -20h-20l-901 901h-21v-635h-20l-21 20l-20 41v676l20 21h676l41 -21l21 -20v-21z"/>
    <glyph glyph-name="uni2197.ss01" horiz-adv-x="1351" d="M1126 676v635h-20l-901 -901h-21l-20 20v21l901 901v20h-635v21l21 20l41 21h675l21 -21v-676l-21 -41l-20 -20h-21z"/>
    <glyph glyph-name="uni2198.ss01" horiz-adv-x="1351" d="M430 61h635v21l-901 901v21l20 20h21l901 -901h20v635h21l20 -21l21 -41v-676l-21 -20h-675l-41 20l-21 21v20z"/>
    <glyph glyph-name="uni2199.ss01" horiz-adv-x="1351" d="M225 758v-635h21l901 901h20l21 -20v-21l-901 -901v-21h635v-20l-21 -21l-41 -20h-676l-20 20v676l20 41l21 21h20z"/>
    <glyph glyph-name="a.ss02" horiz-adv-x="1208" d="M348 512q0 -287 225 -287t226 287t-225 287t-226 -287zM532 -20q-213 0 -342 150t-129 382q0 233 129 383t342 149q82 0 144 -26t82 -51l20 -25h21l20 62l21 20h225l20 -20v-984l-20 -20h-225l-21 20l-20 62h-21q-31 -61 -149 -91q-45 -11 -97 -11z"/>
    <glyph glyph-name="agrave.ss02" horiz-adv-x="1208" d="M348 512q0 -287 225 -287t226 287t-225 287t-226 -287zM532 -20q-213 0 -342 150t-129 382q0 233 129 383t342 149q82 0 144 -26t82 -51l20 -25h21l20 62l21 20h225l20 -20v-984l-20 -20h-225l-21 20l-20 62h-21q-31 -61 -149 -91q-45 -11 -97 -11zM778 1167l-20 -20 h-185l-41 20l-225 205v41l21 21h204l41 -21l205 -205v-41z"/>
    <glyph glyph-name="aacute.ss02" horiz-adv-x="1208" d="M348 512q0 -287 225 -287t226 287t-225 287t-226 -287zM532 -20q-213 0 -342 150t-129 382q0 233 129 383t342 149q82 0 144 -26t82 -51l20 -25h21l20 62l21 20h225l20 -20v-984l-20 -20h-225l-21 20l-20 62h-21q-31 -61 -149 -91q-45 -11 -97 -11zM819 1372l-225 -205 l-41 -20h-184l-21 20v41l205 205l41 21h205l20 -21v-41z"/>
    <glyph glyph-name="acircumflex.ss02" horiz-adv-x="1208" d="M348 512q0 -287 225 -287t226 287t-225 287t-226 -287zM532 -20q-213 0 -342 150t-129 382q0 233 129 383t342 149q82 0 144 -26t82 -51l20 -25h21l20 62l21 20h225l20 -20v-984l-20 -20h-225l-21 20l-20 62h-21q-31 -61 -149 -91q-45 -11 -97 -11zM942 1167l-20 -20 h-164l-41 20l-123 103h-41l-123 -103l-41 -20h-164l-20 20v41l205 205l41 21h245l41 -21l205 -205v-41z"/>
    <glyph glyph-name="atilde.ss02" horiz-adv-x="1208" d="M348 512q0 -287 225 -287t226 287t-225 287t-226 -287zM532 -20q-213 0 -342 150t-129 382q0 233 129 383t342 149q82 0 144 -26t82 -51l20 -25h21l20 62l21 20h225l20 -20v-984l-20 -20h-225l-21 20l-20 62h-21q-31 -61 -149 -91q-45 -11 -97 -11zM710 1106 q-84 0 -138 36t-92 72t-70 35q-61 0 -62 -82l-20 -20h-103l-20 20q0 119 63 183q64 64 148 63q84 0 138 -36q54 -35 92 -71t71 -36q61 0 61 82l21 20h102l21 -20q0 -118 -64 -182t-148 -64z"/>
    <glyph glyph-name="adieresis.ss02" horiz-adv-x="1208" d="M348 512q0 -287 225 -287t226 287t-225 287t-226 -287zM532 -20q-213 0 -342 150t-129 382q0 233 129 383t342 149q82 0 144 -26t82 -51l20 -25h21l20 62l21 20h225l20 -20v-984l-20 -20h-225l-21 20l-20 62h-21q-31 -61 -149 -91q-45 -11 -97 -11zM492 1208l-21 -20 h-225l-21 20v205l21 21h225l21 -21v-205zM922 1208l-21 -20h-225l-21 20v205l21 21h225l21 -21v-205z"/>
    <glyph glyph-name="aring.ss02" horiz-adv-x="1208" d="M348 512q0 -287 225 -287t226 287t-225 287t-226 -287zM532 -20q-213 0 -342 150t-129 382q0 233 129 383t342 149q82 0 144 -26t82 -51l20 -25h21l20 62l21 20h225l20 -20v-984l-20 -20h-225l-21 20l-20 62h-21q-31 -61 -149 -91q-45 -11 -97 -11zM348 1290q0 88 64 136 t161 48t161 -48t64 -136t-62 -136q-64 -48 -162 -48t-162 48t-64 136zM655 1290q0 62 -82 62t-81 -62q0 -61 82 -61t81 61z"/>
    <glyph glyph-name="amacron.ss02" horiz-adv-x="1208" d="M942 1188l-20 -21h-697l-20 21v184l20 21h697l20 -21v-184zM348 512q0 -287 225 -287t226 287t-225 287t-226 -287zM532 -20q-213 0 -342 150t-129 382q0 233 129 383t342 149q82 0 144 -26t82 -51l20 -25h21l20 62l21 20h225l20 -20v-984l-20 -20h-225l-21 20l-20 62 h-21q-31 -61 -149 -91q-45 -11 -97 -11z"/>
    <glyph glyph-name="abreve.ss02" horiz-adv-x="1208" d="M553 1290q143 0 143 123l21 21h123l20 -21q0 -127 -80 -207t-227 -80t-227 80t-80 207l20 21h123l21 -21q0 -123 143 -123zM348 512q0 -287 225 -287t226 287t-225 287t-226 -287zM532 -20q-213 0 -342 150t-129 382q0 233 129 383t342 149q82 0 144 -26t82 -51l20 -25 h21l20 62l21 20h225l20 -20v-984l-20 -20h-225l-21 20l-20 62h-21q-31 -61 -149 -91q-45 -11 -97 -11z"/>
    <glyph glyph-name="aogonek.ss02" horiz-adv-x="1208" d="M532 -20q-213 0 -342 150t-129 382q0 233 129 383t342 149q82 0 144 -26t82 -51l20 -25h21l20 62l21 20h225l20 -20v-984l-20 -20q-93 -16 -149 -59t-56 -105q0 -82 103 -82q61 0 90 17l12 4l20 -21v-123l-20 -20q-41 -41 -164 -41t-195 59t-71 159q0 100 58 155 q58 54 126 77l-20 62h-21q-31 -61 -149 -91q-45 -11 -97 -11zM348 512q0 -287 225 -287t226 287t-225 287t-226 -287z"/>
    <glyph glyph-name="aringacute.ss02" horiz-adv-x="1208" d="M799 1782l-226 -205l-41 -21h-184l-20 21v41l204 205l41 20h205l21 -20v-41zM328 1290q0 88 63 136t161 48t162 -48t64 -136t-63 -136t-161 -48t-163 48q-63 48 -63 136zM635 1290q0 62 -82 62t-82 -62t82 -61q82 0 82 61zM348 512q0 -287 225 -287t226 287t-225 287 t-226 -287zM532 -20q-213 0 -342 150t-129 382q0 233 129 383t342 149q82 0 144 -26t82 -51l20 -25h21l20 62l21 20h225l20 -20v-984l-20 -20h-225l-21 20l-20 62h-21q-31 -61 -149 -91q-45 -11 -97 -11z"/>
    <glyph glyph-name="parenleft.ss03" horiz-adv-x="860" d="M164 717q0 80 1 122t20 100t35 86q37 70 353 388l41 21h62l20 -21v-205q-100 -100 -136 -139t-68 -98t-37 -107q-4 -48 -4 -147t4 -147t37 -107q32 -59 68 -98t136 -140v-205l-20 -20h-62l-41 20q-305 305 -353 389q-15 28 -35 86q-19 58 -20 100t-1 122z"/>
    <glyph glyph-name="parenright.ss03" horiz-adv-x="798" d="M676 717q0 -80 -1 -122t-21 -100t-34 -86t-76 -100t-110 -121t-168 -168l-41 -20h-61l-21 20v205q101 99 137 139t68 99q33 59 37 106t4 147t-4 148q-4 46 -37 106t-68 99q-36 39 -137 139v205l21 21h61l41 -21q305 -305 354 -388q15 -28 34 -86q18 -58 20 -100t2 -122z "/>
    <glyph glyph-name="bracketleft.ss03" horiz-adv-x="839" d="M676 20l-21 -20h-471l-20 20v1393l20 21h471l21 -21v-205l-21 -20h-184l-20 -21v-901l20 -20h184l21 -21v-205z"/>
    <glyph glyph-name="bracketright.ss03" horiz-adv-x="778" d="M123 0l-21 20v205l21 21h184l21 20v901l-21 21h-184l-21 20v205l21 21h471l20 -21v-1393l-20 -20h-471z"/>
    <glyph glyph-name="braceleft.ss03" horiz-adv-x="962" d="M635 451v-123q0 -46 18 -64t64 -18h61l21 -21v-205l-21 -20h-123q-129 0 -218 70t-89 237v144q0 88 -41 126t-123 37l-20 21v164l20 20q82 0 123 38t41 126v143q0 168 89 238t218 70h123l21 -21v-205l-21 -20h-61q-45 0 -63 -18t-19 -64v-123q0 -217 -143 -246v-41 q143 -29 143 -245z"/>
    <glyph glyph-name="braceright.ss03" horiz-adv-x="962" d="M328 983v123q0 45 -18 63t-64 19h-62l-20 20v205l20 21h123q129 0 218 -70t89 -238v-143q0 -88 41 -126t123 -38l21 -20v-164l-21 -21q-82 0 -123 -38t-41 -125v-144q0 -167 -89 -237t-218 -70h-123l-20 20v205l20 21h62q45 0 63 18t19 64v123q0 216 143 245v41 q-143 29 -143 246z"/>
    <glyph glyph-name="parenleft.ss04" horiz-adv-x="778" d="M225 717q0 -86 1 -131q2 -44 20 -104t32 -89t73 -99t105 -115q46 -46 158 -159v-20h-41l-41 20q-106 106 -149 150t-98 112t-69 96q-50 105 -51 176t-1 163t1 140q1 47 19 109t32 91q12 29 68 95t99 111q43 44 149 150l41 21h41v-21q-112 -113 -158 -159t-104 -116 t-73 -98q-15 -29 -33 -88t-20 -104t-1 -131z"/>
    <glyph glyph-name="parenright.ss04" horiz-adv-x="778" d="M553 717q0 86 -1 131t-20 104q-18 59 -32 88t-73 99q-58 69 -104 115l-159 159v21h41l41 -21q106 -106 149 -150t99 -111q56 -68 68 -96q14 -28 32 -89t19 -109t1 -141q0 -92 -1 -140q-1 -47 -19 -109t-32 -91t-68 -95t-98 -111q-44 -44 -150 -151l-41 -20h-41v20 l159 159q46 46 104 116q59 71 73 99t32 87t20 105t1 131z"/>
    <glyph glyph-name="bracketleft.ss04" horiz-adv-x="696" d="M532 20l-20 -20h-328l-20 20v1393l20 21h328l20 -21v-20l-20 -21h-266l-21 -20v-1270l21 -21h266l20 -20v-21z"/>
    <glyph glyph-name="bracketright.ss04" horiz-adv-x="696" d="M184 0l-20 20v21l20 20h267l20 21v1270l-20 20h-267l-20 21v20l20 21h328l20 -21v-1393l-20 -20h-328z"/>
    <glyph glyph-name="braceleft.ss04" horiz-adv-x="860" d="M389 532v-266q0 -205 205 -205h82l20 -20v-21l-20 -20h-82q-115 0 -191 68t-75 198v266q0 90 -33 127t-111 37l-20 21v20l20 21q78 0 111 37t33 127v245q0 131 75 199q76 68 191 68h82l20 -21v-20l-20 -21h-82q-205 0 -205 -205v-245q0 -158 -82 -185v-20q82 -27 82 -185 z"/>
    <glyph glyph-name="bar.ss04" horiz-adv-x="552" d="M307 20l-20 -20h-21l-20 20v1393l20 21h21l20 -21v-1393z"/>
    <glyph glyph-name="braceright.ss04" horiz-adv-x="860" d="M471 922v245q0 205 -205 205h-82l-20 21v20l20 21h82q115 0 191 -68t75 -199v-245q0 -90 33 -127t111 -37l20 -21v-20l-20 -21q-78 0 -111 -37t-33 -127v-266q0 -130 -76 -198t-190 -68h-82l-20 20v21l20 20h82q205 0 205 205v266q0 158 82 185v20q-82 27 -82 185z"/>
    <glyph glyph-name="slash.ss05" horiz-adv-x="1515" d="M1434 1208l-1188 -1188l-41 -20h-103l-20 20v205l1188 1188l41 21h102l21 -21v-205z"/>
    <glyph glyph-name="backslash.ss05" horiz-adv-x="1515" d="M1270 20l-1188 1188v205l20 21h103l41 -21l1188 -1188v-205l-21 -20h-102z"/>
    <glyph glyph-name="slash.ss06" horiz-adv-x="1597" d="M82 0v41l1372 1372l41 21h21v-41l-1373 -1373l-41 -20h-20z"/>
    <glyph glyph-name="backslash.ss06" horiz-adv-x="1597" d="M82 1434h20l41 -21l1373 -1372v-41h-21l-41 20l-1372 1373v41z"/>
    <glyph glyph-name="emdash.ss07" horiz-adv-x="3317" d="M3195 430l-21 -20h-3031l-20 20v205l20 20h3031l21 -20v-205z"/>
    <glyph glyph-name="emdash.ss08" horiz-adv-x="3317" d="M3195 512l-21 -20h-3031l-20 20v20l20 21h3031l21 -21v-20z"/>
    <glyph glyph-name="ampersand.ss09" horiz-adv-x="1433" d="M655 922h103l20 -21v-205l-20 -20h-82q-106 0 -166 -60t-59 -162q0 -104 54 -166t171 -63q225 0 225 246v430l21 21h368l21 -21v-205l-21 -20h-82l-20 -21v-184q0 -213 -131 -352t-376 -139t-381 132t-136 339q0 113 41 193t82 111q41 30 82 44v20q-59 20 -112 88 q-52 68 -52 178q0 169 125 269q126 100 326 100t325 -100t125 -269l-21 -20h-245l-21 20q0 53 -39 89t-125 34q-164 0 -163 -143q0 -143 163 -143z"/>
    <glyph glyph-name="one.ss10" horiz-adv-x="737" d="M573 20l-20 -20h-246l-20 20v984l-21 20h-164l-20 20v185l184 184l41 21h246l20 -21v-1393z"/>
    <glyph glyph-name="commaaccent" horiz-adv-x="532" d="M143 -451v21l82 123v20l-20 21h-41l-21 20v144l21 20h205l20 -20v-164l-20 -62l-123 -102l-41 -21h-62z"/>
    <glyph glyph-name="orn001" horiz-adv-x="1351" d="M410 1167v-1310l20 -21h492l20 21v1310l-20 21h-492zM1188 -389l-21 -21h-983l-20 21v1802l20 21h983l21 -21v-1802z"/>
    <glyph glyph-name="orn002" horiz-adv-x="1351" d="M1188 -389l-21 -21h-983l-20 21v1802l20 21h983l21 -21v-1802z"/>
    <glyph glyph-name="orn003" horiz-adv-x="1351" d="M410 1167v-901l20 -20h492l20 20v901l-20 21h-492zM1188 20l-21 -20h-983l-20 20v1393l20 21h983l21 -21v-1393z"/>
    <glyph glyph-name="orn004" horiz-adv-x="1351" d="M1188 20l-21 -20h-983l-20 20v1393l20 21h983l21 -21v-1393z"/>
    <glyph glyph-name="orn005" horiz-adv-x="1351" d="M410 758v-492l20 -20h492l20 20v492l-20 20h-492zM1188 20l-21 -20h-983l-20 20v984l20 20h983l21 -20v-984z"/>
    <glyph glyph-name="orn006" horiz-adv-x="1351" d="M1188 20l-21 -20h-983l-20 20v984l20 20h983l21 -20v-984z"/>
    <glyph glyph-name="orn007" horiz-adv-x="1351" d="M225 1352v-1680l21 -20h860l20 20v1680l-20 20h-860zM1188 -389l-21 -21h-983l-20 21v1802l20 21h983l21 -21v-1802z"/>
    <glyph glyph-name="orn008" horiz-adv-x="1351" d="M225 1352v-1270l21 -21h860l20 21v1270l-20 20h-860zM1188 20l-21 -20h-983l-20 20v1393l20 21h983l21 -21v-1393z"/>
    <glyph glyph-name="orn009" horiz-adv-x="1351" d="M225 942v-860l21 -21h860l20 21v860l-20 21h-860zM1188 20l-21 -20h-983l-20 20v984l20 20h983l21 -20v-984z"/>
    <glyph glyph-name="orn010" horiz-adv-x="1351" d="M287 -348h778v20l-369 738h-41l-368 -738v-20zM287 1372v-20l368 -738h41l369 738v20h-778zM225 1311v-1598h21l389 779v40l-389 779h-21zM1126 -287v1598h-20l-389 -779v-40l389 -779h20zM1188 -389l-21 -21h-983l-20 21v1802l20 21h983l21 -21v-1802z"/>
    <glyph glyph-name="orn011" horiz-adv-x="1351" d="M287 61h778v21l-369 553h-41l-368 -553v-21zM1065 1372h-778v-20l368 -553h41l369 553v20zM225 1311v-1188h21l368 553v82l-368 553h-21zM1126 123v1188h-20l-369 -553v-82l369 -553h20zM1188 20l-21 -20h-983l-20 20v1393l20 21h983l21 -21v-1393z"/>
    <glyph glyph-name="orn012" horiz-adv-x="1351" d="M287 61h778v21l-369 369h-41l-368 -369v-21zM1065 963h-778v-21l368 -369h41l369 369v21zM225 901v-778h21l368 369v40l-368 369h-21zM1126 123v778h-20l-369 -369v-40l369 -369h20zM1188 20l-21 -20h-983l-20 20v984l20 20h983l21 -20v-984z"/>
    <glyph glyph-name="orn013" horiz-adv-x="1351" d="M225 1434l963 -963v-20l-983 983h20zM266 1434l922 -922v-20l-942 942h20zM307 1434l881 -881v-21l-901 902h20zM348 1434l840 -840v-21l-860 861h20zM389 1434l799 -799v-21l-819 820h20zM430 1434l758 -758v-21l-778 779h20zM471 1434l717 -717v-21l-737 738h20z M512 1434l676 -676v-21l-696 697h20zM553 1434l635 -635v-21l-656 656h21zM594 1434l594 -594v-21l-615 615h21zM635 1434l553 -553v-21l-574 574h21zM676 1434l512 -512v-21l-533 533h21zM717 1434l471 -471v-21l-492 492h21zM758 1434l430 -430v-21l-451 451h21zM799 1434 l389 -390v-20l-410 410h21zM840 1434l348 -349v-20l-369 369h21zM881 1434l307 -308v-20l-328 328h21zM922 1434l266 -267v-20l-287 287h21zM963 1434l225 -226v-20l-246 246h21zM1004 1434l184 -185v-20l-205 205h21zM1044 1434l144 -144v-20l-164 164h20zM1085 1434 l103 -103v-20l-123 123h20zM1126 1434l62 -62v-20l-82 82h20zM1167 1434l21 -21v-20l-41 41h20zM1188 410l-1024 1024h20l1004 -1004v-20zM1188 369l-1024 1024v20l1024 -1024v-20zM1188 328l-1024 1024v20l1024 -1024v-20zM1188 287l-1024 1024v20l1024 -1024v-20z M1188 246l-1024 1024v20l1024 -1024v-20zM1188 205l-1024 1024v20l1024 -1024v-20zM1188 164l-1024 1024v20l1024 -1024v-20zM1188 123l-1024 1024v20l1024 -1024v-20zM1188 82l-1024 1024v20l1024 -1024v-20zM1188 41l-1024 1024v20l1024 -1024v-20zM1188 0l-1024 1024v20 l1024 -1024v-20zM1147 0l-983 983v21l1003 -1004h-20zM1106 0l-942 942v21l962 -963h-20zM1065 0l-901 901v21l921 -922h-20zM1024 0l-860 860v21l880 -881h-20zM983 0l-819 819v21l840 -840h-21zM942 0l-778 778v21l799 -799h-21zM901 0l-737 737v21l758 -758h-21zM860 0 l-696 696v21l717 -717h-21zM819 0l-655 655v21l676 -676h-21zM778 0l-614 614v21l635 -635h-21zM737 0l-573 573v21l594 -594h-21zM696 0l-532 532v21l553 -553h-21zM655 0l-491 492v20l512 -512h-21zM614 0l-450 451v20l471 -471h-21zM573 0l-409 410v20l430 -430h-21z M532 0l-368 369v20l389 -389h-21zM492 0l-328 328v20l348 -348h-20zM451 0l-287 287v20l307 -307h-20zM410 0l-246 246v20l266 -266h-20zM369 0l-205 205v20l225 -225h-20zM328 0l-164 164v20l184 -184h-20zM287 0l-123 123v20l143 -143h-20zM246 0l-82 82v20l102 -102h-20z M205 0l-41 41v20l61 -61h-20zM164 0v20l20 -20h-20z"/>
    <glyph glyph-name="orn014" horiz-adv-x="1351" d="M1126 0l-962 963v20l983 -983h-21zM1085 0l-921 922v20l942 -942h-21zM1044 0l-880 881v20l901 -901h-21zM1004 0l-840 840v20l860 -860h-20zM963 0l-799 799v20l819 -819h-20zM922 0l-758 758v20l778 -778h-20zM881 0l-717 717v20l737 -737h-20zM840 0l-676 676v20 l696 -696h-20zM799 0l-635 635v20l655 -655h-20zM758 0l-594 594v20l614 -614h-20zM717 0l-553 553v20l573 -573h-20zM676 0l-512 512v20l532 -532h-20zM635 0l-471 471v21l491 -492h-20zM594 0l-430 430v21l450 -451h-20zM553 0l-389 389v21l409 -410h-20zM512 0l-348 348 v21l368 -369h-20zM471 0l-307 307v21l328 -328h-21zM430 0l-266 266v21l287 -287h-21zM389 0l-225 225v21l246 -246h-21zM348 0l-184 184v21l205 -205h-21zM307 0l-143 143v21l164 -164h-21zM266 0l-102 102v21l123 -123h-21zM225 0l-61 61v21l82 -82h-21zM184 0l-20 20v21 l41 -41h-21zM164 1024l1024 -1024h-21l-1003 1004v20zM164 1065l1024 -1024v-21l-1024 1024v21zM164 1106l1024 -1024v-21l-1024 1024v21zM164 1147l1024 -1024v-21l-1024 1024v21zM164 1188l1024 -1024v-21l-1024 1024v21zM164 1229l1024 -1024v-21l-1024 1024v21z M164 1270l1024 -1024v-21l-1024 1024v21zM164 1311l1024 -1024v-21l-1024 1024v21zM164 1352l1024 -1024v-21l-1024 1024v21zM164 1393l1024 -1024v-21l-1024 1024v21zM164 1434l1024 -1024v-21l-1024 1024v21zM205 1434l983 -983v-21l-1004 1004h21zM246 1434l942 -942v-21 l-963 963h21zM287 1434l901 -902v-20l-922 922h21zM328 1434l860 -861v-20l-881 881h21zM369 1434l819 -820v-20l-840 840h21zM410 1434l778 -779v-20l-799 799h21zM451 1434l737 -738v-20l-758 758h21zM492 1434l696 -697v-20l-717 717h21zM532 1434l656 -656v-20l-676 676 h20zM573 1434l615 -615v-20l-635 635h20zM614 1434l574 -574v-20l-594 594h20zM655 1434l533 -533v-20l-553 553h20zM696 1434l492 -492v-20l-512 512h20zM737 1434l451 -451v-20l-471 471h20zM778 1434l410 -410v-20l-430 430h20zM819 1434l369 -369v-21l-389 390h20z M860 1434l328 -328v-21l-348 349h20zM901 1434l287 -287v-21l-307 308h20zM942 1434l246 -246v-21l-266 267h20zM983 1434l205 -205v-21l-225 226h20zM1024 1434l164 -164v-21l-184 185h20zM1065 1434l123 -123v-21l-144 144h21zM1106 1434l82 -82v-21l-103 103h21z M1147 1434l41 -41v-21l-62 62h21zM1188 1434v-21l-21 21h21z"/>
    <glyph glyph-name="orn015" horiz-adv-x="1351" d="M164 471l962 963h21l-983 -983v20zM164 512l921 922h21l-942 -942v20zM164 553l880 881h21l-901 -902v21zM164 594l840 840h20l-860 -861v21zM164 635l799 799h20l-819 -820v21zM164 676l758 758h20l-778 -779v21zM164 717l717 717h20l-737 -738v21zM164 758l676 676h20 l-696 -697v21zM164 799l635 635h20l-655 -656v21zM164 840l594 594h20l-614 -615v21zM164 881l553 553h20l-573 -574v21zM164 922l512 512h20l-532 -533v21zM164 963l471 471h20l-491 -492v21zM164 1004l430 430h20l-450 -451v21zM164 1044l389 390h20l-409 -410v20z M164 1085l348 349h20l-368 -369v20zM164 1126l307 308h21l-328 -328v20zM164 1167l266 267h21l-287 -287v20zM164 1208l225 226h21l-246 -246v20zM164 1249l184 185h21l-205 -205v20zM164 1290l143 144h21l-164 -164v20zM164 1331l102 103h21l-123 -123v20zM164 1372l61 62 h21l-82 -82v20zM164 1413l20 21h21l-41 -41v20zM1188 1434l-1024 -1024v20l1003 1004h21zM1188 1393l-1024 -1024v20l1024 1024v-20zM1188 1352l-1024 -1024v20l1024 1024v-20zM1188 1311l-1024 -1024v20l1024 1024v-20zM1188 1270l-1024 -1024v20l1024 1024v-20zM1188 1229 l-1024 -1024v20l1024 1024v-20zM1188 1188l-1024 -1024v20l1024 1024v-20zM1188 1147l-1024 -1024v20l1024 1024v-20zM1188 1106l-1024 -1024v20l1024 1024v-20zM1188 1065l-1024 -1024v20l1024 1024v-20zM1188 1024l-1024 -1024v20l1024 1024v-20zM1188 983l-983 -983h-21 l1004 1004v-21zM1188 942l-942 -942h-21l963 963v-21zM1188 901l-901 -901h-21l922 922v-21zM1188 860l-860 -860h-21l881 881v-21zM1188 819l-819 -819h-21l840 840v-21zM1188 778l-778 -778h-21l799 799v-21zM1188 737l-737 -737h-21l758 758v-21zM1188 696l-696 -696h-21 l717 717v-21zM1188 655l-656 -655h-20l676 676v-21zM1188 614l-615 -614h-20l635 635v-21zM1188 573l-574 -573h-20l594 594v-21zM1188 532l-533 -532h-20l553 553v-21zM1188 492l-492 -492h-20l512 512v-20zM1188 451l-451 -451h-20l471 471v-20zM1188 410l-410 -410h-20 l430 430v-20zM1188 369l-369 -369h-20l389 389v-20zM1188 328l-328 -328h-20l348 348v-20zM1188 287l-287 -287h-20l307 307v-20zM1188 246l-246 -246h-20l266 266v-20zM1188 205l-205 -205h-20l225 225v-20zM1188 164l-164 -164h-20l184 184v-20zM1188 123l-123 -123h-21 l144 143v-20zM1188 82l-82 -82h-21l103 102v-20zM1188 41l-41 -41h-21l62 61v-20zM1188 0h-21l21 20v-20z"/>
    <glyph glyph-name="orn016" horiz-adv-x="1351" d="M1188 963l-963 -963h-20l983 983v-20zM1188 922l-922 -922h-20l942 942v-20zM1188 881l-881 -881h-20l901 901v-20zM1188 840l-840 -840h-20l860 860v-20zM1188 799l-799 -799h-20l819 819v-20zM1188 758l-758 -758h-20l778 778v-20zM1188 717l-717 -717h-20l737 737v-20 zM1188 676l-676 -676h-20l696 696v-20zM1188 635l-635 -635h-21l656 655v-20zM1188 594l-594 -594h-21l615 614v-20zM1188 553l-553 -553h-21l574 573v-20zM1188 512l-512 -512h-21l533 532v-20zM1188 471l-471 -471h-21l492 492v-21zM1188 430l-430 -430h-21l451 451v-21z M1188 389l-389 -389h-21l410 410v-21zM1188 348l-348 -348h-21l369 369v-21zM1188 307l-307 -307h-21l328 328v-21zM1188 266l-266 -266h-21l287 287v-21zM1188 225l-225 -225h-21l246 246v-21zM1188 184l-184 -184h-21l205 205v-21zM1188 143l-144 -143h-20l164 164v-21z M1188 102l-103 -102h-20l123 123v-21zM1188 61l-62 -61h-20l82 82v-21zM1188 20l-21 -20h-20l41 41v-21zM164 0l1024 1024v-20l-1004 -1004h-20zM164 41l1024 1024v-21l-1024 -1024v21zM164 82l1024 1024v-21l-1024 -1024v21zM164 123l1024 1024v-21l-1024 -1024v21z M164 164l1024 1024v-21l-1024 -1024v21zM164 205l1024 1024v-21l-1024 -1024v21zM164 246l1024 1024v-21l-1024 -1024v21zM164 287l1024 1024v-21l-1024 -1024v21zM164 328l1024 1024v-21l-1024 -1024v21zM164 369l1024 1024v-21l-1024 -1024v21zM164 410l1024 1024v-21 l-1024 -1024v21zM164 451l983 983h20l-1003 -1004v21zM164 492l942 942h20l-962 -963v21zM164 532l901 902h20l-921 -922v20zM164 573l860 861h20l-880 -881v20zM164 614l819 820h21l-840 -840v20zM164 655l778 779h21l-799 -799v20zM164 696l737 738h21l-758 -758v20z M164 737l696 697h21l-717 -717v20zM164 778l655 656h21l-676 -676v20zM164 819l614 615h21l-635 -635v20zM164 860l573 574h21l-594 -594v20zM164 901l532 533h21l-553 -553v20zM164 942l491 492h21l-512 -512v20zM164 983l450 451h21l-471 -471v20zM164 1024l409 410h21 l-430 -430v20zM164 1065l368 369h21l-389 -390v21zM164 1106l328 328h20l-348 -349v21zM164 1147l287 287h20l-307 -308v21zM164 1188l246 246h20l-266 -267v21zM164 1229l205 205h20l-225 -226v21zM164 1270l164 164h20l-184 -185v21zM164 1311l123 123h20l-143 -144v21z M164 1352l82 82h20l-102 -103v21zM164 1393l41 41h20l-61 -62v21zM164 1434h20l-20 -21v21z"/>
    <glyph glyph-name="uni00AD.case" horiz-adv-x="880" d="M758 614l-21 -20h-594l-20 20v205l20 21h594l21 -21v-205z"/>
    </font>
</defs>
</svg>
