<?xml version="1.0" encoding="UTF-8" standalone="no"?>
<!DOCTYPE svg PUBLIC "-//W3C//DTD SVG 1.1//EN" "http://www.w3.org/Graphics/SVG/1.1/DTD/svg11.dtd">
<svg xmlns="http://www.w3.org/2000/svg">
<metadata>
Created by FontPrep 20130207 at Mon Jul 21 18:36:49 2014
 By Adam Johnson
Copyright (c) 2008 by NORM, Dimitri Bruni + Manuel Krebs. All rights reserved.
</metadata>
<defs>
<font id="d07d0674472c2a77e9e5c82138c3c93a" horiz-adv-x="1024">
  <font-face font-family="ReplicaPro-Regular" font-weight="400" font-variant="small-caps" font-stretch="normal" units-per-em="2048" panose-1="2 0 5 3 3 0 0 2 0 4" ascent="1597" descent="-451" x-height="1024" cap-height="1434" bbox="-102 -451 3195 1843" underline-thickness="40" underline-position="-266" unicode-range="U+000D-FB04"/>
<missing-glyph horiz-adv-x="1351" d="M225 1352v-1270l21 -21h860l20 21v1270l-20 20h-860zM1188 20l-21 -20h-983l-20 20v1393l20 21h983l21 -21v-1393z"/>
    <glyph glyph-name="f_i" unicode="fi" horiz-adv-x="1208" d="M246 1126q0 129 84 198t202 69h164l21 -21v-143l-21 -21h-164q-82 0 -81 -82v-82l20 -20h594l20 -20v-984l-20 -20h-164l-20 20v799l-21 21h-389l-20 -21v-799l-21 -20h-164l-20 20v799l-21 21h-143l-21 20v144l21 20h143l21 20v82zM1085 1208l-20 -20h-164l-20 20v164 l20 21h164l20 -21v-164z"/>
    <glyph glyph-name="f_l" unicode="fl" horiz-adv-x="1208" d="M246 1126q0 129 84 198t202 69h164l21 -21v-143l-21 -21h-164q-82 0 -81 -82v-82l20 -20h389l21 20v369l20 21h164l20 -21v-1393l-20 -20h-164l-20 20v799l-21 21h-389l-20 -21v-799l-21 -20h-164l-20 20v799l-21 21h-143l-21 20v144l21 20h143l21 20v82z"/>
    <glyph glyph-name="f_f" unicode="ff" horiz-adv-x="1392" d="M246 1126q0 129 84 198t202 69h164l21 -21v-143l-21 -21h-164q-82 0 -81 -82v-82l20 -20h389l21 20v82q0 129 84 198t202 69h164l21 -21v-143l-21 -21h-164q-82 0 -82 -82v-82l21 -20h205l20 -20v-144l-20 -20h-205l-21 -21v-799l-20 -20h-164l-20 20v799l-21 21h-389 l-20 -21v-799l-21 -20h-164l-20 20v799l-21 21h-143l-21 20v144l21 20h143l21 20v82z"/>
    <glyph glyph-name="f_f_i" unicode="ffi" horiz-adv-x="1843" d="M1720 1208l-20 -20h-164l-20 20v164l20 21h164l20 -21v-164zM246 1126q0 129 84 198t202 69h164l21 -21v-143l-21 -21h-164q-82 0 -81 -82v-82l20 -20h389l21 20v82q0 129 84 198t202 69h164l21 -21v-143l-21 -21h-164q-82 0 -82 -82v-82l21 -20h594l20 -20v-984l-20 -20 h-164l-20 20v799l-21 21h-389l-21 -21v-799l-20 -20h-164l-20 20v799l-21 21h-389l-20 -21v-799l-21 -20h-164l-20 20v799l-21 21h-143l-21 20v144l21 20h143l21 20v82z"/>
    <glyph glyph-name="f_f_l" unicode="ffl" horiz-adv-x="1843" d="M246 1126q0 129 84 198t202 69h164l21 -21v-143l-21 -21h-164q-82 0 -81 -82v-82l20 -20h389l21 20v82q0 129 84 198t202 69h164l21 -21v-143l-21 -21h-164q-82 0 -82 -82v-82l21 -20h389l21 20v369l20 21h164l20 -21v-1393l-20 -20h-164l-20 20v799l-21 21h-389l-21 -21 v-799l-20 -20h-164l-20 20v799l-21 21h-389l-20 -21v-799l-21 -20h-164l-20 20v799l-21 21h-143l-21 20v144l21 20h143l21 20v82z"/>
    <glyph glyph-name=".notdef" horiz-adv-x="1351" d="M225 1352v-1270l21 -21h860l20 21v1270l-20 20h-860zM1188 20l-21 -20h-983l-20 20v1393l20 21h983l21 -21v-1393z"/>
    <glyph glyph-name=".null" horiz-adv-x="0"/>
    <glyph glyph-name=".null" horiz-adv-x="0"/>
    <glyph glyph-name="nonmarkingreturn" horiz-adv-x="681"/>
    <glyph glyph-name="CR" unicode="" horiz-adv-x="0"/>
    <glyph glyph-name="space" unicode=" " horiz-adv-x="532"/>
    <glyph glyph-name="exclam" unicode="!" horiz-adv-x="737" d="M492 20l-21 -20h-205l-20 20v205l20 21h205l21 -21v-205zM471 901l-41 -471l-20 -20h-82l-21 20l-41 471v512l21 21h164l20 -21v-512z"/>
    <glyph glyph-name="quotedbl" unicode="&quot;" horiz-adv-x="942" d="M369 819l-21 -20h-164l-20 20v594l20 21h164l21 -21v-594zM778 819l-20 -20h-164l-21 20v594l21 21h164l20 -21v-594z"/>
    <glyph glyph-name="numbersign" unicode="#" horiz-adv-x="1331" d="M512 573h246l20 21l62 246l-21 20h-246l-20 -20l-61 -246zM655 164l62 225l-21 21h-245l-21 -21l-102 -369l-21 -20h-102l-21 20v144l62 225l-21 21h-143l-21 20v123l21 20h205l20 21l62 246l-21 20h-164l-20 21v123l20 20h226l20 20l102 369l21 21h102l21 -21v-143 l-62 -226l21 -20h246l20 20l103 369l20 21h102l21 -21v-143l-62 -226l21 -20h143l21 -20v-123l-21 -21h-205l-20 -20l-61 -246l20 -21h164l20 -20v-123l-20 -20h-225l-21 -21l-102 -369l-21 -20h-102l-21 20v144z"/>
    <glyph glyph-name="dollar" unicode="$" horiz-adv-x="1228" d="M307 1065q0 -170 205 -205l20 21v368l-20 21q-111 -14 -158 -72t-47 -133zM942 389q0 188 -225 225l-21 -20v-410l21 -20q105 16 165 74t60 151zM1147 389q0 -102 -41 -175q-41 -72 -87 -114q-104 -96 -302 -120l-21 -21v-123l-20 -20h-123l-21 20v123l-20 21 q-225 31 -328 148q-102 118 -102 323l20 20h164l21 -20q0 -123 49 -198t176 -89l20 20v451l-20 20q-205 47 -307 145q-103 98 -103 258q0 159 96 263t314 133l20 21v122l21 21h123l20 -21v-122l21 -21q180 -14 284 -135t105 -295l-21 -20h-163l-21 20q0 96 -47 164t-137 82 l-21 -21v-409l21 -21q430 -86 430 -430z"/>
    <glyph glyph-name="percent" unicode="%" horiz-adv-x="1843" d="M1249 369q0 -113 38 -169t126 -56t126 56t38 169t-38 169t-126 56t-126 -56t-38 -169zM1413 -20q-176 0 -262 105t-86 283t86 284t262 106t262 -106t86 -283t-86 -283t-262 -106zM1393 1270l-820 -1250l-20 -20h-82l-20 20v144l819 1249l20 21h82l21 -21v-143zM266 1065 q0 -113 38 -169t126 -56t126 56t38 169t-38 169t-126 56t-126 -56t-38 -169zM430 676q-176 0 -262 105t-86 283t86 284t262 106t262 -105t86 -283t-86 -284t-262 -106z"/>
    <glyph glyph-name="ampersand" unicode="&amp;" horiz-adv-x="1536" d="M369 399q0 -107 80 -171t206 -64q205 0 328 123v20l-389 389h-21q-119 -59 -161 -124t-43 -173zM840 1126q0 143 -144 144q-84 0 -124 -44t-40 -100t26 -95q26 -38 97 -109h21q164 81 164 204zM164 410q0 156 74 248t213 161v21q-123 123 -123 286q0 124 93 226t275 102 t266 -90t82 -217q0 -225 -245 -348v-21l307 -307h20q42 57 52 121t10 207l20 20h164l21 -20q0 -105 -4 -159t-33 -140t-86 -172v-21l143 -143v-144l-20 -20h-82l-41 20l-123 123h-21q-100 -84 -205 -124t-266 -39q-239 0 -365 118t-126 312z"/>
    <glyph glyph-name="quotesingle" unicode="'" horiz-adv-x="532" d="M369 819l-21 -20h-164l-20 20v594l20 21h164l21 -21v-594z"/>
    <glyph glyph-name="parenleft" unicode="(" horiz-adv-x="860" d="M164 355v314q0 93 26 227q6 32 37 90t49 85t78 95t102 110q42 41 138 137l41 21h41l20 -21v-143q-94 -94 -132 -133t-87 -104t-61 -97t-28 -105t-18 -137q-1 -64 -1 -182t1 -184q1 -64 17 -136q17 -72 29 -104q12 -34 61 -98t87 -103t132 -133v-143l-20 -21h-41l-41 21 l-137 137q-116 116 -181 205q-18 27 -49 85t-37 90q-26 139 -26 227z"/>
    <glyph glyph-name="parenright" unicode=")" horiz-adv-x="860" d="M696 669v-314q0 -93 -26 -227q-6 -32 -37 -90t-49 -85t-78 -95t-102 -110q-42 -41 -138 -137l-41 -21h-41l-20 21v143q94 94 132 133t87 104t61 97q44 119 46 213q4 273 1 399t-47 236q-12 34 -61 98t-87 103t-132 133v143l20 21h41l41 -21l137 -137q41 -41 101 -110 q60 -70 80 -96q18 -26 49 -84t37 -90q26 -139 26 -227z"/>
    <glyph glyph-name="asterisk" unicode="*" horiz-adv-x="1208" d="M573 901h-20l-225 -225h-21l-20 20v21l225 225v21h-328l-20 20v21l20 20h328v20l-225 226v20l20 21h21l225 -226h20v328l21 21h20l21 -21v-328h20l226 226h20l21 -21v-20l-226 -226v-20h328l20 -20v-21l-20 -20h-328v-21l226 -225v-21l-21 -20h-20l-226 225h-20v-328 l-21 -20h-20l-21 20v328z"/>
    <glyph glyph-name="plus" unicode="+" horiz-adv-x="1208" d="M1085 451l-20 -21h-348l-21 -20v-349l-20 -20h-144l-20 20v349l-20 20h-349l-20 21v143l20 20h349l20 21v348l20 21h144l20 -21v-348l21 -21h348l20 -20v-143z"/>
    <glyph glyph-name="comma" unicode="," horiz-adv-x="573" d="M143 -246v21l123 184v21l-20 20h-62l-20 20v205l20 21h205l21 -21v-225l-21 -61l-123 -164l-41 -21h-82z"/>
    <glyph glyph-name="hyphen" unicode="-" horiz-adv-x="839" d="M717 451l-21 -21h-553l-20 21v143l20 20h553l21 -20v-143z"/>
    <glyph glyph-name="period" unicode="." horiz-adv-x="573" d="M410 20l-21 -20h-205l-20 20v205l20 21h205l21 -21v-205z"/>
    <glyph glyph-name="slash" unicode="/" horiz-adv-x="1044" d="M963 1270l-738 -1250l-20 -20h-103l-20 20v144l737 1249l21 21h102l21 -21v-143z"/>
    <glyph glyph-name="zero" unicode="0" d="M287 717q0 -553 307 -553t307 553t-307 553t-307 -553zM82 717q0 391 139 564t373 173t372 -173q140 -173 140 -564t-139 -564t-373 -173t-373 173t-139 564z"/>
    <glyph glyph-name="one" unicode="1" horiz-adv-x="778" d="M410 1167h-21l-246 -245h-41l-20 20v164l307 307l41 21h164l20 -21v-1393l-20 -20h-164l-20 20v1147z"/>
    <glyph glyph-name="two" unicode="2" horiz-adv-x="1126" d="M554 1454q226 0 338 -128t112 -308t-79 -306t-249 -261l-307 -246v-21h655l20 -20v-144l-20 -20h-922l-20 20v164l20 41l410 328q162 129 224 223t62 220q1 274 -245 274q-266 0 -266 -266l-21 -21h-164l-20 21q0 206 123 328t349 122z"/>
    <glyph glyph-name="three" unicode="3" horiz-adv-x="1126" d="M1044 467q0 -223 -139 -355t-361 -132t-353 118q-130 118 -130 291l21 21h164l20 -21q0 -86 70 -156q70 -69 208 -69t217 83t79 222t-71 214t-196 75q-45 0 -86 -16t-59 -29l-18 -17h-62l-20 21v143l389 369v20h-574l-20 21v143l20 21h799l21 -21v-164l-21 -41l-307 -286 v-21q12 2 41 2q143 0 256 -106q112 -107 112 -330z"/>
    <glyph glyph-name="four" unicode="4" horiz-adv-x="1126" d="M758 1167h-21l-471 -553v-20h471l21 20v553zM963 20l-21 -20h-164l-20 20v369l-21 21h-676l-20 20v164l20 41l656 778l41 21h184l21 -21v-1393z"/>
    <glyph glyph-name="five" unicode="5" d="M1085 512q0 -270 -127 -401t-357 -131t-346 108t-132 301l20 21h164l21 -21q18 -111 72 -168t194 -57q287 0 287 328q-1 150 -61 228t-190 79q-130 0 -194 -54q-63 -54 -80 -94l-8 -16l-41 -21l-143 21l-21 20l41 758l21 21h799l20 -21v-143l-20 -21h-615l-20 -20 l-21 -369h21q4 4 16 22t61 46q97 55 209 55q217 0 323 -134t107 -337z"/>
    <glyph glyph-name="six" unicode="6" horiz-adv-x="1167" d="M881 456q-1 144 -61 224q-60 78 -202 78t-217 -74q-73 -74 -73 -217t76 -223t202 -80q127 0 201 74t74 218zM598 -20q-232 0 -364 162t-132 564t136 575t397 173q186 0 301 -90t129 -258l-21 -21h-163l-21 21q-14 90 -74 127t-172 37q-287 0 -286 -430h20q10 12 28 28 t94 45q75 29 165 29q213 0 332 -127t119 -350t-128 -354t-360 -131z"/>
    <glyph glyph-name="seven" unicode="7" horiz-adv-x="1044" d="M758 1249h-656l-20 21v143l20 21h861l20 -21v-164l-594 -1229l-20 -20h-103l-20 20v164l512 1045v20z"/>
    <glyph glyph-name="eight" unicode="8" horiz-adv-x="1146" d="M860 418q0 110 -70 184t-216 74t-217 -75t-71 -184t72 -181t215 -72t215 72t72 182zM819 1059q0 92 -59 151q-58 60 -186 60t-187 -60t-59 -151t63 -155t182 -64t183 63q63 64 63 156zM1065 410q0 -180 -129 -306q-128 -126 -362 -124q-234 0 -363 124t-129 306 q0 137 62 222t143 126v20q-164 109 -164 281q0 171 116 283q117 112 335 112t334 -112t116 -284t-164 -280v-20q80 -41 142 -126t63 -222z"/>
    <glyph glyph-name="nine" unicode="9" horiz-adv-x="1167" d="M287 983q1 -137 71 -212t202 -75t206 74t74 217t-78 213t-206 70t-198 -75t-71 -212zM553 1454q258 0 385 -156t127 -558q0 -400 -131 -580t-402 -180q-172 0 -284 91t-125 257l20 20h164l21 -20q27 -164 225 -164q82 0 140 37t85 84q62 108 62 329h-21q-10 -12 -28 -28 q-17 -16 -93 -45t-166 -29q-202 0 -326 129t-124 347t132 342t339 124z"/>
    <glyph glyph-name="colon" unicode=":" horiz-adv-x="573" d="M410 20l-21 -20h-205l-20 20v205l20 21h205l21 -21v-205zM410 799l-21 -21h-205l-20 21v205l20 20h205l21 -20v-205z"/>
    <glyph glyph-name="semicolon" unicode=";" horiz-adv-x="573" d="M143 -246v21l123 184v21l-20 20h-62l-20 20v205l20 21h205l21 -21v-225l-21 -61l-123 -164l-41 -21h-82zM410 799l-21 -21h-205l-20 21v205l20 20h205l21 -20v-205z"/>
    <glyph glyph-name="less" unicode="&lt;" d="M143 573l21 41l799 410h41l20 -20v-123l-20 -41l-635 -308v-40l635 -308l20 -41v-123l-20 -20h-41l-799 410l-21 41v122z"/>
    <glyph glyph-name="equal" unicode="=" horiz-adv-x="1228" d="M1065 246l-21 -21h-860l-20 21v143l20 21h860l21 -21v-143zM1065 635l-21 -21h-860l-20 21v143l20 21h860l21 -21v-143z"/>
    <glyph glyph-name="greater" unicode="&gt;" d="M1024 614l20 -41v-122l-20 -41l-799 -410h-41l-20 20v123l20 41l635 308v40l-635 308l-20 41v123l20 20h41z"/>
    <glyph glyph-name="question" unicode="?" horiz-adv-x="1228" d="M717 20l-21 -20h-204l-21 20v205l21 21h204l21 -21v-205zM1065 1065q0 -141 -48 -220q-49 -79 -153 -166t-136 -135t-32 -134l-20 -21h-164l-20 21q0 122 36 196t122 148q87 74 118 102t61 84q31 57 31 134t-59 136q-59 60 -189 60t-187 -68q-56 -68 -56 -198l-21 -21 h-164l-20 21q0 206 114 328t326 122t337 -104q124 -104 124 -285z"/>
    <glyph glyph-name="at" unicode="@" horiz-adv-x="1884" d="M1126 881v41l21 20h164l20 -20v-594q0 -72 26 -98t77 -25q74 -1 98 71t24 222q-1 290 -145 472q-73 91 -193 144t-276 53q-293 0 -454 -188q-160 -188 -160 -472t158 -467t456 -183q205 0 328 82h41l20 -21v-143q-137 -102 -389 -103q-367 0 -593 234t-226 606 q0 371 226 605q226 235 593 235t593 -234t226 -606q0 -238 -94 -354q-93 -116 -245 -117q-152 0 -234 123h-21q-29 -29 -51 -46q-22 -16 -76 -36q-53 -20 -118 -21q-166 0 -278 116t-112 334t109 335t260 117q63 -1 115 -21t69 -41l21 -20h20zM1126 512q0 148 -44 206 q-44 60 -141 60t-150 -60t-53 -206t52 -206q54 -60 151 -60t141 59t44 207z"/>
    <glyph glyph-name="A" unicode="A" horiz-adv-x="1290" d="M881 553l-226 573h-20l-225 -573l20 -21h430zM1249 20l-20 -20h-123l-21 20l-122 308l-41 20h-553l-41 -20l-123 -308l-21 -20h-123l-20 20v144l491 1249l21 21h184l21 -21l491 -1249v-144z"/>
    <glyph glyph-name="B" unicode="B" horiz-adv-x="1310" d="M778 184q126 0 186 52t60 182q0 129 -66 183t-221 54h-348l-20 -20v-430l20 -21h389zM983 1044q0 119 -61 162t-205 43h-328l-20 -20v-369l20 -20h348q129 0 187 42t59 162zM1229 410q0 -214 -121 -312t-309 -98h-615l-20 20v1393l20 21h574q186 0 308 -94t122 -296 q0 -102 -52 -178t-132 -108v-21q100 -33 162 -115t63 -212z"/>
    <glyph glyph-name="C" unicode="C" horiz-adv-x="1413" d="M758 -20q-315 0 -496 203q-180 204 -180 534q0 329 180 533t496 204q238 0 390 -120t183 -310l-20 -20h-164l-21 20q-33 114 -127 180t-241 66q-225 0 -348 -151t-123 -403t123 -402q123 -151 348 -150q293 0 368 266l21 21h164l20 -21q-33 -198 -179 -324t-394 -126z "/>
    <glyph glyph-name="D" unicode="D" horiz-adv-x="1372" d="M1085 717q0 276 -106 404t-385 128h-205l-20 -20v-1024l20 -21h205q279 0 385 128t106 405zM1290 717q0 -346 -155 -532q-156 -185 -521 -185h-430l-20 20v1393l20 21h430q364 0 520 -186t156 -531z"/>
    <glyph glyph-name="E" unicode="E" horiz-adv-x="1249" d="M1126 20l-20 -20h-922l-20 20v1393l20 21h922l20 -21v-143l-20 -21h-717l-20 -20v-389l20 -21h676l20 -20v-144l-20 -20h-676l-20 -21v-409l20 -21h717l20 -20v-144z"/>
    <glyph glyph-name="F" unicode="F" horiz-adv-x="1167" d="M1085 1270l-20 -21h-676l-20 -20v-410l20 -20h635l20 -21v-143l-20 -21h-635l-20 -20v-574l-21 -20h-164l-20 20v1393l20 21h881l20 -21v-143z"/>
    <glyph glyph-name="G" unicode="G" horiz-adv-x="1474" d="M758 1270q-225 0 -348 -151t-123 -401t120 -403q121 -151 333 -151t310 109q97 110 97 280l-21 20h-409l-21 21v143l21 21h614l21 -21v-717l-21 -20h-123l-20 20l-21 123h-20q-164 -164 -410 -163q-303 0 -479 204t-176 534q0 328 180 532t496 204q139 0 250 -38 q196 -67 287 -237q40 -73 57 -155l-21 -20h-164l-20 20q-33 114 -130 180t-259 66z"/>
    <glyph glyph-name="H" unicode="H" horiz-adv-x="1454" d="M1290 20l-20 -20h-164l-21 20v594l-20 21h-676l-20 -21v-594l-21 -20h-164l-20 20v1393l20 21h164l21 -21v-573l20 -21h676l20 21v573l21 21h164l20 -21v-1393z"/>
    <glyph glyph-name="I" unicode="I" horiz-adv-x="532" d="M369 20l-21 -20h-164l-20 20v1393l20 21h164l21 -21v-1393z"/>
    <glyph glyph-name="J" unicode="J" horiz-adv-x="1044" d="M881 389q1 -182 -105 -296t-325 -113q-101 0 -177 28t-118 67q-114 108 -115 294v41l20 20h164l21 -20v-41q0 -205 205 -205q111 0 167 53t58 172v1024l20 21h164l21 -21v-1024z"/>
    <glyph glyph-name="K" unicode="K" horiz-adv-x="1269" d="M369 737h20l676 676l41 21h61l21 -21v-143l-451 -451v-20l492 -635v-144l-21 -20h-82l-41 20l-491 635h-21l-184 -184l-20 -41v-410l-21 -20h-164l-20 20v1393l20 21h164l21 -21v-676z"/>
    <glyph glyph-name="L" unicode="L" horiz-adv-x="1105" d="M1085 20l-20 -20h-881l-20 20v1393l20 21h164l21 -21v-1208l20 -21h676l20 -20v-144z"/>
    <glyph glyph-name="M" unicode="M" horiz-adv-x="1822" d="M1454 1004h-20l-410 -984l-20 -20h-185l-20 20l-410 984h-20v-984l-21 -20h-164l-20 20v1393l20 21h226l20 -21l471 -1147h21l471 1147l20 21h225l21 -21v-1393l-21 -20h-163l-21 20v984z"/>
    <glyph glyph-name="N" unicode="N" horiz-adv-x="1495" d="M369 1085v-1065l-21 -20h-164l-20 20v1393l20 21h185l41 -21l696 -1065h20v1065l21 21h164l20 -21v-1393l-20 -20h-185l-41 20l-696 1065h-20z"/>
    <glyph glyph-name="O" unicode="O" horiz-adv-x="1515" d="M287 717q0 -252 123 -403q123 -150 348 -150t348 150t123 403t-123 403t-348 150t-348 -150t-123 -403zM82 717q0 329 180 533t496 204t495 -204q181 -204 181 -534t-180 -533t-496 -203q-315 0 -496 203q-180 204 -180 534z"/>
    <glyph glyph-name="P" unicode="P" horiz-adv-x="1331" d="M1085 1024q0 121 -63 173t-203 52h-430l-20 -20v-410l20 -20h430q139 0 203 52q63 52 63 173zM819 1434q223 0 347 -100t124 -308q0 -207 -130 -309t-341 -103h-430l-20 -20v-574l-21 -20h-164l-20 20v1393l20 21h635z"/>
    <glyph glyph-name="Q" unicode="Q" horiz-adv-x="1515" d="M758 164q154 0 246 61v21l-144 143l-41 21h-164l-20 20v123l20 20h287l41 -20l164 -164h20q61 123 61 351t-122 380q-123 150 -348 150t-348 -151t-123 -403t123 -402t348 -150zM758 -20q-315 0 -496 203q-180 204 -180 534q0 329 180 533t496 204t495 -204 q180 -204 181 -533q0 -162 -30 -268t-93 -203v-21l61 -61v-144l-20 -20h-103l-82 82h-20q-170 -102 -389 -102z"/>
    <glyph glyph-name="R" unicode="R" horiz-adv-x="1372" d="M1290 1024q0 -164 -82 -260t-225 -129v-21l287 -450v-144l-21 -20h-82l-41 20l-368 574l-41 20h-328l-20 -20v-574l-21 -20h-164l-20 20v1393l20 21h635q223 0 347 -100t124 -310zM1085 1024q0 121 -63 173t-203 52h-430l-20 -20v-410l20 -20h430q139 0 203 52 q63 52 63 173z"/>
    <glyph glyph-name="S" unicode="S" horiz-adv-x="1290" d="M1208 400q0 -190 -138 -306q-138 -114 -410 -114t-424 122q-154 122 -154 349l20 20h164l21 -20q0 -287 389 -287q328 0 328 232q0 124 -90 175t-320 84q-471 68 -471 410q0 157 128 273t378 116t394 -105t144 -325l-20 -20h-164l-20 20q0 127 -78 186t-271 60 q-135 0 -211 -56q-75 -56 -75 -162t82 -153t314 -81t358 -131t126 -287z"/>
    <glyph glyph-name="T" unicode="T" horiz-adv-x="1228" d="M1188 1270l-21 -21h-430l-20 -20v-1209l-21 -20h-164l-20 20v1209l-20 20h-431l-20 21v143l20 21h1106l21 -21v-143z"/>
    <glyph glyph-name="U" unicode="U" horiz-adv-x="1433" d="M1270 512q0 -248 -146 -390t-407 -142q-260 0 -407 142q-146 142 -146 390v901l20 21h164l21 -21v-901q0 -162 86 -255t262 -93t262 93t86 255v901l20 21h164l21 -21v-901z"/>
    <glyph glyph-name="V" unicode="V" horiz-adv-x="1290" d="M1229 1270l-471 -1250l-21 -20h-184l-21 20l-471 1250v143l21 21h123l20 -21l410 -1126h20l410 1126l20 21h123l21 -21v-143z"/>
    <glyph glyph-name="W" unicode="W" horiz-adv-x="1904" d="M1823 1270l-328 -1250l-20 -20h-185l-20 20l-307 1086h-21l-307 -1086l-21 -20h-184l-20 20l-328 1250v143l20 21h123l21 -21l266 -1044h20l308 1044l20 21h184l21 -21l307 -1044h21l266 1044l20 21h123l21 -21v-143z"/>
    <glyph glyph-name="X" unicode="X" horiz-adv-x="1331" d="M1249 20l-20 -20h-82l-41 20l-430 574h-21l-430 -574l-41 -20h-82l-20 20v144l450 573v21l-430 512v143l21 21h82l41 -21l409 -512h21l409 512l41 21h82l21 -21v-143l-430 -512v-21l450 -573v-144z"/>
    <glyph glyph-name="Y" unicode="Y" d="M1126 1270l-430 -697v-553l-20 -20h-164l-20 20v553l-431 697v143l21 21h82l41 -21l368 -614h41l369 614l41 21h82l20 -21v-143z"/>
    <glyph glyph-name="Z" unicode="Z" horiz-adv-x="1228" d="M840 1249h-697l-20 21v143l20 21h922l20 -21v-164l-20 -41l-717 -1003v-21h758l20 -20v-144l-20 -20h-983l-21 20v164l21 41l717 1004v20z"/>
    <glyph glyph-name="bracketleft" unicode="[" horiz-adv-x="757" d="M594 -389l-21 -21h-389l-20 21v1802l20 21h389l21 -21v-143l-21 -21h-184l-20 -20v-1434l20 -20h184l21 -21v-143z"/>
    <glyph glyph-name="backslash" unicode="\" horiz-adv-x="1044" d="M819 20l-737 1250v143l20 21h103l20 -21l738 -1249v-144l-21 -20h-102z"/>
    <glyph glyph-name="bracketright" unicode="]" horiz-adv-x="757" d="M184 -410l-20 21v143l20 21h185l20 20v1434l-20 20h-185l-20 21v143l20 21h389l21 -21v-1802l-21 -21h-389z"/>
    <glyph glyph-name="asciicircum" unicode="^" d="M1044 492l-20 -21h-82l-41 21l-287 675h-41l-286 -675l-41 -21h-82l-21 21v143l349 778l20 21h164l20 -21l348 -778v-143z"/>
    <glyph glyph-name="underscore" unicode="_" d="M1106 -164l-21 -20h-983l-20 20v144l20 20h983l21 -20v-144z"/>
    <glyph glyph-name="grave" unicode="`" horiz-adv-x="1024" d="M594 1167l-21 -20h-102l-41 20l-225 205v41l20 21h144l41 -21l184 -205v-41z"/>
    <glyph glyph-name="a" unicode="a" horiz-adv-x="1024" d="M717 369v61l-21 21q-61 20 -164 20q-266 0 -266 -164q0 -143 185 -143q123 0 195 56t71 149zM512 635q104 0 160 -17l24 -4l21 21v41q0 104 -47 144t-158 40q-205 0 -205 -123l-20 -20h-164l-21 20q0 125 100 216t317 91q218 0 310 -106t93 -344v-574l-21 -20h-143 l-21 20l-20 82h-21q-4 -4 -16 -23t-62 -45q-98 -54 -208 -54q-168 0 -258 86t-90 246t120 241q121 82 330 82z"/>
    <glyph glyph-name="b" unicode="b" horiz-adv-x="1126" d="M860 512q0 168 -70 258q-71 90 -196 90q-266 0 -266 -348t266 -348q125 0 196 90q70 90 70 258zM1065 518q0 -238 -126 -388q-126 -151 -325 -150q-82 0 -148 30t-93 62l-25 30h-20l-21 -82l-20 -20h-144l-20 20v1393l20 21h164l21 -21v-491h20q4 4 16 22t59 46 q92 54 191 54q201 0 326 -144t125 -382z"/>
    <glyph glyph-name="c" unicode="c" horiz-adv-x="1064" d="M266 512q0 -168 74 -258t213 -90q205 0 246 164l20 20h164l21 -20q-16 -150 -132 -249t-332 -99t-347 143t-132 389t131 389t348 143t332 -99t132 -249l-21 -20h-164l-20 20q-41 164 -246 164q-139 0 -213 -90t-74 -258z"/>
    <glyph glyph-name="d" unicode="d" horiz-adv-x="1126" d="M799 512q0 348 -267 348q-126 0 -196 -90t-70 -258t71 -258t195 -90q267 0 267 348zM61 512q0 236 120 384t331 148q82 0 148 -30t94 -62l24 -30h21v491l20 21h164l21 -21v-1393l-21 -20h-143l-21 20l-20 82h-21q-4 -4 -16 -22t-59 -46q-92 -54 -191 -54q-211 0 -331 148 t-120 384z"/>
    <glyph glyph-name="e" unicode="e" horiz-adv-x="1064" d="M553 -20q-238 0 -365 146t-127 382t119 386t352 150t353 -150q119 -151 119 -382v-61l-21 -21h-676l-20 -20q0 -46 19 -94t46 -78t79 -52q52 -23 122 -22q156 0 205 123l20 20h164l21 -20q-16 -131 -125 -219t-285 -88zM532 860q-78 0 -132 -29t-76 -73q-38 -76 -37 -144 l20 -20h451l20 20q0 69 -38 145q-22 45 -76 73t-132 28z"/>
    <glyph glyph-name="f" unicode="f" horiz-adv-x="757" d="M246 1126q0 129 84 198t202 69h164l21 -21v-143l-21 -21h-164q-82 0 -81 -82v-82l20 -20h205l20 -20v-144l-20 -20h-205l-20 -21v-799l-21 -20h-164l-20 20v799l-21 21h-143l-21 20v144l21 20h143l21 20v82z"/>
    <glyph glyph-name="g" unicode="g" horiz-adv-x="1126" d="M799 512q0 348 -267 348q-126 0 -196 -90t-70 -258t71 -258t195 -90q267 0 267 348zM532 -246q266 0 267 348h-21q-4 -4 -16 -22t-59 -46q-92 -54 -191 -54q-211 0 -331 148t-120 384t120 384t331 148q82 0 148 -30t94 -62l24 -30h21l20 82l21 20h143l21 -20v-881 q0 -287 -134 -420t-324 -133q-192 0 -300 80t-123 207l20 20h164l21 -20q30 -59 76 -81t128 -22z"/>
    <glyph glyph-name="h" unicode="h" horiz-adv-x="1126" d="M799 614q0 246 -205 246q-131 0 -199 -76t-67 -252v-512l-21 -20h-164l-20 20v1393l20 21h164l21 -21v-491h20q4 4 16 22t59 46q92 54 191 54q389 0 390 -430v-594l-21 -20h-164l-20 20v594z"/>
    <glyph glyph-name="i" unicode="i" horiz-adv-x="450" d="M328 20l-21 -20h-164l-20 20v984l20 20h164l21 -20v-984zM328 1208l-21 -20h-164l-20 20v164l20 21h164l21 -21v-164z"/>
    <glyph glyph-name="j" unicode="j" horiz-adv-x="450" d="M328 -102q0 -129 -84 -198t-203 -69h-102l-21 21v143l21 21h102q82 0 82 82v1106l20 20h164l21 -20v-1106zM328 1208l-21 -20h-164l-20 20v164l20 21h164l21 -21v-164z"/>
    <glyph glyph-name="k" unicode="k" horiz-adv-x="1024" d="M328 532h20l471 472l41 20h62l20 -20v-144l-287 -287v-20l308 -389v-144l-21 -20h-82l-41 20l-307 390h-20l-144 -144l-20 -41v-205l-21 -20h-164l-20 20v1393l20 21h164l21 -21v-881z"/>
    <glyph glyph-name="l" unicode="l" horiz-adv-x="450" d="M328 20l-21 -20h-164l-20 20v1393l20 21h164l21 -21v-1393z"/>
    <glyph glyph-name="m" unicode="m" horiz-adv-x="1658" d="M1352 635q0 111 -36 168t-146 57t-169 -70q-59 -71 -59 -196v-574l-20 -20h-164l-21 20v615q0 111 -36 168t-138 57t-169 -63t-66 -203v-574l-21 -20h-164l-20 20v984l20 20h144l20 -20l21 -82h20q82 123 266 122q76 0 134 -26t82 -50q24 -26 51 -67h20q106 143 306 143 t275 -108t74 -301v-615l-20 -20h-164l-20 20v615z"/>
    <glyph glyph-name="n" unicode="n" horiz-adv-x="1105" d="M799 614q0 246 -205 246q-138 0 -202 -82t-64 -266v-492l-21 -20h-164l-20 20v984l20 20h144l20 -20l21 -82h20q4 4 16 22t59 46q92 54 191 54q205 0 297 -116t93 -314v-594l-21 -20h-164l-20 20v594z"/>
    <glyph glyph-name="o" unicode="o" horiz-adv-x="1105" d="M266 512q0 -168 74 -258t213 -90t213 90t74 258t-74 258t-213 90t-213 -90t-74 -258zM61 512q-1 246 131 389t361 143t360 -143t131 -389t-131 -389t-360 -143t-361 143t-131 389z"/>
    <glyph glyph-name="p" unicode="p" horiz-adv-x="1126" d="M860 512q0 168 -70 258q-71 90 -196 90q-266 0 -266 -348t266 -348q125 0 196 90q70 90 70 258zM1065 512q0 -236 -120 -384t-331 -148q-82 0 -148 30t-93 62l-25 30h-20v-491l-21 -21h-164l-20 21v1393l20 20h144l20 -20l21 -82h20q4 4 16 22t59 46q92 54 191 54 q211 0 331 -148t120 -384z"/>
    <glyph glyph-name="q" unicode="q" horiz-adv-x="1126" d="M799 512q0 348 -267 348q-126 0 -196 -90t-70 -258t71 -258t195 -90q267 0 267 348zM799 102h-21q-4 -4 -16 -22t-59 -46q-92 -54 -191 -54q-211 0 -331 148t-120 384t120 384t331 148q82 0 148 -30t94 -62l24 -30h21l20 82l21 20h143l21 -20v-1393l-21 -21h-164l-20 21 v491z"/>
    <glyph glyph-name="r" unicode="r" horiz-adv-x="757" d="M594 840q-133 0 -200 -67t-66 -241v-512l-21 -20h-164l-20 20v984l20 20h144l20 -20l21 -82h20q54 54 110 78t156 24h82l21 -20v-144l-21 -20h-102z"/>
    <glyph glyph-name="s" unicode="s" horiz-adv-x="942" d="M881 288q1 -134 -103 -221t-305 -87t-306 89t-106 259l21 20h164l20 -20q0 -164 205 -164t205 123q0 75 -51 103t-214 61t-246 103t-83 198q0 127 94 210q94 82 282 82t296 -78q106 -79 106 -229l-20 -20h-164l-21 20q0 123 -184 123t-184 -102q0 -72 58 -101t223 -63 t239 -102q74 -70 74 -204z"/>
    <glyph glyph-name="t" unicode="t" horiz-adv-x="778" d="M512 0q-119 0 -203 69t-84 197v553l-20 21h-144l-20 20v144l20 20h144l20 20v185l21 20h164l20 -20v-185l21 -20h225l20 -20v-144l-20 -20h-225l-21 -21v-553q0 -82 82 -82h164l20 -20v-144l-20 -20h-164z"/>
    <glyph glyph-name="u" unicode="u" horiz-adv-x="1085" d="M492 -20q-201 0 -295 122t-95 308v594l21 20h164l20 -20v-594q0 -246 205 -246q114 0 180 86t66 262v492l20 20h164l21 -20v-984l-21 -20h-143l-21 20l-20 82h-21q-4 -4 -10 -13q-40 -60 -147 -96q-43 -13 -88 -13z"/>
    <glyph glyph-name="v" unicode="v" horiz-adv-x="1044" d="M983 860l-348 -840l-21 -20h-184l-20 20l-349 840v144l21 20h123l20 -20l287 -717h20l287 717l21 20h123l20 -20v-144z"/>
    <glyph glyph-name="w" unicode="w" horiz-adv-x="1536" d="M1454 860l-246 -840l-20 -20h-184l-21 20l-205 717h-20l-205 -717l-21 -20h-184l-20 20l-246 840v144l20 20h123l21 -20l184 -697h21l204 697l21 20h184l21 -20l204 -697h21l184 697l21 20h123l20 -20v-144z"/>
    <glyph glyph-name="x" unicode="x" horiz-adv-x="1003" d="M942 20l-20 -20h-62l-41 20l-307 349h-20l-308 -349l-41 -20h-61l-21 20v144l308 348v20l-287 328v144l20 20h62l41 -20l287 -328h20l287 328l41 20h61l21 -20v-144l-287 -328v-20l307 -348v-144z"/>
    <glyph glyph-name="y" unicode="y" horiz-adv-x="1044" d="M205 -328h-41l-21 21v143l21 21h41q82 1 129 25t76 98v20l-349 860v144l21 20h123l20 -20l287 -758h20l287 758l21 20h123l20 -20v-144l-328 -819q-92 -229 -178 -299t-272 -70z"/>
    <glyph glyph-name="z" unicode="z" horiz-adv-x="1024" d="M655 840h-532l-21 20v144l21 20h778l21 -20v-164l-21 -41l-553 -594v-21h574l20 -20v-144l-20 -20h-820l-20 20v164l20 41l553 594v21z"/>
    <glyph glyph-name="braceleft" unicode="{" horiz-adv-x="901" d="M328 -102v368q0 90 -33 127t-111 37l-20 21v122l20 21q78 0 111 37t33 127v368q0 148 88 228t219 80h82l20 -21v-143l-20 -21h-82q-102 0 -103 -123v-389q0 -78 -28 -133t-74 -72v-40q45 -16 74 -72t28 -133v-389q0 -123 103 -123h82l20 -21v-143l-20 -21h-82 q-131 0 -219 80t-88 228z"/>
    <glyph glyph-name="bar" unicode="|" horiz-adv-x="696" d="M451 -389l-21 -21h-164l-20 21v1802l20 21h164l21 -21v-1802z"/>
    <glyph glyph-name="braceright" unicode="}" horiz-adv-x="901" d="M573 266v-368q0 -148 -88 -228t-219 -80h-82l-20 21v143l20 21h82q102 0 103 123v389q0 78 28 133q29 55 74 72v40q-45 16 -74 72t-28 133v389q0 123 -103 123h-82l-20 21v143l20 21h82q131 0 219 -80t88 -228v-368q0 -90 33 -127t111 -37l20 -21v-122l-20 -21 q-78 0 -111 -37t-33 -127z"/>
    <glyph glyph-name="asciitilde" unicode="~" horiz-adv-x="1269" d="M430 737q66 -1 126 -27t89 -50t70 -64t60 -58q51 -46 107 -46t79 40t22 123l21 21h122l21 -21q0 -166 -74 -267t-233 -101q-66 1 -126 27t-89 50t-70 64q-41 41 -60 58q-51 46 -107 46t-79 -40t-22 -123l-21 -21h-123l-20 21q0 166 74 267t233 101z"/>
    <glyph glyph-name="uni00A0" unicode=" " horiz-adv-x="532"/>
    <glyph glyph-name="exclamdown" unicode="¡" horiz-adv-x="737" d="M246 1004l20 20h205l21 -20v-205l-21 -21h-205l-20 21v205zM266 205l41 389l21 20h82l20 -20l41 -389v-594l-20 -21h-164l-21 21v594z"/>
    <glyph glyph-name="cent" unicode="¢" horiz-adv-x="1064" d="M61 512q0 138 39 242q38 106 102 164q124 112 249 126l20 21v82l21 20h122l21 -20v-82l20 -21q127 -18 231 -106t118 -242l-21 -20h-164l-20 20q-35 137 -144 164l-20 -20v-656l20 -20q109 27 144 164l20 20h164l21 -20q-14 -154 -118 -242t-231 -106l-20 -21v-82 l-21 -20h-122l-21 20v82l-20 21q-125 16 -248 126q-63 56 -103 162t-39 244zM266 512q0 -162 58 -244t127 -104l20 20v656l-20 20q-69 -22 -127 -104t-58 -244z"/>
    <glyph glyph-name="sterling" unicode="£" horiz-adv-x="1228" d="M451 389q0 -143 -82 -184v-21h778l20 -20v-144l-20 -20h-1065l-21 20v144l21 20h20q143 0 144 185v184l-21 20h-123l-20 21v123l20 20h123l21 21v246q0 206 110 328t320 122q410 0 409 -430l-20 -20h-164l-20 20q0 129 -43 187t-162 59q-225 0 -225 -266v-246l20 -21h410 l20 -20v-123l-20 -21h-410l-20 -20v-164z"/>
    <glyph glyph-name="currency" unicode="¤" horiz-adv-x="1310" d="M328 512q0 -144 90 -246t237 -102t238 102q90 102 90 246t-90 246q-89 102 -237 102t-238 -102t-90 -246zM123 512q0 164 82 287v20l-123 123v21l123 122h20l123 -122h21q123 81 287 81t286 -81h21l122 122h21l123 -122v-21l-123 -123v-20q82 -123 82 -287t-82 -287v-20 l123 -123v-21l-123 -122h-21l-122 122h-21q-123 -81 -287 -81t-286 81h-21l-123 -122h-20l-123 122v21l123 123v20q-82 123 -82 287z"/>
    <glyph glyph-name="yen" unicode="¥" horiz-adv-x="1146" d="M328 758v20l-246 492v143l20 21h103l41 -21l307 -655h41l307 655l41 21h102l21 -21v-143l-246 -492v-20h164l21 -21v-123l-21 -20h-225l-41 -21l-41 -81v-41l20 -21h226l20 -20v-123l-20 -21h-226l-20 -20v-226l-21 -20h-163l-21 20v226l-20 20h-226l-20 21v123l20 20 h226l20 21v41l-41 81l-41 21h-225l-21 20v123l21 21h164z"/>
    <glyph glyph-name="brokenbar" unicode="¦" horiz-adv-x="696" d="M451 20l-21 -20h-164l-20 20v553l20 21h164l21 -21v-553zM451 860l-21 -20h-164l-20 20v553l20 21h164l21 -21v-553z"/>
    <glyph glyph-name="section" unicode="§" horiz-adv-x="1310" d="M1167 -61q0 -369 -491 -369q-532 0 -533 430l21 20h164l20 -20q0 -131 69 -188q69 -58 240 -58t239 45t67 140q0 67 -66 111t-163 67t-212 57t-212 77q-97 42 -163 130q-65 88 -65 208t54 183q54 62 93 80l17 8v21q-102 102 -103 225q0 160 130 254t382 94 q512 0 512 -430l-20 -20h-164l-20 20q0 131 -69 188q-69 58 -244 58t-238 -41q-64 -41 -64 -115t66 -121t163 -71t211 -60q114 -37 212 -78q97 -41 163 -127t66 -204t-55 -182t-93 -78l-16 -9v-20q102 -102 102 -225zM901 266q12 0 38 16q25 16 42 32q43 46 43 149t-129 164 q-81 38 -240 83q-159 44 -225 68h-20q-12 0 -38 -14q-85 -47 -85 -130q0 -141 86 -200t252 -95q166 -37 256 -73h20z"/>
    <glyph glyph-name="dieresis" unicode="¨" horiz-adv-x="1024" d="M430 1208l-20 -20h-164l-21 20v164l21 21h164l20 -21v-164zM799 1208l-21 -20h-164l-20 20v164l20 21h164l21 -21v-164z"/>
    <glyph glyph-name="copyright" unicode="©" horiz-adv-x="1720" d="M123 717q0 307 215 522t522 215t522 -215t215 -522t-215 -522t-522 -215t-522 215t-215 522zM287 717q0 -246 164 -410q163 -164 409 -164t410 164t164 410q0 245 -164 409t-410 164t-410 -164t-163 -409zM471 716q1 222 105 326t266 105q162 0 268 -70q104 -70 119 -237 l-21 -21h-123l-20 21q-15 98 -65 131t-140 33q-225 0 -225 -287t225 -287q90 0 140 33t65 131l20 20h123l21 -20q-15 -168 -119 -238t-267 -70t-268 105q-104 103 -104 325z"/>
    <glyph glyph-name="ordfeminine" unicode="ª" horiz-adv-x="1146" d="M963 553l-21 -21h-717l-20 21v20l20 21h717l21 -21v-20zM348 1065q0 -225 184 -225t185 225q-1 225 -185 225t-184 -225zM901 696q-82 0 -143 62h-21q-81 -82 -231 -82t-246 103t-96 289t100 286t236 100t196 -61h21v20l20 21h144l20 -21v-491q0 -61 41 -62h21l20 -20 v-123l-20 -21h-62z"/>
    <glyph glyph-name="guillemotleft" unicode="«" horiz-adv-x="1433" d="M1270 82l-21 -21h-164l-41 21l-327 328l-21 41v122l21 41l327 328l41 21h164l21 -21v-61l-369 -349v-40l369 -349v-61zM737 82l-20 -21h-164l-41 21l-328 328l-20 41v122l20 41l328 328l41 21h164l20 -21v-61l-368 -349v-40l368 -349v-61z"/>
    <glyph glyph-name="logicalnot" unicode="¬" d="M1024 205l-20 -21h-144l-20 21v205l-21 20h-676l-20 21v143l20 20h861l20 -20v-389z"/>
    <glyph glyph-name="uni00AD" unicode="­" horiz-adv-x="839" d="M717 451l-21 -21h-553l-20 21v143l20 20h553l21 -20v-143z"/>
    <glyph glyph-name="registered" unicode="®" horiz-adv-x="1720" d="M123 717q0 307 215 522t522 215t522 -215t215 -522t-215 -522t-522 -215t-522 215t-215 522zM287 717q0 -246 164 -410q163 -164 409 -164t410 164t164 410q0 245 -164 409t-410 164t-410 -164t-163 -409zM963 1126q125 0 195 -62t71 -183q0 -170 -164 -226v-20l164 -205 v-102l-21 -21h-61l-41 21l-225 286l-41 21h-123l-21 -21v-286l-20 -21h-123l-21 21v778l21 20h410zM1065 881q0 45 -29 73t-73 29h-246l-21 -20v-164l21 -21h246q45 0 73 29t29 74z"/>
    <glyph glyph-name="macron" unicode="¯" horiz-adv-x="1024" d="M840 1208l-21 -20h-614l-21 20v123l21 21h614l21 -21v-123z"/>
    <glyph glyph-name="degree" unicode="°" d="M348 1024q0 -121 69 -194q69 -72 177 -72t178 72q68 72 68 194q0 121 -69 194q-69 72 -177 72t-178 -72q-68 -72 -68 -194zM164 1024q0 184 123 307t307 123t307 -123t123 -307t-123 -307t-307 -123t-307 123t-123 307z"/>
    <glyph glyph-name="plusminus" unicode="±" d="M1065 20l-21 -20h-880l-21 20v144l21 20h880l21 -20v-144zM1065 594l-21 -21h-327l-21 -20v-225l-20 -21h-144l-20 21v225l-20 20h-328l-21 21v143l21 21h328l20 20v226l20 20h144l20 -20v-226l21 -20h327l21 -21v-143z"/>
    <glyph glyph-name="twosuperior" unicode="²" horiz-adv-x="737" d="M451 1208q0 82 -82 82t-82 -82l-21 -20h-143l-21 20q0 113 67 180q67 66 200 66t199 -66t67 -172q0 -106 -36 -163t-107 -111l-82 -61v-21h225l20 -20v-123l-20 -21h-512l-21 21v123l21 41l184 123q90 59 117 100t27 104z"/>
    <glyph glyph-name="threesuperior" unicode="³" horiz-adv-x="737" d="M389 1270h-246l-20 20v123l20 21h451l20 -21v-123l-20 -41l-102 -102v-21q60 0 107 -40q22 -17 39 -55t17 -89q-1 -114 -77 -190t-210 -76t-210 68t-76 178l20 20h144l20 -20q0 -82 103 -82q45 0 73 28t29 68t-21 62t-51 22t-51 -16h-61l-21 20v102l123 123v21z"/>
    <glyph glyph-name="acute" unicode="´" horiz-adv-x="1024" d="M696 1372l-225 -205l-41 -20h-102l-21 20v41l185 205l40 21h144l20 -21v-41z"/>
    <glyph glyph-name="mu" unicode="µ" d="M369 61v-450l-21 -21h-164l-20 21v1393l20 20h164l21 -20v-533q0 -307 225 -307t225 307v533l21 20h164l20 -20v-984l-20 -20h-144l-20 20l-21 41h-20q-82 -82 -205 -81q-54 0 -106 20t-74 41l-25 20h-20z"/>
    <glyph glyph-name="paragraph" unicode="¶" horiz-adv-x="1454" d="M123 1025q0 206 121 307t329 102h758l21 -21v-143l-21 -21h-123l-20 -20v-1618l-21 -21h-163l-21 21v1618l-20 20h-164l-21 -20v-1618l-20 -21h-164l-21 21v983l-20 20q-195 0 -313 102t-117 309z"/>
    <glyph glyph-name="periodcentered" unicode="·" horiz-adv-x="573" d="M410 430l-21 -20h-205l-20 20v205l20 20h205l21 -20v-205z"/>
    <glyph glyph-name="cedilla" unicode="¸" horiz-adv-x="1024" d="M599 -123q46 0 82 -36q36 -35 36 -109q-1 -74 -57 -118t-132 -44t-115 17q-38 17 -85 65v20l20 21h21q37 -37 71 -39q33 -2 72 -2q102 0 102 82t-102 82q-41 -1 -82 -21h-20l-21 21v20l164 164h82l-143 -143h20q41 20 87 20z"/>
    <glyph glyph-name="onesuperior" unicode="¹" horiz-adv-x="737" d="M307 1188h-20l-82 -82h-62l-20 20v123l164 164l41 21h143l21 -21v-532l20 -21h123l20 -20v-123l-20 -21h-512l-21 21v123l21 20h164l20 21v307z"/>
    <glyph glyph-name="ordmasculine" unicode="º" horiz-adv-x="1064" d="M860 553l-20 -21h-615l-20 21v20l20 21h615l20 -21v-20zM348 1065q0 -225 184 -225t185 225q-1 225 -185 225t-184 -225zM532 676q-178 0 -273 106t-95 282t95 284q95 106 273 106t274 -106t95 -282q0 -176 -95 -284q-96 -106 -274 -106z"/>
    <glyph glyph-name="guillemotright" unicode="»" horiz-adv-x="1433" d="M184 61l-20 21v61l368 349v40l-368 349v61l20 21h164l41 -21l328 -328l20 -41v-122l-20 -41l-328 -328l-41 -21h-164zM717 61l-21 21v61l369 349v40l-369 349v61l21 21h164l41 -21l327 -328l21 -41v-122l-21 -41l-327 -328l-41 -21h-164z"/>
    <glyph glyph-name="onequarter" unicode="¼" horiz-adv-x="1761" d="M1352 1270l-820 -1250l-20 -20h-82l-20 20v144l819 1249l20 21h82l21 -21v-143zM307 1188h-20l-82 -82h-62l-20 20v123l164 164l41 21h143l21 -21v-532l20 -21h123l20 -20v-123l-20 -21h-512l-21 21v123l21 20h164l20 21v307zM1372 512h-20l-185 -184v-21h185l20 21v184z M1556 20l-20 -20h-143l-21 20v103l-20 20h-369l-20 21v164l20 41l348 348l41 20h164l20 -20v-697z"/>
    <glyph glyph-name="onehalf" unicode="½" horiz-adv-x="1761" d="M1352 1270l-820 -1250l-20 -20h-82l-20 20v144l819 1249l20 21h82l21 -21v-143zM307 1188h-20l-82 -82h-62l-20 20v123l164 164l41 21h143l21 -21v-532l20 -21h123l20 -20v-123l-20 -21h-512l-21 21v123l21 20h164l20 21v307zM1434 512q0 82 -82 82t-82 -82l-21 -20h-143 l-21 20q0 114 67 180t200 66q134 0 200 -67t66 -172t-36 -163t-107 -110l-82 -62v-20h225l20 -21v-123l-20 -20h-512l-21 20v123l21 41l184 123q90 59 117 101t27 104z"/>
    <glyph glyph-name="threequarters" unicode="¾" horiz-adv-x="1761" d="M430 1270h-246l-20 20v123l20 21h451l20 -21v-123l-20 -41l-103 -102v-21q61 0 108 -40q22 -17 39 -55t17 -89q0 -114 -76 -190t-211 -76q-134 0 -210 68t-76 178l20 20h144l20 -20q0 -82 103 -82q46 0 74 28t28 68t-22 62t-50 22t-51 -16h-61l-21 20v102l123 123v21z M1372 512h-20l-185 -184v-21h185l20 21v184zM1556 20l-20 -20h-143l-21 20v103l-20 20h-369l-20 21v164l20 41l348 348l41 20h164l20 -20v-697zM1352 1270l-820 -1250l-20 -20h-82l-20 20v144l819 1249l20 21h82l21 -21v-143z"/>
    <glyph glyph-name="questiondown" unicode="¿" horiz-adv-x="1228" d="M512 1004l20 20h205l21 -20v-205l-21 -21h-205l-20 21v205zM164 -41q0 141 48 220t152 166t137 135q32 48 31 134l21 21h164l20 -21q0 -122 -36 -196t-123 -148q-88 -74 -118 -102t-61 -84q-31 -57 -31 -134t60 -136q59 -60 189 -60t187 68q56 68 56 198l21 21h163 l21 -21q0 -206 -114 -328t-327 -122q-212 0 -336 104t-124 285z"/>
    <glyph glyph-name="Agrave" unicode="À" horiz-adv-x="1290" d="M778 1577l-20 -21h-103l-41 21l-225 205v41l21 20h143l41 -20l184 -205v-41zM881 553l-226 573h-20l-225 -573l20 -21h430zM1249 20l-20 -20h-123l-21 20l-122 308l-41 20h-553l-41 -20l-123 -308l-21 -20h-123l-20 20v144l491 1249l21 21h184l21 -21l491 -1249v-144z "/>
    <glyph glyph-name="Aacute" unicode="Á" horiz-adv-x="1290" d="M901 1782l-225 -205l-41 -21h-103l-20 21v41l184 205l41 20h144l20 -20v-41zM881 553l-226 573h-20l-225 -573l20 -21h430zM1249 20l-20 -20h-123l-21 20l-122 308l-41 20h-553l-41 -20l-123 -308l-21 -20h-123l-20 20v144l491 1249l21 21h184l21 -21l491 -1249v-144z "/>
    <glyph glyph-name="Acircumflex" unicode="Â" horiz-adv-x="1290" d="M881 553l-226 573h-20l-225 -573l20 -21h430zM1249 20l-20 -20h-123l-21 20l-122 308l-41 20h-553l-41 -20l-123 -308l-21 -20h-123l-20 20v144l491 1249l21 21h184l21 -21l491 -1249v-144zM963 1577l-21 -21h-102l-41 21l-144 123h-20l-143 -123l-41 -21h-103l-20 21v41 l184 205l41 20h184l41 -20l185 -205v-41z"/>
    <glyph glyph-name="Atilde" unicode="Ã" horiz-adv-x="1290" d="M794 1536q-86 0 -140 36t-92 72t-70 35q-82 0 -82 -102l-21 -21h-61l-21 21q0 97 51 161q52 64 138 64t140 -36t92 -72t71 -35q82 0 82 102l20 21h62l20 -21q0 -98 -51 -162q-52 -63 -138 -63zM881 553l-226 573h-20l-225 -573l20 -21h430zM1249 20l-20 -20h-123l-21 20 l-122 308l-41 20h-553l-41 -20l-123 -308l-21 -20h-123l-20 20v144l491 1249l21 21h184l21 -21l491 -1249v-144z"/>
    <glyph glyph-name="Adieresis" unicode="Ä" horiz-adv-x="1290" d="M881 553l-226 573h-20l-225 -573l20 -21h430zM1249 20l-20 -20h-123l-21 20l-122 308l-41 20h-553l-41 -20l-123 -308l-21 -20h-123l-20 20v144l491 1249l21 21h184l21 -21l491 -1249v-144zM553 1618l-21 -21h-163l-21 21v164l21 20h163l21 -20v-164zM942 1618l-20 -21 h-164l-21 21v164l21 20h164l20 -20v-164z"/>
    <glyph glyph-name="Aring" unicode="Å" horiz-adv-x="1290" d="M635 1577h20q82 0 82 82t-82 82h-20q-82 0 -82 -82t82 -82zM881 553l-226 573h-20l-225 -573l20 -21h430zM1249 20l-20 -20h-123l-21 20l-122 308l-41 20h-553l-41 -20l-123 -308l-21 -20h-123l-20 20v144l491 1249l21 21h184l21 -21l491 -1249v-144zM655 1475h-20 q-90 0 -148 53q-57 53 -57 131t57 131t148 53h20q89 0 147 -53t58 -131t-58 -131t-147 -53z"/>
    <glyph glyph-name="AE" unicode="Æ" horiz-adv-x="1966" d="M942 553v676l-20 20h-41l-21 -20l-368 -676l20 -21h410zM1843 20l-20 -20h-860l-21 20v308l-20 20h-512l-41 -20l-164 -308l-21 -20h-123l-20 20v144l696 1249l21 21h1065l20 -21v-143l-20 -21h-656l-20 -20v-389l20 -21h615l20 -20v-144l-20 -20h-615l-20 -21v-409 l20 -21h656l20 -20v-144z"/>
    <glyph glyph-name="Ccedilla" unicode="Ç" horiz-adv-x="1413" d="M804 -123q46 0 82 -36q36 -35 36 -109t-56 -118t-134 -44q-76 0 -114 17t-86 65v20l21 21h20q37 -37 71 -39q33 -2 73 -2q102 0 102 82t-102 82q-41 0 -82 -21h-21l-20 21v20l123 123v21q-283 16 -459 212t-176 525t180 533t496 204q238 0 390 -120t183 -310l-20 -20 h-164l-21 20q-33 114 -127 180t-241 66q-225 0 -348 -151t-123 -403t123 -402q123 -151 348 -150q293 0 368 266l21 21h164l20 -21q-29 -198 -174 -316t-317 -134l-41 -21l-103 -102h21q41 20 87 20z"/>
    <glyph glyph-name="Egrave" unicode="È" horiz-adv-x="1249" d="M778 1577l-20 -21h-103l-41 21l-225 205v41l21 20h143l41 -20l184 -205v-41zM1126 20l-20 -20h-922l-20 20v1393l20 21h922l20 -21v-143l-20 -21h-717l-20 -20v-389l20 -21h676l20 -20v-144l-20 -20h-676l-20 -21v-409l20 -21h717l20 -20v-144z"/>
    <glyph glyph-name="Eacute" unicode="É" horiz-adv-x="1249" d="M901 1782l-225 -205l-41 -21h-103l-20 21v41l184 205l41 20h144l20 -20v-41zM1126 20l-20 -20h-922l-20 20v1393l20 21h922l20 -21v-143l-20 -21h-717l-20 -20v-389l20 -21h676l20 -20v-144l-20 -20h-676l-20 -21v-409l20 -21h717l20 -20v-144z"/>
    <glyph glyph-name="Ecircumflex" unicode="Ê" horiz-adv-x="1249" d="M983 1577l-20 -21h-103l-41 21l-143 123h-41l-143 -123l-41 -21h-103l-20 21v41l184 205l41 20h205l41 -20l184 -205v-41zM1126 20l-20 -20h-922l-20 20v1393l20 21h922l20 -21v-143l-20 -21h-717l-20 -20v-389l20 -21h676l20 -20v-144l-20 -20h-676l-20 -21v-409l20 -21 h717l20 -20v-144z"/>
    <glyph glyph-name="Edieresis" unicode="Ë" horiz-adv-x="1249" d="M573 1618l-20 -21h-164l-20 21v164l20 20h164l20 -20v-164zM942 1618l-20 -21h-164l-21 21v164l21 20h164l20 -20v-164zM1126 20l-20 -20h-922l-20 20v1393l20 21h922l20 -21v-143l-20 -21h-717l-20 -20v-389l20 -21h676l20 -20v-144l-20 -20h-676l-20 -21v-409l20 -21 h717l20 -20v-144z"/>
    <glyph glyph-name="Igrave" unicode="Ì" horiz-adv-x="532" d="M389 1577l-20 -21h-103l-41 21l-225 205v41l20 20h144l41 -20l184 -205v-41zM369 20l-21 -20h-164l-20 20v1393l20 21h164l21 -21v-1393z"/>
    <glyph glyph-name="Iacute" unicode="Í" horiz-adv-x="532" d="M532 1782l-225 -205l-41 -21h-102l-21 21v41l185 205l41 20h143l20 -20v-41zM369 20l-21 -20h-164l-20 20v1393l20 21h164l21 -21v-1393z"/>
    <glyph glyph-name="Icircumflex" unicode="Î" horiz-adv-x="532" d="M594 1577l-21 -21h-102l-41 21l-143 123h-41l-144 -123l-41 -21h-102l-20 21v41l184 205l41 20h205l41 -20l184 -205v-41zM369 20l-21 -20h-164l-20 20v1393l20 21h164l21 -21v-1393z"/>
    <glyph glyph-name="Idieresis" unicode="Ï" horiz-adv-x="532" d="M184 1618l-20 -21h-164l-20 21v164l20 20h164l20 -20v-164zM553 1618l-21 -21h-163l-21 21v164l21 20h163l21 -20v-164zM369 20l-21 -20h-164l-20 20v1393l20 21h164l21 -21v-1393z"/>
    <glyph glyph-name="Eth" unicode="Ð" horiz-adv-x="1372" d="M1085 717q0 276 -106 404t-385 128h-205l-20 -20v-389l20 -21h307l21 -20v-144l-21 -20h-307l-20 -21v-409l20 -21h205q279 0 385 128t106 405zM614 1434q365 0 521 -186q155 -186 155 -531q0 -346 -155 -532q-156 -185 -521 -185h-430l-20 20v594l-21 21h-123l-20 20 v144l20 20h123l21 21v573l20 21h430z"/>
    <glyph glyph-name="Ntilde" unicode="Ñ" horiz-adv-x="1495" d="M369 1085v-1065l-21 -20h-164l-20 20v1393l20 21h185l41 -21l696 -1065h20v1065l21 21h164l20 -21v-1393l-20 -20h-185l-41 20l-696 1065h-20zM897 1536q-86 0 -140 36t-92 72t-71 35q-82 0 -82 -102l-20 -21h-62l-20 21q0 97 51 161t137 64t140 -36t92 -72t71 -35 q82 0 82 102l21 21h61l20 -21q0 -97 -51 -161t-137 -64z"/>
    <glyph glyph-name="Ograve" unicode="Ò" horiz-adv-x="1515" d="M922 1577l-21 -21h-102l-41 21l-226 205v41l21 20h143l41 -20l185 -205v-41zM287 717q0 -252 123 -403q123 -150 348 -150t348 150t123 403t-123 403t-348 150t-348 -150t-123 -403zM82 717q0 329 180 533t496 204t495 -204q181 -204 181 -534t-180 -533t-496 -203 q-315 0 -496 203q-180 204 -180 534z"/>
    <glyph glyph-name="Oacute" unicode="Ó" horiz-adv-x="1515" d="M983 1782l-225 -205l-41 -21h-103l-20 21v41l184 205l41 20h144l20 -20v-41zM287 717q0 -252 123 -403q123 -150 348 -150t348 150t123 403t-123 403t-348 150t-348 -150t-123 -403zM82 717q0 329 180 533t496 204t495 -204q181 -204 181 -534t-180 -533t-496 -203 q-315 0 -496 203q-180 204 -180 534z"/>
    <glyph glyph-name="Ocircumflex" unicode="Ô" horiz-adv-x="1515" d="M1085 1577l-20 -21h-102l-41 21l-144 123h-41l-143 -123l-41 -21h-102l-21 21v41l184 205l41 20h205l41 -20l184 -205v-41zM287 717q0 -252 123 -403q123 -150 348 -150t348 150t123 403t-123 403t-348 150t-348 -150t-123 -403zM82 717q0 329 180 533t496 204t495 -204 q181 -204 181 -534t-180 -533t-496 -203q-315 0 -496 203q-180 204 -180 534z"/>
    <glyph glyph-name="Otilde" unicode="Õ" horiz-adv-x="1515" d="M897 1536q-86 0 -140 36t-92 72t-71 35q-82 0 -82 -102l-20 -21h-62l-20 21q0 97 51 161t137 64t140 -36t92 -72t71 -35q82 0 82 102l21 21h61l20 -21q0 -97 -51 -161t-137 -64zM287 717q0 -252 123 -403q123 -150 348 -150t348 150t123 403t-123 403t-348 150t-348 -150 t-123 -403zM82 717q0 329 180 533t496 204t495 -204q181 -204 181 -534t-180 -533t-496 -203q-315 0 -496 203q-180 204 -180 534z"/>
    <glyph glyph-name="Odieresis" unicode="Ö" horiz-adv-x="1515" d="M676 1618l-21 -21h-163l-21 21v164l21 20h163l21 -20v-164zM1044 1618l-20 -21h-164l-20 21v164l20 20h164l20 -20v-164zM287 717q0 -252 123 -403q123 -150 348 -150t348 150t123 403t-123 403t-348 150t-348 -150t-123 -403zM82 717q0 329 180 533t496 204t495 -204 q181 -204 181 -534t-180 -533t-496 -203q-315 0 -496 203q-180 204 -180 534z"/>
    <glyph glyph-name="multiply" unicode="×" horiz-adv-x="1249" d="M1085 164l-102 -103h-20l-328 328h-21l-327 -328h-21l-102 103v20l328 328v20l-328 328v21l102 102h21l327 -328h21l328 328h20l102 -102v-21l-327 -328v-20l327 -328v-20z"/>
    <glyph glyph-name="Oslash" unicode="Ø" horiz-adv-x="1515" d="M768 164q215 0 338 150t123 380q0 228 -62 350h-20l-717 -716v-41q123 -123 338 -123zM1434 717q0 -329 -180 -533t-482 -204q-301 0 -485 184h-21l-82 -82l-41 -21h-20l-21 21v41l103 102v41q-123 184 -123 451q0 329 180 533t482 204t485 -184h20l82 82l41 20h21 l20 -20v-41l-102 -103v-41q123 -184 123 -450zM748 1270q-214 0 -338 -151q-123 -151 -123 -379t61 -351h21l716 717v41q-123 123 -337 123z"/>
    <glyph glyph-name="Ugrave" unicode="Ù" horiz-adv-x="1433" d="M840 1577l-21 -21h-102l-41 21l-225 205v41l20 20h143l41 -20l185 -205v-41zM1270 512q0 -248 -146 -390t-407 -142q-260 0 -407 142q-146 142 -146 390v901l20 21h164l21 -21v-901q0 -162 86 -255t262 -93t262 93t86 255v901l20 21h164l21 -21v-901z"/>
    <glyph glyph-name="Uacute" unicode="Ú" horiz-adv-x="1433" d="M983 1782l-225 -205l-41 -21h-103l-20 21v41l184 205l41 20h144l20 -20v-41zM1270 512q0 -248 -146 -390t-407 -142q-260 0 -407 142q-146 142 -146 390v901l20 21h164l21 -21v-901q0 -162 86 -255t262 -93t262 93t86 255v901l20 21h164l21 -21v-901z"/>
    <glyph glyph-name="Ucircumflex" unicode="Û" horiz-adv-x="1433" d="M1044 1577l-20 -21h-102l-41 21l-144 123h-41l-143 -123l-41 -21h-102l-21 21v41l184 205l41 20h205l41 -20l184 -205v-41zM1270 512q0 -248 -146 -390t-407 -142q-260 0 -407 142q-146 142 -146 390v901l20 21h164l21 -21v-901q0 -162 86 -255t262 -93t262 93t86 255 v901l20 21h164l21 -21v-901z"/>
    <glyph glyph-name="Udieresis" unicode="Ü" horiz-adv-x="1433" d="M635 1618l-21 -21h-163l-21 21v164l21 20h163l21 -20v-164zM1004 1618l-21 -21h-164l-20 21v164l20 20h164l21 -20v-164zM1270 512q0 -248 -146 -390t-407 -142q-260 0 -407 142q-146 142 -146 390v901l20 21h164l21 -21v-901q0 -162 86 -255t262 -93t262 93t86 255v901 l20 21h164l21 -21v-901z"/>
    <glyph glyph-name="Yacute" unicode="Ý" d="M840 1782l-226 -205l-41 -21h-102l-20 21v41l184 205l41 20h143l21 -20v-41zM1126 1270l-430 -697v-553l-20 -20h-164l-20 20v553l-431 697v143l21 21h82l41 -21l368 -614h41l369 614l41 21h82l20 -21v-143z"/>
    <glyph glyph-name="Thorn" unicode="Þ" horiz-adv-x="1269" d="M717 1126q223 0 347 -100t124 -307t-130 -309t-341 -103h-328l-20 -20v-267l-21 -20h-164l-20 20v1393l20 21h164l21 -21v-266l20 -21h328zM717 492q139 0 203 52q63 52 63 173t-63 173t-203 52h-328l-20 -20v-410l20 -20h328z"/>
    <glyph glyph-name="germandbls" unicode="ß" d="M1126 430q0 -194 -112 -322t-318 -128q-93 0 -159 30l-25 10l-20 21v123l20 20q82 -20 190 -20t164 75t56 197t-66 181q-66 58 -242 59l-20 20v123l20 21q246 0 246 204q0 106 -52 166t-178 60t-184 -53q-57 -53 -57 -173v-1024l-20 -20h-164l-21 20v820l-20 20h-103 l-20 21v123l20 20h103l20 20q0 188 111 299t329 111t330 -111q111 -111 111 -278q0 -205 -164 -287v-20q89 -18 157 -102t68 -226z"/>
    <glyph glyph-name="agrave" unicode="à" horiz-adv-x="1024" d="M655 1167l-20 -20h-103l-40 20l-226 205v41l21 21h143l41 -21l184 -205v-41zM717 369v61l-21 21q-61 20 -164 20q-266 0 -266 -164q0 -143 185 -143q123 0 195 56t71 149zM512 635q104 0 160 -17l24 -4l21 21v41q0 104 -47 144t-158 40q-205 0 -205 -123l-20 -20h-164 l-21 20q0 125 100 216t317 91q218 0 310 -106t93 -344v-574l-21 -20h-143l-21 20l-20 82h-21q-4 -4 -16 -23t-62 -45q-98 -54 -208 -54q-168 0 -258 86t-90 246t120 241q121 82 330 82z"/>
    <glyph glyph-name="aacute" unicode="á" horiz-adv-x="1024" d="M758 1372l-226 -205l-40 -20h-103l-20 20v41l184 205l41 21h143l21 -21v-41zM717 369v61l-21 21q-61 20 -164 20q-266 0 -266 -164q0 -143 185 -143q123 0 195 56t71 149zM512 635q104 0 160 -17l24 -4l21 21v41q0 104 -47 144t-158 40q-205 0 -205 -123l-20 -20h-164 l-21 20q0 125 100 216t317 91q218 0 310 -106t93 -344v-574l-21 -20h-143l-21 20l-20 82h-21q-4 -4 -16 -23t-62 -45q-98 -54 -208 -54q-168 0 -258 86t-90 246t120 241q121 82 330 82z"/>
    <glyph glyph-name="acircumflex" unicode="â" horiz-adv-x="1024" d="M840 1167l-21 -20h-102l-41 20l-144 123h-40l-144 -123l-41 -20h-102l-21 20v41l185 205l41 21h204l41 -21l185 -205v-41zM717 369v61l-21 21q-61 20 -164 20q-266 0 -266 -164q0 -143 185 -143q123 0 195 56t71 149zM512 635q104 0 160 -17l24 -4l21 21v41 q0 104 -47 144t-158 40q-205 0 -205 -123l-20 -20h-164l-21 20q0 125 100 216t317 91q218 0 310 -106t93 -344v-574l-21 -20h-143l-21 20l-20 82h-21q-4 -4 -16 -23t-62 -45q-98 -54 -208 -54q-168 0 -258 86t-90 246t120 241q121 82 330 82z"/>
    <glyph glyph-name="atilde" unicode="ã" horiz-adv-x="1024" d="M717 369v61l-21 21q-61 20 -164 20q-266 0 -266 -164q0 -143 185 -143q123 0 195 56t71 149zM512 635q104 0 160 -17l24 -4l21 21v41q0 104 -47 144t-158 40q-205 0 -205 -123l-20 -20h-164l-21 20q0 125 100 216t317 91q218 0 310 -106t93 -344v-574l-21 -20h-143 l-21 20l-20 82h-21q-4 -4 -16 -23t-62 -45q-98 -54 -208 -54q-168 0 -258 86t-90 246t120 241q121 82 330 82zM671 1126q-86 0 -140 36t-92 72t-70 36q-82 0 -82 -103l-21 -20h-61l-21 20q0 97 52 161t137 64q86 0 140 -35q54 -36 92 -72t71 -36q82 0 82 103l20 20h62 l20 -20q0 -98 -52 -162t-137 -64z"/>
    <glyph glyph-name="adieresis" unicode="ä" horiz-adv-x="1024" d="M430 1208l-20 -20h-164l-21 20v164l21 21h164l20 -21v-164zM799 1208l-21 -20h-164l-20 20v164l20 21h164l21 -21v-164zM717 369v61l-21 21q-61 20 -164 20q-266 0 -266 -164q0 -143 185 -143q123 0 195 56t71 149zM512 635q104 0 160 -17l24 -4l21 21v41q0 104 -47 144 t-158 40q-205 0 -205 -123l-20 -20h-164l-21 20q0 125 100 216t317 91q218 0 310 -106t93 -344v-574l-21 -20h-143l-21 20l-20 82h-21q-4 -4 -16 -23t-62 -45q-98 -54 -208 -54q-168 0 -258 86t-90 246t120 241q121 82 330 82z"/>
    <glyph glyph-name="aring" unicode="å" horiz-adv-x="1024" d="M594 1311q0 82 -82 82t-82 -82t82 -82t82 82zM717 1311q1 -78 -57 -131q-58 -54 -148 -54t-147 54t-58 131q-1 78 57 131t148 53t148 -53t57 -131zM717 369v61l-21 21q-61 20 -164 20q-266 0 -266 -164q0 -143 185 -143q123 0 195 56t71 149zM512 635q104 0 160 -17 l24 -4l21 21v41q0 104 -47 144t-158 40q-205 0 -205 -123l-20 -20h-164l-21 20q0 125 100 216t317 91q218 0 310 -106t93 -344v-574l-21 -20h-143l-21 20l-20 82h-21q-4 -4 -16 -23t-62 -45q-98 -54 -208 -54q-168 0 -258 86t-90 246t120 241q121 82 330 82z"/>
    <glyph glyph-name="ae" unicode="æ" horiz-adv-x="1699" d="M1188 -20q-225 0 -369 143h-20q-78 -78 -165 -111q-88 -32 -240 -32t-242 86t-90 246t120 241q121 82 330 82q104 0 160 -17l24 -4l21 21v20q0 119 -46 162t-159 43q-205 0 -205 -123l-20 -20h-164l-21 20q0 125 100 216t322 91q224 0 316 -122h20q92 122 316 122 t344 -150q119 -151 118 -382v-61l-20 -21h-676l-20 -20q0 -46 19 -94t46 -78t79 -52q52 -23 122 -22q156 0 205 123l20 20h164l20 -20q-17 -131 -125 -219t-284 -88zM1167 860q-200 0 -237 -179q-8 -34 -8 -67l20 -20h451l20 20q0 69 -38 145q-22 45 -76 73t-132 28z M717 369v61l-21 21q-61 20 -164 20q-266 0 -266 -164q0 -143 185 -143q123 0 195 56t71 149z"/>
    <glyph glyph-name="ccedilla" unicode="ç" horiz-adv-x="1064" d="M578 -123q46 0 82 -36q36 -35 36 -109t-56 -118t-132 -44t-116 17q-38 17 -85 65v20l21 21h20q37 -37 71 -39q33 -2 73 -2q102 0 102 82t-102 82q-41 0 -82 -21h-21l-20 21v20l123 123v21q-184 16 -308 151q-123 135 -123 381q-1 246 131 389t348 143t332 -99t132 -249 l-21 -20h-164l-20 20q-41 164 -246 164q-139 0 -213 -90t-74 -258t74 -258t213 -90q205 0 246 164l20 20h164l21 -20q-14 -150 -122 -241t-268 -107l-41 -21l-102 -102h21q40 20 86 20z"/>
    <glyph glyph-name="egrave" unicode="è" horiz-adv-x="1064" d="M676 1167l-21 -20h-102l-41 20l-225 205v41l20 21h144l41 -21l184 -205v-41zM553 -20q-238 0 -365 146t-127 382t119 386t352 150t353 -150q119 -151 119 -382v-61l-21 -21h-676l-20 -20q0 -46 19 -94t46 -78t79 -52q52 -23 122 -22q156 0 205 123l20 20h164l21 -20 q-16 -131 -125 -219t-285 -88zM532 860q-78 0 -132 -29t-76 -73q-38 -76 -37 -144l20 -20h451l20 20q0 69 -38 145q-22 45 -76 73t-132 28z"/>
    <glyph glyph-name="eacute" unicode="é" horiz-adv-x="1064" d="M778 1372l-225 -205l-41 -20h-102l-21 20v41l184 205l41 21h144l20 -21v-41zM553 -20q-238 0 -365 146t-127 382t119 386t352 150t353 -150q119 -151 119 -382v-61l-21 -21h-676l-20 -20q0 -46 19 -94t46 -78t79 -52q52 -23 122 -22q156 0 205 123l20 20h164l21 -20 q-16 -131 -125 -219t-285 -88zM532 860q-78 0 -132 -29t-76 -73q-38 -76 -37 -144l20 -20h451l20 20q0 69 -38 145q-22 45 -76 73t-132 28z"/>
    <glyph glyph-name="ecircumflex" unicode="ê" horiz-adv-x="1064" d="M860 1167l-20 -20h-103l-41 20l-143 123h-41l-143 -123l-41 -20h-103l-20 20v41l184 205l41 21h205l41 -21l184 -205v-41zM553 -20q-238 0 -365 146t-127 382t119 386t352 150t353 -150q119 -151 119 -382v-61l-21 -21h-676l-20 -20q0 -46 19 -94t46 -78t79 -52 q52 -23 122 -22q156 0 205 123l20 20h164l21 -20q-16 -131 -125 -219t-285 -88zM532 860q-78 0 -132 -29t-76 -73q-38 -76 -37 -144l20 -20h451l20 20q0 69 -38 145q-22 45 -76 73t-132 28z"/>
    <glyph glyph-name="edieresis" unicode="ë" horiz-adv-x="1064" d="M451 1208l-21 -20h-164l-20 20v164l20 21h164l21 -21v-164zM819 1208l-20 -20h-164l-21 20v164l21 21h164l20 -21v-164zM553 -20q-238 0 -365 146t-127 382t119 386t352 150t353 -150q119 -151 119 -382v-61l-21 -21h-676l-20 -20q0 -46 19 -94t46 -78t79 -52 q52 -23 122 -22q156 0 205 123l20 20h164l21 -20q-16 -131 -125 -219t-285 -88zM532 860q-78 0 -132 -29t-76 -73q-38 -76 -37 -144l20 -20h451l20 20q0 69 -38 145q-22 45 -76 73t-132 28z"/>
    <glyph glyph-name="igrave" unicode="ì" horiz-adv-x="450" d="M348 1167l-20 -20h-103l-41 20l-225 205v41l21 21h143l41 -21l184 -205v-41zM328 20l-21 -20h-164l-20 20v984l20 20h164l21 -20v-984z"/>
    <glyph glyph-name="iacute" unicode="í" horiz-adv-x="450" d="M492 1372l-226 -205l-41 -20h-102l-21 20v41l185 205l41 21h143l21 -21v-41zM328 20l-21 -20h-164l-20 20v984l20 20h164l21 -20v-984z"/>
    <glyph glyph-name="icircumflex" unicode="î" horiz-adv-x="450" d="M553 1167l-21 -20h-102l-41 20l-143 123h-41l-144 -123l-41 -20h-102l-20 20v41l184 205l41 21h205l41 -21l184 -205v-41zM328 20l-21 -20h-164l-20 20v984l20 20h164l21 -20v-984z"/>
    <glyph glyph-name="idieresis" unicode="ï" horiz-adv-x="450" d="M143 1208l-20 -20h-164l-20 20v164l20 21h164l20 -21v-164zM512 1208l-20 -20h-164l-21 20v164l21 21h164l20 -21v-164zM328 20l-21 -20h-164l-20 20v984l20 20h164l21 -20v-984z"/>
    <glyph glyph-name="eth" unicode="ð" horiz-adv-x="1064" d="M799 512q-1 348 -267 348t-266 -348t266 -348t267 348zM542 -20q-210 0 -346 135q-134 135 -134 388t124 397q125 144 326 144q62 0 114 -20t70 -41l21 -20h20q-29 141 -123 204h-20l-62 -61l-40 -21h-103l-20 21v61l61 62v20q-61 20 -143 21l-21 20v21l82 82l41 20 q102 0 164 -20h20l62 61l41 21h123l20 -21v-41l-82 -82v-20q147 -119 207 -306t60 -493q0 -256 -126 -394t-336 -138z"/>
    <glyph glyph-name="ntilde" unicode="ñ" horiz-adv-x="1105" d="M799 614q0 246 -205 246q-138 0 -202 -82t-64 -266v-492l-21 -20h-164l-20 20v984l20 20h144l20 -20l21 -82h20q4 4 16 22t59 46q92 54 191 54q205 0 297 -116t93 -314v-594l-21 -20h-164l-20 20v594zM712 1126q-86 0 -140 36t-92 72t-70 36q-82 0 -82 -103l-21 -20h-61 l-21 20q0 97 51 161q52 64 138 64t140 -35q54 -36 92 -72t71 -36q82 0 82 103l20 20h62l20 -20q1 -98 -51 -162t-138 -64z"/>
    <glyph glyph-name="ograve" unicode="ò" horiz-adv-x="1105" d="M696 1167l-20 -20h-103l-41 20l-225 205v41l21 21h143l41 -21l184 -205v-41zM266 512q0 -168 74 -258t213 -90t213 90t74 258t-74 258t-213 90t-213 -90t-74 -258zM61 512q-1 246 131 389t361 143t360 -143t131 -389t-131 -389t-360 -143t-361 143t-131 389z"/>
    <glyph glyph-name="oacute" unicode="ó" horiz-adv-x="1105" d="M799 1372l-226 -205l-41 -20h-102l-20 20v41l184 205l41 21h143l21 -21v-41zM266 512q0 -168 74 -258t213 -90t213 90t74 258t-74 258t-213 90t-213 -90t-74 -258zM61 512q-1 246 131 389t361 143t360 -143t131 -389t-131 -389t-360 -143t-361 143t-131 389z"/>
    <glyph glyph-name="ocircumflex" unicode="ô" horiz-adv-x="1105" d="M881 1167l-21 -20h-102l-41 20l-144 123h-41l-143 -123l-41 -20h-102l-21 20v41l185 205l41 21h204l41 -21l185 -205v-41zM266 512q0 -168 74 -258t213 -90t213 90t74 258t-74 258t-213 90t-213 -90t-74 -258zM61 512q-1 246 131 389t361 143t360 -143t131 -389 t-131 -389t-360 -143t-361 143t-131 389z"/>
    <glyph glyph-name="otilde" unicode="õ" horiz-adv-x="1105" d="M712 1126q-86 0 -140 36t-92 72t-70 36q-82 0 -82 -103l-21 -20h-61l-21 20q0 97 51 161q52 64 138 64t140 -35q54 -36 92 -72t71 -36q82 0 82 103l20 20h62l20 -20q1 -98 -51 -162t-138 -64zM266 512q0 -168 74 -258t213 -90t213 90t74 258t-74 258t-213 90t-213 -90 t-74 -258zM61 512q-1 246 131 389t361 143t360 -143t131 -389t-131 -389t-360 -143t-361 143t-131 389z"/>
    <glyph glyph-name="odieresis" unicode="ö" horiz-adv-x="1105" d="M471 1208l-20 -20h-164l-21 20v164l21 21h164l20 -21v-164zM840 1208l-21 -20h-164l-20 20v164l20 21h164l21 -21v-164zM266 512q0 -168 74 -258t213 -90t213 90t74 258t-74 258t-213 90t-213 -90t-74 -258zM61 512q-1 246 131 389t361 143t360 -143t131 -389t-131 -389 t-360 -143t-361 143t-131 389z"/>
    <glyph glyph-name="divide" unicode="÷" horiz-adv-x="1228" d="M737 799l-20 -21h-205l-20 21v205l20 20h205l20 -20v-205zM737 41l-20 -21h-205l-20 21v205l20 20h205l20 -20v-205zM1106 451l-21 -21h-942l-20 21v143l20 20h942l21 -20v-143z"/>
    <glyph glyph-name="oslash" unicode="ø" horiz-adv-x="1105" d="M561 164q131 0 205 90t74 246t-21 196h-20l-430 -430v-41q61 -61 192 -61zM565 -20q-217 0 -340 122h-20l-62 -61l-41 -21h-20l-21 21v41l82 82v20q-82 122 -82 348q-1 226 131 369t349 143t340 -122h20l62 61l41 21h20l20 -21v-41l-81 -82v-20q82 -123 81 -328 q0 -246 -131 -389t-348 -143zM545 860q-131 0 -205 -90t-74 -246t21 -196h20l430 430v41q-61 61 -192 61z"/>
    <glyph glyph-name="ugrave" unicode="ù" horiz-adv-x="1085" d="M655 1167l-20 -20h-103l-40 20l-226 205v41l21 21h143l41 -21l184 -205v-41zM492 -20q-201 0 -295 122t-95 308v594l21 20h164l20 -20v-594q0 -246 205 -246q114 0 180 86t66 262v492l20 20h164l21 -20v-984l-21 -20h-143l-21 20l-20 82h-21q-4 -4 -10 -13 q-40 -60 -147 -96q-43 -13 -88 -13z"/>
    <glyph glyph-name="uacute" unicode="ú" horiz-adv-x="1085" d="M799 1372l-226 -205l-41 -20h-102l-20 20v41l184 205l41 21h143l21 -21v-41zM492 -20q-201 0 -295 122t-95 308v594l21 20h164l20 -20v-594q0 -246 205 -246q114 0 180 86t66 262v492l20 20h164l21 -20v-984l-21 -20h-143l-21 20l-20 82h-21q-4 -4 -10 -13 q-40 -60 -147 -96q-43 -13 -88 -13z"/>
    <glyph glyph-name="ucircumflex" unicode="û" horiz-adv-x="1085" d="M860 1167l-20 -20h-103l-41 20l-143 123h-41l-143 -123l-41 -20h-103l-20 20v41l184 205l41 21h205l41 -21l184 -205v-41zM492 -20q-201 0 -295 122t-95 308v594l21 20h164l20 -20v-594q0 -246 205 -246q114 0 180 86t66 262v492l20 20h164l21 -20v-984l-21 -20h-143 l-21 20l-20 82h-21q-4 -4 -10 -13q-40 -60 -147 -96q-43 -13 -88 -13z"/>
    <glyph glyph-name="udieresis" unicode="ü" horiz-adv-x="1085" d="M451 1208l-21 -20h-164l-20 20v164l20 21h164l21 -21v-164zM819 1208l-20 -20h-164l-21 20v164l21 21h164l20 -21v-164zM492 -20q-201 0 -295 122t-95 308v594l21 20h164l20 -20v-594q0 -246 205 -246q114 0 180 86t66 262v492l20 20h164l21 -20v-984l-21 -20h-143 l-21 20l-20 82h-21q-4 -4 -10 -13q-40 -60 -147 -96q-43 -13 -88 -13z"/>
    <glyph glyph-name="yacute" unicode="ý" horiz-adv-x="1044" d="M778 1372l-225 -205l-41 -20h-102l-21 20v41l184 205l41 21h144l20 -21v-41zM205 -328h-41l-21 21v143l21 21h41q82 1 129 25t76 98v20l-349 860v144l21 20h123l20 -20l287 -758h20l287 758l21 20h123l20 -20v-144l-328 -819q-92 -229 -178 -299t-272 -70z"/>
    <glyph glyph-name="thorn" unicode="þ" horiz-adv-x="1126" d="M840 512q0 348 -246 348q-266 0 -266 -348t266 -348q246 0 246 348zM1044 512q0 -238 -108 -385t-301 -147q-90 0 -162 30t-98 62l-27 30h-20v-491l-21 -21h-164l-20 21v1802l20 21h164l21 -21v-491h20q4 4 16 23t62 45q98 54 209 54q195 0 302 -147t107 -385z"/>
    <glyph glyph-name="ydieresis" unicode="ÿ" horiz-adv-x="1044" d="M205 -328h-41l-21 21v143l21 21h41q82 1 129 25t76 98v20l-349 860v144l21 20h123l20 -20l287 -758h20l287 758l21 20h123l20 -20v-144l-328 -819q-92 -229 -178 -299t-272 -70zM430 1208l-20 -20h-164l-21 20v164l21 21h164l20 -21v-164zM819 1208l-20 -20h-164l-21 20 v164l21 21h164l20 -21v-164z"/>
    <glyph glyph-name="Amacron" unicode="Ā" horiz-adv-x="1290" d="M881 553l-226 573h-20l-225 -573l20 -21h430zM1249 20l-20 -20h-123l-21 20l-122 308l-41 20h-553l-41 -20l-123 -308l-21 -20h-123l-20 20v144l491 1249l21 21h184l21 -21l491 -1249v-144zM983 1618l-20 -21h-635l-21 21v123l21 20h635l20 -20v-123z"/>
    <glyph glyph-name="amacron" unicode="ā" horiz-adv-x="1024" d="M840 1208l-21 -20h-614l-21 20v123l21 21h614l21 -21v-123zM717 369v61l-21 21q-61 20 -164 20q-266 0 -266 -164q0 -143 185 -143q123 0 195 56t71 149zM512 635q104 0 160 -17l24 -4l21 21v41q0 104 -47 144t-158 40q-205 0 -205 -123l-20 -20h-164l-21 20 q0 125 100 216t317 91q218 0 310 -106t93 -344v-574l-21 -20h-143l-21 20l-20 82h-21q-4 -4 -16 -23t-62 -45q-98 -54 -208 -54q-168 0 -258 86t-90 246t120 241q121 82 330 82z"/>
    <glyph glyph-name="Abreve" unicode="Ă" horiz-adv-x="1290" d="M881 553l-226 573h-20l-225 -573l20 -21h430zM1249 20l-20 -20h-123l-21 20l-122 308l-41 20h-553l-41 -20l-123 -308l-21 -20h-123l-20 20v144l491 1249l21 21h184l21 -21l491 -1249v-144zM655 1536h-20q-125 0 -206 73t-81 193l21 21h102l21 -21q0 -59 40 -91t103 -32 h20q63 0 104 32q40 32 40 91l20 21h103l20 -21q0 -122 -81 -194t-206 -72z"/>
    <glyph glyph-name="abreve" unicode="ă" horiz-adv-x="1024" d="M512 1270q63 0 103 32t40 91l21 20h102l21 -20q0 -121 -81 -194t-206 -73t-206 73t-81 194l21 20h102l21 -20q0 -59 40 -91t103 -32zM717 369v61l-21 21q-61 20 -164 20q-266 0 -266 -164q0 -143 185 -143q123 0 195 56t71 149zM512 635q104 0 160 -17l24 -4l21 21v41 q0 104 -47 144t-158 40q-205 0 -205 -123l-20 -20h-164l-21 20q0 125 100 216t317 91q218 0 310 -106t93 -344v-574l-21 -20h-143l-21 20l-20 82h-21q-4 -4 -16 -23t-62 -45q-98 -54 -208 -54q-168 0 -258 86t-90 246t120 241q121 82 330 82z"/>
    <glyph glyph-name="Aogonek" unicode="Ą" horiz-adv-x="1290" d="M881 553l-226 573h-20l-225 -573l20 -21h430zM1080 -410q-88 0 -154 58t-66 146q0 90 64 150t161 76l-122 308l-41 20h-553l-41 -20l-123 -308l-21 -20h-123l-20 20v144l491 1249l21 21h184l21 -21l491 -1249v-144l-20 -20q-93 -16 -149 -59t-56 -97t29 -82 q50 -50 176 -8l20 -20v-82l-20 -21q-61 -41 -149 -41z"/>
    <glyph glyph-name="aogonek" unicode="ą" horiz-adv-x="1024" d="M717 369v61l-21 21q-61 20 -164 20q-266 0 -266 -164q0 -143 185 -143q123 0 195 56t71 149zM752 -410q-88 0 -154 58t-66 147q0 184 205 225l-20 82h-21q-4 -4 -16 -23t-62 -45q-98 -54 -208 -54q-168 0 -258 86t-90 246t120 241q121 82 330 82q104 0 160 -17l24 -4 l21 21v41q0 104 -47 144t-158 40q-205 0 -205 -123l-20 -20h-164l-21 20q0 125 100 216t317 91q218 0 310 -106t93 -344v-574l-21 -20q-94 -16 -149 -59q-56 -43 -56 -97t29 -82q50 -50 176 -8l21 -20v-82l-21 -21q-61 -41 -149 -41z"/>
    <glyph glyph-name="Cacute" unicode="Ć" horiz-adv-x="1413" d="M758 -20q-315 0 -496 203q-180 204 -180 534q0 329 180 533t496 204q238 0 390 -120t183 -310l-20 -20h-164l-21 20q-33 114 -127 180t-241 66q-225 0 -348 -151t-123 -403t123 -402q123 -151 348 -150q293 0 368 266l21 21h164l20 -21q-33 -198 -179 -324t-394 -126z M983 1782l-225 -205l-41 -21h-103l-20 21v41l184 205l41 20h144l20 -20v-41z"/>
    <glyph glyph-name="cacute" unicode="ć" horiz-adv-x="1064" d="M799 1372l-226 -205l-41 -20h-102l-20 20v41l184 205l41 21h143l21 -21v-41zM266 512q0 -168 74 -258t213 -90q205 0 246 164l20 20h164l21 -20q-16 -150 -132 -249t-332 -99t-347 143t-132 389t131 389t348 143t332 -99t132 -249l-21 -20h-164l-20 20q-41 164 -246 164 q-139 0 -213 -90t-74 -258z"/>
    <glyph glyph-name="Ccircumflex" unicode="Ĉ" horiz-adv-x="1413" d="M758 -20q-315 0 -496 203q-180 204 -180 534q0 329 180 533t496 204q238 0 390 -120t183 -310l-20 -20h-164l-21 20q-33 114 -127 180t-241 66q-225 0 -348 -151t-123 -403t123 -402q123 -151 348 -150q293 0 368 266l21 21h164l20 -21q-33 -198 -179 -324t-394 -126z M1085 1577l-20 -21h-102l-41 21l-144 123h-41l-143 -123l-41 -21h-102l-21 21v41l184 205l41 20h205l41 -20l184 -205v-41z"/>
    <glyph glyph-name="ccircumflex" unicode="ĉ" horiz-adv-x="1064" d="M881 1167l-21 -20h-102l-41 20l-144 123h-41l-143 -123l-41 -20h-102l-21 20v41l185 205l41 21h204l41 -21l185 -205v-41zM266 512q0 -168 74 -258t213 -90q205 0 246 164l20 20h164l21 -20q-16 -150 -132 -249t-332 -99t-347 143t-132 389t131 389t348 143t332 -99 t132 -249l-21 -20h-164l-20 20q-41 164 -246 164q-139 0 -213 -90t-74 -258z"/>
    <glyph glyph-name="Cdotaccent" unicode="Ċ" horiz-adv-x="1413" d="M860 1618l-20 -21h-164l-21 21v164l21 20h164l20 -20v-164zM758 -20q-315 0 -496 203q-180 204 -180 534q0 329 180 533t496 204q238 0 390 -120t183 -310l-20 -20h-164l-21 20q-33 114 -127 180t-241 66q-225 0 -348 -151t-123 -403t123 -402q123 -151 348 -150 q293 0 368 266l21 21h164l20 -21q-33 -198 -179 -324t-394 -126z"/>
    <glyph glyph-name="cdotaccent" unicode="ċ" horiz-adv-x="1064" d="M655 1208l-20 -20h-164l-20 20v164l20 21h164l20 -21v-164zM266 512q0 -168 74 -258t213 -90q205 0 246 164l20 20h164l21 -20q-16 -150 -132 -249t-332 -99t-347 143t-132 389t131 389t348 143t332 -99t132 -249l-21 -20h-164l-20 20q-41 164 -246 164q-139 0 -213 -90 t-74 -258z"/>
    <glyph glyph-name="Ccaron" unicode="Č" horiz-adv-x="1413" d="M758 -20q-315 0 -496 203q-180 204 -180 534q0 329 180 533t496 204q238 0 390 -120t183 -310l-20 -20h-164l-21 20q-33 114 -127 180t-241 66q-225 0 -348 -151t-123 -403t123 -402q123 -151 348 -150q293 0 368 266l21 21h164l20 -21q-33 -198 -179 -324t-394 -126z M430 1823l21 20h102l41 -20l143 -123h41l144 123l41 20h102l20 -20v-41l-184 -205l-41 -21h-205l-41 21l-184 205v41z"/>
    <glyph glyph-name="ccaron" unicode="č" horiz-adv-x="1064" d="M225 1413l21 21h102l41 -21l143 -123h41l144 123l41 21h102l21 -21v-41l-185 -205l-41 -20h-204l-41 20l-185 205v41zM266 512q0 -168 74 -258t213 -90q205 0 246 164l20 20h164l21 -20q-16 -150 -132 -249t-332 -99t-347 143t-132 389t131 389t348 143t332 -99t132 -249 l-21 -20h-164l-20 20q-41 164 -246 164q-139 0 -213 -90t-74 -258z"/>
    <glyph glyph-name="Dcaron" unicode="Ď" horiz-adv-x="1372" d="M328 1823l20 20h103l41 -20l143 -123h41l143 123l41 20h103l20 -20v-41l-184 -205l-41 -21h-205l-41 21l-184 205v41zM1085 717q0 276 -106 404t-385 128h-205l-20 -20v-1024l20 -21h205q279 0 385 128t106 405zM1290 717q0 -346 -155 -532q-156 -185 -521 -185h-430 l-20 20v1393l20 21h430q364 0 520 -186t156 -531z"/>
    <glyph glyph-name="dcaron" unicode="ď" horiz-adv-x="1310" d="M1106 983v21l102 163v21l-20 20h-41l-21 21v184l21 21h143l21 -21v-205l-21 -61l-102 -143l-21 -21h-61zM799 512q0 348 -267 348q-126 0 -196 -90t-70 -258t71 -258t195 -90q267 0 267 348zM61 512q0 236 120 384t331 148q82 0 148 -30t94 -62l24 -30h21v491l20 21h164 l21 -21v-1393l-21 -20h-143l-21 20l-20 82h-21q-4 -4 -16 -22t-59 -46q-92 -54 -191 -54q-211 0 -331 148t-120 384z"/>
    <glyph glyph-name="Dcroat" unicode="Đ" horiz-adv-x="1372" d="M1085 717q0 276 -106 404t-385 128h-205l-20 -20v-389l20 -21h307l21 -20v-144l-21 -20h-307l-20 -21v-409l20 -21h205q279 0 385 128t106 405zM614 1434q365 0 521 -186q155 -186 155 -531q0 -346 -155 -532q-156 -185 -521 -185h-430l-20 20v594l-21 21h-123l-20 20 v144l20 20h123l21 21v573l20 21h430z"/>
    <glyph glyph-name="dcroat" unicode="đ" horiz-adv-x="1126" d="M799 512q0 348 -267 348q-126 0 -196 -90t-70 -258t71 -258t195 -90q267 0 267 348zM61 512q0 236 120 384t331 148q82 0 148 -30t94 -62l24 -30h21v184l-21 20h-205l-20 21v123l20 20h205l21 21v102l20 21h164l21 -21v-102l20 -21h102l21 -20v-123l-21 -21h-102l-20 -20 v-1086l-21 -20h-143l-21 20l-20 82h-21q-4 -4 -16 -22t-59 -46q-92 -54 -191 -54q-211 0 -331 148t-120 384z"/>
    <glyph glyph-name="Emacron" unicode="Ē" horiz-adv-x="1249" d="M983 1618l-20 -21h-615l-20 21v123l20 20h615l20 -20v-123zM1126 20l-20 -20h-922l-20 20v1393l20 21h922l20 -21v-143l-20 -21h-717l-20 -20v-389l20 -21h676l20 -20v-144l-20 -20h-676l-20 -21v-409l20 -21h717l20 -20v-144z"/>
    <glyph glyph-name="emacron" unicode="ē" horiz-adv-x="1064" d="M860 1208l-20 -20h-615l-20 20v123l20 21h615l20 -21v-123zM553 -20q-238 0 -365 146t-127 382t119 386t352 150t353 -150q119 -151 119 -382v-61l-21 -21h-676l-20 -20q0 -46 19 -94t46 -78t79 -52q52 -23 122 -22q156 0 205 123l20 20h164l21 -20q-16 -131 -125 -219 t-285 -88zM532 860q-78 0 -132 -29t-76 -73q-38 -76 -37 -144l20 -20h451l20 20q0 69 -38 145q-22 45 -76 73t-132 28z"/>
    <glyph glyph-name="Ebreve" unicode="Ĕ" horiz-adv-x="1249" d="M655 1679q63 0 104 32q40 32 40 91l20 21h103l20 -21q0 -122 -81 -194t-206 -72t-205 73t-81 193l20 21h103l20 -21q0 -59 40 -91t103 -32zM1126 20l-20 -20h-922l-20 20v1393l20 21h922l20 -21v-143l-20 -21h-717l-20 -20v-389l20 -21h676l20 -20v-144l-20 -20h-676 l-20 -21v-409l20 -21h717l20 -20v-144z"/>
    <glyph glyph-name="ebreve" unicode="ĕ" horiz-adv-x="1064" d="M532 1270q63 0 104 32q40 32 40 91l20 20h103l20 -20q0 -121 -81 -194t-206 -73q-126 0 -206 73t-80 194l20 20h103l20 -20q0 -59 40 -91t103 -32zM553 -20q-238 0 -365 146t-127 382t119 386t352 150t353 -150q119 -151 119 -382v-61l-21 -21h-676l-20 -20q0 -46 19 -94 t46 -78t79 -52q52 -23 122 -22q156 0 205 123l20 20h164l21 -20q-16 -131 -125 -219t-285 -88zM532 860q-78 0 -132 -29t-76 -73q-38 -76 -37 -144l20 -20h451l20 20q0 69 -38 145q-22 45 -76 73t-132 28z"/>
    <glyph glyph-name="Edotaccent" unicode="Ė" horiz-adv-x="1249" d="M758 1618l-21 -21h-164l-20 21v164l20 20h164l21 -20v-164zM1126 20l-20 -20h-922l-20 20v1393l20 21h922l20 -21v-143l-20 -21h-717l-20 -20v-389l20 -21h676l20 -20v-144l-20 -20h-676l-20 -21v-409l20 -21h717l20 -20v-144z"/>
    <glyph glyph-name="edotaccent" unicode="ė" horiz-adv-x="1064" d="M635 1208l-21 -20h-163l-21 20v164l21 21h163l21 -21v-164zM553 -20q-238 0 -365 146t-127 382t119 386t352 150t353 -150q119 -151 119 -382v-61l-21 -21h-676l-20 -20q0 -46 19 -94t46 -78t79 -52q52 -23 122 -22q156 0 205 123l20 20h164l21 -20q-16 -131 -125 -219 t-285 -88zM532 860q-78 0 -132 -29t-76 -73q-38 -76 -37 -144l20 -20h451l20 20q0 69 -38 145q-22 45 -76 73t-132 28z"/>
    <glyph glyph-name="Eogonek" unicode="Ę" horiz-adv-x="1249" d="M936 -410q-88 0 -154 58t-65 147q0 124 123 185v20h-656l-20 20v1393l20 21h922l20 -21v-143l-20 -21h-717l-20 -20v-389l20 -21h676l20 -20v-144l-20 -20h-676l-20 -21v-409l20 -21h717l20 -20v-144l-20 -20q-106 -14 -166 -58t-59 -98q0 -54 28 -82q50 -50 176 -8 l21 -20v-82l-21 -21q-61 -41 -149 -41z"/>
    <glyph glyph-name="eogonek" unicode="ę" horiz-adv-x="1064" d="M532 860q-78 0 -132 -29t-76 -73q-38 -76 -37 -144l20 -20h451l20 20q0 69 -38 145q-22 45 -76 73t-132 28zM629 -410q-88 0 -154 58t-65 147q0 113 102 164v21q-213 14 -332 156t-119 374t119 384q119 150 352 150t353 -150q119 -151 119 -382v-61l-21 -21h-676l-20 -20 q0 -46 19 -94t46 -78t79 -52q52 -23 122 -22q156 0 205 123l20 20h164l21 -20q-13 -83 -57 -145t-99 -95t-109 -61q-126 -65 -125 -150q0 -45 29 -74q50 -50 176 -8l21 -20v-82l-21 -21q-61 -41 -149 -41z"/>
    <glyph glyph-name="Ecaron" unicode="Ě" horiz-adv-x="1249" d="M328 1823l20 20h103l41 -20l143 -123h41l143 123l41 20h103l20 -20v-41l-184 -205l-41 -21h-205l-41 21l-184 205v41zM1126 20l-20 -20h-922l-20 20v1393l20 21h922l20 -21v-143l-20 -21h-717l-20 -20v-389l20 -21h676l20 -20v-144l-20 -20h-676l-20 -21v-409l20 -21h717 l20 -20v-144z"/>
    <glyph glyph-name="ecaron" unicode="ě" horiz-adv-x="1064" d="M205 1413l20 21h103l41 -21l143 -123h41l143 123l41 21h103l20 -21v-41l-184 -205l-41 -20h-205l-41 20l-184 205v41zM553 -20q-238 0 -365 146t-127 382t119 386t352 150t353 -150q119 -151 119 -382v-61l-21 -21h-676l-20 -20q0 -46 19 -94t46 -78t79 -52 q52 -23 122 -22q156 0 205 123l20 20h164l21 -20q-16 -131 -125 -219t-285 -88zM532 860q-78 0 -132 -29t-76 -73q-38 -76 -37 -144l20 -20h451l20 20q0 69 -38 145q-22 45 -76 73t-132 28z"/>
    <glyph glyph-name="Gcircumflex" unicode="Ĝ" horiz-adv-x="1474" d="M1065 1577l-21 -21h-102l-41 21l-143 123h-41l-144 -123l-41 -21h-102l-20 21v41l184 205l41 20h205l41 -20l184 -205v-41zM758 1270q-225 0 -348 -151t-123 -401t120 -403q121 -151 333 -151t310 109q97 110 97 280l-21 20h-409l-21 21v143l21 21h614l21 -21v-717 l-21 -20h-123l-20 20l-21 123h-20q-164 -164 -410 -163q-303 0 -479 204t-176 534q0 328 180 532t496 204q139 0 250 -38q196 -67 287 -237q40 -73 57 -155l-21 -20h-164l-20 20q-33 114 -130 180t-259 66z"/>
    <glyph glyph-name="gcircumflex" unicode="ĝ" horiz-adv-x="1126" d="M881 1167l-21 -20h-102l-41 20l-144 123h-41l-143 -123l-41 -20h-102l-21 20v41l185 205l41 21h204l41 -21l185 -205v-41zM799 512q0 348 -267 348q-126 0 -196 -90t-70 -258t71 -258t195 -90q267 0 267 348zM532 -246q266 0 267 348h-21q-4 -4 -16 -22t-59 -46 q-92 -54 -191 -54q-211 0 -331 148t-120 384t120 384t331 148q82 0 148 -30t94 -62l24 -30h21l20 82l21 20h143l21 -20v-881q0 -287 -134 -420t-324 -133q-192 0 -300 80t-123 207l20 20h164l21 -20q30 -59 76 -81t128 -22z"/>
    <glyph glyph-name="Gbreve" unicode="Ğ" horiz-adv-x="1474" d="M737 1679q63 0 104 32q40 32 40 91l20 21h103l20 -21q0 -122 -81 -194t-206 -72t-206 73t-80 193l20 21h102l21 -21q0 -59 40 -91t103 -32zM758 1270q-225 0 -348 -151t-123 -401t120 -403q121 -151 333 -151t310 109q97 110 97 280l-21 20h-409l-21 21v143l21 21h614 l21 -21v-717l-21 -20h-123l-20 20l-21 123h-20q-164 -164 -410 -163q-303 0 -479 204t-176 534q0 328 180 532t496 204q139 0 250 -38q196 -67 287 -237q40 -73 57 -155l-21 -20h-164l-20 20q-33 114 -130 180t-259 66z"/>
    <glyph glyph-name="gbreve" unicode="ğ" horiz-adv-x="1126" d="M532 1270q63 0 104 32q40 32 40 91l20 20h103l20 -20q0 -121 -81 -194t-206 -73q-126 0 -206 73t-80 194l20 20h103l20 -20q0 -59 40 -91t103 -32zM799 512q0 348 -267 348q-126 0 -196 -90t-70 -258t71 -258t195 -90q267 0 267 348zM532 -246q266 0 267 348h-21 q-4 -4 -16 -22t-59 -46q-92 -54 -191 -54q-211 0 -331 148t-120 384t120 384t331 148q82 0 148 -30t94 -62l24 -30h21l20 82l21 20h143l21 -20v-881q0 -287 -134 -420t-324 -133q-192 0 -300 80t-123 207l20 20h164l21 -20q30 -59 76 -81t128 -22z"/>
    <glyph glyph-name="Gdotaccent" unicode="Ġ" horiz-adv-x="1474" d="M840 1618l-21 -21h-164l-20 21v164l20 20h164l21 -20v-164zM758 1270q-225 0 -348 -151t-123 -401t120 -403q121 -151 333 -151t310 109q97 110 97 280l-21 20h-409l-21 21v143l21 21h614l21 -21v-717l-21 -20h-123l-20 20l-21 123h-20q-164 -164 -410 -163 q-303 0 -479 204t-176 534q0 328 180 532t496 204q139 0 250 -38q196 -67 287 -237q40 -73 57 -155l-21 -20h-164l-20 20q-33 114 -130 180t-259 66z"/>
    <glyph glyph-name="gdotaccent" unicode="ġ" horiz-adv-x="1126" d="M635 1208l-21 -20h-163l-21 20v164l21 21h163l21 -21v-164zM799 512q0 348 -267 348q-126 0 -196 -90t-70 -258t71 -258t195 -90q267 0 267 348zM532 -246q266 0 267 348h-21q-4 -4 -16 -22t-59 -46q-92 -54 -191 -54q-211 0 -331 148t-120 384t120 384t331 148 q82 0 148 -30t94 -62l24 -30h21l20 82l21 20h143l21 -20v-881q0 -287 -134 -420t-324 -133q-192 0 -300 80t-123 207l20 20h164l21 -20q30 -59 76 -81t128 -22z"/>
    <glyph glyph-name="Gcommaaccent" unicode="Ģ" horiz-adv-x="1474" d="M635 -451v21l82 123v20l-21 21h-41l-20 20v144l20 20h164l21 -20v-164l-21 -62l-102 -102l-41 -21h-41zM758 1270q-225 0 -348 -151t-123 -401t120 -403q121 -151 333 -151t310 109q97 110 97 280l-21 20h-409l-21 21v143l21 21h614l21 -21v-717l-21 -20h-123l-20 20 l-21 123h-20q-164 -164 -410 -163q-303 0 -479 204t-176 534q0 328 180 532t496 204q139 0 250 -38q196 -67 287 -237q40 -73 57 -155l-21 -20h-164l-20 20q-33 114 -130 180t-259 66z"/>
    <glyph glyph-name="gcommaaccent" unicode="ģ" horiz-adv-x="1126" d="M635 1556v-20l-82 -123v-20l20 -21h41l21 -20v-144l-21 -20h-163l-21 20v164l21 62l102 102l41 20h41zM799 512q0 348 -267 348q-126 0 -196 -90t-70 -258t71 -258t195 -90q267 0 267 348zM532 -246q266 0 267 348h-21q-4 -4 -16 -22t-59 -46q-92 -54 -191 -54 q-211 0 -331 148t-120 384t120 384t331 148q82 0 148 -30t94 -62l24 -30h21l20 82l21 20h143l21 -20v-881q0 -287 -134 -420t-324 -133q-192 0 -300 80t-123 207l20 20h164l21 -20q30 -59 76 -81t128 -22z"/>
    <glyph glyph-name="Hcircumflex" unicode="Ĥ" horiz-adv-x="1454" d="M1290 20l-20 -20h-164l-21 20v594l-20 21h-676l-20 -21v-594l-21 -20h-164l-20 20v1393l20 21h164l21 -21v-573l20 -21h676l20 21v573l21 21h164l20 -21v-1393zM1044 1577l-20 -21h-102l-41 21l-144 123h-20l-144 -123l-41 -21h-102l-20 21v41l184 205l41 20h184l41 -20 l184 -205v-41z"/>
    <glyph glyph-name="hcircumflex" unicode="ĥ" horiz-adv-x="1126" d="M553 1495l-21 -20h-102l-41 20l-143 123h-41l-144 -123l-41 -20h-102l-20 20v41l184 205l41 20h205l41 -20l184 -205v-41zM799 614q0 246 -205 246q-131 0 -199 -76t-67 -252v-512l-21 -20h-164l-20 20v1393l20 21h164l21 -21v-491h20q4 4 16 22t59 46q92 54 191 54 q389 0 390 -430v-594l-21 -20h-164l-20 20v594z"/>
    <glyph glyph-name="Hbar" unicode="Ħ" horiz-adv-x="1454" d="M1065 819l20 21v184l-20 20h-676l-20 -20v-184l20 -21h676zM1290 20l-20 -20h-164l-21 20v594l-20 21h-676l-20 -21v-594l-21 -20h-164l-20 20v1004l-21 20h-123l-20 21v123l20 20h123l21 21v184l20 21h164l21 -21v-184l20 -21h676l20 21v184l21 21h164l20 -21v-184 l21 -21h123l20 -20v-123l-20 -21h-123l-21 -20v-1004z"/>
    <glyph glyph-name="hbar" unicode="ħ" horiz-adv-x="1126" d="M328 922h20q4 4 16 22t59 46q92 54 191 54q389 0 390 -430v-594l-21 -20h-164l-20 20v594q0 246 -205 246q-131 0 -199 -76t-67 -252v-512l-21 -20h-164l-20 20v1065l-21 21h-102l-20 20v123l20 21h102l21 20v123l20 21h164l21 -21v-123l20 -20h287l20 -21v-123l-20 -20 h-287l-20 -21v-163z"/>
    <glyph glyph-name="Itilde" unicode="Ĩ" horiz-adv-x="532" d="M426 1536q-86 0 -140 36t-92 72t-71 35q-82 0 -82 -102l-21 -21h-61l-20 21q0 97 51 161t137 64t140 -36t92 -72t71 -35q82 0 82 102l20 21h62l20 -21q0 -97 -51 -161t-137 -64zM369 20l-21 -20h-164l-20 20v1393l20 21h164l21 -21v-1393z"/>
    <glyph glyph-name="itilde" unicode="ĩ" horiz-adv-x="450" d="M385 1126q-86 0 -140 36t-92 72t-71 36q-82 0 -82 -103l-20 -20h-62l-20 20q0 97 51 161t137 64t140 -35q54 -36 92 -72t71 -36q82 0 82 103l21 20h61l20 -20q0 -98 -51 -162t-137 -64zM328 20l-21 -20h-164l-20 20v984l20 20h164l21 -20v-984z"/>
    <glyph glyph-name="Imacron" unicode="Ī" horiz-adv-x="532" d="M594 1618l-21 -21h-614l-20 21v123l20 20h614l21 -20v-123zM369 20l-21 -20h-164l-20 20v1393l20 21h164l21 -21v-1393z"/>
    <glyph glyph-name="imacron" unicode="ī" horiz-adv-x="450" d="M553 1208l-21 -20h-614l-20 20v123l20 21h614l21 -21v-123zM328 20l-21 -20h-164l-20 20v984l20 20h164l21 -20v-984z"/>
    <glyph glyph-name="Ibreve" unicode="Ĭ" horiz-adv-x="532" d="M266 1679q63 0 104 32q40 32 40 91l20 21h102l21 -21q0 -122 -81 -194t-206 -72t-206 73t-80 193l20 21h102l21 -21q0 -59 40 -91t103 -32zM369 20l-21 -20h-164l-20 20v1393l20 21h164l21 -21v-1393z"/>
    <glyph glyph-name="ibreve" unicode="ĭ" horiz-adv-x="450" d="M225 1270q63 0 104 32q40 32 40 91l20 20h103l20 -20q0 -121 -81 -194t-206 -73t-206 73t-80 194l20 20h102l21 -20q0 -59 40 -91t103 -32zM328 20l-21 -20h-164l-20 20v984l20 20h164l21 -20v-984z"/>
    <glyph glyph-name="Iogonek" unicode="Į" horiz-adv-x="532" d="M199 -410q-88 0 -154 58q-65 58 -65 151q0 95 54 149t130 72v1393l20 21h164l21 -21v-1393l-21 -20q-94 -16 -149 -59t-55 -97t28 -82q50 -50 176 -8l21 -20v-82l-21 -21q-61 -41 -149 -41z"/>
    <glyph glyph-name="iogonek" unicode="į" horiz-adv-x="450" d="M158 -410q-88 0 -154 58t-66 151q0 95 55 149q54 54 130 72v984l20 20h164l21 -20v-984l-21 -20q-94 -16 -149 -59q-56 -43 -56 -97t29 -82q50 -50 176 -8l21 -20v-82l-21 -21q-61 -41 -149 -41zM328 1208l-21 -20h-164l-20 20v164l20 21h164l21 -21v-164z"/>
    <glyph glyph-name="Idotaccent" unicode="İ" horiz-adv-x="532" d="M369 1618l-21 -21h-164l-20 21v164l20 20h164l21 -20v-164zM369 20l-21 -20h-164l-20 20v1393l20 21h164l21 -21v-1393z"/>
    <glyph glyph-name="dotlessi" unicode="ı" horiz-adv-x="450" d="M328 20l-21 -20h-164l-20 20v984l20 20h164l21 -20v-984z"/>
    <glyph glyph-name="IJ" unicode="Ĳ" horiz-adv-x="1269" d="M676 184q225 0 225 226v1003l21 21h163l21 -21v-1003q0 -182 -106 -296t-324 -114h-123l-21 20v144l21 20h123zM369 20l-21 -20h-164l-20 20v1393l20 21h164l21 -21v-1393z"/>
    <glyph glyph-name="ij" unicode="ĳ" horiz-adv-x="860" d="M737 -102q0 -129 -84 -198t-202 -69h-103l-20 21v143l20 21h103q82 0 81 82v1106l21 20h164l20 -20v-1106zM737 1208l-20 -20h-164l-21 20v164l21 21h164l20 -21v-164zM328 20l-21 -20h-164l-20 20v984l20 20h164l21 -20v-984zM328 1208l-21 -20h-164l-20 20v164l20 21 h164l21 -21v-164z"/>
    <glyph glyph-name="Jcircumflex" unicode="Ĵ" horiz-adv-x="1044" d="M1106 1577l-21 -21h-102l-41 21l-143 123h-41l-144 -123l-41 -21h-102l-20 21v41l184 205l41 20h205l41 -20l184 -205v-41zM881 389q1 -182 -105 -296t-325 -113q-101 0 -177 28t-118 67q-114 108 -115 294v41l20 20h164l21 -20v-41q0 -205 205 -205q111 0 167 53t58 172 v1024l20 21h164l21 -21v-1024z"/>
    <glyph glyph-name="jcircumflex" unicode="ĵ" horiz-adv-x="450" d="M553 1167l-21 -20h-102l-41 20l-143 123h-41l-144 -123l-41 -20h-102l-20 20v41l184 205l41 21h205l41 -21l184 -205v-41zM328 -102q0 -129 -84 -198t-203 -69h-102l-21 21v143l21 21h102q82 0 82 82v1106l20 20h164l21 -20v-1106z"/>
    <glyph glyph-name="Kcommaaccent" unicode="Ķ" horiz-adv-x="1269" d="M553 -451v21l82 123v20l-21 21h-41l-20 20v144l20 20h164l21 -20v-164l-21 -62l-102 -102l-41 -21h-41zM369 737h20l676 676l41 21h61l21 -21v-143l-451 -451v-20l492 -635v-144l-21 -20h-82l-41 20l-491 635h-21l-184 -184l-20 -41v-410l-21 -20h-164l-20 20v1393l20 21 h164l21 -21v-676z"/>
    <glyph glyph-name="kcommaaccent" unicode="ķ" horiz-adv-x="1024" d="M430 -451v21l82 123v20l-20 21h-41l-21 20v144l21 20h163l21 -20v-164l-21 -62l-102 -102l-41 -21h-41zM328 532h20l471 472l41 20h62l20 -20v-144l-287 -287v-20l308 -389v-144l-21 -20h-82l-41 20l-307 390h-20l-144 -144l-20 -41v-205l-21 -20h-164l-20 20v1393l20 21 h164l21 -21v-881z"/>
    <glyph glyph-name="kgreenlandic" unicode="ĸ" horiz-adv-x="1024" d="M328 532h20l471 472l41 20h62l20 -20v-144l-287 -287v-20l308 -389v-144l-21 -20h-82l-41 20l-307 390h-20l-144 -144l-20 -41v-205l-21 -20h-164l-20 20v984l20 20h164l21 -20v-472z"/>
    <glyph glyph-name="Lacute" unicode="Ĺ" horiz-adv-x="1105" d="M532 1782l-225 -205l-41 -21h-102l-21 21v41l185 205l41 20h143l20 -20v-41zM1085 20l-20 -20h-881l-20 20v1393l20 21h164l21 -21v-1208l20 -21h676l20 -20v-144z"/>
    <glyph glyph-name="lacute" unicode="ĺ" horiz-adv-x="450" d="M492 1782l-226 -205l-41 -21h-102l-21 21v41l185 205l41 20h143l21 -20v-41zM328 20l-21 -20h-164l-20 20v1393l20 21h164l21 -21v-1393z"/>
    <glyph glyph-name="Lcommaaccent" unicode="Ļ" horiz-adv-x="1105" d="M512 -451v21l82 123v20l-21 21h-41l-20 20v144l20 20h164l21 -20v-164l-21 -62l-102 -102l-41 -21h-41zM1085 20l-20 -20h-881l-20 20v1393l20 21h164l21 -21v-1208l20 -21h676l20 -20v-144z"/>
    <glyph glyph-name="lcommaaccent" unicode="ļ" horiz-adv-x="450" d="M123 -451v21l82 123v20l-21 21h-41l-20 20v144l20 20h164l21 -20v-164l-21 -62l-102 -102l-41 -21h-41zM328 20l-21 -20h-164l-20 20v1393l20 21h164l21 -21v-1393z"/>
    <glyph glyph-name="Lcaron" unicode="Ľ" horiz-adv-x="1105" d="M512 983v21l102 163v21l-20 20h-41l-21 21v184l21 21h143l21 -21v-205l-21 -61l-102 -143l-21 -21h-61zM1085 20l-20 -20h-881l-20 20v1393l20 21h164l21 -21v-1208l20 -21h676l20 -20v-144z"/>
    <glyph glyph-name="lcaron" unicode="ľ" horiz-adv-x="634" d="M430 983v21l102 163v21l-20 20h-41l-20 21v184l20 21h143l21 -21v-205l-21 -61l-102 -143l-20 -21h-62zM328 20l-21 -20h-164l-20 20v1393l20 21h164l21 -21v-1393z"/>
    <glyph glyph-name="Ldot" unicode="Ŀ" horiz-adv-x="1105" d="M901 717l-20 -21h-164l-21 21v164l21 20h164l20 -20v-164zM1085 20l-20 -20h-881l-20 20v1393l20 21h164l21 -21v-1208l20 -21h676l20 -20v-144z"/>
    <glyph glyph-name="ldot" unicode="ŀ" horiz-adv-x="716" d="M696 717l-20 -21h-164l-20 21v164l20 20h164l20 -20v-164zM328 20l-21 -20h-164l-20 20v1393l20 21h164l21 -21v-1393z"/>
    <glyph glyph-name="Lslash" unicode="Ł" horiz-adv-x="1105" d="M164 410h-21l-82 -62h-61l-20 21v123l163 122l21 41v758l20 21h164l21 -21v-635h20l328 246h61l21 -20v-123l-410 -308l-20 -41v-327l20 -21h676l20 -20v-144l-20 -20h-881l-20 20v390z"/>
    <glyph glyph-name="lslash" unicode="ł" horiz-adv-x="430" d="M348 963h21l82 61h61l20 -20v-123l-163 -123l-21 -41v-697l-20 -20h-164l-21 20v574h-20l-82 -62h-61l-21 21v123l164 123l20 41v573l21 21h164l20 -21v-450z"/>
    <glyph glyph-name="Nacute" unicode="Ń" horiz-adv-x="1495" d="M983 1782l-225 -205l-41 -21h-103l-20 21v41l184 205l41 20h144l20 -20v-41zM369 1085v-1065l-21 -20h-164l-20 20v1393l20 21h185l41 -21l696 -1065h20v1065l21 21h164l20 -21v-1393l-20 -20h-185l-41 20l-696 1065h-20z"/>
    <glyph glyph-name="nacute" unicode="ń" horiz-adv-x="1105" d="M819 1372l-225 -205l-41 -20h-102l-21 20v41l184 205l41 21h144l20 -21v-41zM799 614q0 246 -205 246q-138 0 -202 -82t-64 -266v-492l-21 -20h-164l-20 20v984l20 20h144l20 -20l21 -82h20q4 4 16 22t59 46q92 54 191 54q205 0 297 -116t93 -314v-594l-21 -20h-164 l-20 20v594z"/>
    <glyph glyph-name="Ncommaaccent" unicode="Ņ" horiz-adv-x="1495" d="M655 -451v21l82 123v20l-20 21h-41l-21 20v144l21 20h164l20 -20v-164l-20 -62l-103 -102l-41 -21h-41zM369 1085v-1065l-21 -20h-164l-20 20v1393l20 21h185l41 -21l696 -1065h20v1065l21 21h164l20 -21v-1393l-20 -20h-185l-41 20l-696 1065h-20z"/>
    <glyph glyph-name="ncommaaccent" unicode="ņ" horiz-adv-x="1105" d="M471 -451v21l82 123v20l-21 21h-40l-21 20v144l21 20h163l21 -20v-164l-21 -62l-102 -102l-41 -21h-41zM799 614q0 246 -205 246q-138 0 -202 -82t-64 -266v-492l-21 -20h-164l-20 20v984l20 20h144l20 -20l21 -82h20q4 4 16 22t59 46q92 54 191 54q205 0 297 -116 t93 -314v-594l-21 -20h-164l-20 20v594z"/>
    <glyph glyph-name="Ncaron" unicode="Ň" horiz-adv-x="1495" d="M430 1823l21 20h102l41 -20l143 -123h41l144 123l41 20h102l20 -20v-41l-184 -205l-41 -21h-205l-41 21l-184 205v41zM369 1085v-1065l-21 -20h-164l-20 20v1393l20 21h185l41 -21l696 -1065h20v1065l21 21h164l20 -21v-1393l-20 -20h-185l-41 20l-696 1065h-20z"/>
    <glyph glyph-name="ncaron" unicode="ň" horiz-adv-x="1105" d="M246 1413l20 21h103l41 -21l143 -123h41l143 123l41 21h103l20 -21v-41l-184 -205l-41 -20h-205l-41 20l-184 205v41zM799 614q0 246 -205 246q-138 0 -202 -82t-64 -266v-492l-21 -20h-164l-20 20v984l20 20h144l20 -20l21 -82h20q4 4 16 22t59 46q92 54 191 54 q205 0 297 -116t93 -314v-594l-21 -20h-164l-20 20v594z"/>
    <glyph glyph-name="napostrophe" unicode="ŉ" horiz-adv-x="1105" d="M0 1024v20l102 164v21l-20 20h-41l-21 21v184l21 21h143l21 -21v-205l-21 -61l-102 -144l-21 -20h-61zM799 614q0 246 -205 246q-138 0 -202 -82t-64 -266v-492l-21 -20h-164l-20 20v984l20 20h144l20 -20l21 -82h20q4 4 16 22t59 46q92 54 191 54q205 0 297 -116 t93 -314v-594l-21 -20h-164l-20 20v594z"/>
    <glyph glyph-name="Eng" unicode="Ŋ" horiz-adv-x="1495" d="M369 1085v-1065l-21 -20h-164l-20 20v1393l20 21h185l41 -21l696 -1044h20v1044l21 21h164l20 -21v-1433q-1 -188 -111 -299t-319 -111l-20 20v144l20 20q111 0 168 53t57 173l-737 1105h-20z"/>
    <glyph glyph-name="eng" unicode="ŋ" horiz-adv-x="1105" d="M799 0v614q0 246 -205 246q-138 0 -202 -82t-64 -266v-492l-21 -20h-164l-20 20v984l20 20h144l20 -20l21 -82h20q4 4 16 22t59 46q92 54 191 54q205 0 297 -116t93 -314v-614q0 -188 -111 -299t-320 -111l-20 21v143l20 21q111 0 169 53t57 172z"/>
    <glyph glyph-name="Omacron" unicode="Ō" horiz-adv-x="1515" d="M1085 1618l-20 -21h-614l-21 21v123l21 20h614l20 -20v-123zM287 717q0 -252 123 -403q123 -150 348 -150t348 150t123 403t-123 403t-348 150t-348 -150t-123 -403zM82 717q0 329 180 533t496 204t495 -204q181 -204 181 -534t-180 -533t-496 -203q-315 0 -496 203 q-180 204 -180 534z"/>
    <glyph glyph-name="omacron" unicode="ō" horiz-adv-x="1105" d="M881 1208l-21 -20h-614l-21 20v123l21 21h614l21 -21v-123zM266 512q0 -168 74 -258t213 -90t213 90t74 258t-74 258t-213 90t-213 -90t-74 -258zM61 512q-1 246 131 389t361 143t360 -143t131 -389t-131 -389t-360 -143t-361 143t-131 389z"/>
    <glyph glyph-name="Obreve" unicode="Ŏ" horiz-adv-x="1515" d="M758 1679q64 0 103 32q40 32 40 91l21 21h102l20 -21q0 -122 -80 -194t-206 -72q-125 0 -206 73t-81 193l21 21h102l20 -21q0 -59 40 -91t104 -32zM287 717q0 -252 123 -403q123 -150 348 -150t348 150t123 403t-123 403t-348 150t-348 -150t-123 -403zM82 717 q0 329 180 533t496 204t495 -204q181 -204 181 -534t-180 -533t-496 -203q-315 0 -496 203q-180 204 -180 534z"/>
    <glyph glyph-name="obreve" unicode="ŏ" horiz-adv-x="1105" d="M553 1270q63 0 103 32t40 91l21 20h102l21 -20q0 -121 -81 -194t-206 -73t-206 73t-81 194l21 20h102l21 -20q0 -59 40 -91t103 -32zM266 512q0 -168 74 -258t213 -90t213 90t74 258t-74 258t-213 90t-213 -90t-74 -258zM61 512q-1 246 131 389t361 143t360 -143 t131 -389t-131 -389t-360 -143t-361 143t-131 389z"/>
    <glyph glyph-name="Ohungarumlaut" unicode="Ő" horiz-adv-x="1515" d="M1208 1782l-225 -205l-41 -21h-102l-21 21v41l185 205l40 20h144l20 -20v-41zM799 1782l-226 -205l-41 -21h-102l-20 21v41l184 205l41 20h143l21 -20v-41zM287 717q0 -252 123 -403q123 -150 348 -150t348 150t123 403t-123 403t-348 150t-348 -150t-123 -403zM82 717 q0 329 180 533t496 204t495 -204q181 -204 181 -534t-180 -533t-496 -203q-315 0 -496 203q-180 204 -180 534z"/>
    <glyph glyph-name="ohungarumlaut" unicode="ő" horiz-adv-x="1105" d="M1024 1372l-225 -205l-41 -20h-103l-20 20v41l184 205l41 21h144l20 -21v-41zM614 1372l-225 -205l-41 -20h-102l-21 20v41l185 205l41 21h143l20 -21v-41zM266 512q0 -168 74 -258t213 -90t213 90t74 258t-74 258t-213 90t-213 -90t-74 -258zM61 512q-1 246 131 389 t361 143t360 -143t131 -389t-131 -389t-360 -143t-361 143t-131 389z"/>
    <glyph glyph-name="OE" unicode="Œ" horiz-adv-x="2068" d="M696 1270q-430 0 -430 -553t430 -553q127 0 224 47q95 47 124 137v737q-29 90 -124 138q-96 47 -224 47zM1044 82h-20q-43 -37 -146 -70q-102 -33 -202 -32q-285 0 -450 188t-165 548t165 550q165 188 450 188q100 0 187 -26t124 -52l37 -24h20v61l21 21h860l21 -21v-143 l-21 -21h-655l-21 -20v-389l21 -21h614l21 -20v-144l-21 -20h-614l-21 -21v-409l21 -21h655l21 -20v-144l-21 -20h-860l-21 20v62z"/>
    <glyph glyph-name="oe" unicode="œ" horiz-adv-x="1822" d="M551 -20q-227 0 -358 143t-132 389t131 389t370 143t360 -163h20q123 163 352 163t348 -150t119 -382v-61l-20 -21h-676l-21 -20q0 -43 20 -93q20 -49 46 -79q27 -30 79 -52q52 -23 122 -22q156 0 205 123l20 20h164l20 -20q-16 -131 -125 -219t-284 -88q-225 0 -369 143 h-20q-144 -143 -371 -143zM1290 860q-78 0 -132 -29q-109 -59 -114 -217l21 -20h451l20 20q0 69 -38 145q-22 45 -76 73t-132 28zM553 164q139 0 213 90t74 258t-74 258t-213 90t-213 -90t-74 -258t74 -258t213 -90z"/>
    <glyph glyph-name="Racute" unicode="Ŕ" horiz-adv-x="1372" d="M922 1782l-226 -205l-41 -21h-102l-21 21v41l185 205l41 20h143l21 -20v-41zM1290 1024q0 -164 -82 -260t-225 -129v-21l287 -450v-144l-21 -20h-82l-41 20l-368 574l-41 20h-328l-20 -20v-574l-21 -20h-164l-20 20v1393l20 21h635q223 0 347 -100t124 -310zM1085 1024 q0 121 -63 173t-203 52h-430l-20 -20v-410l20 -20h430q139 0 203 52q63 52 63 173z"/>
    <glyph glyph-name="racute" unicode="ŕ" horiz-adv-x="757" d="M635 1372l-225 -205l-41 -20h-103l-20 20v41l184 205l41 21h143l21 -21v-41zM594 840q-133 0 -200 -67t-66 -241v-512l-21 -20h-164l-20 20v984l20 20h144l20 -20l21 -82h20q54 54 110 78t156 24h82l21 -20v-144l-21 -20h-102z"/>
    <glyph glyph-name="Rcommaaccent" unicode="Ŗ" horiz-adv-x="1372" d="M614 -451v21l82 123v20l-20 21h-41l-21 20v144l21 20h164l20 -20v-164l-20 -62l-103 -102l-41 -21h-41zM1290 1024q0 -164 -82 -260t-225 -129v-21l287 -450v-144l-21 -20h-82l-41 20l-368 574l-41 20h-328l-20 -20v-574l-21 -20h-164l-20 20v1393l20 21h635 q223 0 347 -100t124 -310zM1085 1024q0 121 -63 173t-203 52h-430l-20 -20v-410l20 -20h430q139 0 203 52q63 52 63 173z"/>
    <glyph glyph-name="rcommaaccent" unicode="ŗ" horiz-adv-x="757" d="M123 -451v21l82 123v20l-21 21h-41l-20 20v144l20 20h164l21 -20v-164l-21 -62l-102 -102l-41 -21h-41zM594 840q-133 0 -200 -67t-66 -241v-512l-21 -20h-164l-20 20v984l20 20h144l20 -20l21 -82h20q54 54 110 78t156 24h82l21 -20v-144l-21 -20h-102z"/>
    <glyph glyph-name="Rcaron" unicode="Ř" horiz-adv-x="1372" d="M369 1823l20 20h103l40 -20l144 -123h41l143 123l41 20h103l20 -20v-41l-184 -205l-41 -21h-205l-41 21l-184 205v41zM1290 1024q0 -164 -82 -260t-225 -129v-21l287 -450v-144l-21 -20h-82l-41 20l-368 574l-41 20h-328l-20 -20v-574l-21 -20h-164l-20 20v1393l20 21 h635q223 0 347 -100t124 -310zM1085 1024q0 121 -63 173t-203 52h-430l-20 -20v-410l20 -20h430q139 0 203 52q63 52 63 173z"/>
    <glyph glyph-name="rcaron" unicode="ř" horiz-adv-x="757" d="M82 1413l20 21h103l41 -21l143 -123h41l143 123l41 21h103l20 -21v-41l-184 -205l-41 -20h-205l-41 20l-184 205v41zM594 840q-133 0 -200 -67t-66 -241v-512l-21 -20h-164l-20 20v984l20 20h144l20 -20l21 -82h20q54 54 110 78t156 24h82l21 -20v-144l-21 -20h-102z"/>
    <glyph glyph-name="Sacute" unicode="Ś" horiz-adv-x="1290" d="M860 1782l-225 -205l-41 -21h-102l-21 21v41l184 205l41 20h144l20 -20v-41zM1208 400q0 -190 -138 -306q-138 -114 -410 -114t-424 122q-154 122 -154 349l20 20h164l21 -20q0 -287 389 -287q328 0 328 232q0 124 -90 175t-320 84q-471 68 -471 410q0 157 128 273 t378 116t394 -105t144 -325l-20 -20h-164l-20 20q0 127 -78 186t-271 60q-135 0 -211 -56q-75 -56 -75 -162t82 -153t314 -81t358 -131t126 -287z"/>
    <glyph glyph-name="sacute" unicode="ś" horiz-adv-x="942" d="M717 1372l-225 -205l-41 -20h-103l-20 20v41l184 205l41 21h143l21 -21v-41zM881 288q1 -134 -103 -221t-305 -87t-306 89t-106 259l21 20h164l20 -20q0 -164 205 -164t205 123q0 75 -51 103t-214 61t-246 103t-83 198q0 127 94 210q94 82 282 82t296 -78 q106 -79 106 -229l-20 -20h-164l-21 20q0 123 -184 123t-184 -102q0 -72 58 -101t223 -63t239 -102q74 -70 74 -204z"/>
    <glyph glyph-name="Scircumflex" unicode="Ŝ" horiz-adv-x="1290" d="M983 1577l-20 -21h-103l-41 21l-143 123h-41l-143 -123l-41 -21h-103l-20 21v41l184 205l41 20h205l41 -20l184 -205v-41zM1208 400q0 -190 -138 -306q-138 -114 -410 -114t-424 122q-154 122 -154 349l20 20h164l21 -20q0 -287 389 -287q328 0 328 232q0 124 -90 175 t-320 84q-471 68 -471 410q0 157 128 273t378 116t394 -105t144 -325l-20 -20h-164l-20 20q0 127 -78 186t-271 60q-135 0 -211 -56q-75 -56 -75 -162t82 -153t314 -81t358 -131t126 -287z"/>
    <glyph glyph-name="scircumflex" unicode="ŝ" horiz-adv-x="942" d="M799 1167l-21 -20h-102l-41 20l-143 123h-41l-144 -123l-41 -20h-102l-21 20v41l185 205l41 21h204l41 -21l185 -205v-41zM881 288q1 -134 -103 -221t-305 -87t-306 89t-106 259l21 20h164l20 -20q0 -164 205 -164t205 123q0 75 -51 103t-214 61t-246 103t-83 198 q0 127 94 210q94 82 282 82t296 -78q106 -79 106 -229l-20 -20h-164l-21 20q0 123 -184 123t-184 -102q0 -72 58 -101t223 -63t239 -102q74 -70 74 -204z"/>
    <glyph glyph-name="Scedilla" unicode="Ş" horiz-adv-x="1290" d="M1208 389q0 -102 -41 -181t-111 -125q-136 -89 -319 -103l-41 -21l-102 -102h20q41 20 87 20t82 -36q36 -35 36 -109t-56 -118t-133 -44t-115 17t-85 65v20l21 21h20q37 -37 71 -39q33 -2 72 -2q102 0 103 82q0 82 -103 82q-41 0 -82 -21h-20l-20 21v20l122 123v21 q-268 14 -400 139t-132 332l20 20h164l21 -20q0 -287 389 -287q328 0 328 232q0 124 -90 175t-320 84q-471 68 -471 410q0 157 128 273t378 116t394 -105t144 -325l-20 -20h-164l-20 20q0 127 -78 186t-271 60q-135 0 -211 -56q-75 -56 -75 -162t82 -153t314 -81t358 -131 t126 -298z"/>
    <glyph glyph-name="scedilla" unicode="ş" horiz-adv-x="942" d="M881 292q0 -130 -88 -214t-240 -98l-41 -21l-102 -102h20q41 20 87 20t82 -36q36 -35 36 -109t-56 -118t-133 -44t-115 17t-85 65v20l20 21h21q37 -37 71 -39q33 -2 72 -2q102 0 102 82t-102 82q-41 0 -82 -21h-20l-21 21v20l123 123v21q-219 16 -300 129q-67 93 -69 219 l21 20h164l20 -20q0 -164 205 -164t205 123q0 75 -51 103t-214 61t-246 103t-83 198q0 127 94 210q94 82 282 82t296 -78q106 -79 106 -229l-20 -20h-164l-21 20q0 123 -184 123t-184 -102q0 -72 58 -101t223 -63t239 -102q74 -70 74 -200z"/>
    <glyph glyph-name="Scaron" unicode="Š" horiz-adv-x="1290" d="M307 1823l21 20h102l41 -20l143 -123h41l144 123l41 20h102l21 -20v-41l-185 -205l-41 -21h-205l-40 21l-185 205v41zM1208 400q0 -190 -138 -306q-138 -114 -410 -114t-424 122q-154 122 -154 349l20 20h164l21 -20q0 -287 389 -287q328 0 328 232q0 124 -90 175 t-320 84q-471 68 -471 410q0 157 128 273t378 116t394 -105t144 -325l-20 -20h-164l-20 20q0 127 -78 186t-271 60q-135 0 -211 -56q-75 -56 -75 -162t82 -153t314 -81t358 -131t126 -287z"/>
    <glyph glyph-name="scaron" unicode="š" horiz-adv-x="942" d="M143 1413l21 21h102l41 -21l144 -123h41l143 123l41 21h102l21 -21v-41l-185 -205l-41 -20h-204l-41 20l-185 205v41zM881 288q1 -134 -103 -221t-305 -87t-306 89t-106 259l21 20h164l20 -20q0 -164 205 -164t205 123q0 75 -51 103t-214 61t-246 103t-83 198 q0 127 94 210q94 82 282 82t296 -78q106 -79 106 -229l-20 -20h-164l-21 20q0 123 -184 123t-184 -102q0 -72 58 -101t223 -63t239 -102q74 -70 74 -204z"/>
    <glyph glyph-name="Tcommaaccent" unicode="Ţ" horiz-adv-x="1228" d="M512 -451v21l82 123v20l-21 21h-41l-20 20v144l20 20h164l21 -20v-164l-21 -62l-102 -102l-41 -21h-41zM1188 1270l-21 -21h-430l-20 -20v-1209l-21 -20h-164l-20 20v1209l-20 20h-431l-20 21v143l20 21h1106l21 -21v-143z"/>
    <glyph glyph-name="tcommaaccent" unicode="ţ" horiz-adv-x="778" d="M328 -451v21l82 123v20l-21 21h-41l-20 20v144l20 20h164l20 -20v-164l-20 -62l-102 -102l-41 -21h-41zM512 0q-119 0 -203 69t-84 197v553l-20 21h-144l-20 20v144l20 20h144l20 20v185l21 20h164l20 -20v-185l21 -20h225l20 -20v-144l-20 -20h-225l-21 -21v-553 q0 -82 82 -82h164l20 -20v-144l-20 -20h-164z"/>
    <glyph glyph-name="Tcaron" unicode="Ť" horiz-adv-x="1228" d="M287 1823l20 20h103l41 -20l143 -123h41l143 123l41 20h103l20 -20v-41l-184 -205l-41 -21h-205l-41 21l-184 205v41zM1188 1270l-21 -21h-430l-20 -20v-1209l-21 -20h-164l-20 20v1209l-20 20h-431l-20 21v143l20 21h1106l21 -21v-143z"/>
    <glyph glyph-name="tcaron" unicode="ť" horiz-adv-x="778" d="M512 1085v21l102 164v20l-20 21h-41l-21 20v185l21 20h143l21 -20v-205l-21 -62l-102 -143l-21 -21h-61zM512 0q-119 0 -203 69t-84 197v553l-20 21h-144l-20 20v144l20 20h144l20 20v185l21 20h164l20 -20v-185l21 -20h225l20 -20v-144l-20 -20h-225l-21 -21v-553 q0 -82 82 -82h164l20 -20v-144l-20 -20h-164z"/>
    <glyph glyph-name="Tbar" unicode="Ŧ" horiz-adv-x="1310" d="M758 655v-635l-21 -20h-164l-20 20v635l-21 21h-266l-20 20v123l20 21h266l21 20v369l-21 20h-430l-20 21v143l20 21h1106l21 -21v-143l-21 -21h-430l-20 -20v-369l20 -20h266l21 -21v-123l-21 -20h-266z"/>
    <glyph glyph-name="tbar" unicode="ŧ" horiz-adv-x="778" d="M430 266q0 -82 82 -82h164l20 -20v-144l-20 -20h-164q-119 0 -203 69t-84 197v226l-20 20h-103l-20 20v123l20 21h103l20 20v123l-20 21h-144l-20 20v144l20 20h144l20 20v185l21 20h164l20 -20v-185l21 -20h225l20 -20v-144l-20 -20h-225l-21 -21v-123l21 -20h163 l21 -21v-123l-21 -20h-163l-21 -20v-226z"/>
    <glyph glyph-name="Utilde" unicode="Ũ" horiz-adv-x="1433" d="M876 1536q-86 0 -140 36t-92 72t-71 35q-82 0 -81 -102l-21 -21h-61l-21 21q0 97 51 161q52 64 138 64t140 -36t92 -72t71 -35q82 0 82 102l20 21h61l21 -21q0 -98 -51 -162q-52 -63 -138 -63zM1270 512q0 -248 -146 -390t-407 -142q-260 0 -407 142q-146 142 -146 390 v901l20 21h164l21 -21v-901q0 -162 86 -255t262 -93t262 93t86 255v901l20 21h164l21 -21v-901z"/>
    <glyph glyph-name="utilde" unicode="ũ" horiz-adv-x="1085" d="M692 1126q-86 0 -140 36t-92 72t-71 36q-82 0 -82 -103l-20 -20h-62l-20 20q0 97 51 161q52 64 138 64t140 -35q54 -36 92 -72t70 -36q82 0 82 103l21 20h61l21 -20q1 -98 -51 -162t-138 -64zM492 -20q-201 0 -295 122t-95 308v594l21 20h164l20 -20v-594 q0 -246 205 -246q114 0 180 86t66 262v492l20 20h164l21 -20v-984l-21 -20h-143l-21 20l-20 82h-21q-4 -4 -10 -13q-40 -60 -147 -96q-43 -13 -88 -13z"/>
    <glyph glyph-name="Umacron" unicode="Ū" horiz-adv-x="1433" d="M1044 1618l-20 -21h-614l-21 21v123l21 20h614l20 -20v-123zM1270 512q0 -248 -146 -390t-407 -142q-260 0 -407 142q-146 142 -146 390v901l20 21h164l21 -21v-901q0 -162 86 -255t262 -93t262 93t86 255v901l20 21h164l21 -21v-901z"/>
    <glyph glyph-name="umacron" unicode="ū" horiz-adv-x="1085" d="M860 1208l-20 -20h-615l-20 20v123l20 21h615l20 -21v-123zM492 -20q-201 0 -295 122t-95 308v594l21 20h164l20 -20v-594q0 -246 205 -246q114 0 180 86t66 262v492l20 20h164l21 -20v-984l-21 -20h-143l-21 20l-20 82h-21q-4 -4 -10 -13q-40 -60 -147 -96 q-43 -13 -88 -13z"/>
    <glyph glyph-name="Ubreve" unicode="Ŭ" horiz-adv-x="1433" d="M716 1679q64 0 104 32t40 91l21 21h102l21 -21q0 -122 -81 -194t-206 -72t-206 73t-81 193l21 21h102l20 -21q0 -59 40 -91q39 -32 103 -32zM1270 512q0 -248 -146 -390t-407 -142q-260 0 -407 142q-146 142 -146 390v901l20 21h164l21 -21v-901q0 -162 86 -255t262 -93 t262 93t86 255v901l20 21h164l21 -21v-901z"/>
    <glyph glyph-name="ubreve" unicode="ŭ" horiz-adv-x="1085" d="M532 1270q63 0 104 32q40 32 40 91l20 20h103l20 -20q0 -121 -81 -194t-206 -73q-126 0 -206 73t-80 194l20 20h103l20 -20q0 -59 40 -91t103 -32zM492 -20q-201 0 -295 122t-95 308v594l21 20h164l20 -20v-594q0 -246 205 -246q114 0 180 86t66 262v492l20 20h164 l21 -20v-984l-21 -20h-143l-21 20l-20 82h-21q-4 -4 -10 -13q-40 -60 -147 -96q-43 -13 -88 -13z"/>
    <glyph glyph-name="Uring" unicode="Ů" horiz-adv-x="1433" d="M799 1659q0 82 -82 82t-82 -82t82 -82t82 82zM922 1659q0 -78 -58 -131t-147 -53q-90 0 -148 53q-57 53 -57 131t57 131t147 53t148 -53t58 -131zM1270 512q0 -248 -146 -390t-407 -142q-260 0 -407 142q-146 142 -146 390v901l20 21h164l21 -21v-901q0 -162 86 -255 t262 -93t262 93t86 255v901l20 21h164l21 -21v-901z"/>
    <glyph glyph-name="uring" unicode="ů" horiz-adv-x="1085" d="M614 1311q0 82 -82 82t-82 -82t82 -82t82 82zM737 1311q0 -78 -57 -131q-58 -54 -148 -54t-147 54t-57 131q0 78 57 131t147 53t148 -53t57 -131zM492 -20q-201 0 -295 122t-95 308v594l21 20h164l20 -20v-594q0 -246 205 -246q114 0 180 86t66 262v492l20 20h164l21 -20 v-984l-21 -20h-143l-21 20l-20 82h-21q-4 -4 -10 -13q-40 -60 -147 -96q-43 -13 -88 -13z"/>
    <glyph glyph-name="Uhungarumlaut" unicode="Ű" horiz-adv-x="1433" d="M1188 1782l-225 -205l-41 -21h-103l-20 21v41l184 205l41 20h143l21 -20v-41zM778 1782l-225 -205l-41 -21h-102l-21 21v41l184 205l41 20h144l20 -20v-41zM1270 512q0 -248 -146 -390t-407 -142q-260 0 -407 142q-146 142 -146 390v901l20 21h164l21 -21v-901 q0 -162 86 -255t262 -93t262 93t86 255v901l20 21h164l21 -21v-901z"/>
    <glyph glyph-name="uhungarumlaut" unicode="ű" horiz-adv-x="1085" d="M1004 1372l-226 -205l-41 -20h-102l-21 20v41l185 205l41 21h143l21 -21v-41zM594 1372l-225 -205l-41 -20h-103l-20 20v41l184 205l41 21h143l21 -21v-41zM492 -20q-201 0 -295 122t-95 308v594l21 20h164l20 -20v-594q0 -246 205 -246q114 0 180 86t66 262v492l20 20 h164l21 -20v-984l-21 -20h-143l-21 20l-20 82h-21q-4 -4 -10 -13q-40 -60 -147 -96q-43 -13 -88 -13z"/>
    <glyph glyph-name="Uogonek" unicode="Ų" horiz-adv-x="1433" d="M814 -410q-88 0 -155 58q-65 58 -65 150q0 93 102 161v21q-255 0 -410 166q-54 58 -88 152t-34 214v901l20 21h164l21 -21v-901q0 -162 86 -255t262 -93t262 93t86 255v901l20 21h164l21 -21v-901q0 -222 -95 -332t-216 -167q-54 -26 -99 -49q-102 -55 -102 -130 q0 -43 28 -72q28 -28 70 -28t107 20l20 -20v-82l-20 -21q-61 -41 -149 -41z"/>
    <glyph glyph-name="uogonek" unicode="ų" horiz-adv-x="1085" d="M793 -410q-88 0 -154 58t-66 147q0 184 205 225l-20 82h-21q-4 -4 -10 -13q-40 -60 -147 -96q-43 -13 -88 -13q-201 0 -295 122t-95 308v594l21 20h164l20 -20v-594q0 -246 205 -246q114 0 180 86t66 262v492l20 20h164l21 -20v-984l-21 -20q-94 -16 -149 -59t-55 -97 t28 -82q50 -50 176 -8l21 -20v-82l-21 -21q-61 -41 -149 -41z"/>
    <glyph glyph-name="Wcircumflex" unicode="Ŵ" horiz-adv-x="1904" d="M1823 1270l-328 -1250l-20 -20h-185l-20 20l-307 1086h-21l-307 -1086l-21 -20h-184l-20 20l-328 1250v143l20 21h123l21 -21l266 -1044h20l308 1044l20 21h184l21 -21l307 -1044h21l266 1044l20 21h123l21 -21v-143zM1270 1577l-21 -21h-102l-41 21l-143 123h-21 l-143 -123l-41 -21h-103l-20 21v41l184 205l41 20h184l41 -20l185 -205v-41z"/>
    <glyph glyph-name="wcircumflex" unicode="ŵ" horiz-adv-x="1536" d="M1454 860l-246 -840l-20 -20h-184l-21 20l-205 717h-20l-205 -717l-21 -20h-184l-20 20l-246 840v144l20 20h123l21 -20l184 -697h21l204 697l21 20h184l21 -20l204 -697h21l184 697l21 20h123l20 -20v-144zM1085 1167l-20 -20h-102l-41 20l-144 123h-20l-144 -123 l-41 -20h-102l-20 20v41l184 205l41 21h184l41 -21l184 -205v-41z"/>
    <glyph glyph-name="Ycircumflex" unicode="Ŷ" d="M922 1577l-21 -21h-102l-41 21l-144 123h-41l-143 -123l-41 -21h-102l-21 21v41l185 205l41 20h204l41 -20l185 -205v-41zM1126 1270l-430 -697v-553l-20 -20h-164l-20 20v553l-431 697v143l21 21h82l41 -21l368 -614h41l369 614l41 21h82l20 -21v-143z"/>
    <glyph glyph-name="ycircumflex" unicode="ŷ" horiz-adv-x="1044" d="M205 -328h-41l-21 21v143l21 21h41q82 1 129 25t76 98v20l-349 860v144l21 20h123l20 -20l287 -758h20l287 758l21 20h123l20 -20v-144l-328 -819q-92 -229 -178 -299t-272 -70zM840 1167l-21 -20h-102l-41 20l-144 123h-20l-143 -123l-41 -20h-103l-20 20v41l184 205 l41 21h184l41 -21l185 -205v-41z"/>
    <glyph glyph-name="Ydieresis" unicode="Ÿ" d="M512 1618l-20 -21h-164l-21 21v164l21 20h164l20 -20v-164zM881 1618l-21 -21h-164l-20 21v164l20 20h164l21 -20v-164zM1126 1270l-430 -697v-553l-20 -20h-164l-20 20v553l-431 697v143l21 21h82l41 -21l368 -614h41l369 614l41 21h82l20 -21v-143z"/>
    <glyph glyph-name="Zacute" unicode="Ź" horiz-adv-x="1228" d="M840 1782l-226 -205l-41 -21h-102l-20 21v41l184 205l41 20h143l21 -20v-41zM840 1249h-697l-20 21v143l20 21h922l20 -21v-164l-20 -41l-717 -1003v-21h758l20 -20v-144l-20 -20h-983l-21 20v164l21 41l717 1004v20z"/>
    <glyph glyph-name="zacute" unicode="ź" horiz-adv-x="1024" d="M758 1372l-226 -205l-40 -20h-103l-20 20v41l184 205l41 21h143l21 -21v-41zM655 840h-532l-21 20v144l21 20h778l21 -20v-164l-21 -41l-553 -594v-21h574l20 -20v-144l-20 -20h-820l-20 20v164l20 41l553 594v21z"/>
    <glyph glyph-name="Zdotaccent" unicode="Ż" horiz-adv-x="1228" d="M717 1618l-21 -21h-164l-20 21v164l20 20h164l21 -20v-164zM840 1249h-697l-20 21v143l20 21h922l20 -21v-164l-20 -41l-717 -1003v-21h758l20 -20v-144l-20 -20h-983l-21 20v164l21 41l717 1004v20z"/>
    <glyph glyph-name="zdotaccent" unicode="ż" horiz-adv-x="1024" d="M614 1208l-20 -20h-164l-20 20v164l20 21h164l20 -21v-164zM655 840h-532l-21 20v144l21 20h778l21 -20v-164l-21 -41l-553 -594v-21h574l20 -20v-144l-20 -20h-820l-20 20v164l20 41l553 594v21z"/>
    <glyph glyph-name="Zcaron" unicode="Ž" horiz-adv-x="1228" d="M287 1823l20 20h103l41 -20l143 -123h41l143 123l41 20h103l20 -20v-41l-184 -205l-41 -21h-205l-41 21l-184 205v41zM840 1249h-697l-20 21v143l20 21h922l20 -21v-164l-20 -41l-717 -1003v-21h758l20 -20v-144l-20 -20h-983l-21 20v164l21 41l717 1004v20z"/>
    <glyph glyph-name="zcaron" unicode="ž" horiz-adv-x="1024" d="M225 1413l21 21h102l41 -21l143 -123h41l144 123l41 21h102l21 -21v-41l-185 -205l-41 -20h-204l-41 20l-185 205v41zM655 840h-532l-21 20v144l21 20h778l21 -20v-164l-21 -41l-553 -594v-21h574l20 -20v-144l-20 -20h-820l-20 20v164l20 41l553 594v21z"/>
    <glyph glyph-name="longs" unicode="ſ" horiz-adv-x="716" d="M451 1126v-1106l-21 -20h-164l-20 20v799l-21 21h-143l-21 20v144l21 20h143l21 20v82q0 129 84 198t202 69h164l21 -21v-143l-21 -21h-164q-81 0 -81 -82z"/>
    <glyph glyph-name="uni018F" unicode="Ə" horiz-adv-x="1351" d="M676 1454q278 0 446 -201t168 -533t-164 -537q-164 -203 -450 -203t-451 204q-164 204 -164 533v61l21 21h962l21 20q-15 209 -113 330t-260 121t-238 -54q-77 -54 -126 -172l-21 -20h-184l-21 20q137 410 574 410zM676 164q176 0 274 118t115 312l-21 20h-737l-20 -20 q17 -194 115 -312t274 -118z"/>
    <glyph glyph-name="florin" unicode="ƒ" d="M164 -410h-21l-20 21v123l20 20h41q86 0 127 40t58 124l184 922l-21 20h-143l-20 21v123l20 20h184l21 20l20 103q31 155 116 221t253 66h41l20 -21v-123l-20 -20h-61q-66 0 -98 -24t-46 -99l-20 -103l20 -20h266l21 -20v-123l-21 -21h-307l-20 -20l-185 -922 q-33 -168 -119 -248t-290 -80z"/>
    <glyph glyph-name="uni01B5" unicode="Ƶ" horiz-adv-x="1228" d="M348 184h758l20 -20v-144l-20 -20h-983l-21 20v164l21 41l287 410v20h-205l-21 21v143l21 21h327l41 20l267 369v20h-697l-20 21v143l20 21h922l20 -21v-164l-20 -41l-246 -348v-20h205l20 -21v-143l-20 -21h-328l-41 -20l-307 -430v-21z"/>
    <glyph glyph-name="uni01B6" unicode="ƶ" horiz-adv-x="1024" d="M348 184h574l20 -20v-144l-20 -20h-820l-20 20v164l20 41l164 185v20h-123l-20 21v122l20 21h287l41 20l184 205v21h-532l-21 20v144l21 20h778l21 -20v-164l-21 -41l-164 -185v-20h144l20 -21v-122l-20 -21h-308l-41 -20l-184 -205v-21z"/>
    <glyph glyph-name="Aringacute" unicode="Ǻ" horiz-adv-x="1290" d="M635 1229h20q82 0 82 82t-82 82h-20q-82 0 -82 -82t82 -82zM901 1782l-225 -205l-41 -21h-103l-20 21v41l184 205l41 20h144l20 -20v-41zM881 553l-226 573h-20l-225 -573l20 -21h430zM860 1311q0 -42 -20 -82v-21l409 -1044v-144l-20 -20h-123l-21 20l-122 308l-41 20 h-553l-41 -20l-123 -308l-21 -20h-123l-20 20v144l410 1044v21q-21 20 -21 90t57 123t148 53h20q89 0 147 -53t58 -131z"/>
    <glyph glyph-name="aringacute" unicode="ǻ" horiz-adv-x="1024" d="M717 369v61l-21 21q-61 20 -164 20q-266 0 -266 -164q0 -143 185 -143q123 0 195 56t71 149zM512 635q104 0 160 -17l24 -4l21 21v41q0 104 -47 144t-158 40q-205 0 -205 -123l-20 -20h-164l-21 20q0 125 100 216t317 91q218 0 310 -106t93 -344v-574l-21 -20h-143 l-21 20l-20 82h-21q-4 -4 -16 -23t-62 -45q-98 -54 -208 -54q-168 0 -258 86t-90 246t120 241q121 82 330 82zM758 1782l-226 -205l-40 -21h-103l-20 21v41l184 205l41 20h143l21 -20v-41zM594 1311q0 82 -82 82t-82 -82t82 -82t82 82zM717 1311q1 -78 -57 -131 q-58 -54 -148 -54t-147 54t-58 131q-1 78 57 131t148 53t148 -53t57 -131z"/>
    <glyph glyph-name="AEacute" unicode="Ǽ" horiz-adv-x="1966" d="M1516 1782l-226 -205l-41 -21h-102l-21 21v41l185 205l41 20h143l21 -20v-41zM942 553v676l-20 20h-41l-21 -20l-368 -676l20 -21h410zM1843 20l-20 -20h-860l-21 20v308l-20 20h-512l-41 -20l-164 -308l-21 -20h-123l-20 20v144l696 1249l21 21h1065l20 -21v-143 l-20 -21h-656l-20 -20v-389l20 -21h615l20 -20v-144l-20 -20h-615l-20 -21v-409l20 -21h656l20 -20v-144z"/>
    <glyph glyph-name="aeacute" unicode="ǽ" horiz-adv-x="1699" d="M1106 1372l-225 -205l-41 -20h-103l-20 20v41l184 205l41 21h143l21 -21v-41zM1188 -20q-225 0 -369 143h-20q-78 -78 -165 -111q-88 -32 -240 -32t-242 86t-90 246t120 241q121 82 330 82q104 0 160 -17l24 -4l21 21v20q0 119 -46 162t-159 43q-205 0 -205 -123l-20 -20 h-164l-21 20q0 125 100 216t322 91q224 0 316 -122h20q92 122 316 122t344 -150q119 -151 118 -382v-61l-20 -21h-676l-20 -20q0 -46 19 -94t46 -78t79 -52q52 -23 122 -22q156 0 205 123l20 20h164l20 -20q-17 -131 -125 -219t-284 -88zM1167 860q-200 0 -237 -179 q-8 -34 -8 -67l20 -20h451l20 20q0 69 -38 145q-22 45 -76 73t-132 28zM717 369v61l-21 21q-61 20 -164 20q-266 0 -266 -164q0 -143 185 -143q123 0 195 56t71 149z"/>
    <glyph glyph-name="Oslashacute" unicode="Ǿ" horiz-adv-x="1515" d="M768 164q215 0 338 150t123 380q0 228 -62 350h-20l-717 -716v-41q123 -123 338 -123zM1434 717q0 -329 -180 -533t-482 -204q-301 0 -485 184h-21l-82 -82l-41 -21h-20l-21 21v41l103 102v41q-123 184 -123 451q0 329 180 533t482 204t485 -184h20l82 82l41 20h21 l20 -20v-41l-102 -103v-41q123 -184 123 -450zM748 1270q-214 0 -338 -151q-123 -151 -123 -379t61 -351h21l716 717v41q-123 123 -337 123zM983 1782l-225 -205l-41 -21h-103l-20 21v41l184 205l41 20h144l20 -20v-41z"/>
    <glyph glyph-name="oslashacute" unicode="ǿ" horiz-adv-x="1105" d="M561 164q131 0 205 90t74 246t-21 196h-20l-430 -430v-41q61 -61 192 -61zM565 -20q-217 0 -340 122h-20l-62 -61l-41 -21h-20l-21 21v41l82 82v20q-82 122 -82 348q-1 226 131 369t349 143t340 -122h20l62 61l41 21h20l20 -21v-41l-81 -82v-20q82 -123 81 -328 q0 -246 -131 -389t-348 -143zM545 860q-131 0 -205 -90t-74 -246t21 -196h20l430 430v41q-61 61 -192 61zM799 1372l-226 -205l-41 -20h-102l-20 20v41l184 205l41 21h143l21 -21v-41z"/>
    <glyph glyph-name="Scommaaccent" unicode="Ș" horiz-adv-x="1290" d="M573 -451v21l82 123v20l-20 21h-41l-21 20v144l21 20h164l20 -20v-164l-20 -62l-103 -102l-41 -21h-41zM1208 400q0 -190 -138 -306q-138 -114 -410 -114t-424 122q-154 122 -154 349l20 20h164l21 -20q0 -287 389 -287q328 0 328 232q0 124 -90 175t-320 84 q-471 68 -471 410q0 157 128 273t378 116t394 -105t144 -325l-20 -20h-164l-20 20q0 127 -78 186t-271 60q-135 0 -211 -56q-75 -56 -75 -162t82 -153t314 -81t358 -131t126 -287z"/>
    <glyph glyph-name="scommaaccent" unicode="ș" horiz-adv-x="942" d="M389 -451v21l82 123v20l-20 21h-41l-21 20v144l21 20h163l21 -20v-164l-21 -62l-102 -102l-41 -21h-41zM881 288q1 -134 -103 -221t-305 -87t-306 89t-106 259l21 20h164l20 -20q0 -164 205 -164t205 123q0 75 -51 103t-214 61t-246 103t-83 198q0 127 94 210 q94 82 282 82t296 -78q106 -79 106 -229l-20 -20h-164l-21 20q0 123 -184 123t-184 -102q0 -72 58 -101t223 -63t239 -102q74 -70 74 -204z"/>
    <glyph glyph-name="uni021A" unicode="Ț" horiz-adv-x="1228" d="M512 -451v21l82 123v20l-21 21h-41l-20 20v144l20 20h164l21 -20v-164l-21 -62l-102 -102l-41 -21h-41zM1188 1270l-21 -21h-430l-20 -20v-1209l-21 -20h-164l-20 20v1209l-20 20h-431l-20 21v143l20 21h1106l21 -21v-143z"/>
    <glyph glyph-name="uni021B" unicode="ț" horiz-adv-x="778" d="M328 -451v21l82 123v20l-21 21h-41l-20 20v144l20 20h164l20 -20v-164l-20 -62l-102 -102l-41 -21h-41zM512 0q-119 0 -203 69t-84 197v553l-20 21h-144l-20 20v144l20 20h144l20 20v185l21 20h164l20 -20v-185l21 -20h225l20 -20v-144l-20 -20h-225l-21 -21v-553 q0 -82 82 -82h164l20 -20v-144l-20 -20h-164z"/>
    <glyph glyph-name="uni0259" unicode="ə" horiz-adv-x="1064" d="M512 1044q238 0 365 -146t127 -382t-119 -386t-353 -150t-352 150q-119 150 -119 382v61l21 21h676l20 20q0 46 -19 94t-46 78t-79 52q-52 23 -122 22q-156 0 -205 -123l-20 -20h-164l-21 20q16 131 125 219t285 88zM532 164q78 0 132 29t76 73q38 76 38 144l-20 20h-451 l-20 -20q0 -69 38 -145q21 -45 75 -73t132 -28z"/>
    <glyph glyph-name="circumflex" unicode="ˆ" horiz-adv-x="1024" d="M840 1167l-21 -20h-102l-41 20l-144 123h-40l-144 -123l-41 -20h-102l-21 20v41l185 205l41 21h204l41 -21l185 -205v-41z"/>
    <glyph glyph-name="caron" unicode="ˇ" horiz-adv-x="1024" d="M184 1413l21 21h102l41 -21l144 -123h40l144 123l41 21h102l21 -21v-41l-185 -205l-41 -20h-204l-41 20l-185 205v41z"/>
    <glyph glyph-name="uni02C9" unicode="ˉ" horiz-adv-x="1024" d="M840 1208l-21 -20h-614l-21 20v123l21 21h614l21 -21v-123z"/>
    <glyph glyph-name="breve" unicode="˘" horiz-adv-x="1024" d="M512 1270q63 0 103 32t40 91l21 20h102l21 -20q0 -121 -81 -194t-206 -73t-206 73t-81 194l21 20h102l21 -20q0 -59 40 -91t103 -32z"/>
    <glyph glyph-name="dotaccent" unicode="˙" horiz-adv-x="1024" d="M614 1208l-20 -20h-164l-20 20v164l20 21h164l20 -21v-164z"/>
    <glyph glyph-name="ring" unicode="˚" horiz-adv-x="1024" d="M594 1311q0 82 -82 82t-82 -82t82 -82t82 82zM717 1311q1 -78 -57 -131q-58 -54 -148 -54t-147 54t-58 131q-1 78 57 131t148 53t148 -53t57 -131z"/>
    <glyph glyph-name="ogonek" unicode="˛" horiz-adv-x="1024" d="M486 -410q-88 0 -154 58t-66 145t58 139t147 68h164q-93 -16 -149 -59t-56 -97t29 -82q50 -50 176 -8l20 -20v-82l-20 -21q-61 -41 -149 -41z"/>
    <glyph glyph-name="tilde" unicode="˜" horiz-adv-x="1024" d="M651 1126q-86 0 -140 36t-92 72t-71 36q-82 0 -82 -103l-20 -20h-62l-20 20q0 97 51 161t137 64t141 -35q54 -36 92 -72t70 -36q82 0 82 103l21 20h61l21 -20q0 -98 -52 -162t-137 -64z"/>
    <glyph glyph-name="hungarumlaut" unicode="˝" horiz-adv-x="1024" d="M922 1372l-226 -205l-41 -20h-102l-21 20v41l185 205l41 21h143l21 -21v-41zM512 1372l-225 -205l-41 -20h-103l-20 20v41l184 205l41 21h144l20 -21v-41z"/>
    <glyph glyph-name="uni0394" unicode="Δ" d="M266 184h656v21l-308 942h-41l-307 -942v-21zM82 0l-21 20v144l410 1249l21 21h204l21 -21l409 -1249v-144l-20 -20h-1024z"/>
    <glyph glyph-name="uni03A9" unicode="Ω" horiz-adv-x="1556" d="M410 184v21q-172 172 -240 293t-68 321q0 311 186 473t490 162t490 -162t186 -473q0 -201 -68 -321t-239 -293v-21h246l20 -20v-144l-20 -20h-471l-21 20v164l21 41q96 97 140 145t96 123t72 145t19 161q0 239 -124 355t-347 116t-347 -117t-124 -354q-1 -90 19 -161 q20 -72 72 -146t96 -121t141 -146l20 -41v-164l-20 -20h-471l-21 20v144l21 20h246z"/>
    <glyph glyph-name="uni03BC" unicode="μ" d="M369 61v-450l-21 -21h-164l-20 21v1393l20 20h164l21 -20v-533q0 -307 225 -307t225 307v533l21 20h164l20 -20v-984l-20 -20h-144l-20 20l-21 41h-20q-82 -82 -205 -81q-54 0 -106 20t-74 41l-25 20h-20z"/>
    <glyph glyph-name="pi" unicode="π" d="M1065 20l-21 -20h-327l-21 20v799l-20 21h-184l-21 -21v-799l-20 -20h-164l-21 20v799l-20 21h-123l-21 20v144l21 20h942l20 -20v-144l-20 -20h-143l-21 -21v-614l21 -21h122l21 -20v-144z"/>
    <glyph glyph-name="Wgrave" unicode="Ẁ" horiz-adv-x="1904" d="M1085 1577l-20 -21h-102l-41 21l-226 205v41l21 20h143l41 -20l184 -205v-41zM1823 1270l-328 -1250l-20 -20h-185l-20 20l-307 1086h-21l-307 -1086l-21 -20h-184l-20 20l-328 1250v143l20 21h123l21 -21l266 -1044h20l308 1044l20 21h184l21 -21l307 -1044h21l266 1044 l20 21h123l21 -21v-143z"/>
    <glyph glyph-name="wgrave" unicode="ẁ" horiz-adv-x="1536" d="M901 1167l-20 -20h-103l-41 20l-225 205v41l20 21h144l41 -21l184 -205v-41zM1454 860l-246 -840l-20 -20h-184l-21 20l-205 717h-20l-205 -717l-21 -20h-184l-20 20l-246 840v144l20 20h123l21 -20l184 -697h21l204 697l21 20h184l21 -20l204 -697h21l184 697l21 20h123 l20 -20v-144z"/>
    <glyph glyph-name="Wacute" unicode="Ẃ" horiz-adv-x="1904" d="M1208 1782l-225 -205l-41 -21h-102l-21 21v41l185 205l40 20h144l20 -20v-41zM1823 1270l-328 -1250l-20 -20h-185l-20 20l-307 1086h-21l-307 -1086l-21 -20h-184l-20 20l-328 1250v143l20 21h123l21 -21l266 -1044h20l308 1044l20 21h184l21 -21l307 -1044h21l266 1044 l20 21h123l21 -21v-143z"/>
    <glyph glyph-name="wacute" unicode="ẃ" horiz-adv-x="1536" d="M1024 1372l-225 -205l-41 -20h-103l-20 20v41l184 205l41 21h144l20 -21v-41zM1454 860l-246 -840l-20 -20h-184l-21 20l-205 717h-20l-205 -717l-21 -20h-184l-20 20l-246 840v144l20 20h123l21 -20l184 -697h21l204 697l21 20h184l21 -20l204 -697h21l184 697l21 20 h123l20 -20v-144z"/>
    <glyph glyph-name="Wdieresis" unicode="Ẅ" horiz-adv-x="1904" d="M1823 1270l-328 -1250l-20 -20h-185l-20 20l-307 1086h-21l-307 -1086l-21 -20h-184l-20 20l-328 1250v143l20 21h123l21 -21l266 -1044h20l308 1044l20 21h184l21 -21l307 -1044h21l266 1044l20 21h123l21 -21v-143zM860 1618l-20 -21h-164l-21 21v164l21 20h164l20 -20 v-164zM1249 1618l-20 -21h-164l-21 21v164l21 20h164l20 -20v-164z"/>
    <glyph glyph-name="wdieresis" unicode="ẅ" horiz-adv-x="1536" d="M1454 860l-246 -840l-20 -20h-184l-21 20l-205 717h-20l-205 -717l-21 -20h-184l-20 20l-246 840v144l20 20h123l21 -20l184 -697h21l204 697l21 20h184l21 -20l204 -697h21l184 697l21 20h123l20 -20v-144zM676 1208l-21 -20h-163l-21 20v164l21 21h163l21 -21v-164z M1065 1208l-21 -20h-163l-21 20v164l21 21h163l21 -21v-164z"/>
    <glyph glyph-name="uni1E8A" unicode="Ẋ" horiz-adv-x="1331" d="M778 1618l-20 -21h-185l-20 21v164l20 20h185l20 -20v-164zM1249 20l-20 -20h-82l-41 20l-430 574h-21l-430 -574l-41 -20h-82l-20 20v144l450 573v21l-430 512v143l21 21h82l41 -21l409 -512h21l409 512l41 21h82l21 -21v-143l-430 -512v-21l450 -573v-144z"/>
    <glyph glyph-name="uni1E8B" unicode="ẋ" horiz-adv-x="1003" d="M614 1208l-20 -20h-184l-21 20v164l21 21h184l20 -21v-164zM942 20l-20 -20h-62l-41 20l-307 349h-20l-308 -349l-41 -20h-61l-21 20v144l308 348v20l-287 328v144l20 20h62l41 -20l287 -328h20l287 328l41 20h61l21 -20v-144l-287 -328v-20l307 -348v-144z"/>
    <glyph glyph-name="Ygrave" unicode="Ỳ" d="M737 1577l-20 -21h-103l-41 21l-225 205v41l21 20h143l41 -20l184 -205v-41zM1126 1270l-430 -697v-553l-20 -20h-164l-20 20v553l-431 697v143l21 21h82l41 -21l368 -614h41l369 614l41 21h82l20 -21v-143z"/>
    <glyph glyph-name="ygrave" unicode="ỳ" horiz-adv-x="1044" d="M655 1167l-20 -20h-103l-40 20l-226 205v41l21 21h143l41 -21l184 -205v-41zM205 -328h-41l-21 21v143l21 21h41q82 1 129 25t76 98v20l-349 860v144l21 20h123l20 -20l287 -758h20l287 758l21 20h123l20 -20v-144l-328 -819q-92 -229 -178 -299t-272 -70z"/>
    <glyph glyph-name="endash" unicode="–" horiz-adv-x="1269" d="M1147 451l-21 -21h-983l-20 21v143l20 20h983l21 -20v-143z"/>
    <glyph glyph-name="emdash" unicode="—" horiz-adv-x="2293" d="M2171 451l-21 -21h-2007l-20 21v143l20 20h2007l21 -20v-143z"/>
    <glyph glyph-name="quoteleft" unicode="‘" horiz-adv-x="573" d="M410 1434v-21l-123 -184v-21l20 -20h62l20 -21v-204l-20 -21h-205l-21 21v225l21 61l123 164l41 21h82z"/>
    <glyph glyph-name="quoteright" unicode="’" horiz-adv-x="573" d="M164 942v21l123 184v20l-21 21h-61l-21 20v205l21 21h205l20 -21v-225l-20 -62l-123 -163l-41 -21h-82z"/>
    <glyph glyph-name="quotesinglbase" unicode="‚" horiz-adv-x="573" d="M143 -246v21l123 184v21l-20 20h-62l-20 20v205l20 21h205l21 -21v-225l-21 -61l-123 -164l-41 -21h-82z"/>
    <glyph glyph-name="quotedblleft" unicode="“" horiz-adv-x="983" d="M410 1434v-21l-123 -184v-21l20 -20h62l20 -21v-204l-20 -21h-205l-21 21v225l21 61l123 164l41 21h82zM819 1434v-21l-123 -184v-21l21 -20h61l21 -21v-204l-21 -21h-205l-20 21v225l20 61l123 164l41 21h82z"/>
    <glyph glyph-name="quotedblright" unicode="”" horiz-adv-x="983" d="M164 942v21l123 184v20l-21 21h-61l-21 20v205l21 21h205l20 -21v-225l-20 -62l-123 -163l-41 -21h-82zM573 942v21l123 184v20l-20 21h-62l-20 20v205l20 21h205l21 -21v-225l-21 -62l-123 -163l-41 -21h-82z"/>
    <glyph glyph-name="quotedblbase" unicode="„" horiz-adv-x="983" d="M143 -246v21l123 184v21l-20 20h-62l-20 20v205l20 21h205l21 -21v-225l-21 -61l-123 -164l-41 -21h-82zM553 -246v21l123 184v21l-21 20h-61l-21 20v205l21 21h205l20 -21v-225l-20 -61l-123 -164l-41 -21h-82z"/>
    <glyph glyph-name="dagger" unicode="†" d="M696 -389l-20 -21h-164l-20 21v1208l-21 21h-369l-20 20v144l20 20h369l21 20v369l20 21h164l20 -21v-369l21 -20h368l21 -20v-144l-21 -20h-368l-21 -21v-1208z"/>
    <glyph glyph-name="daggerdbl" unicode="‡" d="M492 1413l20 21h164l20 -21v-369l21 -20h368l21 -20v-144l-21 -20h-368l-21 -21v-614l21 -21h368l21 -20v-144l-21 -20h-368l-21 -20v-369l-20 -21h-164l-20 21v369l-21 20h-369l-20 20v144l20 20h369l21 21v614l-21 21h-369l-20 20v144l20 20h369l21 20v369z"/>
    <glyph glyph-name="bullet" unicode="•" horiz-adv-x="798" d="M635 532v-20l-225 -225h-21l-225 225v20l225 226h21z"/>
    <glyph glyph-name="ellipsis" unicode="…" horiz-adv-x="1474" d="M1311 20l-21 -20h-205l-20 20v205l20 21h205l21 -21v-205zM860 20l-20 -20h-205l-21 20v205l21 21h205l20 -21v-205zM410 20l-21 -20h-205l-20 20v205l20 21h205l21 -21v-205z"/>
    <glyph glyph-name="perthousand" unicode="‰" horiz-adv-x="2355" d="M1393 1270l-820 -1250l-20 -20h-82l-20 20v144l819 1249l20 21h82l21 -21v-143zM1761 369q0 -113 38 -169t126 -56t126 56t38 169t-38 169t-126 56t-126 -56t-38 -169zM1249 369q0 -113 38 -169t126 -56t126 56t38 169t-38 169t-126 56t-126 -56t-38 -169zM266 1065 q0 -113 38 -169t126 -56t126 56t38 169t-38 169t-126 56t-126 -56t-38 -169zM430 676q-176 0 -262 105t-86 283t86 284t262 106t262 -105t86 -283t-86 -284t-262 -106zM2273 369q0 -177 -86 -283t-256 -106t-252 122h-20q-82 -122 -252 -122t-256 105t-86 283t86 284 t256 106t252 -123h20q82 123 252 123t256 -106t86 -283z"/>
    <glyph glyph-name="guilsinglleft" unicode="‹" horiz-adv-x="901" d="M737 82l-20 -21h-164l-41 21l-328 328l-20 41v122l20 41l328 328l41 21h164l20 -21v-61l-368 -349v-40l368 -349v-61z"/>
    <glyph glyph-name="guilsinglright" unicode="›" horiz-adv-x="901" d="M184 61l-20 21v61l368 349v40l-368 349v61l20 21h164l41 -21l328 -328l20 -41v-122l-20 -41l-328 -328l-41 -21h-164z"/>
    <glyph glyph-name="fraction" unicode="⁄" horiz-adv-x="1269" d="M1106 1270l-819 -1250l-21 -20h-82l-20 20v144l819 1249l21 21h81l21 -21v-143z"/>
    <glyph glyph-name="Euro" unicode="€" horiz-adv-x="1454" d="M811 164q160 0 243 60t113 186l21 20h164l20 -20q-31 -211 -175 -321q-145 -109 -377 -109t-391 131t-204 360l-20 21h-144l-20 20v123l20 20h123l21 21v82l-21 20h-123l-20 21v123l20 20h144l20 21q31 219 192 355t398 136t382 -109q144 -110 175 -321l-20 -20h-164 l-21 20q-61 244 -319 246q-123 0 -198 -30q-125 -50 -187 -177q-25 -49 -33 -100l21 -21h491l21 -20v-123l-21 -21h-512l-20 -20v-82l20 -21h430l21 -20v-123l-21 -20h-409l-21 -21q18 -113 120 -210t261 -97z"/>
    <glyph glyph-name="uni2117" unicode="℗" horiz-adv-x="1720" d="M123 717q0 307 215 522t522 215t522 -215t215 -522t-215 -522t-522 -215t-522 215t-215 522zM287 717q0 -246 164 -410q163 -164 409 -164t410 164t164 410q0 245 -164 409t-410 164t-410 -164t-163 -409zM983 635h-246l-20 -21v-286l-21 -21h-123l-20 21v778l20 20h410 q125 0 196 -62t71 -183t-71 -184q-71 -62 -196 -62zM1085 881q-1 45 -29 73t-73 29h-246l-20 -20v-164l20 -21h246q45 0 74 29q28 29 28 74z"/>
    <glyph glyph-name="trademark" unicode="™" horiz-adv-x="1699" d="M922 1126v-409l-21 -21h-102l-21 21v696l21 21h143l21 -21l204 -512h21l205 512l20 21h143l21 -21v-696l-21 -21h-102l-20 21v409h-21l-164 -409l-20 -21h-103l-20 21l-164 409h-20zM41 1413l20 21h594l21 -21v-82l-21 -20h-204l-21 -21v-573l-20 -21h-103l-20 21v573 l-21 21h-205l-20 20v82z"/>
    <glyph glyph-name="Omega" unicode="Ω" horiz-adv-x="1556" d="M410 184v21q-172 172 -240 293t-68 321q0 311 186 473t490 162t490 -162t186 -473q0 -201 -68 -321t-239 -293v-21h246l20 -20v-144l-20 -20h-471l-21 20v164l21 41q96 97 140 145t96 123t72 145t19 161q0 239 -124 355t-347 116t-347 -117t-124 -354q-1 -90 19 -161 q20 -72 72 -146t96 -121t141 -146l20 -41v-164l-20 -20h-471l-21 20v144l21 20h246z"/>
    <glyph glyph-name="arrowleft" unicode="←" horiz-adv-x="1761" d="M492 594h1085l20 -21v-122l-20 -21h-1085v-20l368 -369v-21l-20 -20h-164l-41 20l-471 472v40l471 472l41 20h164l20 -20v-21l-368 -369v-20z"/>
    <glyph glyph-name="arrowup" unicode="↑" horiz-adv-x="1351" d="M758 1106v-1086l-21 -20h-123l-20 20v1086h-21l-368 -369h-21l-20 21v164l20 41l471 471h41l471 -471l21 -41v-164l-21 -21h-20l-369 369h-20z"/>
    <glyph glyph-name="arrowright" unicode="→" horiz-adv-x="1761" d="M1270 430h-1086l-20 21v122l20 21h1086v20l-369 369v21l21 20h163l41 -20l471 -472v-40l-471 -472l-41 -20h-163l-21 20v21l369 369v20z"/>
    <glyph glyph-name="arrowdown" unicode="↓" horiz-adv-x="1351" d="M594 328v1085l20 21h123l21 -21v-1085h20l369 368h20l21 -20v-164l-21 -41l-471 -471h-41l-471 471l-20 41v164l20 20h21l368 -368h21z"/>
    <glyph glyph-name="arrowboth" unicode="↔" horiz-adv-x="2170" d="M1679 430h-1187v-20l368 -369v-21l-20 -20h-164l-41 20l-471 472v40l471 472l41 20h164l20 -20v-21l-368 -369v-20h1187v20l-368 369v21l20 20h164l41 -20l471 -472v-40l-471 -472l-41 -20h-164l-20 20v21l368 369v20z"/>
    <glyph glyph-name="arrowupdn" unicode="↕" horiz-adv-x="1351" d="M594 -82v1188h-21l-368 -369h-21l-20 21v164l20 41l471 471h41l471 -471l21 -41v-164l-21 -21h-20l-369 369h-20v-1188h20l369 369h20l21 -21v-164l-21 -41l-471 -471h-41l-471 471l-20 41v164l20 21h21l368 -369h21z"/>
    <glyph glyph-name="uni2196" unicode="↖" horiz-adv-x="1413" d="M471 1270v-21l778 -778v-20l-102 -103h-21l-778 778h-20v-512l-21 -20h-20l-103 102l-20 41v656l41 41h655l41 -21l103 -102v-21l-21 -20h-512z"/>
    <glyph glyph-name="uni2197" unicode="↗" horiz-adv-x="1413" d="M1085 1126h-20l-778 -778h-21l-102 103v20l778 778v21h-512l-20 20v21l102 102l41 21h655l41 -41v-656l-20 -41l-103 -102h-20l-21 20v512z"/>
    <glyph glyph-name="uni2198" unicode="↘" horiz-adv-x="1413" d="M942 164v20l-778 779v20l102 102h21l778 -778h20v512l21 21h20l103 -103l20 -41v-655l-41 -41h-655l-41 20l-102 103v20l20 21h512z"/>
    <glyph glyph-name="uni2199" unicode="↙" horiz-adv-x="1413" d="M328 307h20l778 778h21l102 -102v-20l-778 -779v-20h512l21 -21v-20l-103 -103l-41 -20h-655l-41 41v655l20 41l103 103h20l21 -21v-512z"/>
    <glyph glyph-name="partialdiff" unicode="∂" d="M860 512q0 348 -266 348t-266 -348t266 -348t266 348zM471 1290q-111 0 -180 -30l-25 -11l-20 21v123l20 20q82 41 205 41q594 0 594 -942q0 -256 -126 -394t-336 -138t-345 135t-135 388t125 397t325 144q74 0 130 -20t75 -41l21 -20h20q-18 133 -100 230t-248 97z"/>
    <glyph glyph-name="Delta" unicode="∆" d="M266 184h656v21l-308 942h-41l-307 -942v-21zM82 0l-21 20v144l410 1249l21 21h204l21 -21l409 -1249v-144l-20 -20h-1024z"/>
    <glyph glyph-name="product" unicode="∏" d="M922 -389l-21 -21h-164l-20 21v1618l-21 20h-204l-21 -20v-1618l-20 -21h-164l-21 21v1618l-20 20h-144l-20 21v143l20 21h983l21 -21v-143l-21 -21h-143l-20 -20v-1618z"/>
    <glyph glyph-name="summation" unicode="∑" d="M348 1249v-20l410 -594l20 -41v-143l-20 -41l-430 -615v-20h553l20 20v123l21 21h163l21 -21v-307l-21 -21h-983l-20 21v164l20 41l492 696v20l-471 676l-21 41v164l21 21h942l20 -21v-307l-20 -21h-164l-20 21v123l-21 20h-512z"/>
    <glyph glyph-name="minus" unicode="−" horiz-adv-x="1146" d="M1024 451l-20 -21h-861l-20 21v143l20 20h861l20 -20v-143z"/>
    <glyph glyph-name="uni2215" unicode="∕" horiz-adv-x="1269" d="M1106 1270l-819 -1250l-21 -20h-82l-20 20v144l819 1249l21 21h81l21 -21v-143z"/>
    <glyph glyph-name="uni2219" unicode="∙" horiz-adv-x="573" d="M410 430l-21 -20h-205l-20 20v205l20 20h205l21 -20v-205z"/>
    <glyph glyph-name="radical" unicode="√" d="M451 307l327 1106l21 21h307l20 -21v-123l-20 -20h-164l-20 -21l-369 -1229l-21 -20h-184l-20 20l-246 840v144l20 20h123l21 -20l184 -697h21z"/>
    <glyph glyph-name="infinity" unicode="∞" horiz-adv-x="1454" d="M1102 737q-121 0 -232 -96q-35 -31 -92 -88v-41q57 -57 92 -88q34 -31 96 -64t119 -32q92 0 149 56q56 56 56 148t-56 149q-58 56 -132 56zM352 737q-74 0 -132 -56q-56 -57 -56 -149t56 -148t131 -56q122 0 233 96q35 31 92 88v41q-57 57 -92 88q-34 31 -96 63t-136 33z M369 266q-125 0 -206 73t-81 193t81 194q81 73 206 73q67 0 139 -39t110 -73t99 -93h20q59 59 99 93t112 73t137 39q125 0 206 -73t81 -194q0 -122 -81 -194t-206 -72q-67 0 -139 39t-111 73t-98 93h-20q-59 -59 -99 -93t-112 -73t-137 -39z"/>
    <glyph glyph-name="integral" unicode="∫" d="M983 1434h82l20 -21l-20 -143l-21 -21h-61q-86 1 -128 -31t-56 -133l-164 -1146q-29 -201 -124 -275t-265 -74h-41l-21 21l21 143l20 21h21q86 0 128 32t56 132l164 1146q29 201 124 275t265 74z"/>
    <glyph glyph-name="approxequal" unicode="≈" d="M799 41q-66 0 -126 27t-89 50t-70 64q-41 40 -60 58q-48 45 -106 46q-57 1 -80 -40t-22 -123l-21 -21h-123l-20 21q0 166 74 267t233 102q66 0 126 -27t89 -51t70 -64q41 -41 60 -58q51 -46 107 -46t79 41t22 123l21 20h122l21 -20q0 -166 -74 -268t-233 -101zM389 983 q66 0 126 -27q60 -26 89 -50t70 -64t60 -58q48 -45 106 -46q57 -1 80 40t22 123l21 21h122l21 -21q0 -166 -74 -267t-233 -102q-66 0 -126 27t-89 51t-70 64q-41 41 -60 58q-51 46 -107 46t-79 -41t-22 -123l-21 -20h-123l-20 20q0 166 74 268t233 101z"/>
    <glyph glyph-name="notequal" unicode="≠" d="M840 799h184l20 -21v-143l-20 -21h-307l-21 -20l-102 -164v-20h430l20 -21v-143l-20 -21h-553l-20 -20l-103 -164l-20 -21h-41l-21 21v41l82 123v20h-184l-21 21v143l21 21h307l21 20l102 164v20h-430l-21 21v143l21 21h553l20 20l103 164l20 21h41l21 -21v-41l-82 -123 v-20z"/>
    <glyph glyph-name="lessequal" unicode="≤" d="M123 758l20 20l676 246h205l20 -20v-82l-20 -21l-655 -225v-41l655 -225l20 -21v-82l-20 -20h-205l-676 245l-20 21v205zM1044 20l-20 -20h-881l-20 20v144l20 20h881l20 -20v-144z"/>
    <glyph glyph-name="greaterequal" unicode="≥" d="M1024 778l20 -20v-205l-20 -21l-676 -245h-205l-20 20v82l20 21l656 225v41l-656 225l-20 21v82l20 20h205zM143 0l-20 20v144l20 20h881l20 -20v-144l-20 -20h-881z"/>
    <glyph glyph-name="lozenge" unicode="◊" d="M307 737v-41l266 -450h41l267 450v41l-267 451h-41zM1085 778v-123l-389 -635l-20 -20h-164l-20 20l-390 635v123l390 635l20 21h164l20 -21z"/>
    <glyph glyph-name="uniFB00" unicode="ﬀ" horiz-adv-x="1392" d="M246 1126q0 129 84 198t202 69h164l21 -21v-143l-21 -21h-164q-82 0 -81 -82v-82l20 -20h389l21 20v82q0 129 84 198t202 69h164l21 -21v-143l-21 -21h-164q-82 0 -82 -82v-82l21 -20h205l20 -20v-144l-20 -20h-205l-21 -21v-799l-20 -20h-164l-20 20v799l-21 21h-389 l-20 -21v-799l-21 -20h-164l-20 20v799l-21 21h-143l-21 20v144l21 20h143l21 20v82z"/>
    <glyph glyph-name="fi" unicode="ﬁ" horiz-adv-x="1208" d="M246 1126q0 129 84 198t202 69h164l21 -21v-143l-21 -21h-164q-82 0 -81 -82v-82l20 -20h594l20 -20v-984l-20 -20h-164l-20 20v799l-21 21h-389l-20 -21v-799l-21 -20h-164l-20 20v799l-21 21h-143l-21 20v144l21 20h143l21 20v82zM1085 1208l-20 -20h-164l-20 20v164 l20 21h164l20 -21v-164z"/>
    <glyph glyph-name="fl" unicode="ﬂ" horiz-adv-x="1208" d="M246 1126q0 129 84 198t202 69h164l21 -21v-143l-21 -21h-164q-82 0 -81 -82v-82l20 -20h389l21 20v369l20 21h164l20 -21v-1393l-20 -20h-164l-20 20v799l-21 21h-389l-20 -21v-799l-21 -20h-164l-20 20v799l-21 21h-143l-21 20v144l21 20h143l21 20v82z"/>
    <glyph glyph-name="uniFB03" unicode="ﬃ" horiz-adv-x="1843" d="M1720 1208l-20 -20h-164l-20 20v164l20 21h164l20 -21v-164zM246 1126q0 129 84 198t202 69h164l21 -21v-143l-21 -21h-164q-82 0 -81 -82v-82l20 -20h389l21 20v82q0 129 84 198t202 69h164l21 -21v-143l-21 -21h-164q-82 0 -82 -82v-82l21 -20h594l20 -20v-984l-20 -20 h-164l-20 20v799l-21 21h-389l-21 -21v-799l-20 -20h-164l-20 20v799l-21 21h-389l-20 -21v-799l-21 -20h-164l-20 20v799l-21 21h-143l-21 20v144l21 20h143l21 20v82z"/>
    <glyph glyph-name="uniFB04" unicode="ﬄ" horiz-adv-x="1843" d="M246 1126q0 129 84 198t202 69h164l21 -21v-143l-21 -21h-164q-82 0 -81 -82v-82l20 -20h389l21 20v82q0 129 84 198t202 69h164l21 -21v-143l-21 -21h-164q-82 0 -82 -82v-82l21 -20h389l21 20v369l20 21h164l20 -21v-1393l-20 -20h-164l-20 20v799l-21 21h-389l-21 -21 v-799l-20 -20h-164l-20 20v799l-21 21h-389l-20 -21v-799l-21 -20h-164l-20 20v799l-21 21h-143l-21 20v144l21 20h143l21 20v82z"/>
    <glyph glyph-name="i.latn_TRK" horiz-adv-x="450" d="M328 20l-21 -20h-164l-20 20v984l20 20h164l21 -20v-984zM328 1208l-21 -20h-164l-20 20v164l20 21h164l21 -21v-164z"/>
    <glyph glyph-name="zero.osf" horiz-adv-x="1105" d="M266 518q0 -152 77 -252q77 -102 211 -102t210 95t76 253t-76 253t-211 95t-211 -95t-76 -247zM61 512q-1 236 133 384t359 148t358 -148t133 -384t-133 -384t-358 -148t-359 148t-133 384z"/>
    <glyph glyph-name="one.osf" horiz-adv-x="634" d="M307 758h-20l-144 -144h-61l-21 21v143l226 226l41 20h164l20 -20v-984l-20 -20h-164l-21 20v738z"/>
    <glyph glyph-name="two.osf" horiz-adv-x="1064" d="M528 860q-121 0 -171 -54t-50 -130l-20 -21h-164l-21 21q0 154 108 262t322 106q214 0 323 -108q108 -108 108 -253q-1 -146 -93 -234t-256 -162l-184 -82v-21h553l21 -20v-144l-21 -20h-881l-20 20v144l20 41l410 205q133 66 189 122q57 56 57 142t-54 136t-176 50z"/>
    <glyph glyph-name="three.osf" horiz-adv-x="1064" d="M1024 57q0 -223 -139 -355t-361 -132t-353 118q-130 118 -130 292l20 20h164l21 -20q0 -86 70 -156t208 -70t216 83t79 222q0 139 -70 214q-71 75 -196 75q-45 0 -86 -15t-59 -30l-19 -16h-61l-21 20v144l389 368v21h-573l-21 20v144l21 20h799l20 -20v-164l-20 -41 l-308 -287v-20q12 2 41 2q143 0 256 -107t113 -330z"/>
    <glyph glyph-name="four.osf" horiz-adv-x="1085" d="M758 758h-21l-471 -553v-21h471l21 21v553zM963 -389l-21 -21h-164l-20 21v369l-21 20h-676l-20 20v164l20 41l656 779l41 20h184l21 -20v-1393z"/>
    <glyph glyph-name="five.osf" horiz-adv-x="1146" d="M1065 102q0 -270 -127 -401q-128 -131 -358 -131t-346 108t-132 302l21 20h164l20 -20q19 -111 73 -168t193 -58q287 0 287 328q0 150 -60 228t-192 79q-132 0 -195 -55t-77 -92l-8 -17l-41 -20l-144 20l-20 21l41 758l20 20h799l21 -20v-144l-21 -20h-614l-21 -21 l-20 -368h20q4 4 16 23t62 45q98 54 209 54q217 0 323 -134t107 -337z"/>
    <glyph glyph-name="six.osf" horiz-adv-x="1146" d="M860 456q0 144 -60 224q-60 78 -202 78t-217 -74q-74 -74 -74 -217t76 -223q77 -80 203 -80t200 74t74 218zM578 -20q-232 0 -364 162t-132 564t136 575t396 173q186 0 301 -90t129 -258l-20 -21h-164l-20 21q-14 90 -74 127t-172 37q-287 0 -287 -430h21q10 12 28 28 t94 45t164 29q213 0 332 -127t119 -350t-127 -354q-128 -131 -360 -131z"/>
    <glyph glyph-name="seven.osf" horiz-adv-x="1024" d="M737 840h-655l-21 20v144l21 20h860l21 -20v-164l-594 -1229l-21 -21h-102l-21 21v164l512 1044v21z"/>
    <glyph glyph-name="eight.osf" horiz-adv-x="1105" d="M840 418q0 110 -71 184t-216 74t-216 -75t-71 -184t72 -181t215 -72t215 72t72 182zM553 840q119 0 183 64t63 155q1 92 -59 151q-60 60 -187 60t-186 -60t-59 -151t62 -155q64 -64 183 -64zM1044 410q0 -180 -129 -306t-362 -124q-233 0 -363 124q-129 125 -129 306 q1 137 63 222t142 126v20q-164 109 -164 281q0 171 116 283t335 112t335 -112t116 -284t-164 -280v-20q80 -41 142 -126t62 -222z"/>
    <glyph glyph-name="nine.osf" horiz-adv-x="1146" d="M287 573q1 -137 71 -212t202 -75t206 74t74 217t-78 213t-206 70t-198 -75t-71 -212zM1065 330q0 -400 -131 -580t-402 -180q-172 0 -284 91t-125 257l20 21h164l21 -21q27 -164 225 -164q82 0 140 37t85 84q62 108 62 330h-21q-10 -13 -28 -29q-17 -16 -93 -45t-166 -29 q-202 0 -326 129t-124 347t132 342t339 124q258 0 385 -156q127 -158 127 -558z"/>
    <glyph glyph-name="numbersign.tf" d="M492 573h143l20 21l62 246l-21 20h-143l-21 -20l-61 -246zM532 164l62 225l-21 21h-143l-20 -21l-103 -369l-20 -20h-103l-20 20v144l61 225l-20 21h-144l-20 20v123l20 20h205l21 21l61 246l-20 20h-164l-21 21v123l21 20h225l21 20l102 369l20 21h103l20 -21v-143 l-61 -226l20 -20h144l20 20l103 369l20 21h103l20 -21v-143l-61 -226l20 -20h143l21 -20v-123l-21 -21h-204l-21 -20l-61 -246l20 -21h164l20 -20v-123l-20 -20h-225l-21 -21l-102 -369l-21 -20h-102l-21 20v144z"/>
    <glyph glyph-name="dollar.tf" d="M287 1065q0 -170 205 -205l20 21v368l-20 21q-111 -14 -158 -72t-47 -133zM922 389q0 188 -226 225l-20 -20v-410l20 -20q106 16 166 74t60 151zM82 1058q0 159 96 263t314 133l20 21v122l20 21h123l21 -21v-122l20 -21q180 -14 284 -135t105 -295l-20 -20h-164l-20 20 q0 96 -47 164t-138 82l-20 -21v-409l20 -21q430 -86 430 -430q0 -102 -41 -175q-41 -72 -87 -114q-104 -96 -302 -120l-20 -21v-123l-21 -20h-123l-20 20v123l-20 21q-225 31 -328 148q-102 118 -103 323l21 20h164l20 -20q0 -123 49 -198t177 -89l20 20v451l-20 20 q-206 47 -308 145t-102 258z"/>
    <glyph glyph-name="plus.tf" d="M1085 451l-20 -21h-348l-21 -20v-349l-20 -20h-144l-20 20v349l-20 20h-349l-20 21v143l20 20h349l20 21v348l20 21h144l20 -21v-348l21 -21h348l20 -20v-143z"/>
    <glyph glyph-name="zero.tf" d="M287 717q0 -553 307 -553t307 553t-307 553t-307 -553zM82 717q0 391 139 564t373 173t372 -173q140 -173 140 -564t-139 -564t-373 -173t-373 173t-139 564z"/>
    <glyph glyph-name="one.tf" d="M532 1167h-20l-266 -266h-41l-21 21v163l328 328l41 21h164l20 -21v-1208l21 -21h327l21 -20v-144l-21 -20h-962l-21 20v144l21 20h389l20 21v962z"/>
    <glyph glyph-name="two.tf" d="M594 1270q-266 0 -266 -266l-21 -21h-164l-20 21q0 206 123 328t348 122t338 -125t112 -285q0 -120 -44 -234t-181 -237l-409 -368v-21h655l20 -20v-144l-20 -20h-922l-20 20v164l20 41l410 369q170 154 228 234q59 80 59 190t-60 181t-186 71z"/>
    <glyph glyph-name="three.tf" d="M1085 467q0 -223 -139 -355q-140 -132 -362 -132t-352 118t-130 291l21 21h164l20 -21q0 -86 70 -156q70 -69 208 -69t217 83t79 222t-71 214t-196 75q-45 0 -86 -16t-59 -29l-18 -17h-62l-20 21v143l389 369v20h-574l-20 21v143l20 21h799l21 -21v-164l-21 -41 l-307 -286v-21q12 2 41 2q143 0 256 -106q112 -107 112 -330z"/>
    <glyph glyph-name="four.tf" d="M799 1167h-21l-471 -553v-20h471l21 20v553zM1004 20l-21 -20h-164l-20 20v369l-21 21h-676l-20 20v164l20 41l656 778l41 21h184l21 -21v-1393z"/>
    <glyph glyph-name="five.tf" d="M1106 512q0 -270 -127 -401t-357 -131t-347 108q-116 108 -132 301l21 21h164l20 -21q18 -111 72 -168t194 -57q287 0 287 328q0 150 -60 228t-192 79q-132 0 -195 -56q-64 -56 -77 -92l-8 -16l-41 -21l-144 21l-20 20l41 758l20 21h799l20 -21v-143l-20 -21h-614 l-21 -20l-20 -369h20q4 4 16 22t61 46q97 55 210 55q218 0 324 -134t106 -337z"/>
    <glyph glyph-name="six.tf" d="M881 456q-1 144 -61 224q-60 78 -202 78t-217 -74q-73 -74 -73 -217t76 -223t202 -80q127 0 201 74t74 218zM598 -20q-232 0 -364 162t-132 564t136 575t397 173q186 0 301 -90t129 -258l-21 -21h-163l-21 21q-14 90 -74 127t-172 37q-287 0 -286 -430h20q10 12 28 28 t94 45q75 29 165 29q213 0 332 -127t119 -350t-128 -354t-360 -131z"/>
    <glyph glyph-name="seven.tf" d="M819 1249h-655l-21 21v143l21 21h860l20 -21v-164l-593 -1229l-21 -20h-102l-21 20v164l512 1045v20z"/>
    <glyph glyph-name="eight.tf" d="M881 418q0 110 -71 184t-216 74t-216 -75t-71 -184t72 -181t215 -72t215 72t72 182zM594 840q118 0 182 64t64 155q0 92 -60 151q-60 60 -186 60q-127 0 -186 -60q-60 -60 -60 -151t64 -155t182 -64zM1085 410q0 -180 -129 -306t-362 -124q-233 0 -363 124 q-129 125 -129 306q0 137 62 222t143 126v20q-164 109 -164 281q0 171 116 283t335 112t335 -112q115 -112 115 -284t-163 -280v-20q80 -41 142 -126t62 -222z"/>
    <glyph glyph-name="nine.tf" d="M307 983q0 -137 71 -212q70 -75 202 -75t206 74t74 217t-78 213t-206 70t-198 -75t-71 -212zM573 1454q258 0 385 -156t127 -558q0 -400 -131 -580t-401 -180q-172 0 -284 91t-126 257l21 20h164l20 -20q27 -164 225 -164q83 0 141 37t85 84q61 106 61 329h-20 q-10 -12 -28 -28t-94 -45q-75 -29 -165 -29q-201 0 -326 129t-125 347t132 342t339 124z"/>
    <glyph glyph-name="less.tf" d="M143 573l21 41l799 410h41l20 -20v-123l-20 -41l-635 -308v-40l635 -308l20 -41v-123l-20 -20h-41l-799 410l-21 41v122z"/>
    <glyph glyph-name="equal.tf" d="M1024 246l-20 -21h-820l-20 21v143l20 21h820l20 -21v-143zM1024 635l-20 -21h-820l-20 21v143l20 21h820l20 -21v-143z"/>
    <glyph glyph-name="greater.tf" d="M1024 614l20 -41v-122l-20 -41l-799 -410h-41l-20 20v123l20 41l635 308v40l-635 308l-20 41v123l20 20h41z"/>
    <glyph glyph-name="asciitilde.tf" d="M389 737q66 -1 126 -27t89 -50t70 -64t60 -58q51 -46 107 -46t79 40t22 123l21 21h122l21 -21q0 -166 -74 -267t-233 -101q-66 1 -126 27t-89 50t-70 64q-41 41 -60 58q-51 46 -107 46t-79 -40t-22 -123l-21 -21h-123l-20 21q0 166 74 267t233 101z"/>
    <glyph glyph-name="cent.tf" d="M123 512q0 138 39 242q39 106 102 164q123 112 248 126l20 21v82l21 20h123l20 -20v-82l21 -21q127 -18 230 -106t118 -242l-21 -20h-163l-21 20q-35 137 -143 164l-21 -20v-656l21 -20q109 27 143 164l21 20h163l21 -20q-13 -154 -117 -242t-231 -106l-21 -21v-82 l-20 -20h-123l-21 20v82l-20 21q-125 16 -248 126q-63 56 -102 162t-39 244zM328 512q0 -162 58 -244t126 -104l20 20v656l-20 20q-68 -22 -126 -104t-58 -244z"/>
    <glyph glyph-name="sterling.tf" d="M471 389q0 -102 -82 -184v-21h717l20 -20v-144l-20 -20h-1004l-20 20v144l20 20h21q143 0 143 185v184l-20 20h-123l-21 21v123l21 20h123l20 21v266q0 430 410 430t409 -430l-20 -20h-164l-20 20q0 129 -43 187q-43 59 -162 59t-162 -58t-43 -188v-266l21 -21h409 l21 -20v-123l-21 -21h-409l-21 -20v-164z"/>
    <glyph glyph-name="currency.tf" d="M266 512q0 -144 90 -246t238 -102t237 102q91 102 91 246t-90 246t-238 102q-147 0 -238 -102q-90 -103 -90 -246zM61 512q0 164 82 287v20l-123 123v21l123 122h21l123 -122h20q123 81 287 81t287 -81h20l123 122h20l123 -122v-21l-123 -123v-20q82 -123 82 -287 t-82 -287v-20l123 -123v-21l-123 -122h-20l-123 122h-20q-123 -81 -287 -81t-287 81h-20l-123 -122h-21l-123 122v21l123 123v20q-82 123 -82 287z"/>
    <glyph glyph-name="yen.tf" d="M348 758v20l-246 492v143l21 21h102l41 -21l307 -655h41l308 655l41 21h102l20 -21v-143l-245 -492v-20h164l20 -21v-123l-20 -20h-226l-41 -21l-41 -81v-41l21 -21h225l21 -20v-123l-21 -21h-225l-21 -20v-226l-20 -20h-164l-20 20v226l-21 20h-225l-21 21v123l21 20 h225l21 21v41l-41 81l-41 21h-226l-20 20v123l20 21h164z"/>
    <glyph glyph-name="section.tf" d="M1065 -61q0 -173 -113 -271t-339 -98t-358 104t-132 326l20 20h164l21 -20q0 -129 62 -187q62 -59 210 -59t205 45q55 45 55 131t-82 136t-200 82t-235 75q-118 43 -200 136t-82 235q0 184 164 266v21q-102 102 -102 225q0 160 117 254t354 94q471 0 471 -430l-21 -20 h-163l-21 20q0 129 -62 187q-62 59 -210 59t-204 -41t-56 -121t82 -129t200 -82t235 -76t199 -136t82 -234q1 -185 -163 -267v-20q102 -102 102 -225zM799 266q123 31 123 176t-150 211q-55 25 -130 48t-232 77h-21q-123 -30 -123 -176t150 -211q55 -25 130 -48t232 -77h21z "/>
    <glyph glyph-name="logicalnot.tf" d="M1024 205l-20 -21h-144l-20 21v205l-21 20h-676l-20 21v143l20 20h861l20 -20v-389z"/>
    <glyph glyph-name="plusminus.tf" d="M1065 20l-21 -20h-880l-21 20v144l21 20h880l21 -20v-144zM1065 594l-21 -21h-327l-21 -20v-225l-20 -21h-144l-20 21v225l-20 20h-328l-21 21v143l21 21h328l20 20v226l20 20h144l20 -20v-226l21 -20h327l21 -21v-143z"/>
    <glyph glyph-name="multiply.tf" d="M1065 164l-102 -103h-21l-328 328h-20l-328 -328h-20l-103 103v20l328 328v20l-328 328v21l103 102h20l328 -328h20l328 328h21l102 -102v-21l-328 -328v-20l328 -328v-20z"/>
    <glyph glyph-name="divide.tf" d="M717 799l-21 -21h-204l-21 21v205l21 20h204l21 -20v-205zM717 41l-21 -21h-204l-21 21v205l21 20h204l21 -20v-205zM1085 451l-20 -21h-942l-21 21v143l21 20h942l20 -20v-143z"/>
    <glyph glyph-name="florin.tf" d="M164 -410h-21l-20 21v123l20 20h41q86 0 127 40t58 124l184 922l-21 20h-143l-20 21v123l20 20h184l21 20l20 103q31 155 116 221t253 66h41l20 -21v-123l-20 -20h-61q-66 0 -98 -24t-46 -99l-20 -103l20 -20h266l21 -20v-123l-21 -21h-307l-20 -20l-185 -922 q-33 -168 -119 -248t-290 -80z"/>
    <glyph glyph-name="Euro.tf" d="M662 164q130 0 196 72q68 72 84 174l21 20h163l21 -20q-15 -188 -145 -310t-340 -120q-210 0 -336 124q-125 124 -142 347l-20 20h-103l-20 21v122l20 21h82l21 20v82l-21 21h-82l-20 20v123l20 21h103l20 20q16 232 138 372t344 140q223 0 344 -114t137 -316l-21 -20 h-163l-21 20q-16 119 -76 182q-60 64 -197 64q-135 0 -199 -86t-81 -242l21 -20h409l21 -21v-123l-21 -20h-430l-20 -21v-82l20 -20h348l21 -21v-122l-21 -21h-327l-21 -20q15 -137 79 -212t194 -75z"/>
    <glyph glyph-name="minus.tf" d="M1044 451l-20 -21h-860l-21 21v143l21 20h860l20 -20v-143z"/>
    <glyph glyph-name="zero.tosf" d="M287 512q0 -154 85 -251t222 -97t222 97t85 251t-85 251t-222 97t-222 -97t-85 -251zM82 512q0 233 142 383q142 149 370 149t370 -149q142 -150 142 -383t-142 -383q-142 -149 -370 -149t-370 149q-142 150 -142 383z"/>
    <glyph glyph-name="one.tosf" d="M553 758h-21l-204 -205h-62l-20 20v144l286 287l41 20h164l21 -20v-799l20 -21h307l21 -20v-144l-21 -20h-921l-21 20v144l21 20h368l21 21v553z"/>
    <glyph glyph-name="two.tosf" d="M819 674q0 86 -54 136t-175 50t-171 -54t-50 -130l-21 -21h-164l-20 21q0 154 108 262t322 106q214 0 322 -108t108 -253q0 -146 -92 -234t-256 -162l-184 -82v-21h552l21 -20v-144l-21 -20h-880l-21 20v144l21 41l409 205q133 66 190 122q56 56 56 142z"/>
    <glyph glyph-name="three.tosf" d="M717 494q143 0 255 -107t113 -330q0 -223 -139 -355q-140 -132 -362 -132t-352 118t-130 292l21 20h164l20 -20q0 -86 70 -156t208 -70t217 83t79 222t-71 214t-196 75q-45 0 -86 -15t-59 -30l-18 -16h-62l-20 20v144l389 368v21h-574l-20 20v144l20 20h799l21 -20v-164 l-21 -41l-307 -287v-20q12 2 41 2z"/>
    <glyph glyph-name="four.tosf" d="M799 758h-21l-471 -553v-21h471l21 21v553zM1004 -389l-21 -21h-164l-20 21v369l-21 20h-676l-20 20v164l20 41l656 779l41 20h184l21 -20v-1393z"/>
    <glyph glyph-name="five.tosf" d="M1085 102q0 -270 -127 -401t-357 -131t-346 108t-132 302l20 20h164l21 -20q18 -111 72 -168t194 -58q287 0 287 328q-1 150 -61 228t-191 79q-131 0 -193 -54t-80 -93l-8 -17l-41 -20l-143 20l-21 21l41 758l21 20h799l20 -20v-144l-20 -20h-615l-20 -21l-21 -368h21 q4 4 16 23t62 45q98 54 208 54q217 0 323 -134t107 -337z"/>
    <glyph glyph-name="six.tosf" d="M901 456q0 144 -60 224q-61 78 -203 78t-216 -74t-74 -217t76 -223t202 -80t201 74q74 74 74 218zM620 -20q-232 0 -365 162q-132 162 -132 564t136 575t396 173q186 0 301 -90t129 -258l-20 -21h-164l-20 21q-15 90 -75 127t-171 37q-287 0 -287 -430h21q10 12 28 28 t93 45t165 29q213 0 332 -127t119 -350t-127 -354t-359 -131z"/>
    <glyph glyph-name="seven.tosf" d="M819 840h-655l-21 20v144l21 20h860l20 -20v-164l-593 -1229l-21 -21h-102l-21 21v164l512 1044v21z"/>
    <glyph glyph-name="eight.tosf" d="M881 418q0 110 -71 184t-216 74t-216 -75t-71 -184t72 -181t215 -72t215 72t72 182zM594 840q118 0 182 64t64 155q0 92 -60 151q-60 60 -186 60q-127 0 -186 -60q-60 -60 -60 -151t64 -155t182 -64zM1085 410q0 -180 -129 -306t-362 -124q-233 0 -363 124 q-129 125 -129 306q0 137 62 222t143 126v20q-164 109 -164 281q0 171 116 283t335 112t335 -112q115 -112 115 -284t-163 -280v-20q80 -41 142 -126t62 -222z"/>
    <glyph glyph-name="nine.tosf" d="M307 573q0 -137 71 -212q70 -75 202 -75t206 74t74 217t-78 213t-206 70t-198 -75t-71 -212zM1085 330q0 -400 -131 -580t-401 -180q-172 0 -284 91t-126 257l21 21h164l20 -21q27 -164 225 -164q83 0 141 37t85 84q61 106 61 330h-20q-10 -13 -28 -29t-94 -45 q-75 -29 -165 -29q-201 0 -326 129t-125 347t132 342t339 124q258 0 385 -156q127 -158 127 -558z"/>
    <glyph glyph-name="parenleft.case" horiz-adv-x="860" d="M164 560v313q0 89 26 228q6 32 37 90t49 85q18 28 78 96t102 109t138 137l41 20h41l20 -20v-143q-94 -93 -132 -133t-87 -104t-61 -98q-12 -32 -28 -104t-18 -136q-1 -64 -1 -184q0 -118 1 -182t17 -137q17 -73 29 -105t61 -96t87 -104q38 -39 132 -133v-143l-20 -21h-41 l-41 21l-137 137q-41 41 -101 109t-80 96q-18 27 -49 85t-37 90q-26 139 -26 227z"/>
    <glyph glyph-name="parenright.case" horiz-adv-x="860" d="M696 873v-313q0 -93 -26 -227q-6 -32 -37 -90t-49 -85t-78 -96q-60 -70 -102 -110t-138 -136l-41 -21h-41l-20 21v143q94 94 132 133t87 104q49 66 61 98q44 120 46 240q4 245 1 371t-47 236q-12 33 -61 97t-87 104q-38 38 -132 133v143l20 20h41l41 -20l137 -137 q41 -41 101 -110t80 -95q18 -26 49 -85q31 -58 37 -90q26 -139 26 -228z"/>
    <glyph glyph-name="hyphen.case" horiz-adv-x="839" d="M717 655l-21 -20h-553l-20 20v144l20 20h553l21 -20v-144z"/>
    <glyph glyph-name="at.case" horiz-adv-x="1884" d="M1126 1085v41l21 21h164l20 -21v-594q0 -72 26 -98t77 -24q74 0 98 72t24 220q-1 290 -145 473q-73 91 -193 144t-276 53q-293 0 -454 -188q-160 -188 -160 -472t158 -467t456 -184q205 0 328 82h41l20 -20v-143q-137 -102 -389 -103q-367 1 -593 235t-226 605t226 605 t593 234t593 -234t226 -605q0 -238 -94 -355q-93 -116 -245 -116t-234 123h-21q-29 -29 -51 -46t-76 -37q-53 -20 -118 -20q-166 0 -278 116t-112 334t109 335t260 116q63 0 115 -20t69 -41l21 -21h20zM1126 716q0 148 -44 208t-141 59q-97 0 -150 -60q-53 -59 -53 -205 t52 -206q54 -60 151 -61q97 0 141 59q44 58 44 206z"/>
    <glyph glyph-name="bracketleft.case" horiz-adv-x="757" d="M594 -184l-21 -21h-389l-20 21v1802l20 20h389l21 -20v-143l-21 -21h-184l-20 -20v-1434l20 -20h184l21 -21v-143z"/>
    <glyph glyph-name="bracketright.case" horiz-adv-x="757" d="M184 -205l-20 21v143l20 21h185l20 20v1434l-20 20h-185l-20 21v143l20 20h389l21 -20v-1802l-21 -21h-389z"/>
    <glyph glyph-name="underscore.case" d="M1106 20l-21 -20h-983l-20 20v144l20 20h983l21 -20v-144z"/>
    <glyph glyph-name="braceleft.case" horiz-adv-x="901" d="M328 102v369q0 90 -33 127t-111 37l-20 20v123l20 21q78 0 111 37t33 127v368q0 147 88 227t219 80h82l20 -20v-143l-20 -21h-82q-102 0 -103 -123v-389q0 -78 -28 -133t-74 -72v-41q45 -16 74 -71t28 -133v-390q0 -123 103 -122h82l20 -21v-143l-20 -21h-82 q-131 0 -219 80t-88 227z"/>
    <glyph glyph-name="braceright.case" horiz-adv-x="901" d="M573 471v-369q0 -147 -88 -227t-219 -80h-82l-20 21v143l20 21h82q102 0 103 122v390q0 78 28 133q29 55 74 71v41q-45 15 -74 71t-28 134v389q0 123 -103 123h-82l-20 21v143l20 20h82q131 0 219 -80t88 -227v-368q0 -90 33 -127t111 -37l20 -21v-123l-20 -20 q-78 0 -111 -37t-33 -127z"/>
    <glyph glyph-name="exclamdown.case" horiz-adv-x="737" d="M246 1413l20 21h205l21 -21v-205l-21 -20h-205l-20 20v205zM266 614l41 390l21 20h82l20 -20l41 -390v-594l-20 -20h-164l-21 20v594z"/>
    <glyph glyph-name="guillemotleft.case" horiz-adv-x="1433" d="M1270 287l-21 -21h-164l-41 21l-327 327l-21 41v123l21 41l327 328l41 20h164l21 -20v-62l-369 -348v-41l369 -348v-61zM737 287l-20 -21h-164l-41 21l-328 327l-20 41v123l20 41l328 328l41 20h164l20 -20v-62l-368 -348v-41l368 -348v-61z"/>
    <glyph glyph-name="periodcentered.case" horiz-adv-x="573" d="M410 614l-21 -20h-205l-20 20v205l20 21h205l21 -21v-205z"/>
    <glyph glyph-name="guillemotright.case" horiz-adv-x="1433" d="M184 266l-20 21v61l368 348v41l-368 348v62l20 20h164l41 -20l328 -328l20 -41v-123l-20 -41l-328 -327l-41 -21h-164zM717 266l-21 21v61l369 348v41l-369 348v62l21 20h164l41 -20l327 -328l21 -41v-123l-21 -41l-327 -327l-41 -21h-164z"/>
    <glyph glyph-name="questiondown.case" horiz-adv-x="1228" d="M512 1413l20 21h205l21 -21v-205l-21 -20h-205l-20 20v205zM164 369q0 141 48 220t152 166t137 135q32 48 31 134l21 20h164l20 -20q0 -123 -36 -197q-36 -73 -123 -147q-88 -74 -118 -102t-61 -84q-31 -57 -31 -134q0 -76 60 -136q59 -60 189 -60t187 67q56 68 56 199 l21 21h163l21 -21q0 -207 -114 -329q-114 -121 -327 -121q-212 0 -336 104t-124 285z"/>
    <glyph glyph-name="endash.case" horiz-adv-x="1269" d="M1147 655l-21 -20h-983l-20 20v144l20 20h983l21 -20v-144z"/>
    <glyph glyph-name="emdash.case" horiz-adv-x="2293" d="M2171 655l-21 -20h-2007l-20 20v144l20 20h2007l21 -20v-144z"/>
    <glyph glyph-name="bullet.case" horiz-adv-x="798" d="M635 737v-20l-225 -225h-21l-225 225v20l225 226h21z"/>
    <glyph glyph-name="guilsinglleft.case" horiz-adv-x="901" d="M737 287l-20 -21h-164l-41 21l-328 327l-20 41v123l20 41l328 328l41 20h164l20 -20v-62l-368 -348v-41l368 -348v-61z"/>
    <glyph glyph-name="guilsinglright.case" horiz-adv-x="901" d="M184 266l-20 21v61l368 348v41l-368 348v62l20 20h164l41 -20l328 -328l20 -41v-123l-20 -41l-328 -327l-41 -21h-164z"/>
    <glyph glyph-name="zero.zero" d="M287 717q0 -205 41 -328h20l389 819v21q-41 41 -143 41q-307 0 -307 -553zM901 717q0 205 -41 327h-20l-389 -819v-20q41 -41 143 -41q307 0 307 553zM82 717q0 391 139 564t373 173t372 -173q140 -173 140 -564t-139 -564t-373 -173t-373 173t-139 564z"/>
    <glyph glyph-name="quotedbl.ss01" horiz-adv-x="696" d="M225 819l-20 -20h-21l-20 20v594l20 21h21l20 -21v-594zM532 819l-20 -20h-20l-21 20v594l21 21h20l20 -21v-594z"/>
    <glyph glyph-name="numbersign.ss01" horiz-adv-x="1228" d="M471 963l-20 -21l-82 -450l20 -21h369l20 21l82 450l-20 21h-369zM696 41l62 348l-21 21h-368l-21 -21l-61 -369l-21 -20h-20l-21 20v21l62 348l-21 21h-184l-21 20v21l21 20h205l20 21l82 450l-20 21h-185l-20 20v21l20 20h205l21 20l61 369l21 21h20l20 -21v-20 l-61 -349l21 -20h368l21 20l61 369l21 21h20l21 -21v-20l-62 -349l21 -20h184l20 -20v-21l-20 -20h-205l-20 -21l-82 -450l20 -21h184l21 -20v-21l-21 -20h-204l-21 -21l-61 -369l-21 -20h-20l-21 20v21z"/>
    <glyph glyph-name="quotesingle.ss01" horiz-adv-x="389" d="M225 819l-20 -20h-21l-20 20v594l20 21h21l20 -21v-594z"/>
    <glyph glyph-name="parenleft.ss01" horiz-adv-x="819" d="M226 618q0 -106 -1 -228q0 -122 27 -262q6 -32 37 -90t49 -85t78 -95t102 -110l137 -137v-21h-41l-41 21q-119 119 -166 168q-48 49 -110 129q-61 80 -77 117q-14 37 -34 121t-21 156q-1 71 -1 210t1 210t20 156q19 86 35 122t77 116t110 129q48 49 166 168l41 21h41v-21 l-137 -137q-41 -41 -101 -110q-61 -70 -79 -96t-49 -84t-37 -90t-16 -102t-10 -176z"/>
    <glyph glyph-name="parenright.ss01" horiz-adv-x="819" d="M594 496v173q0 197 -64 317q-31 58 -49 85q-19 27 -79 95t-101 110l-137 137v21h41l41 -21q119 -119 167 -168t109 -129q60 -80 76 -117t36 -121t20 -156q1 -71 1 -210t-1 -210t-20 -156q-18 -86 -34 -122t-78 -116t-109 -129q-48 -49 -167 -168l-41 -21h-41v21 q125 125 176 177t115 133q63 81 80 118q16 37 36 121q19 84 21 152t2 184z"/>
    <glyph glyph-name="slash.ss01" horiz-adv-x="1003" d="M82 0v61l799 1352l20 21h21v-62l-799 -1352l-21 -20h-20z"/>
    <glyph glyph-name="bracketleft.ss01" horiz-adv-x="696" d="M532 -389l-20 -21h-328l-20 21v1802l20 21h328l20 -21v-20l-20 -21h-266l-21 -20v-1680l21 -20h266l20 -21v-20z"/>
    <glyph glyph-name="backslash.ss01" horiz-adv-x="1003" d="M82 1434h20l21 -21l799 -1352v-61h-21l-20 20l-799 1352v62z"/>
    <glyph glyph-name="bracketright.ss01" horiz-adv-x="696" d="M184 -410l-20 21v20l20 21h267l20 20v1680l-20 20h-267l-20 21v20l20 21h328l20 -21v-1802l-20 -21h-328z"/>
    <glyph glyph-name="underscore.ss01" d="M1106 -41l-21 -20h-983l-20 20v21l20 20h983l21 -20v-21z"/>
    <glyph glyph-name="braceleft.ss01" horiz-adv-x="860" d="M389 328v-471q0 -205 205 -205h82l20 -21v-20l-20 -21h-82q-115 0 -191 68t-75 199v471q0 90 -33 127t-111 37l-20 20v20l20 21q78 0 111 37t33 127v450q0 131 75 199q76 68 191 68h82l20 -21v-20l-20 -21h-82q-205 0 -205 -205v-450q0 -158 -82 -185v-20q82 -27 82 -184 z"/>
    <glyph glyph-name="bar.ss01" horiz-adv-x="552" d="M307 -389l-20 -21h-21l-20 21v1802l20 21h21l20 -21v-1802z"/>
    <glyph glyph-name="braceright.ss01" horiz-adv-x="860" d="M471 717v450q0 205 -205 205h-82l-20 21v20l20 21h82q115 0 191 -68t75 -199v-450q0 -90 33 -127t111 -37l20 -21v-20l-20 -20q-78 0 -111 -37t-33 -127v-471q0 -131 -76 -199t-190 -68h-82l-20 21v20l20 21h82q205 0 205 205v471q0 157 82 184v20q-82 27 -82 185z"/>
    <glyph glyph-name="guillemotleft.ss01" horiz-adv-x="1208" d="M1044 61h-40l-41 21l-410 410v40l410 410l41 21h40v-21l-409 -410v-40l409 -410v-21zM655 61h-41l-41 21l-409 410v40l409 410l41 21h41v-21l-409 -410v-40l409 -410v-21z"/>
    <glyph glyph-name="logicalnot.ss01" d="M1024 205l-20 -21h-21l-20 21v266l-21 21h-799l-20 20v20l20 21h861l20 -21v-327z"/>
    <glyph glyph-name="degree.ss01" horiz-adv-x="1146" d="M246 1044q0 -139 94 -233t233 -94t234 94q94 94 94 233q0 140 -94 234q-93 94 -233 94t-234 -94t-94 -234zM164 1044q0 168 121 289t289 121t288 -121q121 -121 121 -289t-121 -288t-289 -121q-169 1 -289 121t-120 288z"/>
    <glyph glyph-name="guillemotright.ss01" horiz-adv-x="1208" d="M164 61v21l409 410v40l-409 410v21h41l41 -21l409 -410v-40l-409 -410l-41 -21h-41zM553 61v21l410 410v40l-410 410v21h41l41 -21l409 -410v-40l-409 -410l-41 -21h-41z"/>
    <glyph glyph-name="endash.ss01" horiz-adv-x="1269" d="M1147 512l-21 -20h-983l-20 20v20l20 21h983l21 -21v-20z"/>
    <glyph glyph-name="emdash.ss01" horiz-adv-x="2293" d="M2171 512l-21 -20h-2007l-20 20v20l20 21h2007l21 -21v-20z"/>
    <glyph glyph-name="quoteleft.ss01" horiz-adv-x="491" d="M328 1434v-21l-103 -184v-21l21 -20h41l20 -21v-204l-20 -21h-123l-21 21v225l21 61l102 164l21 21h41z"/>
    <glyph glyph-name="quoteright.ss01" horiz-adv-x="491" d="M164 942v21l102 184v20l-20 21h-41l-21 20v205l21 21h123l20 -21v-225l-20 -62l-103 -163l-20 -21h-41z"/>
    <glyph glyph-name="quotesinglbase.ss01" horiz-adv-x="491" d="M143 -246v21l103 184v21l-21 20h-41l-20 20v205l20 21h123l21 -21v-225l-21 -61l-102 -164l-21 -21h-41z"/>
    <glyph glyph-name="quotedblleft.ss01" horiz-adv-x="819" d="M328 1434v-21l-103 -184v-21l21 -20h41l20 -21v-204l-20 -21h-123l-21 21v225l21 61l102 164l21 21h41zM655 1434v-21l-102 -184v-21l20 -20h41l21 -21v-204l-21 -21h-122l-21 21v225l21 61l102 164l20 21h41z"/>
    <glyph glyph-name="quotedblright.ss01" horiz-adv-x="819" d="M492 942v21l102 184v20l-21 21h-41l-20 20v205l20 21h123l21 -21v-225l-21 -62l-102 -163l-21 -21h-40zM164 942v21l102 184v20l-20 21h-41l-21 20v205l21 21h123l20 -21v-225l-20 -62l-103 -163l-20 -21h-41z"/>
    <glyph glyph-name="quotedblbase.ss01" horiz-adv-x="819" d="M471 -246v21l102 184v21l-20 20h-41l-20 20v205l20 21h123l20 -21v-225l-20 -61l-103 -164l-20 -21h-41zM143 -246v21l103 184v21l-21 20h-41l-20 20v205l20 21h123l21 -21v-225l-21 -61l-102 -164l-21 -21h-41z"/>
    <glyph glyph-name="guilsinglleft.ss01" horiz-adv-x="819" d="M655 61h-41l-41 21l-409 410v40l409 410l41 21h41v-21l-409 -410v-40l409 -410v-21z"/>
    <glyph glyph-name="guilsinglright.ss01" horiz-adv-x="819" d="M164 61v21l409 410v40l-409 410v21h41l41 -21l409 -410v-40l-409 -410l-41 -21h-41z"/>
    <glyph glyph-name="arrowleft.ss01" horiz-adv-x="1761" d="M737 1044v-20l-450 -451v-20h1290l20 -21v-20l-20 -20h-1290v-21l450 -451v-20h-41l-41 20l-491 492v20l491 492l41 20h41z"/>
    <glyph glyph-name="arrowup.ss01" horiz-adv-x="1372" d="M1208 860h-20l-451 451h-20v-1291l-21 -20h-20l-21 20v1291h-20l-451 -451h-20v41l20 41l492 492h20l492 -492l20 -41v-41z"/>
    <glyph glyph-name="arrowright.ss01" horiz-adv-x="1761" d="M1024 0v20l451 451v21h-1291l-20 20v20l20 21h1291v20l-451 451v20h41l41 -20l491 -492v-20l-491 -492l-41 -20h-41z"/>
    <glyph glyph-name="arrowdown.ss01" horiz-adv-x="1372" d="M164 573h20l451 -450h20v1290l21 21h20l21 -21v-1290h20l451 450h20v-41l-20 -40l-492 -492h-20l-492 492l-20 40v41z"/>
    <glyph glyph-name="arrowboth.ss01" horiz-adv-x="2170" d="M737 1044v-20l-450 -451v-20h1597v20l-450 451v20h41l41 -20l491 -492v-20l-491 -492l-41 -20h-41v20l450 451v21h-1597v-21l450 -451v-20h-41l-41 20l-491 492v20l491 492l41 20h41z"/>
    <glyph glyph-name="arrowupdn.ss01" horiz-adv-x="1372" d="M164 164h20l451 -451h20v1598h-20l-451 -451h-20v41l20 41l492 492h20l492 -492l20 -41v-41h-20l-451 451h-20v-1598h20l451 451h20v-41l-20 -41l-492 -492h-20l-492 492l-20 41v41z"/>
    <glyph glyph-name="uni2196.ss01" horiz-adv-x="1351" d="M922 1372h-635v-20l901 -901v-21l-21 -20h-20l-901 901h-21v-635h-20l-21 20l-20 41v676l20 21h676l41 -21l21 -20v-21z"/>
    <glyph glyph-name="uni2197.ss01" horiz-adv-x="1351" d="M1126 676v635h-20l-901 -901h-21l-20 20v21l901 901v20h-635v21l21 20l41 21h675l21 -21v-676l-21 -41l-20 -20h-21z"/>
    <glyph glyph-name="uni2198.ss01" horiz-adv-x="1351" d="M430 61h635v21l-901 901v21l20 20h21l901 -901h20v635h21l20 -21l21 -41v-676l-21 -20h-675l-41 20l-21 21v20z"/>
    <glyph glyph-name="uni2199.ss01" horiz-adv-x="1351" d="M225 758v-635h21l901 901h20l21 -20v-21l-901 -901v-21h635v-20l-21 -21l-41 -20h-676l-20 20v676l20 41l21 21h20z"/>
    <glyph glyph-name="a.ss02" horiz-adv-x="1126" d="M799 512q0 168 -71 258t-196 90q-126 0 -196 -90t-70 -258t71 -258t195 -90t196 90q71 90 71 258zM61 512q0 244 125 388q126 144 318 144t274 -122h21l20 82l21 20h143l21 -20v-984l-21 -20h-143l-21 20l-20 82h-21q-82 -122 -274 -122t-318 144q-125 144 -125 388z"/>
    <glyph glyph-name="agrave.ss02" horiz-adv-x="1126" d="M799 512q0 168 -71 258t-196 90q-126 0 -196 -90t-70 -258t71 -258t195 -90t196 90q71 90 71 258zM61 512q0 244 125 388q126 144 318 144t274 -122h21l20 82l21 20h143l21 -20v-984l-21 -20h-143l-21 20l-20 82h-21q-82 -122 -274 -122t-318 144q-125 144 -125 388z M676 1167l-21 -20h-102l-41 20l-225 205v41l20 21h144l41 -21l184 -205v-41z"/>
    <glyph glyph-name="aacute.ss02" horiz-adv-x="1126" d="M799 512q0 168 -71 258t-196 90q-126 0 -196 -90t-70 -258t71 -258t195 -90t196 90q71 90 71 258zM61 512q0 244 125 388q126 144 318 144t274 -122h21l20 82l21 20h143l21 -20v-984l-21 -20h-143l-21 20l-20 82h-21q-82 -122 -274 -122t-318 144q-125 144 -125 388z M778 1372l-225 -205l-41 -20h-102l-21 20v41l184 205l41 21h144l20 -21v-41z"/>
    <glyph glyph-name="acircumflex.ss02" horiz-adv-x="1126" d="M799 512q0 168 -71 258t-196 90q-126 0 -196 -90t-70 -258t71 -258t195 -90t196 90q71 90 71 258zM61 512q0 244 125 388q126 144 318 144t274 -122h21l20 82l21 20h143l21 -20v-984l-21 -20h-143l-21 20l-20 82h-21q-82 -122 -274 -122t-318 144q-125 144 -125 388z M860 1167l-20 -20h-103l-41 20l-143 123h-41l-143 -123l-41 -20h-103l-20 20v41l184 205l41 21h205l41 -21l184 -205v-41z"/>
    <glyph glyph-name="atilde.ss02" horiz-adv-x="1126" d="M799 512q0 168 -71 258t-196 90q-126 0 -196 -90t-70 -258t71 -258t195 -90t196 90q71 90 71 258zM61 512q0 244 125 388q126 144 318 144t274 -122h21l20 82l21 20h143l21 -20v-984l-21 -20h-143l-21 20l-20 82h-21q-82 -122 -274 -122t-318 144q-125 144 -125 388z M671 1126q-86 0 -140 36t-92 72t-70 36q-82 0 -82 -103l-21 -20h-61l-21 20q0 97 52 161t137 64q86 0 140 -35q54 -36 92 -72t71 -36q82 0 82 103l20 20h62l20 -20q0 -98 -52 -162t-137 -64z"/>
    <glyph glyph-name="adieresis.ss02" horiz-adv-x="1126" d="M799 512q0 168 -71 258t-196 90q-126 0 -196 -90t-70 -258t71 -258t195 -90t196 90q71 90 71 258zM61 512q0 244 125 388q126 144 318 144t274 -122h21l20 82l21 20h143l21 -20v-984l-21 -20h-143l-21 20l-20 82h-21q-82 -122 -274 -122t-318 144q-125 144 -125 388z M451 1208l-21 -20h-164l-20 20v164l20 21h164l21 -21v-164zM819 1208l-20 -20h-164l-21 20v164l21 21h164l20 -21v-164z"/>
    <glyph glyph-name="aring.ss02" horiz-adv-x="1126" d="M614 1311q0 82 -82 82t-82 -82t82 -82t82 82zM737 1311q0 -78 -57 -131q-58 -54 -148 -54t-147 54t-57 131q0 78 57 131t147 53t148 -53t57 -131zM799 512q0 168 -71 258t-196 90q-126 0 -196 -90t-70 -258t71 -258t195 -90t196 90q71 90 71 258zM61 512q0 244 125 388 q126 144 318 144t274 -122h21l20 82l21 20h143l21 -20v-984l-21 -20h-143l-21 20l-20 82h-21q-82 -122 -274 -122t-318 144q-125 144 -125 388z"/>
    <glyph glyph-name="amacron.ss02" horiz-adv-x="1126" d="M860 1208l-20 -20h-615l-20 20v123l20 21h615l20 -21v-123zM799 512q0 168 -71 258t-196 90q-126 0 -196 -90t-70 -258t71 -258t195 -90t196 90q71 90 71 258zM61 512q0 244 125 388q126 144 318 144t274 -122h21l20 82l21 20h143l21 -20v-984l-21 -20h-143l-21 20 l-20 82h-21q-82 -122 -274 -122t-318 144q-125 144 -125 388z"/>
    <glyph glyph-name="abreve.ss02" horiz-adv-x="1126" d="M532 1270q63 0 104 32q40 32 40 91l20 20h103l20 -20q0 -121 -81 -194t-206 -73q-126 0 -206 73t-80 194l20 20h103l20 -20q0 -59 40 -91t103 -32zM799 512q0 168 -71 258t-196 90q-126 0 -196 -90t-70 -258t71 -258t195 -90t196 90q71 90 71 258zM61 512q0 244 125 388 q126 144 318 144t274 -122h21l20 82l21 20h143l21 -20v-984l-21 -20h-143l-21 20l-20 82h-21q-82 -122 -274 -122t-318 144q-125 144 -125 388z"/>
    <glyph glyph-name="aogonek.ss02" horiz-adv-x="1126" d="M799 512q0 168 -71 258t-196 90q-126 0 -196 -90t-70 -258t71 -258t195 -90t196 90q71 90 71 258zM834 -410q-88 0 -154 58t-66 147q0 184 205 225l-20 82h-21q-82 -122 -274 -122t-318 144q-125 144 -125 388t125 388q126 144 318 144t274 -122h21l20 82l21 20h143 l21 -20v-984l-21 -20q-94 -16 -149 -59q-56 -43 -56 -97t29 -82q50 -50 176 -8l21 -20v-82l-21 -21q-61 -41 -149 -41z"/>
    <glyph glyph-name="aringacute.ss02" horiz-adv-x="1126" d="M778 1782l-225 -205l-41 -21h-102l-21 21v41l184 205l41 20h144l20 -20v-41zM594 1311q0 82 -82 82t-82 -82t82 -82t82 82zM717 1311q1 -78 -57 -131q-58 -54 -148 -54t-147 54t-58 131q-1 78 57 131t148 53t148 -53t57 -131zM799 512q0 168 -71 258t-196 90 q-126 0 -196 -90t-70 -258t71 -258t195 -90t196 90q71 90 71 258zM61 512q0 244 125 388q126 144 318 144t274 -122h21l20 82l21 20h143l21 -20v-984l-21 -20h-143l-21 20l-20 82h-21q-82 -122 -274 -122t-318 144q-125 144 -125 388z"/>
    <glyph glyph-name="parenleft.ss03" horiz-adv-x="798" d="M164 717q0 92 1 140q1 47 19 109t32 91q12 29 68 95t99 111q43 44 149 150l41 21h41l21 -21v-143q-202 -202 -227 -262q-36 -91 -38 -152q-1 -61 -1 -139t1 -144t29 -130q27 -64 94 -134q66 -70 142 -145v-144l-21 -20h-41l-41 20q-106 106 -149 150t-98 112t-69 96 q-50 105 -51 176t-1 163z"/>
    <glyph glyph-name="parenright.ss03" horiz-adv-x="798" d="M430 717q0 78 -1 144t-30 131q-28 66 -129 170q-31 32 -106 108v143l20 21h41l41 -21l150 -150q43 -44 98 -111q54 -68 68 -96t32 -89t20 -109t1 -141q0 -92 -1 -140q-2 -47 -20 -109t-31 -91t-69 -95t-98 -111q-43 -44 -150 -151l-41 -20h-41l-20 20v144 q204 204 227 262q36 91 38 152q1 61 1 139z"/>
    <glyph glyph-name="bracketleft.ss03" horiz-adv-x="757" d="M594 20l-21 -20h-389l-20 20v1393l20 21h389l21 -21v-143l-21 -21h-184l-20 -20v-1024l20 -21h184l21 -20v-144z"/>
    <glyph glyph-name="bracketright.ss03" horiz-adv-x="757" d="M184 0l-20 20v144l20 20h185l20 21v1024l-20 20h-185l-20 21v143l20 21h389l21 -21v-1393l-21 -20h-389z"/>
    <glyph glyph-name="braceleft.ss03" horiz-adv-x="901" d="M328 307v164q0 90 -33 127t-111 37l-20 20v123l20 21q78 0 111 37t33 127v163q0 148 88 228t219 80h82l20 -21v-143l-20 -21h-82q-102 0 -103 -123v-184q0 -78 -28 -133t-74 -72v-41q45 -16 74 -71t28 -133v-185q0 -123 103 -123h82l20 -20v-144l-20 -20h-82 q-131 0 -219 80t-88 227z"/>
    <glyph glyph-name="braceright.ss03" horiz-adv-x="901" d="M573 471v-164q0 -147 -88 -227t-219 -80h-82l-20 20v144l20 20h82q102 0 103 123v185q0 78 28 133q29 55 74 71v41q-45 15 -74 71t-28 134v184q0 123 -103 123h-82l-20 21v143l20 21h82q131 0 219 -80t88 -228v-163q0 -90 33 -127t111 -37l20 -21v-123l-20 -20 q-78 0 -111 -37t-33 -127z"/>
    <glyph glyph-name="parenleft.ss04" horiz-adv-x="778" d="M225 717q0 -86 1 -131q2 -44 20 -104t32 -89t73 -99t105 -115q46 -46 158 -159v-20h-41l-41 20q-106 106 -149 150t-98 112t-69 96q-50 105 -51 176t-1 163t1 140q1 47 19 109t32 91q12 29 68 95t99 111q43 44 149 150l41 21h41v-21q-112 -113 -158 -159t-104 -116 t-73 -98q-15 -29 -33 -88t-20 -104t-1 -131z"/>
    <glyph glyph-name="parenright.ss04" horiz-adv-x="778" d="M553 717q0 86 -1 131t-20 104q-18 59 -32 88t-73 99q-58 69 -104 115l-159 159v21h41l41 -21q106 -106 149 -150t99 -111q56 -68 68 -96q14 -28 32 -89t19 -109t1 -141q0 -92 -1 -140q-1 -47 -19 -109t-32 -91t-68 -95t-98 -111q-44 -44 -150 -151l-41 -20h-41v20 l159 159q46 46 104 116q59 71 73 99t32 87t20 105t1 131z"/>
    <glyph glyph-name="bracketleft.ss04" horiz-adv-x="696" d="M532 20l-20 -20h-328l-20 20v1393l20 21h328l20 -21v-20l-20 -21h-266l-21 -20v-1270l21 -21h266l20 -20v-21z"/>
    <glyph glyph-name="bracketright.ss04" horiz-adv-x="696" d="M184 0l-20 20v21l20 20h267l20 21v1270l-20 20h-267l-20 21v20l20 21h328l20 -21v-1393l-20 -20h-328z"/>
    <glyph glyph-name="braceleft.ss04" horiz-adv-x="860" d="M389 532v-266q0 -205 205 -205h82l20 -20v-21l-20 -20h-82q-115 0 -191 68t-75 198v266q0 90 -33 127t-111 37l-20 21v20l20 21q78 0 111 37t33 127v245q0 131 75 199q76 68 191 68h82l20 -21v-20l-20 -21h-82q-205 0 -205 -205v-245q0 -158 -82 -185v-20q82 -27 82 -185 z"/>
    <glyph glyph-name="bar.ss04" horiz-adv-x="552" d="M307 20l-20 -20h-21l-20 20v1393l20 21h21l20 -21v-1393z"/>
    <glyph glyph-name="braceright.ss04" horiz-adv-x="860" d="M471 922v245q0 205 -205 205h-82l-20 21v20l20 21h82q115 0 191 -68t75 -199v-245q0 -90 33 -127t111 -37l20 -21v-20l-20 -21q-78 0 -111 -37t-33 -127v-266q0 -130 -76 -198t-190 -68h-82l-20 20v21l20 20h82q205 0 205 205v266q0 158 82 185v20q-82 27 -82 185z"/>
    <glyph glyph-name="slash.ss05" horiz-adv-x="1536" d="M1454 1270l-1249 -1250l-41 -20h-62l-20 20v144l1249 1249l41 21h62l20 -21v-143z"/>
    <glyph glyph-name="backslash.ss05" horiz-adv-x="1536" d="M1331 20l-1249 1250v143l20 21h62l41 -21l1249 -1249v-144l-20 -20h-62z"/>
    <glyph glyph-name="slash.ss06" horiz-adv-x="1597" d="M82 0v41l1372 1372l41 21h21v-41l-1373 -1373l-41 -20h-20z"/>
    <glyph glyph-name="backslash.ss06" horiz-adv-x="1597" d="M82 1434h20l41 -21l1373 -1372v-41h-21l-41 20l-1372 1373v41z"/>
    <glyph glyph-name="emdash.ss07" horiz-adv-x="3317" d="M3195 451l-21 -21h-3031l-20 21v143l20 20h3031l21 -20v-143z"/>
    <glyph glyph-name="emdash.ss08" horiz-adv-x="3317" d="M3195 512l-21 -20h-3031l-20 20v20l20 21h3031l21 -21v-20z"/>
    <glyph glyph-name="ampersand.ss09" horiz-adv-x="1392" d="M655 164q154 0 221 78t66 188v430l21 21h286l21 -21v-143l-21 -21h-82l-20 -20v-246q0 -186 -124 -318t-368 -132q-243 0 -367 132t-124 303t67 258q68 87 158 105v21q-80 33 -132 109t-52 177q0 169 116 269q117 100 315 100t314 -99t115 -270l-21 -20h-163l-21 20 q0 185 -225 185t-225 -185q0 -94 59 -149t166 -55h82l20 -21v-143l-20 -21h-62q-287 0 -286 -266q0 -110 66 -188t220 -78z"/>
    <glyph glyph-name="one.ss10" horiz-adv-x="655" d="M492 20l-21 -20h-164l-20 20v1065l-21 21h-164l-20 20v103l184 184l41 21h164l21 -21v-1393z"/>
    <glyph glyph-name="commaaccent" horiz-adv-x="512" d="M143 -451v21l82 123v20l-20 21h-41l-21 20v144l21 20h164l20 -20v-164l-20 -62l-103 -102l-41 -21h-41z"/>
    <glyph glyph-name="orn001" horiz-adv-x="1351" d="M348 1229v-1434l21 -20h614l21 20v1434l-21 20h-614zM1188 -389l-21 -21h-983l-20 21v1802l20 21h983l21 -21v-1802z"/>
    <glyph glyph-name="orn002" horiz-adv-x="1351" d="M1188 -389l-21 -21h-983l-20 21v1802l20 21h983l21 -21v-1802z"/>
    <glyph glyph-name="orn003" horiz-adv-x="1351" d="M348 1229v-1024l21 -21h614l21 21v1024l-21 20h-614zM1188 20l-21 -20h-983l-20 20v1393l20 21h983l21 -21v-1393z"/>
    <glyph glyph-name="orn004" horiz-adv-x="1351" d="M1188 20l-21 -20h-983l-20 20v1393l20 21h983l21 -21v-1393z"/>
    <glyph glyph-name="orn005" horiz-adv-x="1351" d="M348 819v-614l21 -21h614l21 21v614l-21 21h-614zM1188 20l-21 -20h-983l-20 20v984l20 20h983l21 -20v-984z"/>
    <glyph glyph-name="orn006" horiz-adv-x="1351" d="M1188 20l-21 -20h-983l-20 20v984l20 20h983l21 -20v-984z"/>
    <glyph glyph-name="orn007" horiz-adv-x="1351" d="M225 1352v-1680l21 -20h860l20 20v1680l-20 20h-860zM1188 -389l-21 -21h-983l-20 21v1802l20 21h983l21 -21v-1802z"/>
    <glyph glyph-name="orn008" horiz-adv-x="1351" d="M225 1352v-1270l21 -21h860l20 21v1270l-20 20h-860zM1188 20l-21 -20h-983l-20 20v1393l20 21h983l21 -21v-1393z"/>
    <glyph glyph-name="orn009" horiz-adv-x="1351" d="M225 942v-860l21 -21h860l20 21v860l-20 21h-860zM1188 20l-21 -20h-983l-20 20v984l20 20h983l21 -20v-984z"/>
    <glyph glyph-name="orn010" horiz-adv-x="1351" d="M287 -348h778v20l-369 738h-41l-368 -738v-20zM287 1372v-20l368 -738h41l369 738v20h-778zM225 1311v-1598h21l389 779v40l-389 779h-21zM1126 -287v1598h-20l-389 -779v-40l389 -779h20zM1188 -389l-21 -21h-983l-20 21v1802l20 21h983l21 -21v-1802z"/>
    <glyph glyph-name="orn011" horiz-adv-x="1351" d="M287 61h778v21l-369 553h-41l-368 -553v-21zM1065 1372h-778v-20l368 -553h41l369 553v20zM225 1311v-1188h21l368 553v82l-368 553h-21zM1126 123v1188h-20l-369 -553v-82l369 -553h20zM1188 20l-21 -20h-983l-20 20v1393l20 21h983l21 -21v-1393z"/>
    <glyph glyph-name="orn012" horiz-adv-x="1351" d="M287 61h778v21l-369 369h-41l-368 -369v-21zM1065 963h-778v-21l368 -369h41l369 369v21zM225 901v-778h21l368 369v40l-368 369h-21zM1126 123v778h-20l-369 -369v-40l369 -369h20zM1188 20l-21 -20h-983l-20 20v984l20 20h983l21 -20v-984z"/>
    <glyph glyph-name="orn013" horiz-adv-x="1351" d="M225 1434l963 -963v-20l-983 983h20zM266 1434l922 -922v-20l-942 942h20zM307 1434l881 -881v-21l-901 902h20zM348 1434l840 -840v-21l-860 861h20zM389 1434l799 -799v-21l-819 820h20zM430 1434l758 -758v-21l-778 779h20zM471 1434l717 -717v-21l-737 738h20z M512 1434l676 -676v-21l-696 697h20zM553 1434l635 -635v-21l-656 656h21zM594 1434l594 -594v-21l-615 615h21zM635 1434l553 -553v-21l-574 574h21zM676 1434l512 -512v-21l-533 533h21zM717 1434l471 -471v-21l-492 492h21zM758 1434l430 -430v-21l-451 451h21zM799 1434 l389 -390v-20l-410 410h21zM840 1434l348 -349v-20l-369 369h21zM881 1434l307 -308v-20l-328 328h21zM922 1434l266 -267v-20l-287 287h21zM963 1434l225 -226v-20l-246 246h21zM1004 1434l184 -185v-20l-205 205h21zM1044 1434l144 -144v-20l-164 164h20zM1085 1434 l103 -103v-20l-123 123h20zM1126 1434l62 -62v-20l-82 82h20zM1167 1434l21 -21v-20l-41 41h20zM1188 410l-1024 1024h20l1004 -1004v-20zM1188 369l-1024 1024v20l1024 -1024v-20zM1188 328l-1024 1024v20l1024 -1024v-20zM1188 287l-1024 1024v20l1024 -1024v-20z M1188 246l-1024 1024v20l1024 -1024v-20zM1188 205l-1024 1024v20l1024 -1024v-20zM1188 164l-1024 1024v20l1024 -1024v-20zM1188 123l-1024 1024v20l1024 -1024v-20zM1188 82l-1024 1024v20l1024 -1024v-20zM1188 41l-1024 1024v20l1024 -1024v-20zM1188 0l-1024 1024v20 l1024 -1024v-20zM1147 0l-983 983v21l1003 -1004h-20zM1106 0l-942 942v21l962 -963h-20zM1065 0l-901 901v21l921 -922h-20zM1024 0l-860 860v21l880 -881h-20zM983 0l-819 819v21l840 -840h-21zM942 0l-778 778v21l799 -799h-21zM901 0l-737 737v21l758 -758h-21zM860 0 l-696 696v21l717 -717h-21zM819 0l-655 655v21l676 -676h-21zM778 0l-614 614v21l635 -635h-21zM737 0l-573 573v21l594 -594h-21zM696 0l-532 532v21l553 -553h-21zM655 0l-491 492v20l512 -512h-21zM614 0l-450 451v20l471 -471h-21zM573 0l-409 410v20l430 -430h-21z M532 0l-368 369v20l389 -389h-21zM492 0l-328 328v20l348 -348h-20zM451 0l-287 287v20l307 -307h-20zM410 0l-246 246v20l266 -266h-20zM369 0l-205 205v20l225 -225h-20zM328 0l-164 164v20l184 -184h-20zM287 0l-123 123v20l143 -143h-20zM246 0l-82 82v20l102 -102h-20z M205 0l-41 41v20l61 -61h-20zM164 0v20l20 -20h-20z"/>
    <glyph glyph-name="orn014" horiz-adv-x="1351" d="M1126 0l-962 963v20l983 -983h-21zM1085 0l-921 922v20l942 -942h-21zM1044 0l-880 881v20l901 -901h-21zM1004 0l-840 840v20l860 -860h-20zM963 0l-799 799v20l819 -819h-20zM922 0l-758 758v20l778 -778h-20zM881 0l-717 717v20l737 -737h-20zM840 0l-676 676v20 l696 -696h-20zM799 0l-635 635v20l655 -655h-20zM758 0l-594 594v20l614 -614h-20zM717 0l-553 553v20l573 -573h-20zM676 0l-512 512v20l532 -532h-20zM635 0l-471 471v21l491 -492h-20zM594 0l-430 430v21l450 -451h-20zM553 0l-389 389v21l409 -410h-20zM512 0l-348 348 v21l368 -369h-20zM471 0l-307 307v21l328 -328h-21zM430 0l-266 266v21l287 -287h-21zM389 0l-225 225v21l246 -246h-21zM348 0l-184 184v21l205 -205h-21zM307 0l-143 143v21l164 -164h-21zM266 0l-102 102v21l123 -123h-21zM225 0l-61 61v21l82 -82h-21zM184 0l-20 20v21 l41 -41h-21zM164 1024l1024 -1024h-21l-1003 1004v20zM164 1065l1024 -1024v-21l-1024 1024v21zM164 1106l1024 -1024v-21l-1024 1024v21zM164 1147l1024 -1024v-21l-1024 1024v21zM164 1188l1024 -1024v-21l-1024 1024v21zM164 1229l1024 -1024v-21l-1024 1024v21z M164 1270l1024 -1024v-21l-1024 1024v21zM164 1311l1024 -1024v-21l-1024 1024v21zM164 1352l1024 -1024v-21l-1024 1024v21zM164 1393l1024 -1024v-21l-1024 1024v21zM164 1434l1024 -1024v-21l-1024 1024v21zM205 1434l983 -983v-21l-1004 1004h21zM246 1434l942 -942v-21 l-963 963h21zM287 1434l901 -902v-20l-922 922h21zM328 1434l860 -861v-20l-881 881h21zM369 1434l819 -820v-20l-840 840h21zM410 1434l778 -779v-20l-799 799h21zM451 1434l737 -738v-20l-758 758h21zM492 1434l696 -697v-20l-717 717h21zM532 1434l656 -656v-20l-676 676 h20zM573 1434l615 -615v-20l-635 635h20zM614 1434l574 -574v-20l-594 594h20zM655 1434l533 -533v-20l-553 553h20zM696 1434l492 -492v-20l-512 512h20zM737 1434l451 -451v-20l-471 471h20zM778 1434l410 -410v-20l-430 430h20zM819 1434l369 -369v-21l-389 390h20z M860 1434l328 -328v-21l-348 349h20zM901 1434l287 -287v-21l-307 308h20zM942 1434l246 -246v-21l-266 267h20zM983 1434l205 -205v-21l-225 226h20zM1024 1434l164 -164v-21l-184 185h20zM1065 1434l123 -123v-21l-144 144h21zM1106 1434l82 -82v-21l-103 103h21z M1147 1434l41 -41v-21l-62 62h21zM1188 1434v-21l-21 21h21z"/>
    <glyph glyph-name="orn015" horiz-adv-x="1351" d="M164 471l962 963h21l-983 -983v20zM164 512l921 922h21l-942 -942v20zM164 553l880 881h21l-901 -902v21zM164 594l840 840h20l-860 -861v21zM164 635l799 799h20l-819 -820v21zM164 676l758 758h20l-778 -779v21zM164 717l717 717h20l-737 -738v21zM164 758l676 676h20 l-696 -697v21zM164 799l635 635h20l-655 -656v21zM164 840l594 594h20l-614 -615v21zM164 881l553 553h20l-573 -574v21zM164 922l512 512h20l-532 -533v21zM164 963l471 471h20l-491 -492v21zM164 1004l430 430h20l-450 -451v21zM164 1044l389 390h20l-409 -410v20z M164 1085l348 349h20l-368 -369v20zM164 1126l307 308h21l-328 -328v20zM164 1167l266 267h21l-287 -287v20zM164 1208l225 226h21l-246 -246v20zM164 1249l184 185h21l-205 -205v20zM164 1290l143 144h21l-164 -164v20zM164 1331l102 103h21l-123 -123v20zM164 1372l61 62 h21l-82 -82v20zM164 1413l20 21h21l-41 -41v20zM1188 1434l-1024 -1024v20l1003 1004h21zM1188 1393l-1024 -1024v20l1024 1024v-20zM1188 1352l-1024 -1024v20l1024 1024v-20zM1188 1311l-1024 -1024v20l1024 1024v-20zM1188 1270l-1024 -1024v20l1024 1024v-20zM1188 1229 l-1024 -1024v20l1024 1024v-20zM1188 1188l-1024 -1024v20l1024 1024v-20zM1188 1147l-1024 -1024v20l1024 1024v-20zM1188 1106l-1024 -1024v20l1024 1024v-20zM1188 1065l-1024 -1024v20l1024 1024v-20zM1188 1024l-1024 -1024v20l1024 1024v-20zM1188 983l-983 -983h-21 l1004 1004v-21zM1188 942l-942 -942h-21l963 963v-21zM1188 901l-901 -901h-21l922 922v-21zM1188 860l-860 -860h-21l881 881v-21zM1188 819l-819 -819h-21l840 840v-21zM1188 778l-778 -778h-21l799 799v-21zM1188 737l-737 -737h-21l758 758v-21zM1188 696l-696 -696h-21 l717 717v-21zM1188 655l-656 -655h-20l676 676v-21zM1188 614l-615 -614h-20l635 635v-21zM1188 573l-574 -573h-20l594 594v-21zM1188 532l-533 -532h-20l553 553v-21zM1188 492l-492 -492h-20l512 512v-20zM1188 451l-451 -451h-20l471 471v-20zM1188 410l-410 -410h-20 l430 430v-20zM1188 369l-369 -369h-20l389 389v-20zM1188 328l-328 -328h-20l348 348v-20zM1188 287l-287 -287h-20l307 307v-20zM1188 246l-246 -246h-20l266 266v-20zM1188 205l-205 -205h-20l225 225v-20zM1188 164l-164 -164h-20l184 184v-20zM1188 123l-123 -123h-21 l144 143v-20zM1188 82l-82 -82h-21l103 102v-20zM1188 41l-41 -41h-21l62 61v-20zM1188 0h-21l21 20v-20z"/>
    <glyph glyph-name="orn016" horiz-adv-x="1351" d="M1188 963l-963 -963h-20l983 983v-20zM1188 922l-922 -922h-20l942 942v-20zM1188 881l-881 -881h-20l901 901v-20zM1188 840l-840 -840h-20l860 860v-20zM1188 799l-799 -799h-20l819 819v-20zM1188 758l-758 -758h-20l778 778v-20zM1188 717l-717 -717h-20l737 737v-20 zM1188 676l-676 -676h-20l696 696v-20zM1188 635l-635 -635h-21l656 655v-20zM1188 594l-594 -594h-21l615 614v-20zM1188 553l-553 -553h-21l574 573v-20zM1188 512l-512 -512h-21l533 532v-20zM1188 471l-471 -471h-21l492 492v-21zM1188 430l-430 -430h-21l451 451v-21z M1188 389l-389 -389h-21l410 410v-21zM1188 348l-348 -348h-21l369 369v-21zM1188 307l-307 -307h-21l328 328v-21zM1188 266l-266 -266h-21l287 287v-21zM1188 225l-225 -225h-21l246 246v-21zM1188 184l-184 -184h-21l205 205v-21zM1188 143l-144 -143h-20l164 164v-21z M1188 102l-103 -102h-20l123 123v-21zM1188 61l-62 -61h-20l82 82v-21zM1188 20l-21 -20h-20l41 41v-21zM164 0l1024 1024v-20l-1004 -1004h-20zM164 41l1024 1024v-21l-1024 -1024v21zM164 82l1024 1024v-21l-1024 -1024v21zM164 123l1024 1024v-21l-1024 -1024v21z M164 164l1024 1024v-21l-1024 -1024v21zM164 205l1024 1024v-21l-1024 -1024v21zM164 246l1024 1024v-21l-1024 -1024v21zM164 287l1024 1024v-21l-1024 -1024v21zM164 328l1024 1024v-21l-1024 -1024v21zM164 369l1024 1024v-21l-1024 -1024v21zM164 410l1024 1024v-21 l-1024 -1024v21zM164 451l983 983h20l-1003 -1004v21zM164 492l942 942h20l-962 -963v21zM164 532l901 902h20l-921 -922v20zM164 573l860 861h20l-880 -881v20zM164 614l819 820h21l-840 -840v20zM164 655l778 779h21l-799 -799v20zM164 696l737 738h21l-758 -758v20z M164 737l696 697h21l-717 -717v20zM164 778l655 656h21l-676 -676v20zM164 819l614 615h21l-635 -635v20zM164 860l573 574h21l-594 -594v20zM164 901l532 533h21l-553 -553v20zM164 942l491 492h21l-512 -512v20zM164 983l450 451h21l-471 -471v20zM164 1024l409 410h21 l-430 -430v20zM164 1065l368 369h21l-389 -390v21zM164 1106l328 328h20l-348 -349v21zM164 1147l287 287h20l-307 -308v21zM164 1188l246 246h20l-266 -267v21zM164 1229l205 205h20l-225 -226v21zM164 1270l164 164h20l-184 -185v21zM164 1311l123 123h20l-143 -144v21z M164 1352l82 82h20l-102 -103v21zM164 1393l41 41h20l-61 -62v21zM164 1434h20l-20 -21v21z"/>
    <glyph glyph-name="uni00AD.case" horiz-adv-x="839" d="M717 645l-21 -20h-553l-20 20v143l20 21h553l21 -21v-143z"/>
    </font>
</defs>
</svg>
